<?xml version="1.0" encoding="utf-8"?>
<!-- Generator: Adobe Illustrator 21.1.0, SVG Export Plug-In . SVG Version: 6.00 Build 0)  -->
<svg version="1.1" id="Layer_4" xmlns="http://www.w3.org/2000/svg" xmlns:xlink="http://www.w3.org/1999/xlink" x="0px" y="0px"
	 viewBox="0 0 1352.6 834.2" style="enable-background:new 0 0 1352.6 834.2;" xml:space="preserve">
<style type="text/css">
	.st0{fill:#9E9E9E;}
	.st1{fill:#F2F2F2;}
	.st2{fill:#29ABE2;}
	.st3{fill:#FFFFFF;}
	.st4{fill:#8CC541;}
	.st5{fill:#652F8F;}
	.st6{fill:#767677;}
	.st7{fill:#BDBDBD;}
	.st8{fill:#FAAF42;}
	.st9{fill:#FCEE21;}
	.st10{fill:#EB2227;}
	.st11{fill:#378F43;}
	.st12{fill:#66BB6A;}
	.st13{fill:#42A047;}
	.st14{fill:#263238;}
	.st15{fill:#455B65;}
	.st16{fill:#3D82C4;}
	.st17{fill:#37474F;}
	.st18{fill:#70B2E2;}
	.st19{fill:#B0BEC5;}
	.st20{fill:#D0D8DC;}
	.st21{fill:#546E7A;}
	.st22{fill:#95C8EC;}
	.st23{fill:#434343;}
	.st24{fill:#616262;}
	.st25{fill:#2B66B1;}
	.st26{fill:#3374BA;}
	.st27{fill:#14499E;}
	.st28{fill:#E0E0E0;}
</style>
<g>
	<g>
		<g>
			<g>
				<g id="XMLID_17_">
					<g>
						<path class="st0" d="M1100.4,26.9v572.8c0,15.3-12.4,27.7-27.7,27.7H691.8v-29.3h338.8c13.9,0,25.1-11.3,25.1-25.1V92.5V53.6
							v-5.9h-0.7c-2.6-11-12.5-19.3-24.4-19.3H621.8V0v-0.8h450.9C1088-0.8,1100.4,11.6,1100.4,26.9z"/>
						<path class="st1" d="M1055.7,92.5V573c0,13.9-11.2,25.1-25.1,25.1H691.8v-3.6c0-15.3-12.4-27.7-27.7-27.7h-10.3
							c9.3-5.9,15.4-16.2,15.4-28V403.2c0-18.4-14.9-33.3-33.3-33.3h-14.1v-34.3h373.7c18.4,0,33.3-14.9,33.3-33.3V146.3
							c0-18.4-14.9-33.3-33.3-33.3H621.8V92.5H1055.7z M1021.5,538.8V403.2c0-18.4-14.9-33.3-33.2-33.3H725.1
							c-18.4,0-33.2,14.9-33.2,33.3v135.6c0,18.4,14.9,33.3,33.2,33.3h263.2C1006.5,572.1,1021.5,557.2,1021.5,538.8z"/>
						<path class="st2" d="M1055.7,53.6v38.9h-434V47.7H1055C1055.5,49.6,1055.7,51.6,1055.7,53.6z"/>
						<path class="st2" d="M1055.7,47.7v5.9c0-2-0.2-4-0.7-5.9H1055.7z"/>
						<path class="st2" d="M1055,47.7H621.8V28.5h408.8C1042.5,28.5,1052.5,36.7,1055,47.7z"/>
						<path class="st3" d="M1028.8,146.3v155.9c0,18.4-14.9,33.3-33.3,33.3H621.8V113h373.7C1013.9,113,1028.8,127.9,1028.8,146.3z"
							/>
						<path class="st3" d="M1021.5,403.2v135.6c0,18.4-14.9,33.3-33.2,33.3H725.1c-18.4,0-33.2-14.9-33.2-33.3V403.2
							c0-18.4,14.9-33.3,33.2-33.3h263.2C1006.5,369.9,1021.5,384.8,1021.5,403.2z M931.1,477.5c0-21-8.5-39.9-22.3-53.6l0.1-0.1
							c-2.6-2.6-5.4-5-8.3-7.1c-6-4.5-12.5-8-19.3-10.5c-0.9-0.4-1.9-0.7-2.8-1c-1.9-0.6-3.8-1.1-5.7-1.6c-1.1-0.2-2.1-0.5-3.1-0.6
							c-1-0.2-1.9-0.4-2.9-0.5c-1.2-0.2-2.5-0.4-3.7-0.5c-0.3-0.1-0.6-0.1-0.9-0.1c-2.3-0.2-4.5-0.4-6.8-0.4h-0.1h-0.1
							c-2.4,0-4.9,0.1-7.3,0.4c-0.1,0-0.3,0-0.4,0.1c-1.3,0.1-2.5,0.3-3.8,0.5c-0.9,0.1-2,0.3-3,0.5c-0.8,0.1-1.6,0.3-2.3,0.5
							c-0.6,0.2-1.4,0.3-2.1,0.5c-1.2,0.3-2.4,0.6-3.6,1c-2.3,0.7-4.7,1.6-7,2.6c-1.1,0.4-2.2,0.9-3.3,1.5c-1.1,0.5-2.2,1-3.3,1.6
							c-1.1,0.6-2.2,1.2-3.3,1.9c-1,0.6-2,1.2-3,1.9c-1,0.6-1.9,1.3-2.9,2.1c-2.9,2.1-5.6,4.5-8.3,7.1v0.1c-2.6,2.6-5,5.4-7.2,8.3
							c-0.8,0.9-1.5,1.9-2.1,2.9c-2.1,3.1-3.9,6.2-5.5,9.5c-1.6,3.3-3,6.8-4.1,10.3c-0.8,2.4-1.4,4.8-1.9,7.3
							c-2.1,10.1-2.1,20.5,0,30.6c0.5,2.4,1.1,4.9,1.9,7.2c1.1,3.5,2.4,7,4.1,10.3c0.5,1.1,1.1,2.2,1.7,3.3c1,1.9,2.1,3.8,3.3,5.6
							c0.8,1.2,1.7,2.5,2.6,3.6c0.7,1,1.5,1.9,2.3,2.9c1.5,1.9,3.1,3.6,4.9,5.4c13.7,13.7,32.7,22.2,53.7,22.2
							C897.1,553.4,931.1,519.5,931.1,477.5z"/>
						<path class="st4" d="M908.8,423.9c13.7,13.7,22.3,32.6,22.3,53.6c0,41.9-34,75.9-75.9,75.9v-75.9L908.8,423.9z"/>
						<path class="st2" d="M908.9,423.9L908.9,423.9c-2.6-2.5-5.4-4.9-8.3-7.1C903.5,418.9,906.3,421.2,908.9,423.9z"/>
						<path class="st2" d="M908.8,423.9l-53.6,53.6v-75.9h0.1c2.3,0,4.6,0.1,6.8,0.4c0.3,0,0.6,0,0.9,0.1c1.2,0.1,2.5,0.3,3.7,0.5
							c1,0.2,1.9,0.3,2.9,0.5c1.1,0.2,2.1,0.4,3.1,0.6c1.9,0.5,3.8,1,5.7,1.6c0.9,0.3,1.9,0.6,2.8,1c6.8,2.5,13.3,5.9,19.3,10.5
							C903.5,418.9,906.3,421.3,908.8,423.9z"/>
						<path class="st2" d="M881.3,406.3c-0.9-0.4-1.9-0.7-2.8-1C879.4,405.6,880.4,406,881.3,406.3z"/>
						<path class="st4" d="M872.8,403.7c-1.1-0.2-2.1-0.5-3.1-0.6C870.7,403.3,871.7,403.5,872.8,403.7z"/>
						<path class="st2" d="M866.7,402.5c-1.2-0.2-2.5-0.4-3.7-0.5C864.3,402.2,865.5,402.4,866.7,402.5z"/>
						<path class="st2" d="M862.1,402c-2.2-0.2-4.5-0.4-6.8-0.4C857.6,401.7,859.8,401.8,862.1,402z"/>
						<path class="st5" d="M855.2,477.5v75.9c-21,0-39.9-8.5-53.7-22.2L855.2,477.5z"/>
						<path class="st2" d="M855.2,401.7v75.9l-53.7,53.7c-1.8-1.8-3.4-3.5-4.9-5.4c-0.8-0.9-1.5-1.9-2.3-2.9
							c-0.9-1.2-1.8-2.4-2.6-3.6c-1.2-1.8-2.3-3.6-3.3-5.6c-0.6-1.1-1.2-2.2-1.7-3.3c-1.6-3.3-3-6.8-4.1-10.3
							c-0.8-2.3-1.4-4.8-1.9-7.2c-1-5-1.5-10.1-1.5-15.3c0-5.2,0.5-10.3,1.5-15.3c0.5-2.5,1.1-4.9,1.9-7.3c1.1-3.5,2.4-7,4.1-10.3
							c1.6-3.3,3.4-6.5,5.5-9.5c0.7-1,1.4-2,2.1-2.9c2.2-2.9,4.6-5.7,7.2-8.3c2.6-2.6,5.3-5,8.3-7.2c0.9-0.7,1.9-1.4,2.9-2.1
							c1-0.6,2-1.3,3-1.9c1.1-0.7,2.2-1.3,3.3-1.9c1.1-0.6,2.2-1.1,3.3-1.6c1.1-0.5,2.2-1.1,3.3-1.5c2.3-1,4.6-1.8,7-2.6
							c1.2-0.4,2.3-0.7,3.6-1c0.7-0.2,1.4-0.4,2.1-0.5c0.8-0.2,1.6-0.4,2.3-0.5c1-0.2,2.1-0.4,3-0.5c1.3-0.2,2.5-0.4,3.8-0.5
							c0.1-0.1,0.3-0.1,0.4-0.1C850.3,401.8,852.7,401.7,855.2,401.7L855.2,401.7z"/>
						<path class="st2" d="M847.9,402c2.4-0.2,4.9-0.4,7.3-0.4C852.7,401.7,850.3,401.8,847.9,402z"/>
						<path class="st2" d="M847.5,402.1c-1.3,0.1-2.5,0.3-3.8,0.5C845,402.4,846.2,402.2,847.5,402.1z"/>
						<path class="st5" d="M840.7,403.1c-0.8,0.1-1.6,0.3-2.3,0.5C839.1,403.4,839.9,403.2,840.7,403.1z"/>
						<path class="st2" d="M836.3,404.1c-1.2,0.3-2.4,0.6-3.6,1C833.9,404.7,835.1,404.4,836.3,404.1z"/>
						<path class="st2" d="M832.7,405.1c-2.4,0.8-4.7,1.6-7,2.6C828,406.7,830.3,405.8,832.7,405.1z"/>
						<path class="st2" d="M825.7,407.7c-1.1,0.5-2.3,1-3.3,1.5C823.5,408.6,824.6,408.1,825.7,407.7z"/>
						<path class="st2" d="M822.4,409.2c-1.1,0.5-2.2,1.1-3.3,1.6C820.2,410.2,821.2,409.7,822.4,409.2z"/>
						<path class="st2" d="M815.8,412.7c-1,0.6-2,1.3-3,1.9C813.8,413.9,814.8,413.3,815.8,412.7z"/>
						<path class="st2" d="M812.8,414.6c-1,0.7-2,1.4-2.9,2.1C810.8,415.9,811.8,415.2,812.8,414.6z"/>
						<path class="st2" d="M801.6,423.9c2.6-2.6,5.4-5,8.3-7.1C806.9,418.9,804.2,421.3,801.6,423.9L801.6,423.9z"/>
						<path class="st0" d="M778,723.5c14.4,0,26.1,11.7,26.1,26.1c0,14.5-11.7,26.2-26.1,26.2H621.8V775v-31.6h42.3
							c12.6,0,23.3-8.4,26.6-19.9H778z"/>
						<path class="st2" d="M801.6,423.9c-2.6,2.6-5,5.3-7.2,8.3C796.5,429.3,798.9,426.6,801.6,423.9z"/>
						<path class="st2" d="M794.4,522.9c0.8,1,1.5,1.9,2.3,2.9C795.9,524.9,795.1,523.9,794.4,522.9z"/>
						<path class="st2" d="M794.4,432.2c-0.7,0.9-1.4,1.9-2.1,2.9C792.9,434.1,793.6,433.1,794.4,432.2z"/>
						<path class="st2" d="M788.5,513.7c1,1.9,2.1,3.8,3.3,5.6C790.6,517.5,789.5,515.6,788.5,513.7z"/>
						<path class="st2" d="M792.3,435.1c-2.1,3.1-3.9,6.2-5.5,9.5C788.4,441.4,790.2,438.2,792.3,435.1z"/>
						<path class="st2" d="M786.8,510.4c0.5,1.1,1.1,2.2,1.7,3.3C787.9,512.6,787.4,511.5,786.8,510.4z"/>
						<path class="st2" d="M782.8,455c-0.8,2.3-1.4,4.8-1.9,7.3C781.4,459.8,782,457.4,782.8,455z"/>
						<path class="st2" d="M780.9,492.9c0.5,2.5,1.1,4.9,1.9,7.2C782,497.7,781.4,495.3,780.9,492.9z"/>
						<path class="st2" d="M780.9,462.3c-1,4.9-1.5,10-1.5,15.3c0,5.2,0.5,10.3,1.5,15.3C778.8,482.8,778.8,472.4,780.9,462.3z"/>
						<path class="st6" d="M691.8,627.4v88.4c0,2.7-0.4,5.3-1.1,7.8h-68.9v-96.1H691.8z"/>
						<rect x="621.8" y="598.1" class="st0" width="70" height="29.3"/>
						<path class="st1" d="M691.8,594.5v3.6h-70v-26h14.1c6.6,0,12.7-1.9,17.9-5.3h10.3C679.4,566.8,691.8,579.3,691.8,594.5z"/>
						<path class="st0" d="M621.8,723.5h68.9c-3.3,11.5-14,19.9-26.6,19.9h-42.3V723.5z"/>
						<path class="st3" d="M669.2,403.2v135.6c0,11.8-6.1,22.1-15.4,28h-32V369.9h14.1C654.3,369.9,669.2,384.8,669.2,403.2z"/>
						<path class="st3" d="M621.8,566.8h32c-5.2,3.3-11.3,5.3-17.9,5.3h-14.1V566.8z"/>
						<path class="st7" d="M621.8,775v0.8H465.6c-14.4,0-26.1-11.7-26.1-26.2c0-7.2,2.9-13.7,7.6-18.5c4.8-4.7,11.3-7.6,18.5-7.6
							h87.3c3.3,11.5,14,19.9,26.5,19.9h42.3V775z"/>
						<path class="st7" d="M621.8,723.5v19.9h-42.3c-12.6,0-23.2-8.4-26.5-19.9H621.8z"/>
						<path class="st0" d="M621.8,627.4v96.1h-68.9c-0.7-2.5-1.1-5-1.1-7.8v-88.4H621.8z"/>
						<rect x="551.8" y="598.1" class="st7" width="70" height="29.3"/>
						<path class="st1" d="M621.8,572.1v26h-70v-3.6c0-9.2,4.5-17.4,11.5-22.4H621.8z"/>
						<path class="st3" d="M621.8,566.8v5.3h-58.5c4.5-3.3,10.1-5.3,16.1-5.3H621.8z"/>
						<path class="st3" d="M621.8,369.9v196.9h-42.3c-6,0-11.6,1.9-16.1,5.3H372.8c-18.4,0-33.3-14.9-33.3-33.3V403.2
							c0-18.4,14.9-33.3,33.3-33.3H621.8z M578.7,477.5c0-2.4-0.1-4.9-0.4-7.3c0-0.2,0-0.3-0.1-0.5c-0.1-1.3-0.3-2.5-0.5-3.8
							c-0.2-0.9-0.3-1.9-0.5-2.9c-0.2-0.9-0.4-1.9-0.6-2.8c-1.2-5-2.8-9.9-5-14.6c-0.4-1-0.9-1.9-1.4-2.8c-1.8-3.7-4.1-7.2-6.6-10.6
							c-0.7-1-1.4-1.9-2.2-2.9c-1.5-1.9-3.1-3.6-4.9-5.4c-13.7-13.7-32.7-22.2-53.7-22.2c-41.9,0-75.9,33.9-75.9,75.9
							c0,21,8.5,39.9,22.2,53.7c1.8,1.8,3.5,3.4,5.4,4.9c1.9,1.6,3.8,3.1,5.8,4.3c2.1,1.4,4.2,2.7,6.3,3.8c1.1,0.6,2.2,1.2,3.3,1.7
							c1.1,0.6,2.2,1.1,3.3,1.5c1.1,0.6,2.3,1,3.5,1.4c3.5,1.4,7.1,2.3,10.7,3.1c10.1,2.1,20.6,2.1,30.6,0c3.6-0.7,7.2-1.7,10.7-3.1
							c1.2-0.4,2.3-0.8,3.5-1.4c1.1-0.4,2.2-0.9,3.3-1.5c1.1-0.5,2.2-1.1,3.3-1.7c2.1-1.1,4.2-2.4,6.3-3.8c2-1.3,3.9-2.8,5.8-4.3
							c1.9-1.5,3.6-3.1,5.4-4.9c1.8-1.8,3.3-3.5,4.9-5.4c0.8-0.9,1.5-1.9,2.2-2.9c2.6-3.4,4.8-6.9,6.6-10.6c0.5-0.9,1-1.8,1.4-2.8
							c2.2-4.7,3.9-9.6,5-14.6c0.2-0.9,0.4-1.9,0.6-2.8c0.2-1,0.4-2,0.5-2.9c0.2-1.3,0.4-2.5,0.5-3.8c0.1-0.2,0.1-0.3,0.1-0.5
							C578.6,482.4,578.7,479.9,578.7,477.5z"/>
						<path class="st1" d="M621.8,335.6v34.3h-249c-18.4,0-33.3,14.9-33.3,33.3v135.6c0,18.4,14.9,33.3,33.3,33.3h190.5
							c-7,5-11.5,13.2-11.5,22.4v3.6H309.5v-31.3V546v-38.2V92.5h312.2V113h-254c-18.4,0-33.3,14.9-33.3,33.3v155.9
							c0,18.4,14.9,33.3,33.3,33.3H621.8z"/>
						<path class="st3" d="M621.8,113v222.5h-254c-18.4,0-33.3-14.9-33.3-33.3V146.3c0-18.4,14.9-33.3,33.3-33.3H621.8z"/>
						<path class="st2" d="M621.8,47.7v44.7H309.5H187.8V53.6c0-2,0.2-4,0.7-5.9H621.8z"/>
						<path class="st2" d="M621.8,28.5v19.3H188.5c2.6-11,12.5-19.3,24.4-19.3H621.8z"/>
						<path class="st7" d="M621.8,0v28.5H213c-11.9,0-21.8,8.2-24.4,19.3h-0.7v5.9v38.9v474.4v6.2c0,13.9,11.2,25.1,25.1,25.1h7.6
							h42h47h242.3v29.3H170.9c-15.3,0-27.7-12.4-27.7-27.7V26.9c0-15.3,12.4-27.7,27.7-27.7h450.9V0z"/>
						<path class="st8" d="M578.4,470.2c0.2,2.4,0.4,4.9,0.4,7.3C578.7,475.1,578.6,472.7,578.4,470.2z"/>
						<path class="st8" d="M578.7,477.5c0,2.4-0.1,4.9-0.4,7.3C578.6,482.4,578.7,480,578.7,477.5z"/>
						<path class="st8" d="M578.4,470.2c0.2,2.4,0.4,4.8,0.4,7.3c0,2.5-0.1,4.9-0.4,7.3c0,0.2,0,0.3-0.1,0.5
							c-0.1,1.3-0.3,2.5-0.5,3.8c-0.2,0.9-0.3,1.9-0.5,2.9c-0.2,0.9-0.4,1.9-0.6,2.8c-1.2,5-2.8,9.9-5,14.6
							c-0.4,0.9-0.9,1.9-1.4,2.8c-1.8,3.7-4.1,7.2-6.6,10.6c-0.7,1-1.5,1.9-2.2,2.9c-1.5,1.9-3.1,3.6-4.9,5.4
							c-1.8,1.8-3.5,3.4-5.4,4.9c-1.9,1.5-3.8,3-5.8,4.3c-2.1,1.4-4.1,2.6-6.3,3.8c-1.1,0.6-2.2,1.1-3.3,1.7c-1.1,0.5-2.2,1-3.3,1.5
							c-1.1,0.5-2.3,0.9-3.5,1.4c-3.5,1.2-7,2.3-10.7,3.1c-5,1-10.1,1.5-15.3,1.5v-75.9l53.7-53.7c1.8,1.8,3.3,3.5,4.9,5.4
							c0.8,0.9,1.5,1.9,2.2,2.9c2.6,3.4,4.8,6.9,6.6,10.6c0.5,0.9,1,1.9,1.4,2.8c2.2,4.7,3.9,9.6,5,14.6c0.2,0.9,0.4,1.9,0.6,2.8
							c0.2,1,0.4,2,0.5,2.9c0.2,1.3,0.4,2.5,0.5,3.8C578.4,470,578.4,470.1,578.4,470.2z"/>
						<path class="st8" d="M578.3,469.8c-0.1-1.3-0.3-2.5-0.5-3.8C578,467.3,578.2,468.5,578.3,469.8z"/>
						<path class="st8" d="M577.9,489.1c0.2-1.3,0.4-2.5,0.5-3.8C578.2,486.6,578,487.8,577.9,489.1z"/>
						<path class="st9" d="M577.3,463c-0.2-0.9-0.4-1.9-0.6-2.8C577,461.1,577.2,462.1,577.3,463z"/>
						<path class="st9" d="M576.7,494.8c0.2-0.9,0.4-1.9,0.6-2.8C577.2,493,577,493.9,576.7,494.8z"/>
						<path class="st9" d="M571.7,445.6c-0.4-0.9-0.9-1.9-1.4-2.8C570.8,443.6,571.3,444.6,571.7,445.6z"/>
						<path class="st9" d="M570.3,512.3c0.5-0.9,1-1.9,1.4-2.8C571.3,510.5,570.8,511.4,570.3,512.3z"/>
						<path class="st8" d="M563.7,432.1c-0.7-1-1.5-1.9-2.2-2.9C562.2,430.2,563,431.1,563.7,432.1z"/>
						<path class="st8" d="M561.4,525.8c0.8-0.9,1.5-1.9,2.2-2.9C563,523.9,562.2,524.9,561.4,525.8z"/>
						<path class="st9" d="M556.6,423.9l-53.7,53.7v-75.9C523.8,401.7,542.8,410.2,556.6,423.9z"/>
						<path class="st8" d="M545.3,540.4c2-1.4,3.9-2.8,5.8-4.3C549.3,537.7,547.3,539.1,545.3,540.4z"/>
						<path class="st8" d="M539.1,544.2c2.2-1.2,4.2-2.4,6.3-3.8C543.3,541.8,541.2,543.1,539.1,544.2z"/>
						<path class="st8" d="M535.8,545.9c1.1-0.6,2.2-1.1,3.3-1.7C538,544.9,536.9,545.5,535.8,545.9z"/>
						<path class="st8" d="M532.4,547.4c1.1-0.5,2.3-0.9,3.3-1.5C534.7,546.5,533.5,547,532.4,547.4z"/>
						<path class="st8" d="M529,548.8c1.2-0.5,2.3-0.9,3.5-1.4C531.3,548,530.1,548.4,529,548.8z"/>
						<path class="st8" d="M518.2,551.9c3.7-0.8,7.3-1.8,10.7-3.1C525.4,550.2,521.9,551.2,518.2,551.9z"/>
						<path class="st8" d="M502.9,553.4c5.2,0,10.3-0.5,15.3-1.5c-10.1,2.1-20.6,2.1-30.6,0C492.6,552.9,497.7,553.4,502.9,553.4z"
							/>
						<path class="st8" d="M502.9,477.5v75.9c-5.2,0-10.3-0.5-15.3-1.5c-3.7-0.8-7.3-1.8-10.7-3.1c-1.2-0.5-2.3-0.9-3.5-1.4
							c-1.1-0.5-2.3-0.9-3.3-1.5c-1.1-0.6-2.2-1.1-3.3-1.7c-2.2-1.2-4.2-2.4-6.3-3.8c-2-1.4-3.9-2.8-5.8-4.3
							c-1.9-1.5-3.6-3.1-5.4-4.9L502.9,477.5z"/>
						<path class="st10" d="M502.9,401.7v75.9l-53.7,53.7c-13.7-13.7-22.2-32.7-22.2-53.7C427,435.6,461,401.7,502.9,401.7z"/>
						<path class="st8" d="M476.8,548.8c3.5,1.2,7,2.3,10.7,3.1C483.9,551.2,480.3,550.2,476.8,548.8z"/>
						<path class="st8" d="M473.4,547.4c1.1,0.5,2.3,0.9,3.5,1.4C475.6,548.4,474.5,548,473.4,547.4z"/>
						<path class="st8" d="M470,545.9c1.1,0.5,2.2,1,3.3,1.5C472.2,547,471.1,546.5,470,545.9z"/>
						<path class="st8" d="M466.7,544.2c1.1,0.6,2.2,1.1,3.3,1.7C468.9,545.5,467.8,544.9,466.7,544.2z"/>
						<path class="st8" d="M460.4,540.4c2.1,1.4,4.1,2.6,6.3,3.8C464.6,543.1,462.5,541.8,460.4,540.4z"/>
						<path class="st8" d="M454.6,536.1c1.9,1.5,3.8,3,5.8,4.3C458.4,539.1,456.5,537.7,454.6,536.1z"/>
						<rect x="262.6" y="566.8" class="st3" width="47" height="31.3"/>
						<rect x="262.6" y="546" class="st3" width="47" height="20.8"/>
						<rect x="262.6" y="507.9" class="st3" width="47" height="38.2"/>
						<polygon class="st3" points="309.5,92.5 309.5,507.9 262.6,507.9 262.6,546 220.6,546 220.6,566.8 187.8,566.8 187.8,92.5 
													"/>
						<rect x="220.6" y="566.8" class="st3" width="42" height="31.3"/>
						<rect x="220.6" y="546" class="st3" width="42" height="20.8"/>
						<path class="st3" d="M220.6,566.8v31.3H213c-13.9,0-25.1-11.3-25.1-25.1v-6.2H220.6z"/>
						<path class="st2" d="M187.8,47.7h0.7c-0.5,1.9-0.7,3.9-0.7,5.9V47.7z"/>
					</g>
					<g>
					</g>
				</g>
			</g>
		</g>
	</g>
	<rect x="187.8" y="92.5" class="st11" width="121.7" height="223.8"/>
	<g>
		<g id="XMLID_1_">
			<g>
				<path class="st12" d="M927.4,386.6h-18.8v-26.9h19c-0.1,0.8-0.1,1.6-0.1,2.4V386.6z"/>
				<path class="st13" d="M980.4,511.6h-29.4c-4,0-7.8-1-11.1-2.8c10-4.7,17-14.9,17-26.7h47.1v5.9
					C1003.9,501,993.4,511.6,980.4,511.6z"/>
				<path class="st13" d="M1307.7,359.6v19.1h-7.9c-8.3,0-15-6.7-15-15c0-1.4,0.2-2.8,0.6-4.1H1307.7z"/>
				<path class="st14" d="M1302.5,483.2v27.9c-13.8-2.5-24.2-14.5-24.2-29h24.1C1302.5,482.5,1302.5,482.8,1302.5,483.2z"/>
				<path class="st15" d="M1325.4,505.7v92.9c0,6.5-5.3,11.8-11.8,11.8h-197.2v-23.5h97.2h33h45.5c5.8,0,10.5-4.7,10.5-10.5v-65.3
					c1.7,0.3,3.5,0.5,5.3,0.5C1314.4,511.6,1320.5,509.4,1325.4,505.7z"/>
				<path class="st11" d="M1144.6,432.7c13,0,23.6-10.5,23.6-23.6v-3.3h72.4v10.4c0,13,10.5,23.6,23.6,23.6h5.9v33H1137v-40H1144.6z
					"/>
				<path class="st11" d="M1246.5,565.7c13,0,23.6-10.5,23.6-23.6v21.1c0,13-10.5,23.6-23.6,23.6h-33c-12.2,0-22.2-9.3-23.4-21.1
					H1246.5z"/>
				<rect x="1240.6" y="359.6" class="st13" width="29.4" height="26.9"/>
				<path class="st16" d="M927.4,386.6h2.7c-0.8,0.7-1.8,1.4-2.7,2V386.6z"/>
				<path class="st17" d="M913.8,456c3.4,4.2,8.1,7.2,13.6,8.3v17.8h-7.1c-6.5,0-11.8,5.3-11.8,11.8v10.8
					c-6.5-5.4-10.6-13.5-10.6-22.6C897.9,470.7,904.4,460.9,913.8,456z"/>
				<polygon class="st12" points="1097.5,405.8 1097.5,404.1 1097.5,386.6 1116.4,386.6 1116.4,405.8 				"/>
				<path class="st13" d="M1026.3,450.9h-18.8c-1.2,0-2.4-0.1-3.5-0.3v-44.9h45.9v21.6C1049.8,440.4,1039.3,450.9,1026.3,450.9z"/>
				<path class="st18" d="M1270.1,513.9v-31.8h8.2c0,14.5,10.4,26.5,24.2,29v65.3c0,5.8-4.7,10.5-10.5,10.5h-45.5
					c13,0,23.6-10.5,23.6-23.6v-21.1V513.9z"/>
				<path class="st18" d="M1325.4,505.7c7.1-5.4,11.8-13.9,11.8-23.6h3.5v340.3c0,6.5-5.3,11.8-11.8,11.8h-212.6V610.4h197.2
					c6.5,0,11.8-5.3,11.8-11.8V505.7z"/>
				<path class="st13" d="M1003.9,472.7h-48.7c-1.4-4.1-3.6-7.8-6.5-10.8c7.3-4,12.2-11.7,12.2-20.6v-35.4h23v21.6
					c0,11.8,8.7,21.6,20,23.3V472.7z"/>
				<path class="st19" d="M1340.7,359.6c6.5,0,11.8,5.3,11.8,11.8V394c0,6.5-5.3,11.8-11.8,11.8v-7.5c0-6.5-5.3-11.8-11.8-11.8
					h-21.2v-7.8h14.4c8.3,0,15-6.7,15-15c0-1.4-0.2-2.8-0.6-4.1H1340.7z"/>
				<path class="st12" d="M960.9,386.6h-30.9c5.2-4.3,8.5-10.8,8.5-18.1v-8.8h22.4V386.6z"/>
				<path class="st14" d="M1302.4,482.1h-24.1c0-3.3,0.5-6.5,1.6-9.4h12.2C1297.5,472.7,1301.9,476.8,1302.4,482.1z"/>
				<rect x="1097.5" y="359.6" class="st12" width="18.8" height="26.9"/>
				<path class="st12" d="M892,359.6h16.5v26.9H905c-1.6,0-3.1,0.3-4.5,0.9c-5.8-4.3-9.6-11.2-9.6-19v-8.8
					C891.3,359.7,891.6,359.6,892,359.6z"/>
				<path class="st18" d="M1270.1,482.1v-9.4h9.8c-1,3-1.6,6.1-1.6,9.4H1270.1z"/>
				<path class="st19" d="M1340.7,405.8h-33v-19.2h21.2c6.5,0,11.8,5.3,11.8,11.8V405.8z"/>
				<path class="st20" d="M1097.5,404.1v1.7h-0.1C1097.5,405.2,1097.5,404.7,1097.5,404.1z"/>
				<rect x="1240.6" y="386.6" class="st13" width="29.4" height="19.2"/>
				<path class="st21" d="M931.5,482.1c0,0.3-0.1,0.7-0.1,1v18.1c-2.6-3.8-4.1-8.3-4.1-13.2v-5.9H931.5z"/>
				<path class="st13" d="M1003.9,405.8v44.9c-11.3-1.7-20-11.5-20-23.3v-21.6H1003.9z"/>
				<path class="st12" d="M1003.9,386.6h-20v-26.9h19.9c0.1,0.8,0.1,1.6,0.1,2.4V386.6z"/>
				<path class="st12" d="M1049.8,386.6h47.7v17.5c0-6.7-5.4-12.1-12.1-12.1h-23.6c-3.3,0-6.3,1.4-8.5,3.5c-2.2,2.2-3.5,5.2-3.5,8.5
					V386.6z"/>
				<path class="st11" d="M1270.1,405.8h37.7v10.4c0,13-10.5,23.6-23.6,23.6h-14.1V405.8z"/>
				<polygon class="st12" points="1049.8,405.8 1003.9,405.8 1003.9,386.6 1049.8,386.6 1049.8,404.1 				"/>
				<path class="st11" d="M1270.1,482.1v31.8c0-13-10.5-23.6-23.6-23.6h-33c-13,0-23.6,10.5-23.6,23.6v49.4c0,0.8,0,1.6,0.1,2.4
					h-29.6c-13,0-23.6-10.5-23.6-23.6v-60.1H1270.1z"/>
				<path class="st13" d="M1116.4,432.2c-10.8-2.2-18.8-11.7-18.8-23.1v-3.3h18.8V432.2z"/>
				<path class="st11" d="M1137,432.7h-15.9c-1.6,0-3.2-0.2-4.7-0.5v-26.4h20.6V432.7z"/>
				<path class="st20" d="M908.5,391.3v14.5h-15.3v-7.5c0-4.9,3-9.1,7.3-10.9C902.9,389.2,905.6,390.5,908.5,391.3z"/>
				<path class="st11" d="M1270.1,405.8v33.9h-5.9c-13,0-23.6-10.5-23.6-23.6v-10.4H1270.1z"/>
				<path class="st21" d="M1116.4,610.4H920.3c-6.5,0-11.8-5.3-11.8-11.8v-93.9c5.1,4.3,11.7,6.8,18.8,6.8c1.4,0,2.7-0.1,4.1-0.3
					v65.1c0,5.8,4.7,10.5,10.5,10.5h174.5V610.4z"/>
				<path class="st12" d="M927.4,452.7c8.4,0,16,3.5,21.3,9.2c-3.4,1.9-7.2,2.9-11.3,2.9h-5.3c-1.6,0-3.2-0.2-4.7-0.5V452.7z"/>
				<path class="st18" d="M1213.5,586.8h-97.2V482.1h20.6v60.1c0,13,10.5,23.6,23.6,23.6h29.6
					C1191.3,577.6,1201.3,586.8,1213.5,586.8z"/>
				<path class="st14" d="M1307.7,452.7c16.3,0,29.4,13.2,29.4,29.4c0,9.6-4.6,18.2-11.8,23.6v-11.8c0-6.5-5.3-11.8-11.8-11.8h-11.2
					c-0.5-5.3-5-9.4-10.4-9.4h-12.2C1283.8,461,1294.8,452.7,1307.7,452.7z"/>
				<path class="st13" d="M1003.9,482.1h-47.1c0-3.3-0.5-6.5-1.6-9.4h48.7V482.1z"/>
				<path class="st22" d="M1007.5,450.9h18.8c13,0,23.6-10.6,23.6-23.6v-21.6h0.1c0.8,5.9,5.9,10.4,12,10.4h23.6
					c6.1,0,11.1-4.5,12-10.4h0.1v3.3c0,11.4,8.1,20.9,18.8,23.1v40.5h-112.5v-22C1005.1,450.8,1006.3,450.9,1007.5,450.9z"/>
				<rect x="1116.4" y="386.6" class="st13" width="20.6" height="19.2"/>
				<path class="st12" d="M927.4,452.7v11.6c-5.5-1.1-10.2-4.1-13.6-8.3C917.8,453.9,922.5,452.7,927.4,452.7z"/>
				<rect x="960.9" y="359.6" class="st12" width="23" height="26.9"/>
				<path class="st13" d="M908.5,405.8h18.8v46.9c-4.9,0-9.5,1.2-13.6,3.3c-3.3-4-5.3-9.2-5.3-14.8V405.8z"/>
				<rect x="1137" y="386.6" class="st13" width="31.2" height="19.2"/>
				<rect x="983.9" y="386.6" class="st12" width="20" height="19.2"/>
				<path class="st18" d="M1137,472.7h-20.6v-40.5c1.5,0.3,3.1,0.5,4.7,0.5h15.9V472.7z"/>
				<path class="st12" d="M908.5,386.6v4.7c-2.9-0.8-5.7-2.1-8-3.8c1.4-0.6,2.9-0.9,4.5-0.9H908.5z"/>
				<rect x="1168.2" y="359.6" class="st13" width="72.4" height="26.9"/>
				<path class="st12" d="M930.1,386.6h30.9v19.2h-33.6v-17.3C928.3,387.9,929.2,387.3,930.1,386.6z"/>
				<rect x="1003.9" y="472.7" class="st22" width="112.5" height="9.4"/>
				<path class="st12" d="M948.7,461.8c2.9,3.1,5.2,6.7,6.5,10.8h-13.3c-5.4,0-9.9,4.1-10.4,9.4h-4.1v-17.8c1.5,0.3,3.1,0.5,4.7,0.5
					h5.3C941.5,464.7,945.4,463.7,948.7,461.8z"/>
				<path class="st12" d="M927.4,405.8h-18.8v-14.5c1.9,0.5,3.9,0.7,5.9,0.7h0.6c4.5,0,8.8-1.3,12.4-3.5V405.8z"/>
				<path class="st21" d="M931.4,501.2v10c-1.3,0.2-2.7,0.3-4.1,0.3c-7.2,0-13.7-2.6-18.8-6.8v-10.8c0-6.5,5.3-11.8,11.8-11.8h7.1
					v5.9C927.4,492.9,928.9,497.5,931.4,501.2z"/>
				<path class="st12" d="M955.3,472.7c1,3,1.6,6.1,1.6,9.4h-25.3c0.5-5.3,5-9.4,10.4-9.4H955.3z"/>
				<path class="st18" d="M1307.7,405.8h33v76.3h-3.5c0-16.3-13.2-29.4-29.4-29.4c-13,0-24,8.4-27.9,20h-9.8v-33h14.1
					c13,0,23.6-10.5,23.6-23.6V405.8z"/>
				<path class="st20" d="M890.9,368.5c0,7.8,3.8,14.7,9.6,19c-4.3,1.8-7.3,6-7.3,10.9v7.5H892c-6.5,0-11.8-5.3-11.8-11.8v-22.6
					c0-6.1,4.7-11.1,10.6-11.7V368.5z"/>
				<rect x="1137" y="359.6" class="st13" width="31.2" height="26.9"/>
				<path class="st12" d="M930.1,386.6h-2.7V362c0-0.8,0-1.6,0.1-2.4h11.1v8.8C938.6,375.8,935.3,382.3,930.1,386.6z"/>
				<rect x="1116.4" y="472.7" class="st18" width="20.6" height="9.4"/>
				<path class="st17" d="M931.4,511.3v-10c2.1,3.1,5,5.7,8.4,7.5C937.2,510,934.4,510.9,931.4,511.3z"/>
				<rect x="1116.4" y="359.6" class="st13" width="20.6" height="26.9"/>
				<path class="st12" d="M908.5,386.6h18.8v2c-3.6,2.2-7.8,3.5-12.4,3.5h-0.6c-2,0-4-0.3-5.9-0.7V386.6z"/>
				<path class="st11" d="M1213.5,490.4h33c13,0,23.6,10.5,23.6,23.6v28.3c0,13-10.5,23.6-23.6,23.6h-56.4c-0.1-0.8-0.1-1.6-0.1-2.4
					v-49.4C1190,500.9,1200.5,490.4,1213.5,490.4z"/>
				<path class="st11" d="M1168.2,409.1c0,13-10.5,23.6-23.6,23.6h-7.7v-26.9h31.2V409.1z"/>
				<rect x="960.9" y="386.6" class="st12" width="23" height="19.2"/>
				<path class="st12" d="M1049.8,386.6h-45.9V362c0-0.8,0-1.6-0.1-2.4h46V386.6z"/>
				<path class="st13" d="M1322.2,378.8h-14.4v-19.1h28.9c0.4,1.3,0.6,2.7,0.6,4.1C1337.2,372.1,1330.5,378.8,1322.2,378.8z"/>
				<path class="st12" d="M931.5,482.1h25.3c0,11.8-6.9,22-17,26.7c-3.4-1.8-6.3-4.4-8.4-7.5v-18.1
					C931.4,482.8,931.5,482.5,931.5,482.1z"/>
				<path class="st15" d="M1313.6,482.1c6.5,0,11.8,5.3,11.8,11.8v11.8c-4.9,3.7-11,5.9-17.7,5.9c-1.8,0-3.5-0.2-5.3-0.5v-27.9
					c0-0.4,0-0.7-0.1-1H1313.6z"/>
				<path class="st20" d="M1049.8,405.8v-1.7c0,0.6,0,1.1,0.1,1.7H1049.8z"/>
				<rect x="1270.1" y="386.6" class="st13" width="37.7" height="19.2"/>
				<path class="st13" d="M1307.7,386.6h-37.7v-26.9h15.3c-0.4,1.3-0.6,2.7-0.6,4.1c0,8.3,6.7,15,15,15h7.9V386.6z"/>
				<rect x="1168.2" y="386.6" class="st13" width="72.4" height="19.2"/>
				<rect x="1049.8" y="359.6" class="st12" width="47.7" height="26.9"/>
				<path class="st20" d="M1050,405.8c-0.1-0.6-0.1-1.1-0.1-1.7c0-3.3,1.4-6.3,3.5-8.5c2.2-2.2,5.2-3.5,8.5-3.5h23.6
					c6.7,0,12.1,5.4,12.1,12.1c0,0.6,0,1.1-0.1,1.7H1050z"/>
				<path class="st13" d="M960.9,441.2c0,8.9-4.9,16.7-12.2,20.6c-5.4-5.6-12.9-9.2-21.3-9.2v-46.9h33.6V441.2z"/>
				<rect x="1137" y="472.7" class="st11" width="133.1" height="9.4"/>
				<path class="st22" d="M1116.4,834.2H905c-6.5,0-11.8-5.3-11.8-11.8V405.8h15.3v35.4c0,5.6,2,10.8,5.3,14.8
					c-9.4,4.9-15.9,14.7-15.9,26.1c0,9.1,4.1,17.2,10.6,22.6v93.9c0,6.5,5.3,11.8,11.8,11.8h196.1V834.2z"/>
				<path class="st22" d="M1050,405.8h47.5c-0.8,5.9-5.9,10.4-12,10.4h-23.6C1055.8,416.2,1050.8,411.7,1050,405.8z"/>
				<path class="st22" d="M1116.4,586.8H941.9c-5.8,0-10.5-4.7-10.5-10.5v-65.1c3-0.4,5.8-1.2,8.4-2.5c3.3,1.8,7.1,2.8,11.1,2.8
					h29.4c13,0,23.6-10.5,23.6-23.6v-5.9h112.5V586.8z"/>
			</g>
			<g>
			</g>
		</g>
	</g>
	<g id="XMLID_2_">
		<g>
			<path class="st23" d="M240.6,303.8c-4.4,3.8-10.7,4.1-14.6,0.4l-5.4-5.2l-45.3,47.5l60,57.3l42.9-44.9
				c-11.4,12-29.4,13.3-40.1,3.1l-8.3-7.9c-10.7-10.3-10.2-28.2,1.2-40.2l7.1-7.5c0.8-0.9,1.7-1.7,2.6-2.5L240.6,303.8z"/>
			<path class="st24" d="M195.2,258.9c-4.4,4.6-4.6,11.5-0.5,15.5l25.8,24.7l15.9-16.6l-25.8-24.7c-2.1-2-4.8-2.8-7.6-2.6
				C200.2,255.3,197.4,256.6,195.2,258.9z"/>
			<path class="st13" d="M240.7,304c11.4-9.7,27.6-10.1,37.5-0.6l8.3,7.9c10.7,10.3,10.2,28.3-1.2,40.2l15.3-16.1
				c11.4-12,12-30,1.2-40.2l-40.6-38.7l-24.8,25.9l5.4,5.2c4.1,3.9,3.9,10.9-0.5,15.4c-0.3,0.3-0.6,0.6-0.8,0.8L240.7,304z"/>
			
				<rect x="189.3" y="340.5" transform="matrix(0.6905 -0.7234 0.7234 0.6905 -214.8291 262.0171)" class="st7" width="18.9" height="83"/>
			<path class="st25" d="M162.2,360.2l-8,8.4c10.3,9.9,10.7,26.2,0.9,36.6l-2.7,2.8l21.9,20.9c10.7,10.3,28.7,8.9,40.1-3.1l7.9-8.3
				L162.2,360.2z"/>
			<path class="st26" d="M114.9,372.3l18.7,17.9l20.5-21.5c-5.2-4.9-11.8-7.3-18.5-7.1c-6.6,0.2-13.2,2.8-18.1,8L114.9,372.3z"/>
			<path class="st24" d="M194.8,274.4c-4.1-3.9-3.9-10.9,0.5-15.5l-9.9,10.4c-3.9,4.1-8.9,6.3-13.8,6.7c-4.9,0.4-9.8-1.1-13.5-4.6
				c-7.3-7-6.9-19.2,0.8-27.4l17.8-18.7l-0.2-0.2l-61.2,64.1l60,57.3l45.3-47.5L194.8,274.4z"/>
			<path class="st27" d="M152.4,408l-18.7-17.9L8.8,520.9l-0.9,0.9c5.2,4.9,11.8,7.3,18.4,7.1c6.6-0.2,13.2-2.8,18.1-8L152.4,408z"
				/>
			
				<rect x="129.2" y="283.2" transform="matrix(0.6904 -0.7234 0.7234 0.6904 -191.9597 200.8467)" class="st28" width="18.9" height="83"/>
			<path class="st25" d="M155,405.2c9.9-10.3,9.5-26.7-0.9-36.6l-20.5,21.5l18.7,17.9L155,405.2z"/>
			<path class="st12" d="M203,255.1c2.8-0.2,5.5,0.6,7.6,2.6l25.8,24.7l24.8-25.9l-40.6-38.7c-10.7-10.3-28.7-8.9-40.1,3.1l-4.1,4.3
				l0.2,0.2c3.9-4.1,8.9-6.3,13.8-6.7c4.9-0.4,9.8,1.1,13.5,4.6c7.3,7,6.9,19.3-0.8,27.4l-7.9,8.3
				C197.4,256.6,200.2,255.3,203,255.1z"/>
			<path class="st23" d="M226,304.2c3.9,3.7,10.2,3.4,14.6-0.4c0.3-0.3,0.6-0.5,0.8-0.8c4.4-4.6,4.6-11.5,0.5-15.4l-5.4-5.2
				L220.6,299L226,304.2z"/>
			<path class="st26" d="M154.2,368.6l8-8.4l-60-57.3l-7.9,8.3c-11.4,12-12,30-1.2,40.2l21.9,20.9l2.7-2.8c4.9-5.2,11.5-7.8,18.1-8
				C142.3,361.3,149,363.7,154.2,368.6z"/>
			<path class="st25" d="M7.1,485.3c-9.9,10.3-9.5,26.7,0.9,36.6c0,0,0,0,0,0l0.9-0.9l124.9-130.8l-18.7-17.9L7.1,485.3z"/>
			<path class="st13" d="M238,362c10.7,10.3,28.7,8.9,40.1-3.1l7.1-7.5c11.4-12,12-30,1.2-40.2l-8.3-7.9c-10-9.5-26.1-9-37.5,0.6
				c-0.9,0.8-1.8,1.6-2.6,2.5l-7.1,7.5c-11.4,12-12,30-1.2,40.2L238,362z"/>
			<path class="st12" d="M171.5,276c4.9-0.4,10-2.7,13.8-6.7l9.9-10.4l7.9-8.3c7.8-8.1,8.2-20.4,0.8-27.4c-3.7-3.5-8.5-5-13.5-4.6
				c-4.9,0.4-9.9,2.7-13.8,6.7L158.9,244c-7.8,8.1-8.2,20.4-0.8,27.4C161.7,274.9,166.6,276.4,171.5,276z"/>
		</g>
		<g>
		</g>
	</g>
</g>
<g>
	<g>
		<g>
			<g>
				<g id="XMLID_5_">
					<g>
						<path class="st0" d="M1100.5,26.9v572.8c0,15.3-12.4,27.7-27.7,27.7H691.9v-29.3h338.8c13.9,0,25.1-11.3,25.1-25.1V92.5V53.6
							v-5.9h-0.7c-2.6-11-12.5-19.3-24.4-19.3H621.9V0v-0.8h450.9C1088.1-0.8,1100.5,11.6,1100.5,26.9z"/>
						<path class="st1" d="M1055.8,92.5V573c0,13.9-11.2,25.1-25.1,25.1H691.9v-3.6c0-15.3-12.4-27.7-27.7-27.7h-10.3
							c9.3-5.9,15.4-16.2,15.4-28V403.2c0-18.4-14.9-33.3-33.3-33.3h-14.1v-34.3h373.7c18.4,0,33.3-14.9,33.3-33.3V146.3
							c0-18.4-14.9-33.3-33.3-33.3H621.9V92.5H1055.8z M1021.6,538.8V403.2c0-18.4-14.9-33.3-33.2-33.3H725.2
							c-18.4,0-33.2,14.9-33.2,33.3v135.6c0,18.4,14.9,33.3,33.2,33.3h263.2C1006.6,572.1,1021.6,557.2,1021.6,538.8z"/>
						<path class="st2" d="M1055.8,53.6v38.9h-434V47.7h433.3C1055.6,49.6,1055.8,51.6,1055.8,53.6z"/>
						<path class="st2" d="M1055.8,47.7v5.9c0-2-0.2-4-0.7-5.9H1055.8z"/>
						<path class="st2" d="M1055.1,47.7H621.9V28.5h408.8C1042.6,28.5,1052.6,36.7,1055.1,47.7z"/>
						<path class="st3" d="M1028.9,146.3v155.9c0,18.4-14.9,33.3-33.3,33.3H621.9V113h373.7C1014,113,1028.9,127.9,1028.9,146.3z"/>
						<path class="st3" d="M1021.6,403.2v135.6c0,18.4-14.9,33.3-33.2,33.3H725.2c-18.4,0-33.2-14.9-33.2-33.3V403.2
							c0-18.4,14.9-33.3,33.2-33.3h263.2C1006.6,369.9,1021.6,384.8,1021.6,403.2z M931.2,477.5c0-21-8.5-39.9-22.3-53.6l0.1-0.1
							c-2.6-2.6-5.4-5-8.3-7.1c-6-4.5-12.5-8-19.3-10.5c-0.9-0.4-1.9-0.7-2.8-1c-1.9-0.6-3.8-1.1-5.7-1.6c-1.1-0.2-2.1-0.5-3.1-0.6
							c-1-0.2-1.9-0.4-2.9-0.5c-1.2-0.2-2.5-0.4-3.7-0.5c-0.3-0.1-0.6-0.1-0.9-0.1c-2.3-0.2-4.5-0.4-6.8-0.4h-0.1h-0.1
							c-2.4,0-4.9,0.1-7.3,0.4c-0.1,0-0.3,0-0.4,0.1c-1.3,0.1-2.5,0.3-3.8,0.5c-0.9,0.1-2,0.3-3,0.5c-0.8,0.1-1.6,0.3-2.3,0.5
							c-0.6,0.2-1.4,0.3-2.1,0.5c-1.2,0.3-2.4,0.6-3.6,1c-2.3,0.7-4.7,1.6-7,2.6c-1.1,0.4-2.2,0.9-3.3,1.5c-1.1,0.5-2.2,1-3.3,1.6
							c-1.1,0.6-2.2,1.2-3.3,1.9c-1,0.6-2,1.2-3,1.9c-1,0.6-1.9,1.3-2.9,2.1c-2.9,2.1-5.6,4.5-8.3,7.1v0.1c-2.6,2.6-5,5.4-7.2,8.3
							c-0.8,0.9-1.5,1.9-2.1,2.9c-2.1,3.1-3.9,6.2-5.5,9.5c-1.6,3.3-3,6.8-4.1,10.3c-0.8,2.4-1.4,4.8-1.9,7.3
							c-2.1,10.1-2.1,20.5,0,30.6c0.5,2.4,1.1,4.9,1.9,7.2c1.1,3.5,2.4,7,4.1,10.3c0.5,1.1,1.1,2.2,1.7,3.3c1,1.9,2.1,3.8,3.3,5.6
							c0.8,1.2,1.7,2.5,2.6,3.6c0.7,1,1.5,1.9,2.3,2.9c1.5,1.9,3.1,3.6,4.9,5.4c13.7,13.7,32.7,22.2,53.7,22.2
							C897.2,553.4,931.2,519.5,931.2,477.5z"/>
						<path class="st4" d="M908.9,423.9c13.7,13.7,22.3,32.6,22.3,53.6c0,41.9-34,75.9-75.9,75.9v-75.9L908.9,423.9z"/>
						<path class="st2" d="M909,423.9L909,423.9c-2.6-2.5-5.4-4.9-8.3-7.1C903.6,418.9,906.4,421.2,909,423.9z"/>
						<path class="st2" d="M908.9,423.9l-53.6,53.6v-75.9h0.1c2.3,0,4.6,0.1,6.8,0.4c0.3,0,0.6,0,0.9,0.1c1.2,0.1,2.5,0.3,3.7,0.5
							c1,0.2,1.9,0.3,2.9,0.5c1.1,0.2,2.1,0.4,3.1,0.6c1.9,0.5,3.8,1,5.7,1.6c0.9,0.3,1.9,0.6,2.8,1c6.8,2.5,13.3,5.9,19.3,10.5
							C903.6,418.9,906.4,421.3,908.9,423.9z"/>
						<path class="st2" d="M881.4,406.3c-0.9-0.4-1.9-0.7-2.8-1C879.5,405.6,880.5,406,881.4,406.3z"/>
						<path class="st4" d="M872.9,403.7c-1.1-0.2-2.1-0.5-3.1-0.6C870.8,403.3,871.8,403.5,872.9,403.7z"/>
						<path class="st2" d="M866.8,402.5c-1.2-0.2-2.5-0.4-3.7-0.5C864.4,402.2,865.6,402.4,866.8,402.5z"/>
						<path class="st2" d="M862.2,402c-2.2-0.2-4.5-0.4-6.8-0.4C857.7,401.7,859.9,401.8,862.2,402z"/>
						<path class="st5" d="M855.3,477.5v75.9c-21,0-39.9-8.5-53.7-22.2L855.3,477.5z"/>
						<path class="st2" d="M855.3,401.7v75.9l-53.7,53.7c-1.8-1.8-3.4-3.5-4.9-5.4c-0.8-0.9-1.5-1.9-2.3-2.9
							c-0.9-1.2-1.8-2.4-2.6-3.6c-1.2-1.8-2.3-3.6-3.3-5.6c-0.6-1.1-1.2-2.2-1.7-3.3c-1.6-3.3-3-6.8-4.1-10.3
							c-0.8-2.3-1.4-4.8-1.9-7.2c-1-5-1.5-10.1-1.5-15.3c0-5.2,0.5-10.3,1.5-15.3c0.5-2.5,1.1-4.9,1.9-7.3c1.1-3.5,2.4-7,4.1-10.3
							c1.6-3.3,3.4-6.5,5.5-9.5c0.7-1,1.4-2,2.1-2.9c2.2-2.9,4.6-5.7,7.2-8.3c2.6-2.6,5.3-5,8.3-7.2c0.9-0.7,1.9-1.4,2.9-2.1
							c1-0.6,2-1.3,3-1.9c1.1-0.7,2.2-1.3,3.3-1.9c1.1-0.6,2.2-1.1,3.3-1.6c1.1-0.5,2.2-1.1,3.3-1.5c2.3-1,4.6-1.8,7-2.6
							c1.2-0.4,2.3-0.7,3.6-1c0.7-0.2,1.4-0.4,2.1-0.5c0.8-0.2,1.6-0.4,2.3-0.5c1-0.2,2.1-0.4,3-0.5c1.3-0.2,2.5-0.4,3.8-0.5
							c0.1-0.1,0.3-0.1,0.4-0.1C850.4,401.8,852.8,401.7,855.3,401.7L855.3,401.7z"/>
						<path class="st2" d="M848,402c2.4-0.2,4.9-0.4,7.3-0.4C852.8,401.7,850.4,401.8,848,402z"/>
						<path class="st2" d="M847.6,402.1c-1.3,0.1-2.5,0.3-3.8,0.5C845.1,402.4,846.3,402.2,847.6,402.1z"/>
						<path class="st5" d="M840.8,403.1c-0.8,0.1-1.6,0.3-2.3,0.5C839.2,403.4,840,403.2,840.8,403.1z"/>
						<path class="st2" d="M836.4,404.1c-1.2,0.3-2.4,0.6-3.6,1C834,404.7,835.2,404.4,836.4,404.1z"/>
						<path class="st2" d="M832.8,405.1c-2.4,0.8-4.7,1.6-7,2.6C828.1,406.7,830.4,405.8,832.8,405.1z"/>
						<path class="st2" d="M825.8,407.7c-1.1,0.5-2.3,1-3.3,1.5C823.6,408.6,824.7,408.1,825.8,407.7z"/>
						<path class="st2" d="M822.5,409.2c-1.1,0.5-2.2,1.1-3.3,1.6C820.3,410.2,821.3,409.7,822.5,409.2z"/>
						<path class="st2" d="M815.9,412.7c-1,0.6-2,1.3-3,1.9C813.9,413.9,814.9,413.3,815.9,412.7z"/>
						<path class="st2" d="M812.9,414.6c-1,0.7-2,1.4-2.9,2.1C810.9,415.9,811.9,415.2,812.9,414.6z"/>
						<path class="st2" d="M801.7,423.9c2.6-2.6,5.4-5,8.3-7.1C807,418.9,804.3,421.3,801.7,423.9L801.7,423.9z"/>
						<path class="st0" d="M778.1,723.5c14.4,0,26.1,11.7,26.1,26.1c0,14.5-11.7,26.2-26.1,26.2H621.9V775v-31.6h42.3
							c12.6,0,23.3-8.4,26.6-19.9H778.1z"/>
						<path class="st2" d="M801.7,423.9c-2.6,2.6-5,5.3-7.2,8.3C796.6,429.3,799,426.6,801.7,423.9z"/>
						<path class="st2" d="M794.5,522.9c0.8,1,1.5,1.9,2.3,2.9C796,524.9,795.2,523.9,794.5,522.9z"/>
						<path class="st2" d="M794.5,432.2c-0.7,0.9-1.4,1.9-2.1,2.9C793,434.1,793.7,433.1,794.5,432.2z"/>
						<path class="st2" d="M788.6,513.7c1,1.9,2.1,3.8,3.3,5.6C790.7,517.5,789.6,515.6,788.6,513.7z"/>
						<path class="st2" d="M792.4,435.1c-2.1,3.1-3.9,6.2-5.5,9.5C788.5,441.4,790.3,438.2,792.4,435.1z"/>
						<path class="st2" d="M786.9,510.4c0.5,1.1,1.1,2.2,1.7,3.3C788,512.6,787.5,511.5,786.9,510.4z"/>
						<path class="st2" d="M782.9,455c-0.8,2.3-1.4,4.8-1.9,7.3C781.5,459.8,782.1,457.4,782.9,455z"/>
						<path class="st2" d="M781,492.9c0.5,2.5,1.1,4.9,1.9,7.2C782.1,497.7,781.5,495.3,781,492.9z"/>
						<path class="st2" d="M781,462.3c-1,4.9-1.5,10-1.5,15.3c0,5.2,0.5,10.3,1.5,15.3C778.9,482.8,778.9,472.4,781,462.3z"/>
						<path class="st6" d="M691.9,627.4v88.4c0,2.7-0.4,5.3-1.1,7.8h-68.9v-96.1H691.9z"/>
						<rect x="621.9" y="598.1" class="st0" width="70" height="29.3"/>
						<path class="st1" d="M691.9,594.5v3.6h-70v-26H636c6.6,0,12.7-1.9,17.9-5.3h10.3C679.5,566.8,691.9,579.3,691.9,594.5z"/>
						<path class="st0" d="M621.9,723.5h68.9c-3.3,11.5-14,19.9-26.6,19.9h-42.3V723.5z"/>
						<path class="st3" d="M669.3,403.2v135.6c0,11.8-6.1,22.1-15.4,28h-32V369.9H636C654.4,369.9,669.3,384.8,669.3,403.2z"/>
						<path class="st3" d="M621.9,566.8h32c-5.2,3.3-11.3,5.3-17.9,5.3h-14.1V566.8z"/>
						<path class="st7" d="M621.9,775v0.8H465.7c-14.4,0-26.1-11.7-26.1-26.2c0-7.2,2.9-13.7,7.6-18.5c4.8-4.7,11.3-7.6,18.5-7.6
							H553c3.3,11.5,14,19.9,26.5,19.9h42.3V775z"/>
						<path class="st7" d="M621.9,723.5v19.9h-42.3c-12.6,0-23.2-8.4-26.5-19.9H621.9z"/>
						<path class="st0" d="M621.9,627.4v96.1H553c-0.7-2.5-1.1-5-1.1-7.8v-88.4H621.9z"/>
						<rect x="551.9" y="598.1" class="st7" width="70" height="29.3"/>
						<path class="st1" d="M621.9,572.1v26h-70v-3.6c0-9.2,4.5-17.4,11.5-22.4H621.9z"/>
						<path class="st3" d="M621.9,566.8v5.3h-58.5c4.5-3.3,10.1-5.3,16.1-5.3H621.9z"/>
						<path class="st3" d="M621.9,369.9v196.9h-42.3c-6,0-11.6,1.9-16.1,5.3H372.9c-18.4,0-33.3-14.9-33.3-33.3V403.2
							c0-18.4,14.9-33.3,33.3-33.3H621.9z M578.8,477.5c0-2.4-0.1-4.9-0.4-7.3c0-0.2,0-0.3-0.1-0.5c-0.1-1.3-0.3-2.5-0.5-3.8
							c-0.2-0.9-0.3-1.9-0.5-2.9c-0.2-0.9-0.4-1.9-0.6-2.8c-1.2-5-2.8-9.9-5-14.6c-0.4-1-0.9-1.9-1.4-2.8c-1.8-3.7-4.1-7.2-6.6-10.6
							c-0.7-1-1.4-1.9-2.2-2.9c-1.5-1.9-3.1-3.6-4.9-5.4c-13.7-13.7-32.7-22.2-53.7-22.2c-41.9,0-75.9,33.9-75.9,75.9
							c0,21,8.5,39.9,22.2,53.7c1.8,1.8,3.5,3.4,5.4,4.9c1.9,1.6,3.8,3.1,5.8,4.3c2.1,1.4,4.2,2.7,6.3,3.8c1.1,0.6,2.2,1.2,3.3,1.7
							c1.1,0.6,2.2,1.1,3.3,1.5c1.1,0.6,2.3,1,3.5,1.4c3.5,1.4,7.1,2.3,10.7,3.1c10.1,2.1,20.6,2.1,30.6,0c3.6-0.7,7.2-1.7,10.7-3.1
							c1.2-0.4,2.3-0.8,3.5-1.4c1.1-0.4,2.2-0.9,3.3-1.5c1.1-0.5,2.2-1.1,3.3-1.7c2.1-1.1,4.2-2.4,6.3-3.8c2-1.3,3.9-2.8,5.8-4.3
							c1.9-1.5,3.6-3.1,5.4-4.9c1.8-1.8,3.3-3.5,4.9-5.4c0.8-0.9,1.5-1.9,2.2-2.9c2.6-3.4,4.8-6.9,6.6-10.6c0.5-0.9,1-1.8,1.4-2.8
							c2.2-4.7,3.9-9.6,5-14.6c0.2-0.9,0.4-1.9,0.6-2.8c0.2-1,0.4-2,0.5-2.9c0.2-1.3,0.4-2.5,0.5-3.8c0.1-0.2,0.1-0.3,0.1-0.5
							C578.7,482.4,578.8,479.9,578.8,477.5z"/>
						<path class="st1" d="M621.9,335.6v34.3h-249c-18.4,0-33.3,14.9-33.3,33.3v135.6c0,18.4,14.9,33.3,33.3,33.3h190.5
							c-7,5-11.5,13.2-11.5,22.4v3.6H309.6v-31.3V546v-38.2V92.5h312.2V113h-254c-18.4,0-33.3,14.9-33.3,33.3v155.9
							c0,18.4,14.9,33.3,33.3,33.3H621.9z"/>
						<path class="st3" d="M621.9,113v222.5h-254c-18.4,0-33.3-14.9-33.3-33.3V146.3c0-18.4,14.9-33.3,33.3-33.3H621.9z"/>
						<path class="st2" d="M621.9,47.7v44.7H309.6H187.9V53.6c0-2,0.2-4,0.7-5.9H621.9z"/>
						<path class="st2" d="M621.9,28.5v19.3H188.6c2.6-11,12.5-19.3,24.4-19.3H621.9z"/>
						<path class="st7" d="M621.9,0v28.5H213.1c-11.9,0-21.8,8.2-24.4,19.3h-0.7v5.9v38.9v474.4v6.2c0,13.9,11.2,25.1,25.1,25.1h7.6
							h42h47h242.3v29.3H171c-15.3,0-27.7-12.4-27.7-27.7V26.9c0-15.3,12.4-27.7,27.7-27.7h450.9V0z"/>
						<path class="st8" d="M578.5,470.2c0.2,2.4,0.4,4.9,0.4,7.3C578.8,475.1,578.7,472.7,578.5,470.2z"/>
						<path class="st8" d="M578.8,477.5c0,2.4-0.1,4.9-0.4,7.3C578.7,482.4,578.8,480,578.8,477.5z"/>
						<path class="st8" d="M578.5,470.2c0.2,2.4,0.4,4.8,0.4,7.3c0,2.5-0.1,4.9-0.4,7.3c0,0.2,0,0.3-0.1,0.5
							c-0.1,1.3-0.3,2.5-0.5,3.8c-0.2,0.9-0.3,1.9-0.5,2.9c-0.2,0.9-0.4,1.9-0.6,2.8c-1.2,5-2.8,9.9-5,14.6
							c-0.4,0.9-0.9,1.9-1.4,2.8c-1.8,3.7-4.1,7.2-6.6,10.6c-0.7,1-1.5,1.9-2.2,2.9c-1.5,1.9-3.1,3.6-4.9,5.4
							c-1.8,1.8-3.5,3.4-5.4,4.9c-1.9,1.5-3.8,3-5.8,4.3c-2.1,1.4-4.1,2.6-6.3,3.8c-1.1,0.6-2.2,1.1-3.3,1.7c-1.1,0.5-2.2,1-3.3,1.5
							c-1.1,0.5-2.3,0.9-3.5,1.4c-3.5,1.2-7,2.3-10.7,3.1c-5,1-10.1,1.5-15.3,1.5v-75.9l53.7-53.7c1.8,1.8,3.3,3.5,4.9,5.4
							c0.8,0.9,1.5,1.9,2.2,2.9c2.6,3.4,4.8,6.9,6.6,10.6c0.5,0.9,1,1.9,1.4,2.8c2.2,4.7,3.9,9.6,5,14.6c0.2,0.9,0.4,1.9,0.6,2.8
							c0.2,1,0.4,2,0.5,2.9c0.2,1.3,0.4,2.5,0.5,3.8C578.5,470,578.5,470.1,578.5,470.2z"/>
						<path class="st8" d="M578.4,469.8c-0.1-1.3-0.3-2.5-0.5-3.8C578.1,467.3,578.3,468.5,578.4,469.8z"/>
						<path class="st8" d="M578,489.1c0.2-1.3,0.4-2.5,0.5-3.8C578.3,486.6,578.1,487.8,578,489.1z"/>
						<path class="st9" d="M577.4,463c-0.2-0.9-0.4-1.9-0.6-2.8C577.1,461.1,577.3,462.1,577.4,463z"/>
						<path class="st9" d="M576.8,494.8c0.2-0.9,0.4-1.9,0.6-2.8C577.3,493,577.1,493.9,576.8,494.8z"/>
						<path class="st9" d="M571.8,445.6c-0.4-0.9-0.9-1.9-1.4-2.8C570.9,443.6,571.4,444.6,571.8,445.6z"/>
						<path class="st9" d="M570.4,512.3c0.5-0.9,1-1.9,1.4-2.8C571.4,510.5,570.9,511.4,570.4,512.3z"/>
						<path class="st8" d="M563.8,432.1c-0.7-1-1.5-1.9-2.2-2.9C562.3,430.2,563.1,431.1,563.8,432.1z"/>
						<path class="st8" d="M561.5,525.8c0.8-0.9,1.5-1.9,2.2-2.9C563.1,523.9,562.3,524.9,561.5,525.8z"/>
						<path class="st9" d="M556.7,423.9L503,477.5v-75.9C523.9,401.7,542.9,410.2,556.7,423.9z"/>
						<path class="st8" d="M545.4,540.4c2-1.4,3.9-2.8,5.8-4.3C549.4,537.7,547.4,539.1,545.4,540.4z"/>
						<path class="st8" d="M539.2,544.2c2.2-1.2,4.2-2.4,6.3-3.8C543.4,541.8,541.3,543.1,539.2,544.2z"/>
						<path class="st8" d="M535.9,545.9c1.1-0.6,2.2-1.1,3.3-1.7C538.1,544.9,537,545.5,535.9,545.9z"/>
						<path class="st8" d="M532.5,547.4c1.1-0.5,2.3-0.9,3.3-1.5C534.8,546.5,533.6,547,532.5,547.4z"/>
						<path class="st8" d="M529.1,548.8c1.2-0.5,2.3-0.9,3.5-1.4C531.4,548,530.2,548.4,529.1,548.8z"/>
						<path class="st8" d="M518.3,551.9c3.7-0.8,7.3-1.8,10.7-3.1C525.5,550.2,522,551.2,518.3,551.9z"/>
						<path class="st8" d="M503,553.4c5.2,0,10.3-0.5,15.3-1.5c-10.1,2.1-20.6,2.1-30.6,0C492.7,552.9,497.8,553.4,503,553.4z"/>
						<path class="st8" d="M503,477.5v75.9c-5.2,0-10.3-0.5-15.3-1.5c-3.7-0.8-7.3-1.8-10.7-3.1c-1.2-0.5-2.3-0.9-3.5-1.4
							c-1.1-0.5-2.3-0.9-3.3-1.5c-1.1-0.6-2.2-1.1-3.3-1.7c-2.2-1.2-4.2-2.4-6.3-3.8c-2-1.4-3.9-2.8-5.8-4.3
							c-1.9-1.5-3.6-3.1-5.4-4.9L503,477.5z"/>
						<path class="st10" d="M503,401.7v75.9l-53.7,53.7c-13.7-13.7-22.2-32.7-22.2-53.7C427.1,435.6,461.1,401.7,503,401.7z"/>
						<path class="st8" d="M476.9,548.8c3.5,1.2,7,2.3,10.7,3.1C484,551.2,480.4,550.2,476.9,548.8z"/>
						<path class="st8" d="M473.5,547.4c1.1,0.5,2.3,0.9,3.5,1.4C475.7,548.4,474.6,548,473.5,547.4z"/>
						<path class="st8" d="M470.1,545.9c1.1,0.5,2.2,1,3.3,1.5C472.3,547,471.2,546.5,470.1,545.9z"/>
						<path class="st8" d="M466.8,544.2c1.1,0.6,2.2,1.1,3.3,1.7C469,545.5,467.9,544.9,466.8,544.2z"/>
						<path class="st8" d="M460.5,540.4c2.1,1.4,4.1,2.6,6.3,3.8C464.7,543.1,462.6,541.8,460.5,540.4z"/>
						<path class="st8" d="M454.7,536.1c1.9,1.5,3.8,3,5.8,4.3C458.5,539.1,456.6,537.7,454.7,536.1z"/>
						<rect x="262.7" y="566.8" class="st3" width="47" height="31.3"/>
						<rect x="262.7" y="546" class="st3" width="47" height="20.8"/>
						<rect x="262.7" y="507.9" class="st3" width="47" height="38.2"/>
						<polygon class="st3" points="309.6,92.5 309.6,507.9 262.7,507.9 262.7,546 220.7,546 220.7,566.8 187.9,566.8 187.9,92.5 
													"/>
						<rect x="220.7" y="566.8" class="st3" width="42" height="31.3"/>
						<rect x="220.7" y="546" class="st3" width="42" height="20.8"/>
						<path class="st3" d="M220.7,566.8v31.3h-7.6c-13.9,0-25.1-11.3-25.1-25.1v-6.2H220.7z"/>
						<path class="st2" d="M187.9,47.7h0.7c-0.5,1.9-0.7,3.9-0.7,5.9V47.7z"/>
					</g>
					<g>
					</g>
				</g>
			</g>
		</g>
	</g>
	<rect x="187.9" y="92.5" class="st11" width="121.7" height="223.8"/>
	<g>
		<g id="XMLID_4_">
			<g>
				<path class="st19" d="M1352.6,371.4V394c0,6.5-5.3,11.8-11.8,11.8v-7.5c0-6.5-5.3-11.8-11.8-11.8h-21.2v-7.8h14.4
					c8.3,0,15-6.7,15-15c0-1.4-0.2-2.8-0.6-4.1h4.1C1347.3,359.6,1352.6,364.9,1352.6,371.4z"/>
				<path class="st18" d="M1340.8,482.1v340.3c0,6.5-5.3,11.8-11.8,11.8h-212.6V610.4h197.2c6.5,0,11.8-5.3,11.8-11.8v-92.9
					c7.1-5.4,11.8-13.9,11.8-23.6H1340.8z"/>
				<path class="st18" d="M1340.8,405.8v76.3h-3.5c0-16.3-13.2-29.4-29.4-29.4c-13,0-24,8.4-27.9,20h-9.8v-33h14.1
					c13,0,23.6-10.5,23.6-23.6v-10.4H1340.8z"/>
				<path class="st19" d="M1340.8,398.3v7.5h-33v-19.2h21.2C1335.5,386.6,1340.8,391.8,1340.8,398.3z"/>
				<path class="st13" d="M1336.7,359.6c0.4,1.3,0.6,2.7,0.6,4.1c0,8.3-6.7,15-15,15h-14.4v-19.1H1336.7z"/>
				<path class="st14" d="M1307.8,452.7c16.3,0,29.4,13.2,29.4,29.4c0,9.6-4.6,18.2-11.8,23.6v-11.8c0-6.5-5.3-11.8-11.8-11.8h-11.2
					c-0.5-5.3-5-9.4-10.4-9.4H1280C1283.9,461,1294.9,452.7,1307.8,452.7z"/>
				<path class="st15" d="M1325.5,505.7v92.9c0,6.5-5.3,11.8-11.8,11.8h-197.2v-23.5h97.2h33h45.5c5.8,0,10.5-4.7,10.5-10.5v-65.3
					c1.7,0.3,3.5,0.5,5.3,0.5C1314.5,511.6,1320.6,509.4,1325.5,505.7z"/>
				<path class="st15" d="M1325.5,493.9v11.8c-4.9,3.7-11,5.9-17.7,5.9c-1.8,0-3.5-0.2-5.3-0.5v-27.9c0-0.4,0-0.7-0.1-1h11.2
					C1320.2,482.1,1325.5,487.4,1325.5,493.9z"/>
				<path class="st11" d="M1307.8,405.8v10.4c0,13-10.5,23.6-23.6,23.6h-14.1v-33.9H1307.8z"/>
				<rect x="1270.2" y="386.6" class="st13" width="37.7" height="19.2"/>
				<path class="st13" d="M1307.8,378.8v7.8h-37.7v-26.9h15.3c-0.4,1.3-0.6,2.7-0.6,4.1c0,8.3,6.7,15,15,15H1307.8z"/>
				<path class="st13" d="M1307.8,359.6v19.1h-7.9c-8.3,0-15-6.7-15-15c0-1.4,0.2-2.8,0.6-4.1H1307.8z"/>
				<path class="st18" d="M1302.6,511.1v65.3c0,5.8-4.7,10.5-10.5,10.5h-45.5c13,0,23.6-10.5,23.6-23.6v-21.1v-28.3v-31.8h8.2
					C1278.4,496.6,1288.8,508.6,1302.6,511.1z"/>
				<path class="st14" d="M1302.6,483.2v27.9c-13.8-2.5-24.2-14.5-24.2-29h24.1C1302.6,482.5,1302.6,482.8,1302.6,483.2z"/>
				<path class="st14" d="M1302.5,482.1h-24.1c0-3.3,0.5-6.5,1.6-9.4h12.2C1297.6,472.7,1302,476.8,1302.5,482.1z"/>
				<path class="st18" d="M1270.2,472.7h9.8c-1,3-1.6,6.1-1.6,9.4h-8.2V472.7z"/>
				<path class="st11" d="M1270.2,542.2v21.1c0,13-10.5,23.6-23.6,23.6h-33c-12.2,0-22.2-9.3-23.4-21.1h56.4
					C1259.6,565.7,1270.2,555.2,1270.2,542.2z"/>
				<path class="st11" d="M1270.2,513.9v28.3c0,13-10.5,23.6-23.6,23.6h-56.4c-0.1-0.8-0.1-1.6-0.1-2.4v-49.4
					c0-13,10.5-23.6,23.6-23.6h33C1259.6,490.4,1270.2,500.9,1270.2,513.9z"/>
				<path class="st11" d="M1270.2,482.1v31.8c0-13-10.5-23.6-23.6-23.6h-33c-13,0-23.6,10.5-23.6,23.6v49.4c0,0.8,0,1.6,0.1,2.4
					h-29.6c-13,0-23.6-10.5-23.6-23.6v-60.1H1270.2z"/>
				<rect x="1137.1" y="472.7" class="st11" width="133.1" height="9.4"/>
				<path class="st11" d="M1270.2,439.7v33h-133.1v-40h7.7c13,0,23.6-10.5,23.6-23.6v-3.3h72.4v10.4c0,13,10.5,23.6,23.6,23.6
					H1270.2z"/>
				<path class="st11" d="M1270.2,405.8v33.9h-5.9c-13,0-23.6-10.5-23.6-23.6v-10.4H1270.2z"/>
				<rect x="1240.7" y="386.6" class="st13" width="29.4" height="19.2"/>
				<rect x="1240.7" y="359.6" class="st13" width="29.4" height="26.9"/>
				<rect x="1168.3" y="386.6" class="st13" width="72.4" height="19.2"/>
				<rect x="1168.3" y="359.6" class="st13" width="72.4" height="26.9"/>
				<path class="st18" d="M1213.6,586.8h-97.2V482.1h20.6v60.1c0,13,10.5,23.6,23.6,23.6h29.6
					C1191.4,577.6,1201.4,586.8,1213.6,586.8z"/>
				<path class="st11" d="M1168.3,405.8v3.3c0,13-10.5,23.6-23.6,23.6h-7.7v-26.9H1168.3z"/>
				<rect x="1137.1" y="386.6" class="st13" width="31.2" height="19.2"/>
				<rect x="1137.1" y="359.6" class="st13" width="31.2" height="26.9"/>
				<rect x="1116.5" y="472.7" class="st18" width="20.6" height="9.4"/>
				<path class="st18" d="M1137.1,432.7v40h-20.6v-40.5c1.5,0.3,3.1,0.5,4.7,0.5H1137.1z"/>
				<path class="st11" d="M1137.1,405.8v26.9h-15.9c-1.6,0-3.2-0.2-4.7-0.5v-26.4H1137.1z"/>
				<rect x="1116.5" y="386.6" class="st13" width="20.6" height="19.2"/>
				<rect x="1116.5" y="359.6" class="st13" width="20.6" height="26.9"/>
				<path class="st22" d="M1116.5,610.4v223.8H905.1c-6.5,0-11.8-5.3-11.8-11.8V405.8h15.3v35.4c0,5.6,2,10.8,5.3,14.8
					c-9.4,4.9-15.9,14.7-15.9,26.1c0,9.1,4.1,17.2,10.6,22.6v93.9c0,6.5,5.3,11.8,11.8,11.8H1116.5z"/>
				<path class="st21" d="M1116.5,586.8v23.5H920.4c-6.5,0-11.8-5.3-11.8-11.8v-93.9c5.1,4.3,11.7,6.8,18.8,6.8
					c1.4,0,2.7-0.1,4.1-0.3v65.1c0,5.8,4.7,10.5,10.5,10.5H1116.5z"/>
				<path class="st22" d="M1116.5,482.1v104.7H942c-5.8,0-10.5-4.7-10.5-10.5v-65.1c3-0.4,5.8-1.2,8.4-2.5c3.3,1.8,7.1,2.8,11.1,2.8
					h29.4c13,0,23.6-10.5,23.6-23.6v-5.9H1116.5z"/>
				<rect x="1004" y="472.7" class="st22" width="112.5" height="9.4"/>
				<path class="st22" d="M1116.5,432.2v40.5H1004v-22c1.2,0.2,2.3,0.3,3.5,0.3h18.8c13,0,23.6-10.6,23.6-23.6v-21.6h0.1
					c0.8,5.9,5.9,10.4,12,10.4h23.6c6.1,0,11.1-4.5,12-10.4h0.1v3.3C1097.6,420.5,1105.7,430,1116.5,432.2z"/>
				<path class="st13" d="M1116.5,405.8v26.4c-10.8-2.2-18.8-11.7-18.8-23.1v-3.3H1116.5z"/>
				<polygon class="st12" points="1116.5,386.6 1116.5,405.8 1097.6,405.8 1097.6,404.1 1097.6,386.6 				"/>
				<rect x="1097.6" y="359.6" class="st12" width="18.8" height="26.9"/>
				<path class="st20" d="M1097.6,404.1v1.7h-0.1C1097.6,405.2,1097.6,404.7,1097.6,404.1z"/>
				<path class="st12" d="M1097.6,386.6v17.5c0-6.7-5.4-12.1-12.1-12.1H1062c-3.3,0-6.3,1.4-8.5,3.5c-2.2,2.2-3.5,5.2-3.5,8.5v-17.5
					H1097.6z"/>
				<rect x="1049.9" y="359.6" class="st12" width="47.7" height="26.9"/>
				<path class="st20" d="M1097.6,404.1c0,0.6,0,1.1-0.1,1.7h-47.5c-0.1-0.6-0.1-1.1-0.1-1.7c0-3.3,1.4-6.3,3.5-8.5
					c2.2-2.2,5.2-3.5,8.5-3.5h23.6C1092.2,392,1097.6,397.4,1097.6,404.1z"/>
				<path class="st22" d="M1050.1,405.8h47.5c-0.8,5.9-5.9,10.4-12,10.4H1062C1055.9,416.2,1050.9,411.7,1050.1,405.8z"/>
				<path class="st20" d="M1050.1,405.8h-0.1v-1.7C1049.9,404.7,1050,405.2,1050.1,405.8z"/>
				<path class="st13" d="M1049.9,405.8v21.6c0,13-10.5,23.6-23.6,23.6h-18.8c-1.2,0-2.4-0.1-3.5-0.3v-44.9H1049.9z"/>
				<polygon class="st12" points="1049.9,404.1 1049.9,405.8 1004,405.8 1004,386.6 1049.9,386.6 				"/>
				<path class="st12" d="M1049.9,359.6v26.9H1004V362c0-0.8,0-1.6-0.1-2.4H1049.9z"/>
				<path class="st13" d="M1004,482.1v5.9c0,13-10.5,23.6-23.6,23.6H951c-4,0-7.8-1-11.1-2.8c10-4.7,17-14.9,17-26.7H1004z"/>
				<path class="st13" d="M1004,472.7v9.4h-47.1c0-3.3-0.5-6.5-1.6-9.4H1004z"/>
				<path class="st13" d="M1004,450.7v22h-48.7c-1.4-4.1-3.6-7.8-6.5-10.8c7.3-4,12.2-11.7,12.2-20.6v-35.4h23v21.6
					C984,439.2,992.7,448.9,1004,450.7z"/>
				<path class="st13" d="M1004,405.8v44.9c-11.3-1.7-20-11.5-20-23.3v-21.6H1004z"/>
				<rect x="984" y="386.6" class="st12" width="20" height="19.2"/>
				<path class="st12" d="M1004,362v24.6h-20v-26.9h19.9C1004,360.4,1004,361.2,1004,362z"/>
				<rect x="961" y="386.6" class="st12" width="23" height="19.2"/>
				<rect x="961" y="359.6" class="st12" width="23" height="26.9"/>
				<path class="st13" d="M961,405.8v35.4c0,8.9-4.9,16.7-12.2,20.6c-5.4-5.6-12.9-9.2-21.3-9.2v-46.9H961z"/>
				<path class="st12" d="M961,386.6v19.2h-33.6v-17.3c1-0.6,1.9-1.2,2.7-2H961z"/>
				<path class="st12" d="M961,359.6v26.9h-30.9c5.2-4.3,8.5-10.8,8.5-18.1v-8.8H961z"/>
				<path class="st12" d="M956.9,482.1h-25.3c0.5-5.3,5-9.4,10.4-9.4h13.3C956.4,475.6,956.9,478.8,956.9,482.1z"/>
				<path class="st12" d="M931.6,482.1h25.3c0,11.8-6.9,22-17,26.7c-3.4-1.8-6.3-4.4-8.4-7.5v-18.1
					C931.5,482.8,931.6,482.5,931.6,482.1z"/>
				<path class="st12" d="M955.4,472.7H942c-5.4,0-9.9,4.1-10.4,9.4h-4.1v-17.8c1.5,0.3,3.1,0.5,4.7,0.5h5.3c4.1,0,8-1,11.3-2.9
					C951.7,464.9,954,468.6,955.4,472.7z"/>
				<path class="st12" d="M927.5,452.7c8.4,0,16,3.5,21.3,9.2c-3.4,1.9-7.2,2.9-11.3,2.9h-5.3c-1.6,0-3.2-0.2-4.7-0.5V452.7z"/>
				<path class="st12" d="M938.7,359.6v8.8c0,7.3-3.3,13.8-8.5,18.1h-2.7V362c0-0.8,0-1.6,0.1-2.4H938.7z"/>
				<path class="st17" d="M931.5,501.2c2.1,3.1,5,5.7,8.4,7.5c-2.6,1.2-5.4,2.1-8.4,2.5V501.2z"/>
				<path class="st21" d="M927.5,482.1h4.1c0,0.3-0.1,0.7-0.1,1v18.1c-2.6-3.8-4.1-8.3-4.1-13.2V482.1z"/>
				<path class="st21" d="M931.5,501.2v10c-1.3,0.2-2.7,0.3-4.1,0.3c-7.2,0-13.7-2.6-18.8-6.8v-10.8c0-6.5,5.3-11.8,11.8-11.8h7.1
					v5.9C927.5,492.9,929,497.5,931.5,501.2z"/>
				<path class="st16" d="M927.5,386.6h2.7c-0.8,0.7-1.8,1.4-2.7,2V386.6z"/>
				<path class="st12" d="M908.6,359.6h19c-0.1,0.8-0.1,1.6-0.1,2.4v24.6h-18.8V359.6z"/>
				<path class="st17" d="M927.5,464.3v17.8h-7.1c-6.5,0-11.8,5.3-11.8,11.8v10.8c-6.5-5.4-10.6-13.5-10.6-22.6
					c0-11.4,6.4-21.2,15.9-26.1C917.3,460.2,922,463.2,927.5,464.3z"/>
				<path class="st12" d="M927.5,452.7v11.6c-5.5-1.1-10.2-4.1-13.6-8.3C917.9,453.9,922.6,452.7,927.5,452.7z"/>
				<path class="st13" d="M927.5,405.8v46.9c-4.9,0-9.5,1.2-13.6,3.3c-3.3-4-5.3-9.2-5.3-14.8v-35.4H927.5z"/>
				<path class="st12" d="M927.5,388.5v17.3h-18.8v-14.5c1.9,0.5,3.9,0.7,5.9,0.7h0.6C919.6,392,923.9,390.7,927.5,388.5z"/>
				<path class="st12" d="M927.5,386.6v2c-3.6,2.2-7.8,3.5-12.4,3.5h-0.6c-2,0-4-0.3-5.9-0.7v-4.7H927.5z"/>
				<path class="st20" d="M908.6,391.3v14.5h-15.3v-7.5c0-4.9,3-9.1,7.3-10.9C903,389.2,905.7,390.5,908.6,391.3z"/>
				<path class="st12" d="M908.6,386.6v4.7c-2.9-0.8-5.7-2.1-8-3.8c1.4-0.6,2.9-0.9,4.5-0.9H908.6z"/>
				<path class="st12" d="M908.6,359.6v26.9h-3.5c-1.6,0-3.1,0.3-4.5,0.9c-5.8-4.3-9.6-11.2-9.6-19v-8.8c0.4,0,0.8-0.1,1.2-0.1
					H908.6z"/>
				<path class="st20" d="M891,368.5c0,7.8,3.8,14.7,9.6,19c-4.3,1.8-7.3,6-7.3,10.9v7.5h-1.2c-6.5,0-11.8-5.3-11.8-11.8v-22.6
					c0-6.1,4.7-11.1,10.6-11.7V368.5z"/>
			</g>
			<g>
			</g>
		</g>
	</g>
	<g id="XMLID_3_">
		<g>
			<path class="st13" d="M285.4,351.5l15.3-16.1c11.4-12,12-30,1.2-40.2l-40.6-38.7l-24.8,25.9l5.4,5.2c4.1,3.9,3.9,10.9-0.5,15.4
				c-0.3,0.3-0.6,0.6-0.8,0.8l0.2,0.2c11.4-9.7,27.6-10.1,37.5-0.6l8.3,7.9C297.3,321.5,296.8,339.5,285.4,351.5z"/>
			<path class="st13" d="M278.3,358.9l7.1-7.5c11.4-12,12-30,1.2-40.2l-8.3-7.9c-10-9.5-26.1-9-37.5,0.6c-0.9,0.8-1.8,1.6-2.6,2.5
				l-7.1,7.5c-11.4,12-12,30-1.2,40.2l8.3,7.9C248.9,372.3,266.8,370.9,278.3,358.9z"/>
			<path class="st23" d="M235.4,403.8l42.9-44.9c-11.4,12-29.4,13.3-40.1,3.1l-8.3-7.9c-10.7-10.3-10.2-28.2,1.2-40.2l7.1-7.5
				c0.8-0.9,1.7-1.7,2.6-2.5l-0.2-0.2c-4.4,3.8-10.7,4.1-14.6,0.4l-5.4-5.2l-45.3,47.5L235.4,403.8z"/>
			
				<rect x="189.4" y="340.5" transform="matrix(0.6905 -0.7234 0.7234 0.6905 -214.7982 262.0891)" class="st7" width="18.9" height="83"/>
			<path class="st25" d="M214.4,425.8l7.9-8.3l-60-57.3l-8,8.4c10.3,9.9,10.7,26.2,0.9,36.6l-2.7,2.8l21.9,20.9
				C185.1,439.1,203,437.7,214.4,425.8z"/>
			<path class="st25" d="M152.5,408l2.7-2.8c9.9-10.3,9.5-26.7-0.9-36.6l-20.5,21.5L152.5,408z"/>
			<path class="st27" d="M44.6,521l107.9-113l-18.7-17.9L8.9,520.9L8,521.9c5.2,4.9,11.8,7.3,18.4,7.1
				C33.1,528.8,39.7,526.2,44.6,521z"/>
			<path class="st23" d="M240.7,303.8c0.3-0.3,0.6-0.5,0.8-0.8c4.4-4.6,4.6-11.5,0.5-15.4l-5.4-5.2L220.7,299l5.4,5.2
				C230,307.9,236.3,307.6,240.7,303.8z"/>
			<path class="st25" d="M8,521.9l0.9-0.9l124.9-130.8L115,372.3L7.2,485.3C-2.7,495.6-2.3,512,8,521.9C8,521.9,8,521.9,8,521.9z"/>
			<path class="st12" d="M236.6,282.4l24.8-25.9l-40.6-38.7c-10.7-10.3-28.7-8.9-40.1,3.1l-4.1,4.3l0.2,0.2
				c3.9-4.1,8.9-6.3,13.8-6.7c4.9-0.4,9.8,1.1,13.5,4.6c7.3,7,6.9,19.3-0.8,27.4l-7.9,8.3c2.2-2.3,5-3.6,7.8-3.8s5.5,0.6,7.6,2.6
				L236.6,282.4z"/>
			<path class="st24" d="M220.7,299l15.9-16.6l-25.8-24.7c-2.1-2-4.8-2.8-7.6-2.6s-5.6,1.5-7.8,3.8c-4.4,4.6-4.6,11.5-0.5,15.5
				L220.7,299z"/>
			<path class="st24" d="M175.3,346.5l45.3-47.5l-25.8-24.7c-4.1-3.9-3.9-10.9,0.5-15.5l-9.9,10.4c-3.9,4.1-8.9,6.3-13.8,6.7
				c-4.9,0.4-9.8-1.1-13.5-4.6c-7.3-7-6.9-19.2,0.8-27.4l17.8-18.7l-0.2-0.2l-61.2,64.1L175.3,346.5z"/>
			
				<rect x="129.3" y="283.2" transform="matrix(0.6905 -0.7234 0.7234 0.6905 -191.9275 200.9154)" class="st28" width="18.9" height="83"/>
			<path class="st26" d="M154.3,368.6l8-8.4l-60-57.3l-7.9,8.3c-11.4,12-12,30-1.2,40.2l21.9,20.9l2.7-2.8c4.9-5.2,11.5-7.8,18.1-8
				C142.4,361.3,149.1,363.7,154.3,368.6z"/>
			<path class="st26" d="M133.7,390.1l20.5-21.5c-5.2-4.9-11.8-7.3-18.5-7.1c-6.6,0.2-13.2,2.8-18.1,8l-2.7,2.8L133.7,390.1z"/>
			<path class="st12" d="M195.3,258.9l7.9-8.3c7.8-8.1,8.2-20.4,0.8-27.4c-3.7-3.5-8.5-5-13.5-4.6c-4.9,0.4-9.9,2.7-13.8,6.7
				L159,244c-7.8,8.1-8.2,20.4-0.8,27.4c3.7,3.5,8.6,5,13.5,4.6c5-0.4,10-2.7,13.8-6.7L195.3,258.9z"/>
		</g>
		<g>
		</g>
	</g>
</g>
<g>
	<g>
		<g>
			<g>
				<g id="XMLID_8_">
					<g>
						<path class="st0" d="M1100.4,26.9v572.8c0,15.3-12.4,27.7-27.7,27.7H691.8v-29.3h338.8c13.9,0,25.1-11.3,25.1-25.1V92.5V53.6
							v-5.9h-0.7c-2.6-11-12.5-19.3-24.4-19.3H621.8V0v-0.8h451C1088-0.8,1100.4,11.6,1100.4,26.9z"/>
						<path class="st1" d="M1055.8,92.5V573c0,13.9-11.2,25.1-25.1,25.1H691.8v-3.6c0-15.3-12.4-27.7-27.7-27.7h-10.3
							c9.3-5.9,15.4-16.2,15.4-28V403.2c0-18.4-14.9-33.3-33.3-33.3h-14.1v-34.3h373.7c18.4,0,33.3-14.9,33.3-33.3V146.3
							c0-18.4-14.9-33.3-33.3-33.3H621.8V92.5H1055.8z M1021.5,538.8V403.2c0-18.4-14.9-33.3-33.2-33.3H725.1
							c-18.4,0-33.2,14.9-33.2,33.3v135.6c0,18.4,14.9,33.3,33.2,33.3h263.2C1006.6,572.1,1021.5,557.2,1021.5,538.8z"/>
						<path class="st2" d="M1055.8,53.6v38.9h-434V47.7h433.3C1055.5,49.6,1055.8,51.6,1055.8,53.6z"/>
						<path class="st2" d="M1055.8,47.7v5.9c0-2-0.2-4-0.7-5.9H1055.8z"/>
						<path class="st2" d="M1055.1,47.7H621.8V28.5h408.9C1042.6,28.5,1052.5,36.7,1055.1,47.7z"/>
						<path class="st3" d="M1028.8,146.3v155.9c0,18.4-14.9,33.3-33.3,33.3H621.8V113h373.7C1013.9,113,1028.8,127.9,1028.8,146.3z"
							/>
						<path class="st3" d="M1021.5,403.2v135.6c0,18.4-14.9,33.3-33.2,33.3H725.1c-18.4,0-33.2-14.9-33.2-33.3V403.2
							c0-18.4,14.9-33.3,33.2-33.3h263.2C1006.6,369.9,1021.5,384.8,1021.5,403.2z M931.1,477.5c0-21-8.5-39.9-22.3-53.6l0.1-0.1
							c-2.6-2.6-5.4-5-8.3-7.1c-6-4.5-12.5-8-19.3-10.5c-0.9-0.4-1.9-0.7-2.8-1c-1.9-0.6-3.8-1.1-5.7-1.6c-1.1-0.2-2.1-0.5-3.1-0.6
							c-1-0.2-1.9-0.4-2.9-0.5c-1.2-0.2-2.5-0.4-3.7-0.5c-0.3-0.1-0.6-0.1-0.9-0.1c-2.3-0.2-4.5-0.4-6.8-0.4h-0.1h-0.1
							c-2.4,0-4.9,0.1-7.3,0.4c-0.1,0-0.3,0-0.4,0.1c-1.3,0.1-2.5,0.3-3.8,0.5c-0.9,0.1-2,0.3-3,0.5c-0.8,0.1-1.6,0.3-2.3,0.5
							c-0.6,0.2-1.4,0.3-2.1,0.5c-1.2,0.3-2.4,0.6-3.6,1c-2.3,0.7-4.7,1.6-7,2.6c-1.1,0.4-2.2,0.9-3.3,1.5c-1.1,0.5-2.2,1-3.3,1.6
							c-1.1,0.6-2.2,1.2-3.3,1.9c-1,0.6-2,1.2-3,1.9c-1,0.6-1.9,1.3-2.9,2.1c-2.9,2.1-5.6,4.5-8.3,7.1v0.1c-2.6,2.6-5,5.4-7.2,8.3
							c-0.8,0.9-1.5,1.9-2.1,2.9c-2.1,3.1-3.9,6.2-5.5,9.5c-1.6,3.3-3,6.8-4.1,10.3c-0.8,2.4-1.4,4.8-1.9,7.3
							c-2.1,10.1-2.1,20.5,0,30.6c0.5,2.4,1.1,4.9,1.9,7.2c1.1,3.5,2.4,7,4.1,10.3c0.5,1.1,1.1,2.2,1.7,3.3c1,1.9,2.1,3.8,3.3,5.6
							c0.8,1.2,1.7,2.5,2.6,3.6c0.7,1,1.5,1.9,2.3,2.9c1.5,1.9,3.1,3.6,4.9,5.4c13.7,13.7,32.7,22.2,53.7,22.2
							C897.1,553.4,931.1,519.5,931.1,477.5z"/>
						<path class="st4" d="M908.9,423.9c13.7,13.7,22.3,32.6,22.3,53.6c0,41.9-34,75.9-75.9,75.9v-75.9L908.9,423.9z"/>
						<path class="st2" d="M908.9,423.9L908.9,423.9c-2.6-2.5-5.4-4.9-8.3-7.1C903.5,418.9,906.3,421.2,908.9,423.9z"/>
						<path class="st2" d="M908.9,423.9l-53.6,53.6v-75.9h0.1c2.3,0,4.6,0.1,6.8,0.4c0.3,0,0.6,0,0.9,0.1c1.2,0.1,2.5,0.3,3.7,0.5
							c1,0.2,1.9,0.3,2.9,0.5c1.1,0.2,2.1,0.4,3.1,0.6c1.9,0.5,3.8,1,5.7,1.6c0.9,0.3,1.9,0.6,2.8,1c6.8,2.5,13.3,5.9,19.3,10.5
							C903.5,418.9,906.3,421.3,908.9,423.9z"/>
						<path class="st2" d="M881.3,406.3c-0.9-0.4-1.9-0.7-2.8-1C879.4,405.6,880.4,406,881.3,406.3z"/>
						<path class="st4" d="M872.8,403.7c-1.1-0.2-2.1-0.5-3.1-0.6C870.7,403.3,871.7,403.5,872.8,403.7z"/>
						<path class="st2" d="M866.8,402.5c-1.2-0.2-2.5-0.4-3.7-0.5C864.3,402.2,865.5,402.4,866.8,402.5z"/>
						<path class="st2" d="M862.1,402c-2.2-0.2-4.5-0.4-6.8-0.4C857.6,401.7,859.8,401.8,862.1,402z"/>
						<path class="st5" d="M855.2,477.5v75.9c-21,0-39.9-8.5-53.7-22.2L855.2,477.5z"/>
						<path class="st2" d="M855.2,401.7v75.9l-53.7,53.7c-1.8-1.8-3.4-3.5-4.9-5.4c-0.8-0.9-1.5-1.9-2.3-2.9
							c-0.9-1.2-1.8-2.4-2.6-3.6c-1.2-1.8-2.3-3.6-3.3-5.6c-0.6-1.1-1.2-2.2-1.7-3.3c-1.6-3.3-3-6.8-4.1-10.3
							c-0.8-2.3-1.4-4.8-1.9-7.2c-1-5-1.5-10.1-1.5-15.3c0-5.2,0.5-10.3,1.5-15.3c0.5-2.5,1.1-4.9,1.9-7.3c1.1-3.5,2.4-7,4.1-10.3
							c1.6-3.3,3.4-6.5,5.5-9.5c0.7-1,1.4-2,2.1-2.9c2.2-2.9,4.6-5.7,7.2-8.3c2.6-2.6,5.3-5,8.3-7.2c0.9-0.7,1.9-1.4,2.9-2.1
							c1-0.6,2-1.3,3-1.9c1.1-0.7,2.2-1.3,3.3-1.9c1.1-0.6,2.2-1.1,3.3-1.6c1.1-0.5,2.2-1.1,3.3-1.5c2.3-1,4.6-1.8,7-2.6
							c1.2-0.4,2.3-0.7,3.6-1c0.7-0.2,1.4-0.4,2.1-0.5c0.8-0.2,1.6-0.4,2.3-0.5c1-0.2,2.1-0.4,3-0.5c1.3-0.2,2.5-0.4,3.8-0.5
							c0.1-0.1,0.3-0.1,0.4-0.1C850.3,401.8,852.7,401.7,855.2,401.7L855.2,401.7z"/>
						<path class="st2" d="M847.9,402c2.4-0.2,4.9-0.4,7.3-0.4C852.7,401.7,850.3,401.8,847.9,402z"/>
						<path class="st2" d="M847.5,402.1c-1.3,0.1-2.5,0.3-3.8,0.5C845,402.4,846.2,402.2,847.5,402.1z"/>
						<path class="st5" d="M840.7,403.1c-0.8,0.1-1.6,0.3-2.3,0.5C839.1,403.4,839.9,403.2,840.7,403.1z"/>
						<path class="st2" d="M836.3,404.1c-1.2,0.3-2.4,0.6-3.6,1C833.9,404.7,835.1,404.4,836.3,404.1z"/>
						<path class="st2" d="M832.7,405.1c-2.4,0.8-4.7,1.6-7,2.6C828,406.7,830.3,405.8,832.7,405.1z"/>
						<path class="st2" d="M825.7,407.7c-1.1,0.5-2.3,1-3.3,1.5C823.5,408.6,824.6,408.1,825.7,407.7z"/>
						<path class="st2" d="M822.4,409.2c-1.1,0.5-2.2,1.1-3.3,1.6C820.2,410.2,821.2,409.7,822.4,409.2z"/>
						<path class="st2" d="M815.8,412.7c-1,0.6-2,1.3-3,1.9C813.8,413.9,814.8,413.3,815.8,412.7z"/>
						<path class="st2" d="M812.8,414.6c-1,0.7-2,1.4-2.9,2.1C810.9,415.9,811.8,415.2,812.8,414.6z"/>
						<path class="st2" d="M801.6,423.9c2.6-2.6,5.4-5,8.3-7.1C806.9,418.9,804.2,421.3,801.6,423.9L801.6,423.9z"/>
						<path class="st0" d="M778,723.5c14.4,0,26.1,11.7,26.1,26.1c0,14.5-11.7,26.2-26.1,26.2H621.8V775v-31.6h42.3
							c12.6,0,23.3-8.4,26.6-19.9H778z"/>
						<path class="st2" d="M801.6,423.9c-2.6,2.6-5,5.3-7.2,8.3C796.5,429.3,798.9,426.6,801.6,423.9z"/>
						<path class="st2" d="M794.4,522.9c0.8,1,1.5,1.9,2.3,2.9C795.9,524.9,795.1,523.9,794.4,522.9z"/>
						<path class="st2" d="M794.4,432.2c-0.7,0.9-1.4,1.9-2.1,2.9C792.9,434.1,793.7,433.1,794.4,432.2z"/>
						<path class="st2" d="M788.5,513.7c1,1.9,2.1,3.8,3.3,5.6C790.7,517.5,789.5,515.6,788.5,513.7z"/>
						<path class="st2" d="M792.3,435.1c-2.1,3.1-3.9,6.2-5.5,9.5C788.4,441.4,790.2,438.2,792.3,435.1z"/>
						<path class="st2" d="M786.8,510.4c0.5,1.1,1.1,2.2,1.7,3.3C787.9,512.6,787.4,511.5,786.8,510.4z"/>
						<path class="st2" d="M782.8,455c-0.8,2.3-1.4,4.8-1.9,7.3C781.4,459.8,782,457.4,782.8,455z"/>
						<path class="st2" d="M780.9,492.9c0.5,2.5,1.1,4.9,1.9,7.2C782,497.7,781.4,495.3,780.9,492.9z"/>
						<path class="st2" d="M780.9,462.3c-1,4.9-1.5,10-1.5,15.3c0,5.2,0.5,10.3,1.5,15.3C778.8,482.8,778.8,472.4,780.9,462.3z"/>
						<path class="st6" d="M691.8,627.4v88.4c0,2.7-0.4,5.3-1.1,7.8h-68.9v-96.1H691.8z"/>
						<rect x="621.8" y="598.1" class="st0" width="70.1" height="29.3"/>
						<path class="st1" d="M691.8,594.5v3.6h-70.1v-26h14.1c6.6,0,12.7-1.9,17.9-5.3h10.3C679.4,566.8,691.8,579.3,691.8,594.5z"/>
						<path class="st0" d="M621.8,723.5h68.9c-3.3,11.5-14,19.9-26.6,19.9h-42.3V723.5z"/>
						<path class="st3" d="M669.2,403.2v135.6c0,11.8-6.1,22.1-15.4,28h-32V369.9h14.1C654.3,369.9,669.2,384.8,669.2,403.2z"/>
						<path class="st3" d="M621.8,566.8h32c-5.2,3.3-11.3,5.3-17.9,5.3h-14.1V566.8z"/>
						<path class="st7" d="M621.8,775v0.8H465.6c-14.4,0-26.1-11.7-26.1-26.2c0-7.2,2.9-13.7,7.6-18.5c4.8-4.7,11.3-7.6,18.5-7.6
							h87.3c3.3,11.5,14,19.9,26.5,19.9h42.3V775z"/>
						<path class="st7" d="M621.8,723.5v19.9h-42.3c-12.6,0-23.2-8.4-26.5-19.9H621.8z"/>
						<path class="st0" d="M621.8,627.4v96.1h-68.9c-0.7-2.5-1.1-5-1.1-7.8v-88.4H621.8z"/>
						<rect x="551.8" y="598.1" class="st7" width="70" height="29.3"/>
						<path class="st1" d="M621.8,572.1v26h-70v-3.6c0-9.2,4.5-17.4,11.5-22.4H621.8z"/>
						<path class="st3" d="M621.8,566.8v5.3h-58.5c4.5-3.3,10.1-5.3,16.1-5.3H621.8z"/>
						<path class="st3" d="M621.8,369.9v196.9h-42.3c-6,0-11.6,1.9-16.1,5.3H372.8c-18.4,0-33.3-14.9-33.3-33.3V403.2
							c0-18.4,14.9-33.3,33.3-33.3H621.8z M578.7,477.5c0-2.4-0.1-4.9-0.4-7.3c0-0.2,0-0.3-0.1-0.5c-0.1-1.3-0.3-2.5-0.5-3.8
							c-0.2-0.9-0.3-1.9-0.5-2.9c-0.2-0.9-0.4-1.9-0.6-2.8c-1.2-5-2.8-9.9-5-14.6c-0.4-1-0.9-1.9-1.4-2.8c-1.8-3.7-4.1-7.2-6.6-10.6
							c-0.7-1-1.4-1.9-2.2-2.9c-1.5-1.9-3.1-3.6-4.9-5.4c-13.7-13.7-32.7-22.2-53.7-22.2c-41.9,0-75.9,33.9-75.9,75.9
							c0,21,8.5,39.9,22.2,53.7c1.8,1.8,3.5,3.4,5.4,4.9c1.9,1.6,3.8,3.1,5.8,4.3c2.1,1.4,4.2,2.7,6.3,3.8c1.1,0.6,2.2,1.2,3.3,1.7
							c1.1,0.6,2.2,1.1,3.3,1.5c1.1,0.6,2.3,1,3.5,1.4c3.5,1.4,7.1,2.3,10.7,3.1c10.1,2.1,20.6,2.1,30.7,0c3.6-0.7,7.2-1.7,10.7-3.1
							c1.2-0.4,2.3-0.8,3.5-1.4c1.1-0.4,2.2-0.9,3.3-1.5c1.1-0.5,2.2-1.1,3.3-1.7c2.1-1.1,4.2-2.4,6.3-3.8c2-1.3,3.9-2.8,5.8-4.3
							c1.9-1.5,3.6-3.1,5.4-4.9c1.8-1.8,3.3-3.5,4.9-5.4c0.8-0.9,1.5-1.9,2.2-2.9c2.6-3.4,4.8-6.9,6.6-10.6c0.5-0.9,1-1.8,1.4-2.8
							c2.2-4.7,3.9-9.6,5-14.6c0.2-0.9,0.4-1.9,0.6-2.8c0.2-1,0.4-2,0.5-2.9c0.2-1.3,0.4-2.5,0.5-3.8c0.1-0.2,0.1-0.3,0.1-0.5
							C578.6,482.4,578.7,479.9,578.7,477.5z"/>
						<path class="st1" d="M621.8,335.6v34.3h-249c-18.4,0-33.3,14.9-33.3,33.3v135.6c0,18.4,14.9,33.3,33.3,33.3h190.5
							c-7,5-11.5,13.2-11.5,22.4v3.6H309.5v-31.3V546v-38.2V92.5h312.3V113h-254c-18.4,0-33.3,14.9-33.3,33.3v155.9
							c0,18.4,14.9,33.3,33.3,33.3H621.8z"/>
						<path class="st3" d="M621.8,113v222.5h-254c-18.4,0-33.3-14.9-33.3-33.3V146.3c0-18.4,14.9-33.3,33.3-33.3H621.8z"/>
						<path class="st2" d="M621.8,47.7v44.7H309.5H187.8V53.6c0-2,0.2-4,0.7-5.9H621.8z"/>
						<path class="st2" d="M621.8,28.5v19.3H188.5c2.6-11,12.5-19.3,24.4-19.3H621.8z"/>
						<path class="st7" d="M621.8,0v28.5H212.9c-11.9,0-21.8,8.2-24.4,19.3h-0.7v5.9v38.9v474.4v6.2c0,13.9,11.2,25.1,25.1,25.1h7.6
							h42h47h242.3v29.3h-381c-15.3,0-27.7-12.4-27.7-27.7V26.9c0-15.3,12.4-27.7,27.7-27.7h451V0z"/>
						<path class="st8" d="M578.4,470.2c0.2,2.4,0.4,4.9,0.4,7.3C578.7,475.1,578.6,472.7,578.4,470.2z"/>
						<path class="st8" d="M578.7,477.5c0,2.4-0.1,4.9-0.4,7.3C578.6,482.4,578.7,480,578.7,477.5z"/>
						<path class="st8" d="M578.4,470.2c0.2,2.4,0.4,4.8,0.4,7.3c0,2.5-0.1,4.9-0.4,7.3c0,0.2,0,0.3-0.1,0.5
							c-0.1,1.3-0.3,2.5-0.5,3.8c-0.2,0.9-0.3,1.9-0.5,2.9c-0.2,0.9-0.4,1.9-0.6,2.8c-1.2,5-2.8,9.9-5,14.6
							c-0.4,0.9-0.9,1.9-1.4,2.8c-1.8,3.7-4.1,7.2-6.6,10.6c-0.7,1-1.5,1.9-2.2,2.9c-1.5,1.9-3.1,3.6-4.9,5.4
							c-1.8,1.8-3.5,3.4-5.4,4.9c-1.9,1.5-3.8,3-5.8,4.3c-2.1,1.4-4.1,2.6-6.3,3.8c-1.1,0.6-2.2,1.1-3.3,1.7c-1.1,0.5-2.2,1-3.3,1.5
							c-1.1,0.5-2.3,0.9-3.5,1.4c-3.5,1.2-7,2.3-10.7,3.1c-5,1-10.1,1.5-15.3,1.5v-75.9l53.7-53.7c1.8,1.8,3.3,3.5,4.9,5.4
							c0.8,0.9,1.5,1.9,2.2,2.9c2.6,3.4,4.8,6.9,6.6,10.6c0.5,0.9,1,1.9,1.4,2.8c2.2,4.7,3.9,9.6,5,14.6c0.2,0.9,0.4,1.9,0.6,2.8
							c0.2,1,0.4,2,0.5,2.9c0.2,1.3,0.4,2.5,0.5,3.8C578.4,470,578.4,470.1,578.4,470.2z"/>
						<path class="st8" d="M578.3,469.8c-0.1-1.3-0.3-2.5-0.5-3.8C578,467.3,578.2,468.5,578.3,469.8z"/>
						<path class="st8" d="M577.9,489.1c0.2-1.3,0.4-2.5,0.5-3.8C578.2,486.6,578,487.8,577.9,489.1z"/>
						<path class="st9" d="M577.3,463c-0.2-0.9-0.4-1.9-0.6-2.8C577,461.1,577.2,462.1,577.3,463z"/>
						<path class="st9" d="M576.7,494.8c0.2-0.9,0.4-1.9,0.6-2.8C577.2,493,577,493.9,576.7,494.8z"/>
						<path class="st9" d="M571.7,445.6c-0.4-0.9-0.9-1.9-1.4-2.8C570.8,443.6,571.3,444.6,571.7,445.6z"/>
						<path class="st9" d="M570.3,512.3c0.5-0.9,1-1.9,1.4-2.8C571.3,510.5,570.8,511.4,570.3,512.3z"/>
						<path class="st8" d="M563.6,432.1c-0.7-1-1.5-1.9-2.2-2.9C562.2,430.2,562.9,431.1,563.6,432.1z"/>
						<path class="st8" d="M561.4,525.8c0.8-0.9,1.5-1.9,2.2-2.9C562.9,523.9,562.2,524.9,561.4,525.8z"/>
						<path class="st9" d="M556.5,423.9l-53.7,53.7v-75.9C523.8,401.7,542.8,410.2,556.5,423.9z"/>
						<path class="st8" d="M545.3,540.4c2-1.4,3.9-2.8,5.8-4.3C549.3,537.7,547.3,539.1,545.3,540.4z"/>
						<path class="st8" d="M539,544.2c2.2-1.2,4.2-2.4,6.3-3.8C543.3,541.8,541.2,543.1,539,544.2z"/>
						<path class="st8" d="M535.8,545.9c1.1-0.6,2.2-1.1,3.3-1.7C538,544.9,536.9,545.5,535.8,545.9z"/>
						<path class="st8" d="M532.4,547.4c1.1-0.5,2.3-0.9,3.3-1.5C534.6,546.5,533.5,547,532.4,547.4z"/>
						<path class="st8" d="M528.9,548.8c1.2-0.5,2.3-0.9,3.5-1.4C531.3,548,530.1,548.4,528.9,548.8z"/>
						<path class="st8" d="M518.2,551.9c3.7-0.8,7.3-1.8,10.7-3.1C525.4,550.2,521.8,551.2,518.2,551.9z"/>
						<path class="st8" d="M502.9,553.4c5.2,0,10.3-0.5,15.3-1.5c-10.1,2.1-20.6,2.1-30.7,0C492.5,552.9,497.6,553.4,502.9,553.4z"
							/>
						<path class="st8" d="M502.9,477.5v75.9c-5.2,0-10.3-0.5-15.3-1.5c-3.7-0.8-7.3-1.8-10.7-3.1c-1.2-0.5-2.3-0.9-3.5-1.4
							c-1.1-0.5-2.3-0.9-3.3-1.5c-1.1-0.6-2.2-1.1-3.3-1.7c-2.2-1.2-4.2-2.4-6.3-3.8c-2-1.4-3.9-2.8-5.8-4.3
							c-1.9-1.5-3.6-3.1-5.4-4.9L502.9,477.5z"/>
						<path class="st10" d="M502.9,401.7v75.9l-53.7,53.7c-13.7-13.7-22.2-32.7-22.2-53.7C427,435.6,460.9,401.7,502.9,401.7z"/>
						<path class="st8" d="M476.8,548.8c3.5,1.2,7,2.3,10.7,3.1C483.9,551.2,480.3,550.2,476.8,548.8z"/>
						<path class="st8" d="M473.3,547.4c1.1,0.5,2.3,0.9,3.5,1.4C475.6,548.4,474.5,548,473.3,547.4z"/>
						<path class="st8" d="M470,545.9c1.1,0.5,2.2,1,3.3,1.5C472.2,547,471.1,546.5,470,545.9z"/>
						<path class="st8" d="M466.7,544.2c1.1,0.6,2.2,1.1,3.3,1.7C468.9,545.5,467.8,544.9,466.7,544.2z"/>
						<path class="st8" d="M460.4,540.4c2.1,1.4,4.1,2.6,6.3,3.8C464.6,543.1,462.5,541.8,460.4,540.4z"/>
						<path class="st8" d="M454.6,536.1c1.9,1.5,3.8,3,5.8,4.3C458.4,539.1,456.5,537.7,454.6,536.1z"/>
						<rect x="262.5" y="566.8" class="st3" width="47" height="31.3"/>
						<rect x="262.5" y="546" class="st3" width="47" height="20.8"/>
						<rect x="262.5" y="507.9" class="st3" width="47" height="38.2"/>
						<polygon class="st3" points="309.5,92.5 309.5,507.9 262.5,507.9 262.5,546 220.6,546 220.6,566.8 187.8,566.8 187.8,92.5 
													"/>
						<rect x="220.6" y="566.8" class="st3" width="42" height="31.3"/>
						<rect x="220.6" y="546" class="st3" width="42" height="20.8"/>
						<path class="st3" d="M220.6,566.8v31.3h-7.6c-13.9,0-25.1-11.3-25.1-25.1v-6.2H220.6z"/>
						<path class="st2" d="M187.8,47.7h0.7c-0.5,1.9-0.7,3.9-0.7,5.9V47.7z"/>
					</g>
					<g>
					</g>
				</g>
			</g>
		</g>
	</g>
	<rect x="187.8" y="92.5" class="st11" width="121.7" height="223.8"/>
	<g>
		<g id="XMLID_7_">
			<g>
				<path class="st19" d="M1352.5,371.4V394c0,6.5-5.3,11.8-11.8,11.8v-7.5c0-6.5-5.3-11.8-11.8-11.8h-21.2v-7.8h14.4
					c8.3,0,15-6.7,15-15c0-1.4-0.2-2.8-0.6-4.1h4.1C1347.3,359.6,1352.5,364.9,1352.5,371.4z"/>
				<path class="st18" d="M1340.8,482.1v340.3c0,6.5-5.3,11.8-11.8,11.8h-212.6V610.4h197.3c6.5,0,11.8-5.3,11.8-11.8v-92.9
					c7.1-5.4,11.8-13.9,11.8-23.6H1340.8z"/>
				<path class="st18" d="M1340.8,405.8v76.3h-3.5c0-16.3-13.2-29.4-29.4-29.4c-13,0-24,8.4-27.9,20h-9.8v-33h14.1
					c13,0,23.6-10.5,23.6-23.6v-10.4H1340.8z"/>
				<path class="st19" d="M1340.8,398.3v7.5h-33v-19.2h21.2C1335.5,386.6,1340.8,391.8,1340.8,398.3z"/>
				<path class="st13" d="M1336.7,359.6c0.4,1.3,0.6,2.7,0.6,4.1c0,8.3-6.7,15-15,15h-14.4v-19.1H1336.7z"/>
				<path class="st14" d="M1307.8,452.7c16.3,0,29.4,13.2,29.4,29.4c0,9.6-4.6,18.2-11.8,23.6v-11.8c0-6.5-5.3-11.8-11.8-11.8h-11.2
					c-0.5-5.3-5-9.4-10.4-9.4h-12.2C1283.8,461,1294.8,452.7,1307.8,452.7z"/>
				<path class="st15" d="M1325.5,505.7v92.9c0,6.5-5.3,11.8-11.8,11.8h-197.3v-23.5h97.2h33h45.5c5.8,0,10.5-4.7,10.5-10.5v-65.3
					c1.7,0.3,3.5,0.5,5.3,0.5C1314.4,511.6,1320.5,509.4,1325.5,505.7z"/>
				<path class="st15" d="M1325.5,493.9v11.8c-4.9,3.7-11,5.9-17.7,5.9c-1.8,0-3.5-0.2-5.3-0.5v-27.9c0-0.4,0-0.7-0.1-1h11.2
					C1320.2,482.1,1325.5,487.4,1325.5,493.9z"/>
				<path class="st11" d="M1307.8,405.8v10.4c0,13-10.5,23.6-23.6,23.6h-14.1v-33.9H1307.8z"/>
				<rect x="1270.1" y="386.6" class="st13" width="37.7" height="19.2"/>
				<path class="st13" d="M1307.8,378.8v7.8h-37.7v-26.9h15.3c-0.4,1.3-0.6,2.7-0.6,4.1c0,8.3,6.7,15,15,15H1307.8z"/>
				<path class="st13" d="M1307.8,359.6v19.1h-7.9c-8.3,0-15-6.7-15-15c0-1.4,0.2-2.8,0.6-4.1H1307.8z"/>
				<path class="st18" d="M1302.5,511.1v65.3c0,5.8-4.7,10.5-10.5,10.5h-45.5c13,0,23.6-10.5,23.6-23.6v-21.1v-28.3v-31.8h8.2
					C1278.3,496.6,1288.8,508.6,1302.5,511.1z"/>
				<path class="st14" d="M1302.5,483.2v27.9c-13.8-2.5-24.2-14.5-24.2-29h24.1C1302.5,482.5,1302.5,482.8,1302.5,483.2z"/>
				<path class="st14" d="M1302.5,482.1h-24.1c0-3.3,0.5-6.5,1.6-9.4h12.2C1297.5,472.7,1302,476.8,1302.5,482.1z"/>
				<path class="st18" d="M1270.1,472.7h9.8c-1,3-1.6,6.1-1.6,9.4h-8.2V472.7z"/>
				<path class="st11" d="M1270.1,542.2v21.1c0,13-10.5,23.6-23.6,23.6h-33c-12.2,0-22.2-9.3-23.4-21.1h56.4
					C1259.6,565.7,1270.1,555.2,1270.1,542.2z"/>
				<path class="st11" d="M1270.1,513.9v28.3c0,13-10.5,23.6-23.6,23.6h-56.4c-0.1-0.8-0.1-1.6-0.1-2.4v-49.4
					c0-13,10.5-23.6,23.6-23.6h33C1259.6,490.4,1270.1,500.9,1270.1,513.9z"/>
				<path class="st11" d="M1270.1,482.1v31.8c0-13-10.5-23.6-23.6-23.6h-33c-13,0-23.6,10.5-23.6,23.6v49.4c0,0.8,0,1.6,0.1,2.4
					h-29.6c-13,0-23.6-10.5-23.6-23.6v-60.1H1270.1z"/>
				<rect x="1137" y="472.7" class="st11" width="133.1" height="9.4"/>
				<path class="st11" d="M1270.1,439.7v33H1137v-40h7.7c13,0,23.6-10.5,23.6-23.6v-3.3h72.4v10.4c0,13,10.5,23.6,23.6,23.6H1270.1z
					"/>
				<path class="st11" d="M1270.1,405.8v33.9h-5.9c-13,0-23.6-10.5-23.6-23.6v-10.4H1270.1z"/>
				<rect x="1240.7" y="386.6" class="st13" width="29.4" height="19.2"/>
				<rect x="1240.7" y="359.6" class="st13" width="29.4" height="26.9"/>
				<rect x="1168.2" y="386.6" class="st13" width="72.4" height="19.2"/>
				<rect x="1168.2" y="359.6" class="st13" width="72.4" height="26.9"/>
				<path class="st18" d="M1213.6,586.8h-97.2V482.1h20.6v60.1c0,13,10.5,23.6,23.6,23.6h29.6
					C1191.4,577.6,1201.4,586.8,1213.6,586.8z"/>
				<path class="st11" d="M1168.2,405.8v3.3c0,13-10.5,23.6-23.6,23.6h-7.7v-26.9H1168.2z"/>
				<rect x="1137" y="386.6" class="st13" width="31.2" height="19.2"/>
				<rect x="1137" y="359.6" class="st13" width="31.2" height="26.9"/>
				<rect x="1116.4" y="472.7" class="st18" width="20.6" height="9.4"/>
				<path class="st18" d="M1137,432.7v40h-20.6v-40.5c1.5,0.3,3.1,0.5,4.7,0.5H1137z"/>
				<path class="st11" d="M1137,405.8v26.9h-15.9c-1.6,0-3.2-0.2-4.7-0.5v-26.4H1137z"/>
				<rect x="1116.4" y="386.6" class="st13" width="20.6" height="19.2"/>
				<rect x="1116.4" y="359.6" class="st13" width="20.6" height="26.9"/>
				<path class="st22" d="M1116.4,610.4v223.8H905c-6.5,0-11.8-5.3-11.8-11.8V405.8h15.3v35.4c0,5.6,2,10.8,5.3,14.8
					c-9.4,4.9-15.9,14.7-15.9,26.1c0,9.1,4.1,17.2,10.6,22.6v93.9c0,6.5,5.3,11.8,11.8,11.8H1116.4z"/>
				<path class="st21" d="M1116.4,586.8v23.5H920.3c-6.5,0-11.8-5.3-11.8-11.8v-93.9c5.1,4.3,11.7,6.8,18.8,6.8
					c1.4,0,2.7-0.1,4.1-0.3v65.1c0,5.8,4.7,10.5,10.5,10.5H1116.4z"/>
				<path class="st22" d="M1116.4,482.1v104.7H942c-5.8,0-10.5-4.7-10.5-10.5v-65.1c3-0.4,5.8-1.2,8.4-2.5c3.3,1.8,7.1,2.8,11.1,2.8
					h29.4c13,0,23.6-10.5,23.6-23.6v-5.9H1116.4z"/>
				<rect x="1003.9" y="472.7" class="st22" width="112.5" height="9.4"/>
				<path class="st22" d="M1116.4,432.2v40.5h-112.5v-22c1.2,0.2,2.3,0.3,3.5,0.3h18.8c13,0,23.6-10.6,23.6-23.6v-21.6h0.1
					c0.8,5.9,5.9,10.4,12,10.4h23.6c6.1,0,11.1-4.5,12-10.4h0.1v3.3C1097.6,420.5,1105.7,430,1116.4,432.2z"/>
				<path class="st13" d="M1116.4,405.8v26.4c-10.8-2.2-18.8-11.7-18.8-23.1v-3.3H1116.4z"/>
				<polygon class="st12" points="1116.4,386.6 1116.4,405.8 1097.6,405.8 1097.6,404.1 1097.6,386.6 				"/>
				<rect x="1097.6" y="359.6" class="st12" width="18.8" height="26.9"/>
				<path class="st20" d="M1097.6,404.1v1.7h-0.1C1097.5,405.2,1097.6,404.7,1097.6,404.1z"/>
				<path class="st12" d="M1097.6,386.6v17.5c0-6.7-5.4-12.1-12.1-12.1h-23.6c-3.3,0-6.3,1.4-8.5,3.5c-2.2,2.2-3.5,5.2-3.5,8.5
					v-17.5H1097.6z"/>
				<rect x="1049.9" y="359.6" class="st12" width="47.7" height="26.9"/>
				<path class="st20" d="M1097.6,404.1c0,0.6,0,1.1-0.1,1.7H1050c-0.1-0.6-0.1-1.1-0.1-1.7c0-3.3,1.4-6.3,3.5-8.5
					c2.2-2.2,5.2-3.5,8.5-3.5h23.6C1092.2,392,1097.6,397.4,1097.6,404.1z"/>
				<path class="st22" d="M1050,405.8h47.5c-0.8,5.9-5.9,10.4-12,10.4h-23.6C1055.9,416.2,1050.8,411.7,1050,405.8z"/>
				<path class="st20" d="M1050,405.8h-0.1v-1.7C1049.9,404.7,1049.9,405.2,1050,405.8z"/>
				<path class="st13" d="M1049.9,405.8v21.6c0,13-10.5,23.6-23.6,23.6h-18.8c-1.2,0-2.4-0.1-3.5-0.3v-44.9H1049.9z"/>
				<polygon class="st12" points="1049.9,404.1 1049.9,405.8 1003.9,405.8 1003.9,386.6 1049.9,386.6 				"/>
				<path class="st12" d="M1049.9,359.6v26.9h-45.9V362c0-0.8,0-1.6-0.1-2.4H1049.9z"/>
				<path class="st13" d="M1003.9,482.1v5.9c0,13-10.5,23.6-23.6,23.6h-29.4c-4,0-7.8-1-11.1-2.8c10-4.7,17-14.9,17-26.7H1003.9z"/>
				<path class="st13" d="M1003.9,472.7v9.4h-47.1c0-3.3-0.5-6.5-1.6-9.4H1003.9z"/>
				<path class="st13" d="M1003.9,450.7v22h-48.7c-1.4-4.1-3.6-7.8-6.5-10.8c7.3-4,12.2-11.7,12.2-20.6v-35.4h23v21.6
					C983.9,439.2,992.6,448.9,1003.9,450.7z"/>
				<path class="st13" d="M1003.9,405.8v44.9c-11.3-1.7-20-11.5-20-23.3v-21.6H1003.9z"/>
				<rect x="983.9" y="386.6" class="st12" width="20" height="19.2"/>
				<path class="st12" d="M1003.9,362v24.6h-20v-26.9h19.9C1003.9,360.4,1003.9,361.2,1003.9,362z"/>
				<rect x="961" y="386.6" class="st12" width="23" height="19.2"/>
				<rect x="961" y="359.6" class="st12" width="23" height="26.9"/>
				<path class="st13" d="M961,405.8v35.4c0,8.9-4.9,16.7-12.2,20.6c-5.4-5.6-12.9-9.2-21.3-9.2v-46.9H961z"/>
				<path class="st12" d="M961,386.6v19.2h-33.6v-17.3c1-0.6,1.9-1.2,2.7-2H961z"/>
				<path class="st12" d="M961,359.6v26.9h-30.9c5.2-4.3,8.5-10.8,8.5-18.1v-8.8H961z"/>
				<path class="st12" d="M956.8,482.1h-25.3c0.5-5.3,5-9.4,10.4-9.4h13.3C956.3,475.6,956.8,478.8,956.8,482.1z"/>
				<path class="st12" d="M931.5,482.1h25.3c0,11.8-6.9,22-17,26.7c-3.4-1.8-6.3-4.4-8.4-7.5v-18.1
					C931.5,482.8,931.5,482.5,931.5,482.1z"/>
				<path class="st12" d="M955.3,472.7H942c-5.4,0-9.9,4.1-10.4,9.4h-4.1v-17.8c1.5,0.3,3.1,0.5,4.7,0.5h5.3c4.1,0,8-1,11.3-2.9
					C951.7,464.9,953.9,468.6,955.3,472.7z"/>
				<path class="st12" d="M927.4,452.7c8.4,0,16,3.5,21.3,9.2c-3.4,1.9-7.2,2.9-11.3,2.9h-5.3c-1.6,0-3.2-0.2-4.7-0.5V452.7z"/>
				<path class="st12" d="M938.6,359.6v8.8c0,7.3-3.3,13.8-8.5,18.1h-2.7V362c0-0.8,0-1.6,0.1-2.4H938.6z"/>
				<path class="st17" d="M931.5,501.2c2.1,3.1,5,5.7,8.4,7.5c-2.6,1.2-5.4,2.1-8.4,2.5V501.2z"/>
				<path class="st21" d="M927.4,482.1h4.1c0,0.3-0.1,0.7-0.1,1v18.1c-2.6-3.8-4.1-8.3-4.1-13.2V482.1z"/>
				<path class="st21" d="M931.5,501.2v10c-1.3,0.2-2.7,0.3-4.1,0.3c-7.2,0-13.7-2.6-18.8-6.8v-10.8c0-6.5,5.3-11.8,11.8-11.8h7.1
					v5.9C927.4,492.9,928.9,497.5,931.5,501.2z"/>
				<path class="st16" d="M927.4,386.6h2.7c-0.8,0.7-1.8,1.4-2.7,2V386.6z"/>
				<path class="st12" d="M908.6,359.6h19c-0.1,0.8-0.1,1.6-0.1,2.4v24.6h-18.8V359.6z"/>
				<path class="st17" d="M927.4,464.3v17.8h-7.1c-6.5,0-11.8,5.3-11.8,11.8v10.8c-6.5-5.4-10.6-13.5-10.6-22.6
					c0-11.4,6.4-21.2,15.9-26.1C917.2,460.2,921.9,463.2,927.4,464.3z"/>
				<path class="st12" d="M927.4,452.7v11.6c-5.5-1.1-10.2-4.1-13.6-8.3C917.9,453.9,922.5,452.7,927.4,452.7z"/>
				<path class="st13" d="M927.4,405.8v46.9c-4.9,0-9.5,1.2-13.6,3.3c-3.3-4-5.3-9.2-5.3-14.8v-35.4H927.4z"/>
				<path class="st12" d="M927.4,388.5v17.3h-18.8v-14.5c1.9,0.5,3.9,0.7,5.9,0.7h0.6C919.6,392,923.8,390.7,927.4,388.5z"/>
				<path class="st12" d="M927.4,386.6v2c-3.6,2.2-7.8,3.5-12.4,3.5h-0.6c-2,0-4-0.3-5.9-0.7v-4.7H927.4z"/>
				<path class="st20" d="M908.6,391.3v14.5h-15.3v-7.5c0-4.9,3-9.1,7.3-10.9C902.9,389.2,905.6,390.5,908.6,391.3z"/>
				<path class="st12" d="M908.6,386.6v4.7c-2.9-0.8-5.7-2.1-8-3.8c1.4-0.6,2.9-0.9,4.5-0.9H908.6z"/>
				<path class="st12" d="M908.6,359.6v26.9H905c-1.6,0-3.1,0.3-4.5,0.9c-5.8-4.3-9.6-11.2-9.6-19v-8.8c0.4,0,0.8-0.1,1.2-0.1H908.6
					z"/>
				<path class="st20" d="M890.9,368.5c0,7.8,3.8,14.7,9.6,19c-4.3,1.8-7.3,6-7.3,10.9v7.5h-1.2c-6.5,0-11.8-5.3-11.8-11.8v-22.6
					c0-6.1,4.7-11.1,10.6-11.7V368.5z"/>
			</g>
			<g>
			</g>
		</g>
	</g>
	<g id="XMLID_6_">
		<g>
			<path class="st13" d="M285.2,351.5l15.3-16.1c11.4-12,12-30,1.2-40.2l-40.6-38.7l-24.8,25.9l5.4,5.2c4.1,3.9,3.9,10.9-0.5,15.4
				c-0.3,0.3-0.6,0.6-0.8,0.8l0.2,0.2c11.4-9.7,27.6-10.1,37.5-0.6l8.3,7.9C297.2,321.5,296.7,339.5,285.2,351.5z"/>
			<path class="st13" d="M278.1,358.9l7.1-7.5c11.4-12,12-30,1.2-40.2l-8.3-7.9c-10-9.5-26.1-9-37.5,0.6c-0.9,0.8-1.8,1.6-2.6,2.5
				l-7.1,7.5c-11.4,12-12,30-1.2,40.2l8.3,7.9C248.8,372.3,266.7,370.9,278.1,358.9z"/>
			<path class="st23" d="M235.3,403.8l42.9-44.9c-11.4,12-29.4,13.3-40.1,3.1l-8.3-7.9c-10.7-10.3-10.2-28.2,1.2-40.2l7.1-7.5
				c0.8-0.9,1.7-1.7,2.6-2.5l-0.2-0.2c-4.4,3.8-10.7,4.1-14.6,0.4l-5.4-5.2l-45.3,47.5L235.3,403.8z"/>
			
				<rect x="189.2" y="340.5" transform="matrix(0.6905 -0.7234 0.7234 0.6905 -214.8355 261.9762)" class="st7" width="18.9" height="83"/>
			<path class="st25" d="M214.3,425.8l7.9-8.3l-60-57.3l-8,8.4c10.3,9.9,10.7,26.2,0.9,36.6l-2.7,2.8l21.9,20.9
				C184.9,439.1,202.9,437.7,214.3,425.8z"/>
			<path class="st25" d="M152.3,408l2.7-2.8c9.9-10.3,9.5-26.7-0.9-36.6l-20.5,21.5L152.3,408z"/>
			<path class="st27" d="M44.4,521l107.9-113l-18.7-17.9L8.7,520.9l-0.9,0.9c5.2,4.9,11.8,7.3,18.4,7.1
				C32.9,528.8,39.5,526.2,44.4,521z"/>
			<path class="st23" d="M240.5,303.8c0.3-0.3,0.6-0.5,0.8-0.8c4.4-4.6,4.6-11.5,0.5-15.4l-5.4-5.2L220.5,299l5.4,5.2
				C229.8,307.9,236.1,307.6,240.5,303.8z"/>
			<path class="st25" d="M7.9,521.9l0.9-0.9l124.9-130.8l-18.7-17.9L7,485.3C-2.9,495.6-2.5,512,7.9,521.9
				C7.9,521.9,7.9,521.9,7.9,521.9z"/>
			<path class="st12" d="M236.4,282.4l24.8-25.9l-40.6-38.7c-10.7-10.3-28.7-8.9-40.1,3.1l-4.1,4.3l0.2,0.2
				c3.9-4.1,8.9-6.3,13.8-6.7c5-0.4,9.8,1.1,13.5,4.6c7.3,7,6.9,19.3-0.8,27.4l-7.9,8.3c2.2-2.3,5-3.6,7.8-3.8s5.5,0.6,7.6,2.6
				L236.4,282.4z"/>
			<path class="st24" d="M220.5,299l15.9-16.6l-25.8-24.7c-2.1-2-4.8-2.8-7.6-2.6s-5.6,1.5-7.8,3.8c-4.4,4.6-4.6,11.5-0.5,15.5
				L220.5,299z"/>
			<path class="st24" d="M175.2,346.5l45.3-47.5l-25.8-24.7c-4.1-3.9-3.9-10.9,0.5-15.5l-9.9,10.4c-3.9,4.1-8.9,6.3-13.8,6.7
				c-4.9,0.4-9.8-1.1-13.5-4.6c-7.3-7-6.9-19.2,0.8-27.4l17.8-18.7l-0.2-0.2l-61.2,64.1L175.2,346.5z"/>
			
				<rect x="129.2" y="283.2" transform="matrix(0.6905 -0.7234 0.7234 0.6905 -191.9661 200.8024)" class="st28" width="18.9" height="83"/>
			<path class="st26" d="M154.1,368.6l8-8.4l-60-57.3l-7.9,8.3c-11.4,12-12,30-1.2,40.2l21.9,20.9l2.7-2.8c4.9-5.2,11.5-7.8,18.1-8
				C142.3,361.3,148.9,363.7,154.1,368.6z"/>
			<path class="st26" d="M133.6,390.1l20.5-21.5c-5.2-4.9-11.8-7.3-18.5-7.1c-6.6,0.2-13.2,2.8-18.1,8l-2.7,2.8L133.6,390.1z"/>
			<path class="st12" d="M195.2,258.9l7.9-8.3c7.8-8.1,8.2-20.4,0.8-27.4c-3.7-3.5-8.5-5-13.5-4.6c-4.9,0.4-9.9,2.7-13.8,6.7
				L158.8,244c-7.8,8.1-8.2,20.4-0.8,27.4c3.7,3.5,8.6,5,13.5,4.6c5-0.4,10-2.7,13.8-6.7L195.2,258.9z"/>
		</g>
		<g>
		</g>
	</g>
</g>
</svg>
