<?xml version="1.0" encoding="utf-8"?>
<!-- Generator: Adobe Illustrator 21.1.0, SVG Export Plug-In . SVG Version: 6.00 Build 0)  -->
<svg version="1.1" id="Layer_7" xmlns="http://www.w3.org/2000/svg" xmlns:xlink="http://www.w3.org/1999/xlink" x="0px" y="0px"
	 viewBox="0 0 676 663" style="enable-background:new 0 0 676 663;" xml:space="preserve">
<style type="text/css">
	.st0{fill:#E0E0E0;}
	.st1{fill:#BDBDBD;}
	.st2{fill:#3374BA;}
	.st3{fill:#EEEEEE;}
	.st4{fill:#57A0D7;}
	.st5{fill:#2B66B1;}
	.st6{fill:#14499E;}
	.st7{fill:#E4F2FC;}
</style>
<g id="XMLID_11_">
	<g>
		<path class="st0" d="M222,613.6c0,6.8-5.5,12.4-12.4,12.4c-3.4,0-6.5-1.4-8.7-3.6c-2.2-2.2-3.6-5.3-3.6-8.8V532
			c0-6.8,5.6-12.4,12.4-12.4c6.8,0,12.4,5.5,12.4,12.4V613.6z"/>
		<path class="st1" d="M507.6,73.9c0-6.8,5.6-12.4,12.4-12.4c3.4,0,6.5,1.4,8.8,3.6c2.2,2.2,3.6,5.3,3.6,8.7v22.5
			c0,6.8-5.5,12.4-12.4,12.4c-6.8,0-12.4-5.5-12.4-12.4V73.9z"/>
		<path class="st1" d="M590.3,422.6h-96.4c-6.8,0-12.4-5.5-12.4-12.4c0-6.8,5.5-12.4,12.4-12.4h96.4c6.8,0,12.4,5.5,12.4,12.4
			c0,3.4-1.4,6.5-3.6,8.7C596.9,421.2,593.8,422.6,590.3,422.6z"/>
		<path class="st0" d="M121,578.7c6.8,0,12.4,5.5,12.4,12.4v22.5c0,6.8-5.5,12.4-12.4,12.4c-3.4,0-6.5-1.4-8.7-3.6
			c-2.2-2.2-3.6-5.3-3.6-8.8v-22.5C108.6,584.2,114.2,578.7,121,578.7z"/>
		<path class="st0" d="M129.7,65.1c2.2,2.2,3.6,5.3,3.6,8.7v22.5c0,6.8-5.5,12.4-12.4,12.4c-6.8,0-12.4-5.5-12.4-12.4V73.9
			c0-6.8,5.6-12.4,12.4-12.4C124.4,61.5,127.5,62.9,129.7,65.1z"/>
		<path class="st1" d="M418.9,613.6V532c0-6.8,5.6-12.4,12.4-12.4c6.8,0,12.4,5.5,12.4,12.4v81.6c0,6.8-5.5,12.4-12.4,12.4
			c-3.4,0-6.5-1.4-8.7-3.6C420.3,620.1,418.9,617,418.9,613.6z"/>
		<path class="st2" d="M355,443.3v7.8c0,6.8-5.5,12.4-12.4,12.4c-3.4,0-6.5-1.4-8.7-3.6c-2.2-2.2-3.6-5.3-3.6-8.8v-7.8
			c0-6.8,5.6-12.4,12.4-12.4C349.5,430.9,355,436.5,355,443.3z"/>
		<path class="st0" d="M44.7,378.3c-6.8,0-12.4-5.5-12.4-12.4c0-3.4,1.4-6.5,3.6-8.8c2.2-2.2,5.3-3.6,8.8-3.6h126
			c6.8,0,12.4,5.5,12.4,12.4c0,6.8-5.5,12.4-12.4,12.4H44.7z"/>
		<path class="st0" d="M197.3,155.5V73.9c0-6.8,5.6-12.4,12.4-12.4c3.4,0,6.5,1.4,8.8,3.6c2.2,2.2,3.6,5.3,3.6,8.7v81.6
			c0,6.8-5.5,12.4-12.4,12.4C202.8,167.9,197.3,162.4,197.3,155.5z"/>
		<path class="st1" d="M481.5,277.2c0-6.8,5.5-12.4,12.4-12.4h96.4c6.8,0,12.4,5.5,12.4,12.4c0,3.4-1.4,6.5-3.6,8.7
			c-2.2,2.2-5.3,3.6-8.8,3.6h-96.4C487.1,289.6,481.5,284.1,481.5,277.2z"/>
		<path class="st3" d="M222,532c0-6.8-5.5-12.4-12.4-12.4c-6.8,0-12.4,5.5-12.4,12.4v81.6c0,3.4,1.4,6.5,3.6,8.8
			c2.2,2.2,5.3,3.6,8.7,3.6c6.8,0,12.4-5.5,12.4-12.4V532z M197.3,73.9v81.6c0,6.8,5.6,12.4,12.4,12.4c6.8,0,12.4-5.5,12.4-12.4
			V73.9c0-3.4-1.4-6.5-3.6-8.7c-2.2-2.2-5.3-3.6-8.8-3.6C202.8,61.5,197.3,67,197.3,73.9z M44.7,511.3h52.1
			c6.8,0,12.4-5.5,12.4-12.4c0-6.8-5.5-12.4-12.4-12.4H44.7c-3.4,0-6.5,1.4-8.8,3.6c-2.2,2.2-3.6,5.3-3.6,8.8
			C32.3,505.7,37.9,511.3,44.7,511.3z M44.7,466.9h81.6c6.8,0,12.4-5.5,12.4-12.4c0-6.8-5.5-12.4-12.4-12.4H44.7
			c-3.4,0-6.5,1.4-8.8,3.6c-2.2,2.2-3.6,5.3-3.6,8.8C32.3,461.4,37.9,466.9,44.7,466.9z M138.7,232.9c0-6.8-5.5-12.4-12.4-12.4H44.7
			c-3.4,0-6.5,1.4-8.8,3.6c-2.2,2.2-3.6,5.3-3.6,8.8c0,6.8,5.5,12.4,12.4,12.4h81.6C133.2,245.3,138.7,239.7,138.7,232.9z
			 M133.4,73.9c0-3.4-1.4-6.5-3.6-8.7c-2.2-2.2-5.3-3.6-8.8-3.6c-6.8,0-12.4,5.5-12.4,12.4v22.5c0,6.8,5.6,12.4,12.4,12.4
			c6.8,0,12.4-5.5,12.4-12.4V73.9z M121,578.7c-6.8,0-12.4,5.5-12.4,12.4v22.5c0,3.4,1.4,6.5,3.6,8.8c2.2,2.2,5.3,3.6,8.7,3.6
			c6.8,0,12.4-5.5,12.4-12.4v-22.5C133.4,584.2,127.8,578.7,121,578.7z M152.9,561.5v52.1c0,3.4,1.4,6.5,3.6,8.8
			c2.2,2.2,5.3,3.6,8.7,3.6c6.8,0,12.4-5.5,12.4-12.4v-52.1c0-6.8-5.5-12.4-12.4-12.4C158.5,549.1,152.9,554.7,152.9,561.5z
			 M152.9,73.9V126c0,6.8,5.6,12.4,12.4,12.4c6.8,0,12.4-5.5,12.4-12.4V73.9c0-3.4-1.4-6.5-3.6-8.7c-2.2-2.2-5.3-3.6-8.8-3.6
			C158.5,61.5,152.9,67,152.9,73.9z M285.9,451.1c0,3.4,1.4,6.5,3.6,8.8c2.2,2.2,5.3,3.6,8.7,3.6c6.8,0,12.4-5.5,12.4-12.4v-7.8
			c0-6.8-5.5-12.4-12.4-12.4c-6.8,0-12.4,5.5-12.4,12.4V451.1z M266.4,517.2c0-6.8-5.5-12.4-12.4-12.4c-6.8,0-12.4,5.5-12.4,12.4
			v96.4c0,3.4,1.4,6.5,3.6,8.8c2.2,2.2,5.3,3.6,8.7,3.6c6.8,0,12.4-5.5,12.4-12.4V517.2z M266.4,73.9c0-3.4-1.4-6.5-3.6-8.7
			c-2.2-2.2-5.3-3.6-8.8-3.6c-6.8,0-12.4,5.5-12.4,12.4v96.4c0,6.8,5.6,12.4,12.4,12.4c6.8,0,12.4-5.5,12.4-12.4V73.9z M310.7,73.9
			c0-3.4-1.4-6.5-3.6-8.7c-2.2-2.2-5.3-3.6-8.8-3.6c-6.8,0-12.4,5.5-12.4,12.4v126c0,6.8,5.6,12.4,12.4,12.4
			c6.8,0,12.4-5.5,12.4-12.4V73.9z M11.6,503.6V184.4c0-81.6,66.2-147.8,147.8-147.8H319v614.7H159.4
			C77.8,651.4,11.6,585.2,11.6,503.6z M285.9,487.6v126c0,3.4,1.4,6.5,3.6,8.8c2.2,2.2,5.3,3.6,8.7,3.6c6.8,0,12.4-5.5,12.4-12.4
			v-126c0-6.8-5.5-12.4-12.4-12.4C291.5,475.3,285.9,480.8,285.9,487.6z M32.3,543.2c0,6.8,5.5,12.4,12.4,12.4h22.5
			c6.8,0,12.4-5.5,12.4-12.4c0-6.8-5.5-12.4-12.4-12.4H44.7c-3.4,0-6.5,1.4-8.8,3.6C33.7,536.7,32.3,539.8,32.3,543.2z M32.3,321.6
			c0,6.8,5.5,12.4,12.4,12.4h126c6.8,0,12.4-5.5,12.4-12.4c0-6.8-5.5-12.4-12.4-12.4h-126c-3.4,0-6.5,1.4-8.8,3.6
			C33.7,315.1,32.3,318.2,32.3,321.6z M32.3,410.2c0,6.8,5.5,12.4,12.4,12.4h96.4c6.8,0,12.4-5.5,12.4-12.4
			c0-6.8-5.5-12.4-12.4-12.4H44.7c-3.4,0-6.5,1.4-8.8,3.6C33.7,403.7,32.3,406.8,32.3,410.2z M32.3,188.6c0,6.8,5.5,12.4,12.4,12.4
			h52.1c6.8,0,12.4-5.5,12.4-12.4c0-6.8-5.5-12.4-12.4-12.4H44.7c-3.4,0-6.5,1.4-8.8,3.6C33.7,182.1,32.3,185.2,32.3,188.6z
			 M32.3,277.2c0,6.8,5.5,12.4,12.4,12.4h96.4c6.8,0,12.4-5.5,12.4-12.4c0-6.8-5.5-12.4-12.4-12.4H44.7c-3.4,0-6.5,1.4-8.8,3.6
			C33.7,270.7,32.3,273.8,32.3,277.2z M32.3,144.3c0,6.8,5.5,12.4,12.4,12.4h22.5c6.8,0,12.4-5.5,12.4-12.4
			c0-6.8-5.5-12.4-12.4-12.4H44.7c-3.4,0-6.5,1.4-8.8,3.6C33.7,137.7,32.3,140.8,32.3,144.3z M32.3,365.9c0,6.8,5.5,12.4,12.4,12.4
			h126c6.8,0,12.4-5.5,12.4-12.4c0-6.8-5.5-12.4-12.4-12.4h-126c-3.4,0-6.5,1.4-8.8,3.6C33.7,359.4,32.3,362.5,32.3,365.9z"/>
		<path class="st0" d="M44.7,201c-6.8,0-12.4-5.5-12.4-12.4c0-3.4,1.4-6.5,3.6-8.8c2.2-2.2,5.3-3.6,8.8-3.6h52.1
			c6.8,0,12.4,5.5,12.4,12.4c0,6.8-5.5,12.4-12.4,12.4H44.7z"/>
		<path class="st1" d="M590.3,378.3h-126c-6.8,0-12.4-5.5-12.4-12.4c0-6.8,5.5-12.4,12.4-12.4h126c6.8,0,12.4,5.5,12.4,12.4
			c0,3.4-1.4,6.5-3.6,8.7C596.9,376.9,593.8,378.3,590.3,378.3z"/>
		<path class="st0" d="M289.6,622.4c-2.2-2.2-3.6-5.3-3.6-8.8v-126c0-6.8,5.6-12.4,12.4-12.4c6.8,0,12.4,5.5,12.4,12.4v126
			c0,6.8-5.5,12.4-12.4,12.4C294.9,626,291.8,624.6,289.6,622.4z"/>
		<path class="st0" d="M355,451.1v-7.8c0-6.8-5.5-12.4-12.4-12.4c-6.8,0-12.4,5.5-12.4,12.4v7.8c0,3.4,1.4,6.5,3.6,8.8
			c2.2,2.2,5.3,3.6,8.7,3.6C349.5,463.4,355,457.9,355,451.1z M355,73.9c0-3.4-1.4-6.5-3.6-8.7c-2.2-2.2-5.3-3.6-8.8-3.6
			c-6.8,0-12.4,5.5-12.4,12.4v126c0,6.8,5.6,12.4,12.4,12.4c6.8,0,12.4-5.5,12.4-12.4V73.9z M355,487.6c0-6.8-5.5-12.4-12.4-12.4
			c-6.8,0-12.4,5.5-12.4,12.4v126c0,3.4,1.4,6.5,3.6,8.8c2.2,2.2,5.3,3.6,8.7,3.6c6.8,0,12.4-5.5,12.4-12.4V487.6z M538.3,511.3
			h52.1c3.4,0,6.5-1.4,8.8-3.6c2.2-2.2,3.6-5.3,3.6-8.7c0-6.8-5.5-12.4-12.4-12.4h-52.1c-6.8,0-12.4,5.5-12.4,12.4
			C525.9,505.7,531.4,511.3,538.3,511.3z M464.4,378.3h126c3.4,0,6.5-1.4,8.8-3.6c2.2-2.2,3.6-5.3,3.6-8.7c0-6.8-5.5-12.4-12.4-12.4
			h-126c-6.8,0-12.4,5.5-12.4,12.4C452,372.7,457.5,378.3,464.4,378.3z M493.9,264.9c-6.8,0-12.4,5.5-12.4,12.4
			c0,6.8,5.5,12.4,12.4,12.4h96.4c3.4,0,6.5-1.4,8.8-3.6c2.2-2.2,3.6-5.3,3.6-8.7c0-6.8-5.5-12.4-12.4-12.4H493.9z M463.3,561.5
			v52.1c0,3.4,1.4,6.5,3.6,8.8c2.2,2.2,5.3,3.6,8.7,3.6c6.8,0,12.4-5.5,12.4-12.4v-52.1c0-6.8-5.5-12.4-12.4-12.4
			C468.8,549.1,463.3,554.7,463.3,561.5z M463.3,73.9V126c0,6.8,5.6,12.4,12.4,12.4c6.8,0,12.4-5.5,12.4-12.4V73.9
			c0-3.4-1.4-6.5-3.6-8.7c-2.2-2.2-5.3-3.6-8.8-3.6C468.8,61.5,463.3,67,463.3,73.9z M452,321.6c0,6.8,5.5,12.4,12.4,12.4h126
			c3.4,0,6.5-1.4,8.8-3.6c2.2-2.2,3.6-5.3,3.6-8.7c0-6.8-5.5-12.4-12.4-12.4h-126C457.5,309.2,452,314.7,452,321.6z M567.8,131.9
			c-6.8,0-12.4,5.5-12.4,12.4c0,6.8,5.5,12.4,12.4,12.4h22.5c3.4,0,6.5-1.4,8.8-3.6c2.2-2.2,3.6-5.3,3.6-8.7
			c0-6.8-5.5-12.4-12.4-12.4H567.8z M508.7,466.9h81.6c3.4,0,6.5-1.4,8.8-3.6c2.2-2.2,3.6-5.3,3.6-8.7c0-6.8-5.5-12.4-12.4-12.4
			h-81.6c-6.8,0-12.4,5.5-12.4,12.4C496.3,461.4,501.9,466.9,508.7,466.9z M538.3,176.2c-6.8,0-12.4,5.5-12.4,12.4
			c0,6.8,5.5,12.4,12.4,12.4h52.1c3.4,0,6.5-1.4,8.8-3.6c2.2-2.2,3.6-5.3,3.6-8.7c0-6.8-5.5-12.4-12.4-12.4H538.3z M520,578.7
			c-6.8,0-12.4,5.5-12.4,12.4v22.5c0,3.4,1.4,6.5,3.6,8.8c2.2,2.2,5.3,3.6,8.7,3.6c6.8,0,12.4-5.5,12.4-12.4v-22.5
			C532.3,584.2,526.8,578.7,520,578.7z M520,61.5c-6.8,0-12.4,5.5-12.4,12.4v22.5c0,6.8,5.6,12.4,12.4,12.4
			c6.8,0,12.4-5.5,12.4-12.4V73.9c0-3.4-1.4-6.5-3.6-8.7C526.5,62.9,523.4,61.5,520,61.5z M493.9,422.6h96.4c3.4,0,6.5-1.4,8.8-3.6
			c2.2-2.2,3.6-5.3,3.6-8.7c0-6.8-5.5-12.4-12.4-12.4h-96.4c-6.8,0-12.4,5.5-12.4,12.4C481.5,417.1,487.1,422.6,493.9,422.6z
			 M508.7,220.5c-6.8,0-12.4,5.5-12.4,12.4c0,6.8,5.5,12.4,12.4,12.4h81.6c3.4,0,6.5-1.4,8.8-3.6c2.2-2.2,3.6-5.3,3.6-8.7
			c0-6.8-5.5-12.4-12.4-12.4H508.7z M418.9,532v81.6c0,3.4,1.4,6.5,3.6,8.8c2.2,2.2,5.3,3.6,8.7,3.6c6.8,0,12.4-5.5,12.4-12.4V532
			c0-6.8-5.5-12.4-12.4-12.4C424.5,519.6,418.9,525.1,418.9,532z M418.9,73.9v81.6c0,6.8,5.6,12.4,12.4,12.4
			c6.8,0,12.4-5.5,12.4-12.4V73.9c0-3.4-1.4-6.5-3.6-8.7c-2.2-2.2-5.3-3.6-8.8-3.6C424.5,61.5,418.9,67,418.9,73.9z M319,36.6h159.6
			c81.6,0,147.8,66.2,147.8,147.8v319.2c0,81.6-66.2,147.8-147.8,147.8H319V36.6z M374.6,517.2v96.4c0,3.4,1.4,6.5,3.6,8.8
			c2.2,2.2,5.3,3.6,8.7,3.6c6.8,0,12.4-5.5,12.4-12.4v-96.4c0-6.8-5.5-12.4-12.4-12.4C380.1,504.8,374.6,510.4,374.6,517.2z
			 M374.6,73.9v96.4c0,6.8,5.6,12.4,12.4,12.4c6.8,0,12.4-5.5,12.4-12.4V73.9c0-3.4-1.4-6.5-3.6-8.7c-2.2-2.2-5.3-3.6-8.8-3.6
			C380.1,61.5,374.6,67,374.6,73.9z M602.7,543.2c0-6.8-5.5-12.4-12.4-12.4h-22.5c-6.8,0-12.4,5.5-12.4,12.4
			c0,6.8,5.5,12.4,12.4,12.4h22.5c3.4,0,6.5-1.4,8.8-3.6C601.3,549.7,602.7,546.6,602.7,543.2z"/>
		<path class="st0" d="M44.7,422.6c-6.8,0-12.4-5.5-12.4-12.4c0-3.4,1.4-6.5,3.6-8.8c2.2-2.2,5.3-3.6,8.8-3.6h96.4
			c6.8,0,12.4,5.5,12.4,12.4c0,6.8-5.5,12.4-12.4,12.4H44.7z"/>
		<path class="st0" d="M310.7,73.9v126c0,6.8-5.5,12.4-12.4,12.4c-6.8,0-12.4-5.5-12.4-12.4v-126c0-6.8,5.6-12.4,12.4-12.4
			c3.4,0,6.5,1.4,8.8,3.6C309.3,67.4,310.7,70.5,310.7,73.9z"/>
		<path class="st0" d="M96.8,511.3H44.7c-6.8,0-12.4-5.5-12.4-12.4c0-3.4,1.4-6.5,3.6-8.8c2.2-2.2,5.3-3.6,8.8-3.6h52.1
			c6.8,0,12.4,5.5,12.4,12.4C109.2,505.7,103.6,511.3,96.8,511.3z"/>
		<path class="st0" d="M44.7,156.6c-6.8,0-12.4-5.5-12.4-12.4c0-3.4,1.4-6.5,3.6-8.8c2.2-2.2,5.3-3.6,8.8-3.6h22.5
			c6.8,0,12.4,5.5,12.4,12.4c0,6.8-5.5,12.4-12.4,12.4H44.7z"/>
		<path class="st0" d="M44.7,333.9c-6.8,0-12.4-5.5-12.4-12.4c0-3.4,1.4-6.5,3.6-8.8c2.2-2.2,5.3-3.6,8.8-3.6h126
			c6.8,0,12.4,5.5,12.4,12.4c0,6.8-5.5,12.4-12.4,12.4H44.7z"/>
		<path class="st0" d="M266.4,613.6c0,6.8-5.5,12.4-12.4,12.4c-3.4,0-6.5-1.4-8.7-3.6c-2.2-2.2-3.6-5.3-3.6-8.8v-96.4
			c0-6.8,5.6-12.4,12.4-12.4c6.8,0,12.4,5.5,12.4,12.4V613.6z"/>
		<path class="st1" d="M590.3,511.3h-52.1c-6.8,0-12.4-5.5-12.4-12.4c0-6.8,5.5-12.4,12.4-12.4h52.1c6.8,0,12.4,5.5,12.4,12.4
			c0,3.4-1.4,6.5-3.6,8.7C596.9,509.9,593.8,511.3,590.3,511.3z"/>
		<path class="st1" d="M374.6,517.2c0-6.8,5.6-12.4,12.4-12.4c6.8,0,12.4,5.5,12.4,12.4v96.4c0,6.8-5.5,12.4-12.4,12.4
			c-3.4,0-6.5-1.4-8.7-3.6c-2.2-2.2-3.6-5.3-3.6-8.8V517.2z"/>
		<path class="st1" d="M525.9,188.6c0-6.8,5.5-12.4,12.4-12.4h52.1c6.8,0,12.4,5.5,12.4,12.4c0,3.4-1.4,6.5-3.6,8.7
			c-2.2,2.2-5.3,3.6-8.8,3.6h-52.1C531.4,201,525.9,195.4,525.9,188.6z"/>
		<path class="st1" d="M496.3,232.9c0-6.8,5.5-12.4,12.4-12.4h81.6c6.8,0,12.4,5.5,12.4,12.4c0,3.4-1.4,6.5-3.6,8.7
			c-2.2,2.2-5.3,3.6-8.8,3.6h-81.6C501.9,245.3,496.3,239.7,496.3,232.9z"/>
		<path class="st0" d="M152.9,126V73.9c0-6.8,5.6-12.4,12.4-12.4c3.4,0,6.5,1.4,8.8,3.6c2.2,2.2,3.6,5.3,3.6,8.7V126
			c0,6.8-5.5,12.4-12.4,12.4C158.5,138.3,152.9,132.8,152.9,126z"/>
		<path class="st1" d="M355,613.6c0,6.8-5.5,12.4-12.4,12.4c-3.4,0-6.5-1.4-8.7-3.6c-2.2-2.2-3.6-5.3-3.6-8.8v-126
			c0-6.8,5.6-12.4,12.4-12.4c6.8,0,12.4,5.5,12.4,12.4V613.6z"/>
		<path class="st0" d="M152.9,561.5c0-6.8,5.6-12.4,12.4-12.4c6.8,0,12.4,5.5,12.4,12.4v52.1c0,6.8-5.5,12.4-12.4,12.4
			c-3.4,0-6.5-1.4-8.7-3.6c-2.2-2.2-3.6-5.3-3.6-8.8V561.5z"/>
		<path class="st1" d="M463.3,561.5c0-6.8,5.6-12.4,12.4-12.4c6.8,0,12.4,5.5,12.4,12.4v52.1c0,6.8-5.5,12.4-12.4,12.4
			c-3.4,0-6.5-1.4-8.7-3.6c-2.2-2.2-3.6-5.3-3.6-8.8V561.5z"/>
		<path class="st0" d="M44.7,245.3c-6.8,0-12.4-5.5-12.4-12.4c0-3.4,1.4-6.5,3.6-8.8c2.2-2.2,5.3-3.6,8.8-3.6h81.6
			c6.8,0,12.4,5.5,12.4,12.4c0,6.8-5.5,12.4-12.4,12.4H44.7z"/>
		<path class="st1" d="M507.6,613.6v-22.5c0-6.8,5.6-12.4,12.4-12.4c6.8,0,12.4,5.5,12.4,12.4v22.5c0,6.8-5.5,12.4-12.4,12.4
			c-3.4,0-6.5-1.4-8.7-3.6C509,620.1,507.6,617,507.6,613.6z"/>
		<path class="st0" d="M241.6,170.3V73.9c0-6.8,5.6-12.4,12.4-12.4c3.4,0,6.5,1.4,8.8,3.6c2.2,2.2,3.6,5.3,3.6,8.7v96.4
			c0,6.8-5.5,12.4-12.4,12.4C247.2,182.7,241.6,177.1,241.6,170.3z"/>
		<path class="st1" d="M590.3,530.9c6.8,0,12.4,5.5,12.4,12.4c0,3.4-1.4,6.5-3.6,8.7c-2.2,2.2-5.3,3.6-8.8,3.6h-22.5
			c-6.8,0-12.4-5.5-12.4-12.4c0-6.8,5.5-12.4,12.4-12.4H590.3z"/>
		<path class="st1" d="M355,73.9v126c0,6.8-5.5,12.4-12.4,12.4c-6.8,0-12.4-5.5-12.4-12.4v-126c0-6.8,5.6-12.4,12.4-12.4
			c3.4,0,6.5,1.4,8.8,3.6C353.6,67.4,355,70.5,355,73.9z"/>
		<path class="st1" d="M555.4,144.3c0-6.8,5.5-12.4,12.4-12.4h22.5c6.8,0,12.4,5.5,12.4,12.4c0,3.4-1.4,6.5-3.6,8.7
			c-2.2,2.2-5.3,3.6-8.8,3.6h-22.5C561,156.6,555.4,151.1,555.4,144.3z"/>
		<path class="st1" d="M418.9,73.9c0-6.8,5.6-12.4,12.4-12.4c3.4,0,6.5,1.4,8.8,3.6c2.2,2.2,3.6,5.3,3.6,8.7v81.6
			c0,6.8-5.5,12.4-12.4,12.4c-6.8,0-12.4-5.5-12.4-12.4V73.9z"/>
		<path class="st1" d="M464.4,333.9c-6.8,0-12.4-5.5-12.4-12.4c0-6.8,5.5-12.4,12.4-12.4h126c6.8,0,12.4,5.5,12.4,12.4
			c0,3.4-1.4,6.5-3.6,8.7c-2.2,2.2-5.3,3.6-8.8,3.6H464.4z"/>
		<path class="st0" d="M44.7,466.9c-6.8,0-12.4-5.5-12.4-12.4c0-3.4,1.4-6.5,3.6-8.8c2.2-2.2,5.3-3.6,8.8-3.6h81.6
			c6.8,0,12.4,5.5,12.4,12.4c0,6.8-5.5,12.4-12.4,12.4H44.7z"/>
		<path class="st1" d="M463.3,73.9c0-6.8,5.6-12.4,12.4-12.4c3.4,0,6.5,1.4,8.8,3.6c2.2,2.2,3.6,5.3,3.6,8.7V126
			c0,6.8-5.5,12.4-12.4,12.4c-6.8,0-12.4-5.5-12.4-12.4V73.9z"/>
		<path class="st0" d="M44.7,289.6c-6.8,0-12.4-5.5-12.4-12.4c0-3.4,1.4-6.5,3.6-8.8c2.2-2.2,5.3-3.6,8.8-3.6h96.4
			c6.8,0,12.4,5.5,12.4,12.4c0,6.8-5.5,12.4-12.4,12.4H44.7z"/>
		<path class="st1" d="M590.3,466.9h-81.6c-6.8,0-12.4-5.5-12.4-12.4c0-6.8,5.5-12.4,12.4-12.4h81.6c6.8,0,12.4,5.5,12.4,12.4
			c0,3.4-1.4,6.5-3.6,8.7C596.9,465.6,593.8,466.9,590.3,466.9z"/>
		<path class="st1" d="M374.6,170.3V73.9c0-6.8,5.6-12.4,12.4-12.4c3.4,0,6.5,1.4,8.8,3.6c2.2,2.2,3.6,5.3,3.6,8.7v96.4
			c0,6.8-5.5,12.4-12.4,12.4C380.1,182.7,374.6,177.1,374.6,170.3z"/>
		<path class="st4" d="M285.9,451.1v-7.8c0-6.8,5.6-12.4,12.4-12.4c6.8,0,12.4,5.5,12.4,12.4v7.8c0,6.8-5.5,12.4-12.4,12.4
			c-3.4,0-6.5-1.4-8.7-3.6C287.3,457.6,285.9,454.5,285.9,451.1z"/>
		<path class="st0" d="M44.7,555.6c-6.8,0-12.4-5.5-12.4-12.4c0-3.4,1.4-6.5,3.6-8.8c2.2-2.2,5.3-3.6,8.8-3.6h22.5
			c6.8,0,12.4,5.5,12.4,12.4c0,6.8-5.5,12.4-12.4,12.4H44.7z"/>
	</g>
	<g>
	</g>
</g>
<g>
	<g>
		<g>
			<path class="st5" d="M533.5,370.3l-24.3-59.5l-34.7,54.1c-1.6-0.1-3-1.1-4-2.4c-1-1.3-1.5-3.1-1.3-5l7.8-85.3l7.8-85.3
				c0.2-1.9,1-3.5,2.2-4.7c1.2-1.1,2.7-1.8,4.3-1.6l29.5,2.7l29.5,2.7c1.6,0.1,3,1.1,4,2.4c1,1.3,1.5,3.1,1.3,5l-7.8,85.3L540,364
				c-0.2,1.9-1,3.5-2.2,4.7C536.7,369.8,535.1,370.5,533.5,370.3z"/>
			<path class="st6" d="M620.8,361.3l-39.2-50.9l-19,61.4c-1.6,0.3-3.2-0.2-4.5-1.2c-1.3-1-2.2-2.6-2.6-4.5l-15.2-84.3l-15.2-84.3
				c-0.3-1.9,0-3.7,0.9-5.1c0.8-1.4,2.2-2.4,3.8-2.7l29.1-5.2l29.1-5.2c1.6-0.3,3.2,0.2,4.5,1.2c1.3,1,2.2,2.6,2.6,4.5l15.2,84.3
				l15.2,84.3c0.3,1.9,0,3.7-0.9,5.1C623.7,360,622.4,361,620.8,361.3z"/>
		</g>
		<g>
			<polygon class="st2" points="658.7,134.5 667.2,119.8 658.7,105.1 663.1,88.8 651.1,76.8 651.1,59.9 636.5,51.4 632.1,35.1 
				615.7,30.7 607.3,16.1 590.4,16.1 578.4,4.1 562,8.5 547.4,0 532.7,8.5 516.4,4.1 504.4,16.1 487.5,16.1 479,30.7 462.7,35.1 
				458.3,51.4 443.6,59.9 443.6,76.8 431.7,88.8 436,105.1 427.6,119.8 436,134.5 431.7,150.8 443.6,162.8 443.6,179.7 458.3,188.2 
				462.7,204.5 479,208.9 487.5,223.6 504.4,223.6 516.4,235.5 532.7,231.2 547.4,239.6 562,231.2 578.4,235.5 590.4,223.6 
				607.3,223.6 615.7,208.9 632.1,204.5 636.5,188.2 651.1,179.7 651.1,162.8 663.1,150.8 			"/>
			<polygon class="st7" points="639.8,132 646.8,119.8 639.8,107.6 643.5,94.1 633.5,84.1 633.5,70.1 621.3,63 617.7,49.5 
				604.1,45.8 597.1,33.7 583.1,33.7 573.1,23.7 559.5,27.4 547.4,20.3 535.2,27.4 521.6,23.7 511.7,33.7 497.6,33.7 490.6,45.8 
				477,49.5 473.4,63 461.2,70.1 461.2,84.1 451.3,94.1 454.9,107.6 447.9,119.8 454.9,132 451.3,145.6 461.2,155.5 461.2,169.5 
				473.4,176.6 477,190.1 490.6,193.8 497.6,205.9 511.7,205.9 521.6,215.9 535.2,212.2 547.4,219.3 559.5,212.2 573.1,215.9 
				583.1,205.9 597.1,205.9 604.1,193.8 617.7,190.1 621.3,176.6 633.5,169.5 633.5,155.5 643.5,145.6 			"/>
		</g>
	</g>
	<g>
		<path class="st2" d="M598.3,175.1h-52.9v-6.6c2.5-1.1,5.1-2.1,7.7-3c2.6-0.9,5.2-1.6,7.9-2.2V93.2l0.6-9c-2.9,0.9-5.8,1.5-8.9,1.8
			c-3.1,0.3-6.2,0.4-9.5,0.3l-0.8-5.7c5.4-1.4,11.3-3.4,17.7-5.8c6.4-2.4,12.3-5.3,17.7-8.6h5.2v97.1c2.5,0.6,5.1,1.4,7.6,2.2
			c2.5,0.9,5.1,1.9,7.6,3V175.1z"/>
	</g>
	<g>
		<path class="st2" d="M512.1,99.2h-10.9l-0.2,13.5h-6.2l0.2-13.5h-7.1l0.4-5.5h6.8l0.1-11h-6.8l0.4-5.5h6.5l0.2-13.6h6.2l-0.1,13.6
			h10.9l0.2-13.6h6.2l-0.2,13.6h6.9l-0.7,5.5h-6.4l-0.1,11h6.7l-0.7,5.5h-6.1l-0.2,13.5h-6.2L512.1,99.2z M501.2,93.7h10.9l0.1-11
			h-10.9L501.2,93.7z"/>
	</g>
</g>
</svg>
