<?xml version="1.0" encoding="utf-8"?>
<!-- Generator: Adobe Illustrator 15.0.0, SVG Export Plug-In . SVG Version: 6.00 Build 0)  -->
<!DOCTYPE svg PUBLIC "-//W3C//DTD SVG 1.1//EN" "http://www.w3.org/Graphics/SVG/1.1/DTD/svg11.dtd">
<svg version="1.1" id="Layer_1" xmlns="http://www.w3.org/2000/svg" xmlns:xlink="http://www.w3.org/1999/xlink" x="0px" y="0px"
	 width="343.697754px" height="66.386719px" viewBox="0 0 343.697754 66.386719" enable-background="new 0 0 343.697754 66.386719"
	 xml:space="preserve">
<path fill="#4F4F4F" d="M102.097168,43.12793l-1.900391-1.548828c-0.807129-0.626953-1.660645-0.558594-2.385254,0.164062
	l-0.4375,0.425781c-1.353516,1.326172-2.754883,2.699219-5.830078,2.699219c-4.317871,0-7.697266-3.658203-7.697266-8.326172
	c0-4.630859,3.410645-8.255859,7.767578-8.255859c1.904785,0,3.899902,0.949219,5.365234,2.572266l0.123047,0.109375
	c0.339844,0.302734,0.724609,0.646484,1.234375,0.646484c0.347656,0,0.6875-0.158203,1.039062-0.478516l2.293457-2.087891
	c0.384766-0.298828,0.632812-0.714844,0.701172-1.169922c0.070312-0.466797-0.054688-0.935547-0.359375-1.324219
	c-2.771973-3.447266-6.196289-5.123047-10.467285-5.123047c-8.193359,0-15.116211,6.951172-15.116211,15.181641
	c0,8.292969,6.749023,15.041016,15.045898,15.041016c4.763672,0,8.73877-2.15625,11.186035-6.054688
	C103.226074,44.788086,103.015137,43.862305,102.097168,43.12793"/>
<path fill="#4F4F4F" d="M132.10498,22.131836h-3.648438c-0.949219,0-1.919922,0.203125-1.919922,1.708984l0.005859,16.708984
	c-0.167969,1.005859-2.544922,4.318359-6.578125,4.318359c-3.46875,0-5.378906-2.359375-5.378906-6.642578V23.84082
	c0-0.910156-0.798828-1.708984-1.708984-1.708984h-4c-0.910156,0-1.708984,0.798828-1.708984,1.708984v14.173828
	c0,8.794922,4.171875,13.638672,11.744141,13.638672c5.011719,0,7.935547-2.472656,9.099609-3.5625l0.509766,1.482422
	c0.304688,0.914062,0.849609,1.378906,1.619141,1.378906h1.964844c0.910156,0,1.707031-0.798828,1.707031-1.708984V23.84082
	C133.812012,22.930664,133.015137,22.131836,132.10498,22.131836"/>
<path fill="#4F4F4F" d="M164.341309,43.12793l-1.900391-1.548828c-0.804688-0.626953-1.660156-0.558594-2.382812,0.164062
	l-0.4375,0.425781c-1.353516,1.326172-2.753906,2.699219-5.830078,2.699219c-4.316406,0-7.695312-3.658203-7.695312-8.326172
	c0-4.630859,3.410156-8.255859,7.765625-8.255859c1.90625,0,3.900391,0.949219,5.365234,2.572266l0.123047,0.109375
	c0.339844,0.302734,0.722656,0.646484,1.234375,0.646484c0.347656,0,0.6875-0.158203,1.037109-0.478516l2.292969-2.087891
	c0.384766-0.298828,0.634766-0.714844,0.703125-1.169922c0.070312-0.466797-0.056641-0.935547-0.359375-1.324219
	c-2.771484-3.447266-6.195312-5.123047-10.466797-5.123047c-8.191406,0-15.113281,6.951172-15.113281,15.181641
	c0,8.292969,6.748047,15.041016,15.042969,15.041016c4.761719,0,8.738281-2.15625,11.183594-6.054688
	C165.472168,44.788086,165.26123,43.862305,164.341309,43.12793"/>
<path fill="#4F4F4F" d="M194.351074,22.131836h-3.648438c-0.949219,0-1.919922,0.203125-1.919922,1.708984l0.005859,16.708984
	c-0.167969,1.005859-2.544922,4.318359-6.578125,4.318359c-3.46875,0-5.378906-2.359375-5.378906-6.642578V23.84082
	c0-0.910156-0.798828-1.708984-1.708984-1.708984h-4c-0.910156,0-1.708984,0.798828-1.708984,1.708984v14.173828
	c0,8.794922,4.171875,13.638672,11.744141,13.638672c5.011719,0,7.935547-2.472656,9.097656-3.5625l0.511719,1.482422
	c0.304688,0.914062,0.849609,1.378906,1.619141,1.378906h1.964844c0.910156,0,1.707031-0.798828,1.707031-1.708984V23.84082
	C196.058105,22.930664,195.26123,22.131836,194.351074,22.131836"/>
<path fill="#4F4F4F" d="M237.157715,21.430664c-5.015625,0-8.953125,3.224609-10.125,4.300781
	c-2.169922-2.853516-5.230469-4.300781-9.103516-4.300781c-3.349609,0-6.546875,1.273438-9.089844,3.619141l-0.599609-1.849609
	c-0.304688-0.708984-0.820312-1.068359-1.539062-1.068359h-1.964844c-0.910156,0-1.707031,0.798828-1.707031,1.708984v25.402344
	c0,0.910156,0.796875,1.708984,1.707031,1.708984h3.929688c0.910156,0,1.708984-0.798828,1.708984-1.708984V32.196289
	c0.341797-0.746094,2.554688-3.912109,6.572266-3.912109c4.621094,0,5.589844,3.576172,5.589844,6.574219v14.384766
	c0,0.941406,0.767578,1.708984,1.708984,1.708984h3.71875c0.910156,0,1.708984-0.798828,1.708984-1.708984V34.717773
	c0-1.382812-0.066406-2.5625-0.179688-3.238281c0.033203-0.03125,0.068359-0.066406,0.105469-0.103516
	c0.841797-0.845703,3.082031-3.091797,6.716797-3.091797c3.513672,0,5.449219,2.333984,5.449219,6.574219v14.384766
	c0,0.941406,0.765625,1.708984,1.708984,1.708984h3.929688c0.941406,0,1.707031-0.767578,1.707031-1.708984V35.137695
	C249.11084,26.299805,244.864746,21.430664,237.157715,21.430664"/>
<path fill="#4F4F4F" d="M268.751465,21.430664c-3.007812,0-5.316406,0.929688-6.361328,1.363281V9.788086
	c0-0.910156-0.798828-1.708984-1.708984-1.708984h-4.070312c-0.910156,0-1.707031,0.798828-1.707031,1.708984v39.455078
	c0,0.910156,0.796875,1.708984,1.707031,1.708984h2.105469c0.753906,0,1.34375-0.533203,1.625-1.46875l0.386719-1.402344
	c1.126953,1.083984,4.208984,3.572266,8.724609,3.572266c7.570312,0,13.498047-6.636719,13.498047-15.111328
	S276.714355,21.430664,268.751465,21.430664 M275.675293,36.541992c0,4.746094-3.037109,8.326172-7.064453,8.326172
	c-4.134766,0-6.023438-3.394531-6.291016-3.921875V29.737305c0.603516-0.345703,2.773438-1.451172,5.730469-1.451172
	C272.395996,28.286133,275.675293,31.834961,275.675293,36.541992"/>
<path fill="#4F4F4F" d="M301.259277,21.430664c-8.214844,0-14.410156,6.496094-14.410156,15.111328
	s6.226562,15.111328,14.480469,15.111328c4.042969,0,8.015625-1.345703,10.626953-3.595703
	c0.439453-0.367188,0.669922-0.738281,0.701172-1.138672c0.041016-0.515625-0.277344-0.943359-0.5-1.195312l-1.972656-2.679688
	c-0.302734-0.378906-0.634766-0.560547-1.011719-0.560547c-0.435547,0-0.845703,0.238281-1.380859,0.550781
	c-1.134766,0.736328-3.429688,1.974609-6.041016,1.974609c-4.335938,0-7.273438-3.433594-7.662109-6.757812h18.679688
	c0.84375,0,1.548828-0.658203,1.632812-1.515625c0.076172-0.527344,0.144531-1.455078,0.144531-1.947266
	C314.546387,27.172852,308.835449,21.430664,301.259277,21.430664 M294.466309,33.079102
	c0.585938-3.208984,3.347656-5.496094,6.722656-5.496094c3.021484,0,5.652344,2.431641,6.044922,5.496094H294.466309z"/>
<path fill="#4F4F4F" d="M338.401855,23.014648c-0.785156-1.167969-3.28125-1.583984-5.353516-1.583984
	c-4.390625,0-7.021484,2.429688-8.070312,3.658203l-0.546875-1.691406c-0.175781-0.697266-0.875-1.265625-1.558594-1.265625
	h-2.035156c-0.910156,0-1.707031,0.798828-1.707031,1.708984v25.402344c0,0.910156,0.796875,1.708984,1.707031,1.708984h3.369141
	c0.849609,0,2.269531,0,2.269531-1.708984V31.522461c0.322266-0.513672,2.167969-3.166016,5.941406-3.166016
	c0.847656,0,1.849609,0.265625,2.232422,0.458984c0.876953,0.386719,1.785156,0.048828,2.173828-0.810547l1.695312-3.462891
	C338.743652,23.991211,338.702637,23.463867,338.401855,23.014648"/>
<path fill="#16AC5B" d="M32.049316,42.204102c3.787109,0,6.855469-8.048828,6.855469-17.978516S35.836426,6.24707,32.049316,6.24707
	c-3.784668,0-6.85498,8.048828-6.85498,17.978516S28.264648,42.204102,32.049316,42.204102"/>
<path fill="#16AC5B" d="M32.049316,49.702148c-4.747559,0-8.597168,2.527344-8.597168,5.646484
	c0,3.117188,3.849609,5.644531,8.597168,5.644531c4.75,0,8.597656-2.527344,8.597656-5.644531
	C40.646973,52.229492,36.799316,49.702148,32.049316,49.702148"/>
<path fill="#16AC5B" d="M8.28418,14.575195c-3.646973,0.988281-4.38916,9.544922-1.658203,19.113281
	s7.900879,16.527344,11.547852,15.541016c3.645508-0.988281,4.389648-9.544922,1.65918-19.113281
	C17.100586,20.545898,11.931152,13.588867,8.28418,14.575195"/>
<path fill="#16AC5B" d="M44.267578,30.116211c-2.730469,9.568359-1.988281,18.125,1.658203,19.111328
	c3.646973,0.988281,8.816895-5.96875,11.547852-15.539062c2.732422-9.568359,1.990234-18.126953-1.658203-19.113281
	C52.168457,13.588867,46.998047,20.545898,44.267578,30.116211"/>
</svg>
