<?xml version="1.0" encoding="utf-8"?>
<!-- Generator: Adobe Illustrator 15.0.0, SVG Export Plug-In . SVG Version: 6.00 Build 0)  -->
<!DOCTYPE svg PUBLIC "-//W3C//DTD SVG 1.1//EN" "http://www.w3.org/Graphics/SVG/1.1/DTD/svg11.dtd">
<svg version="1.1" id="Layer_2" xmlns="http://www.w3.org/2000/svg" xmlns:xlink="http://www.w3.org/1999/xlink" x="0px" y="0px"
	 width="4700px" height="680px" viewBox="4.25 2.25 4700 680" enable-background="new 4.25 2.25 4700 680" xml:space="preserve">
<path fill="#4F4F4F" d="M999.648,392.043l-19.091-15.555c-8.096-6.308-16.673-5.631-23.946,1.646l-4.389,4.276
	c-13.599,13.319-27.658,27.11-58.562,27.11c-43.335,0-77.28-36.741-77.28-83.633c0-46.498,34.258-82.915,77.997-82.915
	c19.15,0,39.177,9.543,53.889,25.843l1.236,1.088c3.407,3.041,7.263,6.493,12.396,6.493c3.482,0,6.9-1.58,10.422-4.815l23.028-20.96
	c3.869-2.991,6.37-7.169,7.051-11.739c0.706-4.688-0.559-9.406-3.604-13.32c-27.84-34.611-62.225-51.451-105.135-51.451
	c-82.263,0-151.771,69.831-151.771,152.482c0,83.297,67.772,151.068,151.07,151.068c47.837,0,87.77-21.655,112.334-60.809
	C1010.996,408.705,1008.877,399.419,999.648,392.043"/>
<path fill="#4F4F4F" d="M1301.027,181.165h-36.646c-9.533,0-19.272,2.041-19.272,17.155l0.049,167.831
	c-1.678,10.101-25.56,43.371-66.056,43.371c-34.837,0-54.031-23.696-54.031-66.714V198.319c0-9.132-8.014-17.155-17.154-17.155
	h-40.173c-9.141,0-17.164,8.022-17.164,17.155v142.37c0,88.328,41.889,136.975,117.948,136.975
	c50.325,0,79.694-24.843,91.375-35.799l5.129,14.909c3.065,9.179,8.538,13.849,16.261,13.849h19.733
	c9.141,0,17.155-8.023,17.155-17.164v-255.14C1318.182,189.187,1310.167,181.165,1301.027,181.165"/>
<path fill="#4F4F4F" d="M1624.793,392.043l-19.09-15.555c-8.096-6.308-16.674-5.631-23.946,1.646l-4.39,4.276
	c-13.598,13.319-27.658,27.11-58.556,27.11c-43.341,0-77.286-36.741-77.286-83.633c0-46.498,34.258-82.915,77.996-82.915
	c19.15,0,39.177,9.543,53.889,25.843l1.236,1.088c3.408,3.041,7.264,6.493,12.397,6.493c3.482,0,6.9-1.58,10.422-4.815l23.033-20.96
	c3.865-2.991,6.365-7.169,7.047-11.739c0.707-4.688-0.563-9.406-3.604-13.32c-27.84-34.611-62.225-51.451-105.129-51.451
	c-82.269,0-151.777,69.831-151.777,152.482c0,83.297,67.772,151.068,151.07,151.068c47.837,0,87.77-21.655,112.333-60.809
	C1636.141,408.705,1634.022,399.419,1624.793,392.043"/>
<path fill="#4F4F4F" d="M1926.172,181.165h-36.646c-9.533,0-19.271,2.041-19.271,17.155l0.049,167.831
	c-1.678,10.101-25.559,43.371-66.057,43.371c-34.836,0-54.03-23.696-54.03-66.714V198.319c0-9.132-8.014-17.155-17.155-17.155
	h-40.172c-9.141,0-17.163,8.022-17.163,17.155v142.37c0,88.328,41.889,136.975,117.948,136.975
	c50.325,0,79.692-24.843,91.369-35.799l5.134,14.909c3.065,9.179,8.538,13.849,16.263,13.849h19.732
	c9.141,0,17.154-8.023,17.154-17.164v-255.14C1943.326,189.187,1935.312,181.165,1926.172,181.165"/>
<path fill="#4F4F4F" d="M2356.094,174.124c-50.384,0-89.914,32.395-101.692,43.193c-21.794-28.667-52.527-43.193-91.425-43.193
	c-33.635,0-65.762,12.789-91.301,36.347l-6.016-18.566c-3.057-7.122-8.244-10.74-15.447-10.74h-19.733
	c-9.143,0-17.154,8.022-17.154,17.155v255.14c0,9.141,8.012,17.164,17.154,17.164h39.466c9.141,0,17.154-8.023,17.154-17.164
	V282.254c3.427-7.493,25.661-39.29,66.016-39.29c46.399,0,56.139,35.907,56.139,66.015v144.479c0,9.456,7.696,17.164,17.156,17.164
	h37.354c9.135,0,17.162-8.023,17.162-17.164V307.567c0-13.886-0.661-25.735-1.799-32.513c0.322-0.323,0.671-0.677,1.045-1.048
	c8.469-8.484,30.952-31.042,67.463-31.042c35.298,0,54.716,23.44,54.716,66.015v144.479c0,9.456,7.709,17.164,17.165,17.164h39.485
	c9.455,0,17.145-7.708,17.145-17.164V311.795C2476.146,223.015,2433.501,174.124,2356.094,174.124"/>
<path fill="#4F4F4F" d="M2673.381,174.114c-30.188,0-53.394,9.347-63.889,13.71V57.194c0-9.141-8.003-17.154-17.145-17.154h-40.879
	c-9.139,0-17.144,8.013-17.144,17.154v396.265c0,9.141,8.005,17.155,17.144,17.155h21.146c7.552,0,13.496-5.347,16.32-14.742
	l3.883-14.084c11.319,10.888,42.252,35.876,87.625,35.876c76.03,0,135.562-66.672,135.562-151.775
	C2816.006,240.787,2753.373,174.114,2673.381,174.114 M2742.937,325.889c0,47.676-30.501,83.633-70.949,83.633
	c-41.544,0-60.493-34.093-63.2-39.398V257.549c6.079-3.473,27.873-14.575,57.552-14.575
	C2710.002,242.974,2742.937,278.615,2742.937,325.889"/>
<path fill="#4F4F4F" d="M2999.883,174.124c-82.504,0-144.726,65.241-144.726,151.765c0,86.535,62.536,151.775,145.431,151.775
	c40.604,0,80.504-13.515,106.729-36.111c4.414-3.688,6.729-7.436,7.043-11.437c0.412-5.178-2.785-9.474-5.021-12.006l-19.812-26.911
	c-3.041-3.807-6.376-5.648-10.161-5.648c-4.374,0-8.493,2.411-13.868,5.55c-11.398,7.396-34.444,19.833-60.672,19.833
	c-43.547,0-73.049-34.505-76.95-67.881h187.604c8.473,0,15.553-6.61,16.396-15.223c0.766-5.295,1.453-14.623,1.453-19.556
	C3133.328,231.793,3075.971,174.124,2999.883,174.124 M2931.66,291.119c5.884-32.227,33.62-55.197,67.515-55.197
	c30.347,0,56.77,24.412,60.713,55.197H2931.66z"/>
<path fill="#4F4F4F" d="M3372.913,190.041c-7.887-11.729-32.955-15.917-53.767-15.917c-44.096,0-70.518,24.401-81.052,36.74
	l-5.492-16.978c-1.766-7.013-8.788-12.721-15.653-12.721h-20.439c-9.141,0-17.145,8.033-17.145,17.155v255.14
	c0,9.141,8.004,17.164,17.145,17.164h33.836c8.533,0,22.793,0,22.793-17.164V275.487c3.237-5.169,21.773-31.808,59.672-31.808
	c8.514,0,18.576,2.678,22.418,4.609c8.81,3.895,17.93,0.491,21.834-8.14l17.025-34.768
	C3376.345,199.85,3375.934,194.534,3372.913,190.041"/>
<path fill="#4F4F4F" d="M3689.529,403.411c-1.139-2.54-4.572-10.27-13.026-10.27c-2.511,0-5.178,0.667-8.275,2.099
	c-11.339,5.658-28.993,12.278-41.312,12.278c-10.67,0-18.832-1.783-18.832-24.44V247.25h68.163c9.436,0,17.126-7.68,17.126-17.125
	v-31.71c0-9.777-7.355-17.133-17.126-17.133h-68.163v-75.206c0-9.279-7.531-17.124-16.496-17.124l-40.094,0.705
	c-9.143,0-17.145,7.994-17.145,17.125v74.5h-25.873c-9.75,0-17.125,7.356-17.125,17.133v31.71c0,9.445,7.688,17.125,17.125,17.125
	h25.873v142.871c0,37.612,7.846,87.623,75.637,87.623c35.642,0,77.992-17.852,84.131-21.548c9.318-4.66,12.261-12.613,8.141-21.676
	L3689.529,403.411z"/>
<path fill="#4F4F4F" d="M3870.757,174.241c-80.56,0-146.116,67.752-146.116,151.04c0,84.062,65.557,152.463,146.116,152.463
	c80.562,0,146.087-68.401,146.087-152.463C4016.844,241.993,3951.318,174.241,3870.757,174.241 M3946.669,325.281
	c0,46.52-34.052,84.356-75.912,84.356c-41.841,0-75.894-37.837-75.894-84.356c0-45.362,34.053-82.258,75.894-82.258
	C3912.617,243.023,3946.669,279.919,3946.669,325.281"/>
<path fill="#4F4F4F" d="M4221.75,174.231c-50.688,0-85.311,26.147-97.061,36.553l-6.49-18.321
	c-1.902-6.787-7.749-11.181-14.869-11.181h-20.44c-9.12,0-17.123,8.003-17.123,17.124v255.15c0,9.121,8.003,17.136,17.123,17.136
	h36.664c8.57,0,19.947-1.775,19.947-17.136V282.283c4.218-9.867,33.601-39.25,74.5-39.25c35.309,0,54.768,23.451,54.768,66.036
	v144.488c0,9.436,7.669,17.136,17.123,17.136h40.173c9.123,0,17.125-8.015,17.125-17.136V311.883
	C4343.189,224.398,4298.918,174.231,4221.75,174.231"/>
<path fill="#4F4F4F" d="M4647.663,181.283h-36.661c-9.514,0-19.242,2.04-19.242,17.133l0.059,167.833
	c-1.688,10.101-25.578,43.398-66.088,43.398c-34.873,0-54.059-23.704-54.059-66.752V198.416c0-9.13-8.005-17.133-17.125-17.133
	h-40.172c-9.122,0-17.125,8.003-17.125,17.133v142.37c0,88.312,41.879,136.958,117.91,136.958c35.191,0,60.084-12.144,75.912-23.187
	v97c0,22.655-8.18,24.46-18.83,24.46c-12.359,0-29.973-6.63-41.41-12.356c-3-1.375-5.67-2.04-8.179-2.04
	c-8.475,0-11.908,7.727-13.064,10.375l-12.632,30.876c-4.178,9.199-1.236,17.143,7.826,21.675
	c6.375,3.825,48.746,21.675,84.387,21.675c67.771,0,75.638-50.001,75.638-87.613V453.557v-37.965V198.416
	C4664.808,189.286,4656.805,181.283,4647.663,181.283"/>
<path fill="#16AC5B" d="M296.197,382.766c38.025,0,68.847-80.848,68.847-180.573c0-99.726-30.821-180.562-68.847-180.562
	c-38.024,0-68.846,80.836-68.846,180.562C227.352,301.918,258.173,382.766,296.197,382.766"/>
<path fill="#16AC5B" d="M296.197,458.061c-47.695,0-86.348,25.392-86.348,56.697c0,31.327,38.652,56.709,86.348,56.709
	c47.696,0,86.354-25.382,86.354-56.709C382.551,483.452,343.893,458.061,296.197,458.061"/>
<path fill="#16AC5B" d="M57.515,105.282c-36.627,9.906-44.082,95.852-16.654,191.946c27.428,96.109,79.351,165.998,115.979,156.075
	c36.617-9.908,44.08-95.844,16.653-191.95C146.064,165.248,94.142,95.366,57.515,105.282"/>
<path fill="#16AC5B" d="M418.908,261.344c-27.428,96.116-19.968,182.051,16.649,191.959c36.627,9.914,88.549-59.956,115.982-156.063
	c27.428-96.097,19.973-182.052-16.653-191.968C498.258,95.376,446.335,165.248,418.908,261.344"/>
</svg>
