<?xml version="1.0" encoding="utf-8"?>
<!-- Generator: Adobe Illustrator 21.1.0, SVG Export Plug-In . SVG Version: 6.00 Build 0)  -->
<svg version="1.1" id="Layer_5" xmlns="http://www.w3.org/2000/svg" xmlns:xlink="http://www.w3.org/1999/xlink" x="0px" y="0px"
	 viewBox="0 0 800 922" style="enable-background:new 0 0 800 922;" xml:space="preserve">
<style type="text/css">
	.st0{fill:#212121;}
	.st1{fill:#434343;}
	.st2{fill:#478FCC;}
	.st3{fill:#EEEEEE;}
	.st4{fill:#FFFFFF;}
</style>
<g id="Layer_6">
	<rect x="385.1" y="24.9" class="st0" width="20.8" height="28.6"/>
	<rect x="400" y="24.9" width="20.8" height="28.6"/>
</g>
<g id="Layer_7">
	<path class="st0" d="M733.1,0H350v922h450V66.9C800,30.1,769.9,0,733.1,0z M400,48c-5,0-9-4-9-9c0-5,4-9,9-9s9,4,9,9
		C409,44,405,48,400,48z"/>
	<path class="st1" d="M391,39c0-5,4-9,9-9V0H66.9C30.1,0,0,30.1,0,66.9V922h400V48C395,48,391,44,391,39z"/>
</g>
<g id="Layer_8">
	<rect x="58" y="72" class="st2" width="684" height="850"/>
	<rect x="58" y="124" class="st3" width="684" height="798"/>
	<rect x="58" y="124" class="st4" width="684" height="50"/>
	<path class="st4" d="M75,922V206c0-6.6,5.4-12,12-12h625c6.6,0,12,5.4,12,12v716"/>
</g>
</svg>
