<?xml version="1.0" encoding="utf-8"?>
<!-- Generator: Adobe Illustrator 21.1.0, SVG Export Plug-In . SVG Version: 6.00 Build 0)  -->
<svg version="1.1" xmlns="http://www.w3.org/2000/svg" xmlns:xlink="http://www.w3.org/1999/xlink" x="0px" y="0px"
	 viewBox="0 0 875.1 290.8" style="enable-background:new 0 0 875.1 290.8;" xml:space="preserve">
<style type="text/css">
	.st0{clip-path:url(#SVGID_2_);}
	.st1{fill:#14499E;}
	.st2{fill:#3374BA;}
	.st3{clip-path:url(#SVGID_2_);fill:#757576;}
	.st4{clip-path:url(#SVGID_2_);fill:#F2D8C2;}
	.st5{clip-path:url(#SVGID_2_);fill:#00579B;}
	.st6{clip-path:url(#SVGID_2_);fill:#BDBDBD;}
	.st7{clip-path:url(#SVGID_2_);fill:#D1D2D2;}
	.st8{clip-path:url(#SVGID_2_);fill:#E0E0E0;}
	.st9{clip-path:url(#SVGID_2_);fill:#1FA153;}
	.st10{clip-path:url(#SVGID_2_);fill:#0277BD;}
	.st11{clip-path:url(#SVGID_2_);fill:#20AD5C;}
	.st12{clip-path:url(#SVGID_2_);fill:#EEEEEE;}
	.st13{clip-path:url(#SVGID_2_);fill:#F5F5F5;}
	.st14{clip-path:url(#SVGID_2_);fill:#F8DFC5;}
	.st15{clip-path:url(#SVGID_2_);fill:#FFFFFF;}
	.st16{clip-path:url(#SVGID_2_);fill:#3E2723;}
	.st17{clip-path:url(#SVGID_2_);fill:#010101;}
	.st18{clip-path:url(#SVGID_2_);fill:#EE4481;}
	.st19{clip-path:url(#SVGID_2_);fill:#F06492;}
	.st20{clip-path:url(#SVGID_2_);fill:#E6CDBB;}
	.st21{clip-path:url(#SVGID_2_);fill:#F1B6AF;}
	.st22{clip-path:url(#SVGID_2_);fill:#F280AA;}
	.st23{clip-path:url(#SVGID_2_);fill:#F4C5BE;}
	.st24{clip-path:url(#SVGID_2_);fill:#4E352E;}
	.st25{clip-path:url(#SVGID_2_);fill:#212121;}
	.st26{opacity:0.5;clip-path:url(#SVGID_2_);fill:#FFFFFF;}
	.st27{fill:#D0D8DC;}
	.st28{font-family:'OpenSans';}
	.st29{font-size:48px;}
	.st30{clip-path:url(#SVGID_4_);}
	.st31{clip-path:url(#SVGID_4_);fill:#757576;}
	.st32{clip-path:url(#SVGID_4_);fill:#F2D8C2;}
	.st33{clip-path:url(#SVGID_4_);fill:#00579B;}
	.st34{clip-path:url(#SVGID_4_);fill:#BDBDBD;}
	.st35{clip-path:url(#SVGID_4_);fill:#D1D2D2;}
	.st36{clip-path:url(#SVGID_4_);fill:#E0E0E0;}
	.st37{clip-path:url(#SVGID_4_);fill:#1FA153;}
	.st38{clip-path:url(#SVGID_4_);fill:#0277BD;}
	.st39{clip-path:url(#SVGID_4_);fill:#20AD5C;}
	.st40{clip-path:url(#SVGID_4_);fill:#EEEEEE;}
	.st41{clip-path:url(#SVGID_4_);fill:#F5F5F5;}
	.st42{clip-path:url(#SVGID_4_);fill:#F8DFC5;}
	.st43{clip-path:url(#SVGID_4_);fill:#FFFFFF;}
	.st44{clip-path:url(#SVGID_4_);fill:#3E2723;}
	.st45{clip-path:url(#SVGID_4_);fill:#010101;}
	.st46{clip-path:url(#SVGID_4_);fill:#EE4481;}
	.st47{clip-path:url(#SVGID_4_);fill:#F06492;}
	.st48{clip-path:url(#SVGID_4_);fill:#E6CDBB;}
	.st49{clip-path:url(#SVGID_4_);fill:#F1B6AF;}
	.st50{clip-path:url(#SVGID_4_);fill:#F280AA;}
	.st51{clip-path:url(#SVGID_4_);fill:#F4C5BE;}
	.st52{clip-path:url(#SVGID_4_);fill:#4E352E;}
	.st53{clip-path:url(#SVGID_4_);fill:#212121;}
	.st54{opacity:0.5;clip-path:url(#SVGID_4_);fill:#FFFFFF;}
	.st55{clip-path:url(#SVGID_6_);}
	.st56{clip-path:url(#SVGID_6_);fill:#757576;}
	.st57{clip-path:url(#SVGID_6_);fill:#F2D8C2;}
	.st58{clip-path:url(#SVGID_6_);fill:#00579B;}
	.st59{clip-path:url(#SVGID_6_);fill:#BDBDBD;}
	.st60{clip-path:url(#SVGID_6_);fill:#D1D2D2;}
	.st61{clip-path:url(#SVGID_6_);fill:#E0E0E0;}
	.st62{clip-path:url(#SVGID_6_);fill:#1FA153;}
	.st63{clip-path:url(#SVGID_6_);fill:#0277BD;}
	.st64{clip-path:url(#SVGID_6_);fill:#20AD5C;}
	.st65{clip-path:url(#SVGID_6_);fill:#EEEEEE;}
	.st66{clip-path:url(#SVGID_6_);fill:#F5F5F5;}
	.st67{clip-path:url(#SVGID_6_);fill:#F8DFC5;}
	.st68{clip-path:url(#SVGID_6_);fill:#FFFFFF;}
	.st69{clip-path:url(#SVGID_6_);fill:#3E2723;}
	.st70{clip-path:url(#SVGID_6_);fill:#010101;}
	.st71{clip-path:url(#SVGID_6_);fill:#EE4481;}
	.st72{clip-path:url(#SVGID_6_);fill:#F06492;}
	.st73{clip-path:url(#SVGID_6_);fill:#E6CDBB;}
	.st74{clip-path:url(#SVGID_6_);fill:#F1B6AF;}
	.st75{clip-path:url(#SVGID_6_);fill:#F280AA;}
	.st76{clip-path:url(#SVGID_6_);fill:#F4C5BE;}
	.st77{clip-path:url(#SVGID_6_);fill:#4E352E;}
	.st78{clip-path:url(#SVGID_6_);fill:#212121;}
	.st79{opacity:0.5;clip-path:url(#SVGID_6_);fill:#FFFFFF;}
</style>
<g id="Layer_4">
</g>
<g id="Layer_2">
	<g>
		<g>
			<defs>
				<circle id="SVGID_1_" cx="145.4" cy="145.4" r="145.4"/>
			</defs>
			<use xlink:href="#SVGID_1_"  style="overflow:visible;fill:#293990;"/>
			<clipPath id="SVGID_2_">
				<use xlink:href="#SVGID_1_"  style="overflow:visible;"/>
			</clipPath>
			<g id="XMLID_5_" class="st0">
				<g>
					<polygon class="st1" points="333.3,-45.9 333.3,329.4 148.3,329.4 148.3,327.5 148.3,-44 148.3,-45.9 					"/>
					<polygon class="st2" points="148.3,327.5 148.3,329.4 -36.7,329.4 -36.7,-45.9 148.3,-45.9 148.3,-44 					"/>
				</g>
				<g>
				</g>
			</g>
			<path class="st3" d="M266.7,374.5c0,15.3,0.3,30-2.2,43.7c-2.9-8.2-10.3-13.7-18.2-12.7c-6.1,0.7-10.9,5.1-13.2,11
				c-0.7,0.5-1.4,1.1-2,1.8h0c0-14.8-1.2-28.5-1.2-43.8c0-14-1.1-27.4-3.2-40.1v-47.6c0-21.3-10.5-38.9-26.5-47.3
				C237.3,244.7,266.7,303.2,266.7,374.5z"/>
			<path class="st4" d="M265.6,423c1.3,10.8-5.2,20.5-14.5,21.6c-7.2,0.9-14-3.7-17.3-10.8c-0.5,0-0.9-0.1-1.4-0.3
				c-2.7-0.9-4.3-3.9-4.3-7.3c0-1.3,0.2-2.6,0.7-4c0.5-1.6,1.3-2.9,2.3-4h33.4c0,0,0,0,0-0.1C265,419.7,265.4,421.3,265.6,423z"/>
			<path class="st3" d="M264.5,418.2C264.5,418.2,264.5,418.2,264.5,418.2l-33.4,0.1c0.6-0.7,1.3-1.3,2-1.8
				c2.3-5.9,7.2-10.3,13.2-11C254.2,404.5,261.6,409.9,264.5,418.2z"/>
			<path class="st5" d="M196.6,429.9h29.2h0.8v9.2v0.3c-0.1,14.5-2.4,28.7-6.6,41.4c-1.6-1-3.5-1.6-5.6-1.6h-33.1
				c-2.2,0-4.1,0.6-5.7,1.7c-3.3-9.8-5.5-20.4-6.3-31.5c-0.3-3.6-10.6-5-23.5-5c-0.1,0-0.2,0-0.4,0v-14.5h44.4H196.6z"/>
			<path class="st6" d="M226.6,427.4v2.5h-0.8h-29.2c0.3-1.7,1-5.8,1.9-11.7h27.3h0.6h0.3v8V427.4z"/>
			<path class="st6" d="M226.6,368.9v49.3h-0.3h-0.6h-27.3c4.2-27.7,13.2-95.5,9.1-141.5c8.7,15.7,15.4,35.5,19,57.7v15.2V368.9z"/>
			<path class="st6" d="M226.6,286.7v47.6c-3.7-22.2-10.3-42-19-57.7c-1.4-15.9-4.4-29.3-9.8-37.5c0.8,0.1,1.5,0.1,2.3,0.3
				C216.1,247.8,226.6,265.4,226.6,286.7z"/>
			<rect x="218.1" y="495.6" class="st7" width="5.9" height="5.4"/>
			<path class="st8" d="M224,487.7v8h-5.9v-4.6c0-1-0.3-1.9-0.8-2.8c1-2.4,1.9-4.9,2.7-7.4C222.4,482.4,224,484.9,224,487.7z"/>
			<path class="st8" d="M220,480.9c-0.8,2.5-1.7,5-2.7,7.4c-1.2-2.1-3.7-3.5-6.6-3.5H185c-3,0-5.5,1.5-6.7,3.6
				c-1-2.4-1.9-4.9-2.8-7.4c1.6-1.1,3.6-1.7,5.7-1.7h33.1C216.5,479.3,218.4,479.9,220,480.9z"/>
			<rect x="177.6" y="495.6" class="st7" width="40.5" height="5.4"/>
			<path class="st7" d="M214.6,494.5c1-2,1.9-4.1,2.7-6.2c0.5,0.8,0.8,1.8,0.8,2.8v4.6h-40.5v-4.6c0-1,0.3-1.9,0.7-2.7
				c0.8,2.1,1.7,4.1,2.7,6H214.6z"/>
			<path class="st7" d="M210.7,484.8c2.9,0,5.4,1.4,6.6,3.5c-0.9,2.1-1.8,4.2-2.7,6.2H181c-1-2-1.8-4-2.7-6c1.2-2.1,3.8-3.6,6.7-3.6
				H210.7z"/>
			<path class="st8" d="M207.6,276.7c4.2,46.1-4.9,113.8-9.1,141.5h-3.7l1.5-158.2C200.4,264.9,204.2,270.5,207.6,276.7z"/>
			<path class="st8" d="M197.8,239.2c5.3,8.2,8.4,21.6,9.8,37.5c-3.4-6.2-7.2-11.8-11.3-16.6l0.2-20.1l-0.3-0.1
				c0.2-0.3,0.3-0.5,0.4-0.8C197,239.1,197.4,239.1,197.8,239.2z"/>
			<path class="st8" d="M194.8,418.2h3.7c-0.9,5.9-1.6,10-1.9,11.7h-6.8v-11.7H194.8z"/>
			<path class="st6" d="M200.1,239.4c-0.8-0.1-1.5-0.2-2.3-0.3c-0.3-0.4-0.6-0.9-0.9-1.3C198,238.4,199.1,238.9,200.1,239.4z"/>
			<path class="st8" d="M197.8,239.2c-0.4-0.1-0.8-0.1-1.2-0.1c0.2-0.4,0.3-0.8,0.3-1.2C197.3,238.3,197.6,238.7,197.8,239.2z"/>
			<path class="st3" d="M197,237.4c0,0.2,0,0.4,0,0.6c-5.7-2.5-12.1-3.8-18.9-3.8h-15h-17.7v-11.2c0.1,0,0.2,0,0.3,0
				C174,222.9,197,229.4,197,237.4z"/>
			<path class="st8" d="M197,237.9c-0.1,0.4-0.2,0.8-0.3,1.2c-0.7-0.1-1.4-0.1-2.1-0.1c-5.7,0-11.2,1.3-16.6,3.6
				c-4.2-5.4-9.3-8.5-14.9-8.5h15C184.9,234.1,191.2,235.5,197,237.9z"/>
			<path class="st8" d="M196.5,240l-0.2,20.1c-4.3-5.1-8.9-9.4-13.7-12.7c6.9-2,11.8-4.6,13.6-7.5L196.5,240z"/>
			<path class="st8" d="M196.6,239.1c-0.1,0.3-0.3,0.5-0.4,0.8c-1.8,2.9-6.7,5.4-13.6,7.5c-0.8-0.6-1.7-1.1-2.5-1.6
				c-0.7-1.1-1.4-2.1-2.2-3.1c5.3-2.3,10.9-3.6,16.6-3.6C195.2,239,195.9,239,196.6,239.1z"/>
			<path class="st8" d="M196.3,260.1l-1.5,158.2h-5v-51v-17.7v-62.9c0-15.8-3.2-29.5-8.5-39c0.5-0.1,0.9-0.3,1.3-0.4
				C187.5,250.7,192,255,196.3,260.1z"/>
			<rect x="145.4" y="418.2" class="st5" width="44.4" height="11.7"/>
			<path class="st9" d="M189.8,367.3v51h-44.4V251.8c0.1,0,0.2,0,0.3,0c13.8,0,26.4-1.5,35.6-4c5.3,9.5,8.5,23.2,8.5,39v62.9V367.3z
				"/>
			<path class="st8" d="M182.6,247.4c-0.4,0.1-0.9,0.2-1.3,0.4c-0.4-0.7-0.8-1.4-1.2-2C181,246.2,181.8,246.8,182.6,247.4z"/>
			<path class="st9" d="M180.1,245.7c0.4,0.6,0.8,1.3,1.2,2c-9.2,2.5-21.8,4-35.6,4c-0.1,0-0.2,0-0.3,0v-17.7h17.7
				c5.6,0,10.7,3.1,14.9,8.5c-0.6,0.3-1.2,0.6-1.9,0.9C177.5,244.2,178.8,244.9,180.1,245.7z"/>
			<path class="st9" d="M178,242.6c0.8,1,1.5,2,2.2,3.1c-1.3-0.8-2.7-1.6-4-2.2C176.7,243.2,177.4,242.9,178,242.6z"/>
			<path class="st8" d="M178.3,488.4c-0.5,0.8-0.7,1.7-0.7,2.7v4.6h-5.9v-8c0-2.7,1.5-5.2,3.8-6.7
				C176.4,483.5,177.3,486,178.3,488.4z"/>
			<rect x="171.7" y="495.6" class="st7" width="5.9" height="5.4"/>
			<path class="st10" d="M96,429.9h5.1h44.4v14.5c-12.7,0-22.8,1.4-23.1,5c-0.8,11.1-3,21.7-6.3,31.5c-1.6-1.1-3.6-1.7-5.8-1.7H77.1
				c-2.3,0-4.4,0.7-6.1,1.9c-1.4-4.1-2.6-8.3-3.5-12.6c-2.1-9.1-3.2-18.7-3.2-28.6v-10H96z"/>
			<rect x="101.1" y="418.2" class="st10" width="44.4" height="11.7"/>
			<path class="st11" d="M145.4,251.8v166.5h-44.4v-51v-17.7v-62.9c0-15.7,3.7-29.4,9.4-38.9C119.6,250.3,131.9,251.8,145.4,251.8z"
				/>
			<path class="st11" d="M145.4,234.1v17.7c-13.5,0-25.8-1.5-35-3.9c5.2-8.6,12-13.7,19.1-13.7H145.4z"/>
			<path class="st6" d="M145.4,222.9v11.2h-15.9h-13.4c-7.6,0-14.9,1.7-21.5,4.8h0c-0.2-0.5-0.3-1-0.3-1.5
				C94.4,229.4,117.2,223,145.4,222.9z"/>
			<path class="st12" d="M116.2,234.1h13.4c-7.1,0-13.9,5.1-19.1,13.7c-1.2-0.3-2.4-0.7-3.5-1c1.9-1.3,3.8-2.4,5.7-3.3
				c-5.7-2.8-11.7-4.4-17.9-4.5c0-0.1-0.1-0.1-0.1-0.2C101.3,235.8,108.6,234.1,116.2,234.1z"/>
			<rect x="113.9" y="495.6" class="st8" width="5.9" height="5.4"/>
			<path class="st13" d="M119.9,487.7v8h-5.9v-4.6c0-0.9-0.2-1.8-0.7-2.6c1-2.4,1.9-4.9,2.8-7.5C118.4,482.6,119.9,485,119.9,487.7z
				"/>
			<path class="st12" d="M116.1,481c-0.9,2.5-1.8,5-2.8,7.5c-1.2-2.2-3.8-3.7-6.8-3.7H80.9c-3.2,0-5.9,1.7-6.9,4
				c-1.1-2.5-2-5-2.9-7.7c1.7-1.2,3.8-1.9,6.1-1.9h33.1C112.4,479.3,114.5,480,116.1,481z"/>
			<rect x="73.5" y="495.6" class="st8" width="40.5" height="5.4"/>
			<path class="st8" d="M74,488.9c1.1-2.3,3.8-4,6.9-4h25.6c3,0,5.6,1.5,6.8,3.7c0.4,0.8,0.7,1.7,0.7,2.6v4.6H73.5v-4.6
				C73.5,490.3,73.6,489.5,74,488.9z"/>
			<path class="st12" d="M110.5,247.8c-5.7,9.5-9.4,23.2-9.4,38.9v62.9v17.7v51h-3.3l-2.8-161c3.8-4.1,7.8-7.6,12-10.4
				C108.1,247.2,109.2,247.5,110.5,247.8z"/>
			<path class="st12" d="M112.7,243.5c-1.9,1-3.8,2.1-5.7,3.3c-6.6-2.1-11-4.8-12.2-7.8C100.9,239.1,106.9,240.7,112.7,243.5z"/>
			<path class="st12" d="M97.8,418.2h3.3v11.7H96c-0.3-1.7-1-5.8-2-11.7H97.8z"/>
			<path class="st12" d="M95,257.2l2.8,161h-3.8c-4.6-29.1-14.8-102-9.2-147.8C88,265.5,91.4,261.1,95,257.2z"/>
			<path class="st12" d="M106.9,246.8c-4.2,2.8-8.2,6.3-12,10.4L94.7,239c0,0,0.1,0,0.1,0C96,242,100.3,244.7,106.9,246.8z"/>
			<path class="st8" d="M96,429.9H64.3v-3.7v-8h29.8C95,424.2,95.7,428.3,96,429.9z"/>
			<path class="st12" d="M94.7,239l0.3,18.2c-3.6,3.9-6.9,8.3-10.1,13.2c1.7-13.4,4.7-24.5,9.6-31.4C94.6,239,94.6,239,94.7,239z"/>
			<path class="st12" d="M94.7,238.8c0,0.1,0,0.1,0.1,0.2c0,0-0.1,0-0.1,0L94.7,238.8L94.7,238.8L94.7,238.8z"/>
			<path class="st12" d="M94.7,238.9v0.2c-0.1,0-0.1,0-0.1,0C94.6,239,94.6,238.9,94.7,238.9C94.6,238.9,94.6,238.8,94.7,238.9z"/>
			<path class="st8" d="M94.6,238.9c0,0.1-0.1,0.1-0.1,0.2c-0.1,0-0.2,0-0.3,0C94.4,239,94.5,238.9,94.6,238.9z"/>
			<path class="st8" d="M94.3,239c0.1,0,0.2,0,0.3,0c-4.9,6.9-8,18-9.6,31.4c-9,14.1-16.2,32.3-20.6,53v-36.7
				C64.3,265.1,76.8,247.3,94.3,239L94.3,239z"/>
			<path class="st8" d="M94.1,418.2H64.3v-51v-17.7v-26.2c4.5-20.7,11.6-38.9,20.6-53C79.2,316.2,89.5,389.2,94.1,418.2z"/>
			<path class="st6" d="M94.3,239c-17.4,8.3-30,26.1-30,47.7v36.7c-3.4,15.8-5.3,33-5.3,51c0,15.3-1.2,29.1-1.2,43.7
				c-0.6-0.7-1.3-1.3-2-1.7c-2.3-5.9-7.2-10.3-13.2-11c-7.9-1-15.3,4.5-18.2,12.8h-0.1c-2.5-13.7-2.2-28.5-2.2-43.8
				C22.1,299.7,54.4,239,94.3,239z"/>
			<path class="st12" d="M74,488.9c-0.3,0.7-0.5,1.4-0.5,2.2v4.6h-5.9v-8c0-2.6,1.4-4.9,3.5-6.5C71.9,483.8,72.9,486.4,74,488.9z"/>
			<rect x="67.5" y="495.6" class="st8" width="5.9" height="5.4"/>
			<path class="st14" d="M60.2,422.2c0.5,1.4,0.7,2.7,0.7,4c0,3.4-1.6,6.4-4.3,7.3c-0.5,0.2-0.9,0.2-1.4,0.3
				c-3.3,7.1-10.1,11.7-17.3,10.8c-9.3-1.1-15.9-10.8-14.5-21.6c0.2-1.7,0.6-3.2,1.1-4.7h33.4c0,0,0-0.1,0-0.1
				C58.8,419.3,59.6,420.7,60.2,422.2z"/>
			<path class="st6" d="M57.8,418.2C57.8,418.2,57.8,418.2,57.8,418.2l-33.4,0.1c2.9-8.3,10.3-13.7,18.2-12.8
				c6.1,0.7,10.9,5.1,13.2,11C56.5,416.9,57.2,417.5,57.8,418.2z"/>
			<path class="st4" d="M226.6,118.1c7.9,0.2,14.2,6.2,14.2,13.6c0,7.4-6.3,13.4-14.2,13.6V118.1z"/>
			<path class="st4" d="M226.6,145.2v3c0,39.3-28.1,72-65.3,79.3v-10.2c0-4.2-1.7-7.9-4.4-10.6c-1.1-1.1-2.4-2-3.8-2.7h3
				c2.9,0,5.6-1.5,7.1-3.8c4.6-2,6.5-5.6,5.8-12c0,0,0,0.3-1.7,0.8c-0.1,0-0.1,0-0.2,0.1c-0.3,0.1-0.6,0.1-0.9,0.2c0,0,0,0-0.1,0
				c-0.2,0-0.3,0-0.5,0.1c-0.1,0-0.1,0-0.2,0c-0.3,0.1-0.6,0.1-0.9,0.2c0-0.7,0-1.5,0-2.5h-19.2v-13.4h7.3c3.4,0,7.2-8.5,6.2-18.7
				c-0.6-5.5-5.7-19.8-9.1-19.8h-4.4V65h49.4c9.2,0,16.7,7.5,16.7,16.7V91v23.6c0,3.2,2,5.9,4.9,6.9c-3,2.5-4.9,6.1-4.9,10.1
				c0,7.5,6.6,13.6,14.6,13.6C226.3,145.3,226.5,145.3,226.6,145.2z M200.8,106.8c0.4-8.8-5.8-8.6-5.8-8.6l-26.8-1.1
				c-0.3,0-0.5,0-0.5,0.1c-0.2,3.8-0.3,4.3-0.5,8.2c0,0,0.2,0.1,0.5,0.1L200.8,106.8z M195.9,125.6c0-6-5.2-10.9-11.7-10.9
				c-6.5,0-11.7,4.9-11.7,10.9c0,6,5.2,10.9,11.7,10.9C190.7,136.5,195.9,131.6,195.9,125.6z"/>
			<path class="st4" d="M226.6,118.1v27.2c-0.2,0-0.3,0-0.5,0c-8.1,0-14.6-6.1-14.6-13.6c0-4,1.9-7.7,4.9-10.1
				c0.8,0.3,1.6,0.4,2.5,0.4h0.4c2.8,0,5.2-1.6,6.5-3.9c0.1,0,0.3,0,0.4,0C226.3,118,226.5,118,226.6,118.1z"/>
			<path class="st15" d="M226.6,114.6v3.4c-0.2,0-0.3,0-0.5,0c-0.1,0-0.3,0-0.4,0C226.3,117,226.6,115.8,226.6,114.6z"/>
			<path class="st16" d="M226.6,99v15.6c0,1.2-0.3,2.4-0.9,3.4c-3.6,0.1-6.9,1.4-9.4,3.4c-2.8-1-4.9-3.7-4.9-6.9V91v-9.2V57.3
				c0-1.4,0.4-2.6,1-3.7C221.5,66.5,226.6,82.2,226.6,99z"/>
			<path class="st16" d="M225.8,118.1c-1.2,2.3-3.7,3.9-6.5,3.9h-0.4c-0.9,0-1.7-0.2-2.5-0.4C218.9,119.4,222.2,118.1,225.8,118.1z"
				/>
			<path class="st16" d="M212.6,53.6c-0.7,1.1-1,2.4-1,3.7v24.5c0-9.2-7.5-16.7-16.7-16.7h-49.4V18.2h0.1
				C173.4,18.2,198,32.2,212.6,53.6z"/>
			<path class="st16" d="M195.1,98.2c0,0,6.2-0.2,5.8,8.6l-33-1.3c-0.3,0-0.5-0.1-0.5-0.1c0.2-3.9,0.3-4.3,0.5-8.2
				c0-0.1,0.2-0.1,0.5-0.1L195.1,98.2z"/>
			<path class="st17" d="M184.2,114.7c6.5,0,11.7,4.9,11.7,10.9c0,6-5.2,10.9-11.7,10.9c-6.5,0-11.7-4.9-11.7-10.9
				C172.5,119.6,177.7,114.7,184.2,114.7z"/>
			<path class="st18" d="M169.1,188.2c0.7,6.4-1.2,10-5.8,12c0.9-1.3,1.4-2.8,1.4-4.4v-0.4c0-0.2,0-0.3,0-0.5
				c1.6-1.3,2.7-3.4,2.7-5.5c0-0.1,0-0.2,0-0.4C169.1,188.6,169.1,188.2,169.1,188.2z"/>
			<path class="st13" d="M167.4,189.1c0,0.1,0,0.3,0,0.4c0,2.2-1.1,4.2-2.7,5.5c0-3.1,0-0.5,0-5.3c0.3-0.1,0.7-0.1,0.9-0.2
				c0.1,0,0.1,0,0.2,0c0.2,0,0.3-0.1,0.5-0.1c0,0,0,0,0.1,0c0.3-0.1,0.6-0.1,0.9-0.2C167.3,189.1,167.3,189.1,167.4,189.1z"/>
			<path class="st19" d="M167.2,189.1c-0.3,0.1-0.5,0.1-0.9,0.2C166.7,189.3,167,189.2,167.2,189.1z"/>
			<path class="st19" d="M166.3,189.4c-0.2,0-0.3,0.1-0.5,0.1C166,189.4,166.1,189.4,166.3,189.4z"/>
			<path class="st19" d="M164.7,189.7c0.3,0,0.7-0.1,0.9-0.2C165.3,189.6,165,189.6,164.7,189.7L164.7,189.7z"/>
			<path class="st18" d="M164.7,195.4v0.4c0,1.6-0.5,3.1-1.4,4.4c-2.8,1.2-6.7,1.9-11.7,2.2c-0.8,0.1-1.6,0.1-2.4,0.1
				c-0.9-0.2-1.9-0.3-2.8-0.3c-0.3,0-0.6,0-0.8,0v-5.9h15.2c1.5,0,2.9-0.6,4.1-1.5C164.7,195.1,164.7,195.3,164.7,195.4z"/>
			<path class="st13" d="M164.7,189.7c0,4.7,0,2.2,0,5.3c-1.1,0.9-2.5,1.5-4.1,1.5h-15.2v-4.6c5.7-0.4,10-0.9,13.3-1.3
				c0.4,0,0.8-0.1,1.2-0.2c0.8-0.1,1.6-0.2,2.2-0.3c0.7-0.1,1.3-0.2,1.9-0.3c0.1,0,0.2,0,0.2-0.1
				C164.5,189.7,164.6,189.7,164.7,189.7z"/>
			<path class="st19" d="M164.7,189.7L164.7,189.7c-0.1,0-0.2,0.1-0.3,0.1C164.5,189.7,164.6,189.7,164.7,189.7z"/>
			<path class="st4" d="M164.7,187.2c0,1,0,1.8,0,2.5c-0.1,0-0.2,0.1-0.3,0.1c-0.1,0-0.2,0.1-0.2,0.1c-0.6,0.1-1.2,0.2-1.9,0.3
				c-0.7,0.1-1.4,0.2-2.2,0.3c-0.4,0.1-0.8,0.1-1.2,0.2c-3.3,0.4-7.6,0.8-13.3,1.3v-4.6H164.7z"/>
			<path class="st19" d="M162.2,190.1c0.7-0.1,1.3-0.2,1.9-0.3C163.6,189.9,162.9,190,162.2,190.1z"/>
			<path class="st4" d="M163.3,200.2c-1.5,2.2-4.2,3.8-7.1,3.8h-3c-1.3-0.7-2.6-1.1-4.1-1.4c0.8,0,1.6-0.1,2.4-0.1
				C156.5,202.1,160.4,201.4,163.3,200.2z"/>
			<path class="st20" d="M161.3,227.5v3.2c0,8.3-6.7,15.1-15.1,15.1c-0.3,0-0.6,0-0.8,0v-16.7h0.1
				C150.9,229.1,156.2,228.5,161.3,227.5z"/>
			<path class="st4" d="M161.3,217.4v10.2c-5.1,1-10.4,1.5-15.8,1.5h-0.1V204h7.7c1.4,0.7,2.7,1.6,3.8,2.7
				C159.7,209.4,161.3,213.2,161.3,217.4z"/>
			<path class="st19" d="M158.8,190.6c0.4,0,0.9-0.1,1.2-0.2C159.6,190.5,159.2,190.5,158.8,190.6z"/>
			<path class="st21" d="M158.9,155.1c1,10.3-2.8,18.7-6.2,18.7h-7.3v-38.5h4.4C153.2,135.3,158.3,149.6,158.9,155.1z"/>
			<path class="st4" d="M153.2,204h-7.7v-1.4c1.2,0,2.4,0,3.6,0C150.5,202.8,151.9,203.3,153.2,204z"/>
			<path class="st18" d="M149.1,202.6c-1.2,0-2.4,0.1-3.6,0v-0.3c0.3,0,0.6,0,0.8,0C147.2,202.3,148.2,202.4,149.1,202.6z"/>
			<path class="st4" d="M145.4,229.1v16.7c-3.8-0.2-7.3-1.9-9.8-4.4c-2.7-2.7-4.4-6.5-4.4-10.6v-2.9
				C135.8,228.7,140.5,229.1,145.4,229.1L145.4,229.1z"/>
			<path class="st14" d="M145.4,204v25.1h-0.1c-4.8,0-9.6-0.4-14.2-1.2v-10.5c0-5.8,3.3-10.9,8.2-13.4H145.4z"/>
			<path class="st14" d="M145.4,202.6v1.4h-6c1.3-0.7,2.7-1.2,4.2-1.4C144.2,202.6,144.8,202.6,145.4,202.6z"/>
			<path class="st22" d="M145.4,202.3v0.3c-0.6,0-1.3,0-1.9,0C144.2,202.4,144.8,202.4,145.4,202.3z"/>
			<path class="st22" d="M145.4,196.4v5.9c-0.7,0.1-1.3,0.1-1.9,0.2c-7.4-0.3-14.7-1.6-18.6-4.1c-0.3-0.8-0.5-1.7-0.5-2.7v-0.4
				c0-0.8,0-1.3,0-1.7c1.3,1.6,3.1,2.7,5.2,2.7H145.4z"/>
			<path class="st15" d="M145.4,191.8v4.6h-15.7c-2.1,0-4-1.1-5.2-2.7c0-0.4,0-0.6,0-0.7c0.8,0,1.6-0.1,2.3-0.1
				c2.7-0.1,5.2-0.3,7.5-0.4c1.5-0.1,3-0.2,4.4-0.2c0.1,0,0.1,0,0.1,0c0.7,0,1.4-0.1,2.1-0.1c0.7,0,1.4-0.1,2-0.1
				c0.6,0,1.2-0.1,1.8-0.1C145,191.9,145.2,191.9,145.4,191.8z"/>
			<path class="st14" d="M145.4,187.2v4.6c-0.2,0-0.4,0-0.7,0.1c-0.6,0-1.2,0.1-1.8,0.1c-0.7,0-1.3,0.1-2,0.1
				c-0.7,0-1.4,0.1-2.1,0.1c-0.1,0-0.1,0-0.1,0c-1.4,0.1-2.9,0.2-4.4,0.2c-2.3,0.1-4.8,0.3-7.5,0.4c-0.8,0-1.5,0.1-2.3,0.1
				c0-0.4,0-1,0-5.8H145.4z"/>
			<path class="st14" d="M94.7,90.1c7.3,0,13.4-4.6,14.6-10.5c0-0.2,0.1-0.3,0.1-0.4c1.5-7.9,8.7-14.2,16.9-14.2h19.2v70.3h-4.4
				c-3.4,0-8.6,14.3-9.1,19.8c-1,10.3,2.8,18.7,6.2,18.7h7.3v13.4h-20.9c0,4.8,0,5.4,0,5.8c-0.2,0-0.3,0-0.5,0v0c-0.1,0-0.1,0-0.2,0
				c-0.5,0-1.6-0.2-2-0.5c-0.1-0.1,0.1,1.5,0.2,1.9c0.1,1.6,1.2,2.9,3,4c1.1,3.1,4,5.5,7.6,5.5h6.8c-4.9,2.5-8.2,7.5-8.2,13.4v10.5
				c-38-6.7-67-39.8-67-79.6v-3c7.9-0.2,14.2-6.2,14.2-13.6c0-3.9-1.8-7.5-4.6-9.9c3.2-0.8,5.5-3.7,5.5-7.1V96.2
				c0.7-3.5,3.8-6.1,7.5-6.1h7.3H94.7z M122.2,105.3c-0.2-3.9-0.3-4.3-0.5-8.2c0-0.1-0.2-0.1-0.5-0.1l-26.7,1.1c0,0-6.2-0.2-5.8,8.6
				l33-1.3C122,105.4,122.2,105.4,122.2,105.3z M117.2,125.6c0-6-5.2-10.9-11.7-10.9c-6.5,0-11.7,4.9-11.7,10.9
				c0,6,5.2,10.9,11.7,10.9C112,136.5,117.2,131.6,117.2,125.6z"/>
			<path class="st23" d="M145.4,135.3v38.5h-7.3c-3.4,0-7.2-8.5-6.2-18.7c0.6-5.5,5.7-19.8,9.1-19.8H145.4z"/>
			<path class="st24" d="M145.4,18.2V65h-19.2c-8.2,0-15.4,6.3-16.9,14.2c0.1-0.6,0.1-1.2,0.1-1.7V29.2c0-0.9-0.1-1.7-0.3-2.5
				C120.1,21.2,132.4,18.2,145.4,18.2L145.4,18.2z"/>
			<path class="st15" d="M143,192c0.6,0,1.2-0.1,1.8-0.1C144.2,191.9,143.6,192,143,192z"/>
			<path class="st15" d="M138.9,192.3c0.7,0,1.4-0.1,2.1-0.1C140.3,192.2,139.6,192.2,138.9,192.3z"/>
			<path class="st14" d="M143.6,202.5c-1.5,0.3-2.9,0.8-4.2,1.4h-6.8c-3.6,0-6.5-2.4-7.6-5.5C128.9,200.9,136.1,202.3,143.6,202.5z"
				/>
			<path class="st15" d="M134.4,192.5c1.5-0.1,3-0.2,4.4-0.2C137.4,192.4,135.9,192.5,134.4,192.5z"/>
			<path class="st15" d="M126.9,192.9c2.7-0.1,5.2-0.3,7.5-0.4C132,192.7,129.5,192.8,126.9,192.9z"/>
			<path class="st22" d="M124.5,195.8c0,0.9,0.2,1.8,0.5,2.7c-1.8-1.1-2.8-2.5-3-4c0-0.5-0.2-2-0.2-1.9c0.4,0.3,1.5,0.5,2,0.5
				c0.1,0,0.1,0,0.2,0c0.2,0.2,0.3,0.5,0.5,0.7c0,0.3,0,0.8,0,1.7V195.8z"/>
			<path class="st15" d="M124.5,193c0,0.2,0,0.3,0,0.7c-0.2-0.2-0.3-0.5-0.5-0.7C124.2,193.1,124.4,193.1,124.5,193z"/>
			<path class="st15" d="M124.5,193c-0.2,0-0.3,0-0.5,0v0C124.2,193.1,124.4,193,124.5,193z"/>
			<path class="st24" d="M121.7,97.1c0.2,3.8,0.3,4.3,0.5,8.2c0,0-0.2,0.1-0.5,0.1l-33,1.3c-0.4-8.8,5.8-8.6,5.8-8.6l26.7-1.1
				C121.6,97.1,121.7,97.1,121.7,97.1z"/>
			<path class="st17" d="M105.5,114.7c6.5,0,11.7,4.9,11.7,10.9c0,6-5.2,10.9-11.7,10.9c-6.5,0-11.7-4.9-11.7-10.9
				C93.8,119.6,99,114.7,105.5,114.7z"/>
			<path class="st24" d="M109.5,29.2v48.3c0,0.6-0.1,1.2-0.1,1.7c0,0.1-0.1,0.3-0.1,0.4c-1.2,6-7.3,10.5-14.6,10.5h-0.5
				c-8.2,0-14.8-5.7-14.8-12.7V57.3v-5.2c7.7-10.7,17.9-19.5,29.8-25.4C109.4,27.5,109.5,28.3,109.5,29.2z"/>
			<path class="st24" d="M94.1,90.1h-7.3c-3.7,0-6.8,2.6-7.5,6.1V77.5C79.3,84.4,86,90.1,94.1,90.1z"/>
			<path class="st24" d="M79.3,96.2v18.4c0,3.4-2.3,6.3-5.5,7.1h0c-2.3-2-5.3-3.3-8.7-3.6c-0.6-1-0.9-2.2-0.9-3.5V99
				c0-16.9,6.2-34,15.1-47c0.7,1.1,0,3.9,0,5.2v20.2V96.2z"/>
			<path class="st14" d="M73.8,121.7c2.9,2.5,4.6,6,4.6,9.9c0,7.4-6.3,13.4-14.2,13.6v-27.2c0.3,0,0.6,0,0.9,0
				c1.2,2.3,3.6,3.8,6.4,3.8H72C72.6,121.9,73.2,121.9,73.8,121.7L73.8,121.7z"/>
			<path class="st24" d="M73.8,121.7c-0.6,0.2-1.2,0.2-1.8,0.2h-0.4c-2.8,0-5.2-1.6-6.4-3.8C68.5,118.4,71.5,119.7,73.8,121.7z"/>
			<path class="st15" d="M65.1,118.1c-0.3,0-0.6,0-0.9,0v-3.4C64.3,115.9,64.6,117.1,65.1,118.1z"/>
			<path class="st14" d="M64.3,118.1v27.2c-0.2,0-0.3,0-0.5,0c-8.1,0-14.6-6.1-14.6-13.6c0-7.5,6.6-13.6,14.6-13.6
				C64,118,64.1,118,64.3,118.1z"/>
			<path class="st25" d="M145.4,110.2c0.1,0,0.2,0,0.3,0h0.2c9.4,0,19.9-1.5,38.9-1.5c7.2,0,23.1,0.2,30.1,0.9
				c1,0.1,1.3,0.2,1.3,1.1c0.2,1.8,0.1,10.3,0.1,12.3c0,0.7-2.3,0.9-2.7,0.9h-0.3v-3.7c0-4.6-3.8-8.4-8.4-8.4h-43.5
				c-3.4,0-6.3,2-7.6,4.9c-0.4-0.4-1.9-1.5-7.8-1.6c-0.2,0-0.4,0-0.5,0c-7,0.1-7.9,1.7-7.9,1.7l-0.3,0.1c-1.3-3-4.3-5.1-7.7-5.1H86
				c-4.6,0-8.4,3.8-8.4,8.4v3.7h0c-0.4,0-2.6-0.2-2.6-0.9c0-1.9,0-10.5,0.1-12.3c0-0.9,0.3-1,1.3-1.1c7-0.7,22.9-0.9,30.1-0.9
				C125.5,108.8,136,110.2,145.4,110.2z"/>
			<path class="st26" d="M213.2,120.3v13.4c0,4.6-3.8,8.4-8.4,8.4h-43.5c-4.6,0-8.4-3.8-8.4-8.4v-13.4c0-4.6,3.8-8.4,8.4-8.4h43.5
				C209.5,111.9,213.2,115.6,213.2,120.3z"/>
			<path class="st26" d="M137.9,120.3v13.4c0,4.6-3.8,8.4-8.4,8.4H86c-4.6,0-8.4-3.8-8.4-8.4v-13.4c0-4.6,3.7-8.4,8.4-8.4h43.5
				C134.2,111.9,137.9,115.6,137.9,120.3z"/>
		</g>
		<g id="XMLID_1_">
			<g>
				<path class="st27" d="M620,230.8h-205c-24.7,0-45.4-18.2-49.3-41.8h25.1v-81h-1l-24.8,25.1V50c0-27.5,22.5-50,50-50h205V230.8z"
					/>
				<path class="st27" d="M390.8,108v81h-25.1c-0.5-2.7-0.7-5.4-0.7-8.2v-47.7l24.8-25.1H390.8z"/>
				<path class="st27" d="M365.6,189h-55.9l55.2-55.9v47.7C364.9,183.5,365.2,186.3,365.6,189z"/>
				<path class="st27" d="M875,50v130.8c0,27.5-22.5,50-50,50H620V0h205C852.5,0,875,22.5,875,50z"/>
			</g>
			<g>
			</g>
		</g>
		<text transform="matrix(1 0 0 1 408.979 87.9719)"><tspan x="0" y="0" class="st28 st29">Hi, </tspan><tspan x="0" y="80" class="st28 st29">How can we help?</tspan></text>
	</g>
	<g>
		<g>
			<defs>
				<circle id="SVGID_3_" cx="145.5" cy="145.4" r="145.4"/>
			</defs>
			<use xlink:href="#SVGID_3_"  style="overflow:visible;fill:#293990;"/>
			<clipPath id="SVGID_4_">
				<use xlink:href="#SVGID_3_"  style="overflow:visible;"/>
			</clipPath>
			<g id="XMLID_3_" class="st30">
				<g>
					<polygon class="st1" points="333.4,-45.9 333.4,329.4 148.4,329.4 148.4,327.5 148.4,-44 148.4,-45.9 					"/>
					<polygon class="st2" points="148.4,327.5 148.4,329.4 -36.6,329.4 -36.6,-45.9 148.4,-45.9 148.4,-44 					"/>
				</g>
				<g>
				</g>
			</g>
			<path class="st31" d="M266.8,374.5c0,15.3,0.3,30-2.2,43.7c-2.9-8.2-10.3-13.7-18.2-12.7c-6.1,0.7-10.9,5.1-13.2,11
				c-0.7,0.5-1.4,1.1-2,1.8h0c0-14.8-1.2-28.5-1.2-43.8c0-14-1.1-27.4-3.2-40.1v-47.6c0-21.3-10.5-38.9-26.5-47.3
				C237.4,244.7,266.8,303.2,266.8,374.5z"/>
			<path class="st32" d="M265.7,423c1.3,10.8-5.2,20.5-14.5,21.6c-7.2,0.9-14-3.7-17.3-10.8c-0.5,0-0.9-0.1-1.4-0.3
				c-2.7-0.9-4.3-3.9-4.3-7.3c0-1.3,0.2-2.6,0.7-4c0.5-1.6,1.3-2.9,2.3-4h33.4c0,0,0,0,0-0.1C265.1,419.7,265.5,421.3,265.7,423z"/>
			<path class="st31" d="M264.6,418.2C264.6,418.2,264.6,418.2,264.6,418.2l-33.4,0.1c0.6-0.7,1.3-1.3,2-1.8
				c2.3-5.9,7.2-10.3,13.2-11C254.3,404.5,261.7,409.9,264.6,418.2z"/>
			<path class="st33" d="M196.7,429.9h29.2h0.8v9.2v0.3c-0.1,14.5-2.4,28.7-6.6,41.4c-1.6-1-3.5-1.6-5.6-1.6h-33.1
				c-2.2,0-4.1,0.6-5.7,1.7c-3.3-9.8-5.5-20.4-6.3-31.5c-0.3-3.6-10.6-5-23.5-5c-0.1,0-0.2,0-0.4,0v-14.5h44.4H196.7z"/>
			<path class="st34" d="M226.7,427.4v2.5h-0.8h-29.2c0.3-1.7,1-5.8,1.9-11.7h27.3h0.6h0.3v8V427.4z"/>
			<path class="st34" d="M226.7,368.9v49.3h-0.3h-0.6h-27.3c4.2-27.7,13.2-95.5,9.1-141.5c8.7,15.7,15.4,35.5,19,57.7v15.2V368.9z"
				/>
			<path class="st34" d="M226.7,286.7v47.6c-3.7-22.2-10.3-42-19-57.7c-1.4-15.9-4.4-29.3-9.8-37.5c0.8,0.1,1.5,0.1,2.3,0.3
				C216.2,247.8,226.7,265.4,226.7,286.7z"/>
			<rect x="218.2" y="495.6" class="st35" width="5.9" height="5.4"/>
			<path class="st36" d="M224.1,487.7v8h-5.9v-4.6c0-1-0.3-1.9-0.8-2.8c1-2.4,1.9-4.9,2.7-7.4C222.5,482.4,224.1,484.9,224.1,487.7z
				"/>
			<path class="st36" d="M220.1,480.9c-0.8,2.5-1.7,5-2.7,7.4c-1.2-2.1-3.7-3.5-6.6-3.5h-25.6c-3,0-5.5,1.5-6.7,3.6
				c-1-2.4-1.9-4.9-2.8-7.4c1.6-1.1,3.6-1.7,5.7-1.7h33.1C216.6,479.3,218.5,479.9,220.1,480.9z"/>
			<rect x="177.7" y="495.6" class="st35" width="40.5" height="5.4"/>
			<path class="st35" d="M214.7,494.5c1-2,1.9-4.1,2.7-6.2c0.5,0.8,0.8,1.8,0.8,2.8v4.6h-40.5v-4.6c0-1,0.3-1.9,0.7-2.7
				c0.8,2.1,1.7,4.1,2.7,6H214.7z"/>
			<path class="st35" d="M210.8,484.8c2.9,0,5.4,1.4,6.6,3.5c-0.9,2.1-1.8,4.2-2.7,6.2h-33.6c-1-2-1.8-4-2.7-6
				c1.2-2.1,3.8-3.6,6.7-3.6H210.8z"/>
			<path class="st36" d="M207.7,276.7c4.2,46.1-4.9,113.8-9.1,141.5h-3.7l1.5-158.2C200.5,264.9,204.3,270.5,207.7,276.7z"/>
			<path class="st36" d="M197.9,239.2c5.3,8.2,8.4,21.6,9.8,37.5c-3.4-6.2-7.2-11.8-11.3-16.6l0.2-20.1l-0.3-0.1
				c0.2-0.3,0.3-0.5,0.4-0.8C197.1,239.1,197.5,239.1,197.9,239.2z"/>
			<path class="st36" d="M194.9,418.2h3.7c-0.9,5.9-1.6,10-1.9,11.7h-6.8v-11.7H194.9z"/>
			<path class="st34" d="M200.2,239.4c-0.8-0.1-1.5-0.2-2.3-0.3c-0.3-0.4-0.6-0.9-0.9-1.3C198.1,238.4,199.2,238.9,200.2,239.4z"/>
			<path class="st36" d="M197.9,239.2c-0.4-0.1-0.8-0.1-1.2-0.1c0.2-0.4,0.3-0.8,0.3-1.2C197.4,238.3,197.7,238.7,197.9,239.2z"/>
			<path class="st31" d="M197.1,237.4c0,0.2,0,0.4,0,0.6c-5.7-2.5-12.1-3.8-18.9-3.8h-15h-17.7v-11.2c0.1,0,0.2,0,0.3,0
				C174.1,222.9,197.1,229.4,197.1,237.4z"/>
			<path class="st36" d="M197.1,237.9c-0.1,0.4-0.2,0.8-0.3,1.2c-0.7-0.1-1.4-0.1-2.1-0.1c-5.7,0-11.2,1.3-16.6,3.6
				c-4.2-5.4-9.3-8.5-14.9-8.5h15C185,234.1,191.3,235.5,197.1,237.9z"/>
			<path class="st36" d="M196.6,240l-0.2,20.1c-4.3-5.1-8.9-9.4-13.7-12.7c6.9-2,11.8-4.6,13.6-7.5L196.6,240z"/>
			<path class="st36" d="M196.7,239.1c-0.1,0.3-0.3,0.5-0.4,0.8c-1.8,2.9-6.7,5.4-13.6,7.5c-0.8-0.6-1.7-1.1-2.5-1.6
				c-0.7-1.1-1.4-2.1-2.2-3.1c5.3-2.3,10.9-3.6,16.6-3.6C195.3,239,196,239,196.7,239.1z"/>
			<path class="st36" d="M196.4,260.1l-1.5,158.2h-5v-51v-17.7v-62.9c0-15.8-3.2-29.5-8.5-39c0.5-0.1,0.9-0.3,1.3-0.4
				C187.6,250.7,192.1,255,196.4,260.1z"/>
			<rect x="145.5" y="418.2" class="st33" width="44.4" height="11.7"/>
			<path class="st37" d="M189.9,367.3v51h-44.4V251.8c0.1,0,0.2,0,0.3,0c13.8,0,26.4-1.5,35.6-4c5.3,9.5,8.5,23.2,8.5,39v62.9V367.3
				z"/>
			<path class="st36" d="M182.7,247.4c-0.4,0.1-0.9,0.2-1.3,0.4c-0.4-0.7-0.8-1.4-1.2-2C181.1,246.2,181.9,246.8,182.7,247.4z"/>
			<path class="st37" d="M180.2,245.7c0.4,0.6,0.8,1.3,1.2,2c-9.2,2.5-21.8,4-35.6,4c-0.1,0-0.2,0-0.3,0v-17.7h17.7
				c5.6,0,10.7,3.1,14.9,8.5c-0.6,0.3-1.2,0.6-1.9,0.9C177.6,244.2,178.9,244.9,180.2,245.7z"/>
			<path class="st37" d="M178.1,242.6c0.8,1,1.5,2,2.2,3.1c-1.3-0.8-2.7-1.6-4-2.2C176.8,243.2,177.5,242.9,178.1,242.6z"/>
			<path class="st36" d="M178.4,488.4c-0.5,0.8-0.7,1.7-0.7,2.7v4.6h-5.9v-8c0-2.7,1.5-5.2,3.8-6.7
				C176.5,483.5,177.4,486,178.4,488.4z"/>
			<rect x="171.8" y="495.6" class="st35" width="5.9" height="5.4"/>
			<path class="st38" d="M96.1,429.9h5.1h44.4v14.5c-12.7,0-22.8,1.4-23.1,5c-0.8,11.1-3,21.7-6.3,31.5c-1.6-1.1-3.6-1.7-5.8-1.7
				H77.2c-2.3,0-4.4,0.7-6.1,1.9c-1.4-4.1-2.6-8.3-3.5-12.6c-2.1-9.1-3.2-18.7-3.2-28.6v-10H96.1z"/>
			<rect x="101.2" y="418.2" class="st38" width="44.4" height="11.7"/>
			<path class="st39" d="M145.5,251.8v166.5h-44.4v-51v-17.7v-62.9c0-15.7,3.7-29.4,9.4-38.9C119.7,250.3,132,251.8,145.5,251.8z"/>
			<path class="st39" d="M145.5,234.1v17.7c-13.5,0-25.8-1.5-35-3.9c5.2-8.6,12-13.7,19.1-13.7H145.5z"/>
			<path class="st34" d="M145.5,222.9v11.2h-15.9h-13.4c-7.6,0-14.9,1.7-21.5,4.8h0c-0.2-0.5-0.3-1-0.3-1.5
				C94.5,229.4,117.3,223,145.5,222.9z"/>
			<path class="st40" d="M116.3,234.1h13.4c-7.1,0-13.9,5.1-19.1,13.7c-1.2-0.3-2.4-0.7-3.5-1c1.9-1.3,3.8-2.4,5.7-3.3
				c-5.7-2.8-11.7-4.4-17.9-4.5c0-0.1-0.1-0.1-0.1-0.2C101.4,235.8,108.7,234.1,116.3,234.1z"/>
			<rect x="114" y="495.6" class="st36" width="5.9" height="5.4"/>
			<path class="st41" d="M120,487.7v8H114v-4.6c0-0.9-0.2-1.8-0.7-2.6c1-2.4,1.9-4.9,2.8-7.5C118.5,482.6,120,485,120,487.7z"/>
			<path class="st40" d="M116.2,481c-0.9,2.5-1.8,5-2.8,7.5c-1.2-2.2-3.8-3.7-6.8-3.7H81c-3.2,0-5.9,1.7-6.9,4c-1.1-2.5-2-5-2.9-7.7
				c1.7-1.2,3.8-1.9,6.1-1.9h33.1C112.5,479.3,114.6,480,116.2,481z"/>
			<rect x="73.6" y="495.6" class="st36" width="40.5" height="5.4"/>
			<path class="st36" d="M74.1,488.9c1.1-2.3,3.8-4,6.9-4h25.6c3,0,5.6,1.5,6.8,3.7c0.4,0.8,0.7,1.7,0.7,2.6v4.6H73.6v-4.6
				C73.6,490.3,73.7,489.5,74.1,488.9z"/>
			<path class="st40" d="M110.6,247.8c-5.7,9.5-9.4,23.2-9.4,38.9v62.9v17.7v51h-3.3l-2.8-161c3.8-4.1,7.8-7.6,12-10.4
				C108.2,247.2,109.3,247.5,110.6,247.8z"/>
			<path class="st40" d="M112.8,243.5c-1.9,1-3.8,2.1-5.7,3.3c-6.6-2.1-11-4.8-12.2-7.8C101,239.1,107,240.7,112.8,243.5z"/>
			<path class="st40" d="M97.9,418.2h3.3v11.7h-5.1c-0.3-1.7-1-5.8-2-11.7H97.9z"/>
			<path class="st40" d="M95.1,257.2l2.8,161h-3.8c-4.6-29.1-14.8-102-9.2-147.8C88.1,265.5,91.5,261.1,95.1,257.2z"/>
			<path class="st40" d="M107,246.8c-4.2,2.8-8.2,6.3-12,10.4L94.8,239c0,0,0.1,0,0.1,0C96.1,242,100.4,244.7,107,246.8z"/>
			<path class="st36" d="M96.1,429.9H64.4v-3.7v-8h29.8C95.1,424.2,95.8,428.3,96.1,429.9z"/>
			<path class="st40" d="M94.8,239l0.3,18.2c-3.6,3.9-6.9,8.3-10.1,13.2c1.7-13.4,4.7-24.5,9.6-31.4C94.7,239,94.7,239,94.8,239z"/>
			<path class="st40" d="M94.8,238.8c0,0.1,0,0.1,0.1,0.2c0,0-0.1,0-0.1,0L94.8,238.8L94.8,238.8L94.8,238.8z"/>
			<path class="st40" d="M94.8,238.9v0.2c-0.1,0-0.1,0-0.1,0C94.7,239,94.7,238.9,94.8,238.9C94.7,238.9,94.7,238.8,94.8,238.9z"/>
			<path class="st36" d="M94.7,238.9c0,0.1-0.1,0.1-0.1,0.2c-0.1,0-0.2,0-0.3,0C94.5,239,94.6,238.9,94.7,238.9z"/>
			<path class="st36" d="M94.4,239c0.1,0,0.2,0,0.3,0c-4.9,6.9-8,18-9.6,31.4c-9,14.1-16.2,32.3-20.6,53v-36.7
				C64.4,265.1,76.9,247.3,94.4,239L94.4,239z"/>
			<path class="st36" d="M94.2,418.2H64.4v-51v-17.7v-26.2c4.5-20.7,11.6-38.9,20.6-53C79.3,316.2,89.6,389.2,94.2,418.2z"/>
			<path class="st34" d="M94.4,239c-17.4,8.3-30,26.1-30,47.7v36.7c-3.4,15.8-5.3,33-5.3,51c0,15.3-1.2,29.1-1.2,43.7
				c-0.6-0.7-1.3-1.3-2-1.7c-2.3-5.9-7.2-10.3-13.2-11c-7.9-1-15.3,4.5-18.2,12.8h-0.1c-2.5-13.7-2.2-28.5-2.2-43.8
				C22.2,299.7,54.5,239,94.4,239z"/>
			<path class="st40" d="M74.1,488.9c-0.3,0.7-0.5,1.4-0.5,2.2v4.6h-5.9v-8c0-2.6,1.4-4.9,3.5-6.5C72,483.8,73,486.4,74.1,488.9z"/>
			<rect x="67.6" y="495.6" class="st36" width="5.9" height="5.4"/>
			<path class="st42" d="M60.3,422.2c0.5,1.4,0.7,2.7,0.7,4c0,3.4-1.6,6.4-4.3,7.3c-0.5,0.2-0.9,0.2-1.4,0.3
				c-3.3,7.1-10.1,11.7-17.3,10.8c-9.3-1.1-15.9-10.8-14.5-21.6c0.2-1.7,0.6-3.2,1.1-4.7h33.4c0,0,0-0.1,0-0.1
				C58.9,419.3,59.7,420.7,60.3,422.2z"/>
			<path class="st34" d="M57.9,418.2C57.9,418.2,57.9,418.2,57.9,418.2l-33.4,0.1c2.9-8.3,10.3-13.7,18.2-12.8
				c6.1,0.7,10.9,5.1,13.2,11C56.6,416.9,57.3,417.5,57.9,418.2z"/>
			<path class="st32" d="M226.7,118.1c7.9,0.2,14.2,6.2,14.2,13.6c0,7.4-6.3,13.4-14.2,13.6V118.1z"/>
			<path class="st32" d="M226.7,145.2v3c0,39.3-28.1,72-65.3,79.3v-10.2c0-4.2-1.7-7.9-4.4-10.6c-1.1-1.1-2.4-2-3.8-2.7h3
				c2.9,0,5.6-1.5,7.1-3.8c4.6-2,6.5-5.6,5.8-12c0,0,0,0.3-1.7,0.8c-0.1,0-0.1,0-0.2,0.1c-0.3,0.1-0.6,0.1-0.9,0.2c0,0,0,0-0.1,0
				c-0.2,0-0.3,0-0.5,0.1c-0.1,0-0.1,0-0.2,0c-0.3,0.1-0.6,0.1-0.9,0.2c0-0.7,0-1.5,0-2.5h-19.2v-13.4h7.3c3.4,0,7.2-8.5,6.2-18.7
				c-0.6-5.5-5.7-19.8-9.1-19.8h-4.4V65h49.4c9.2,0,16.7,7.5,16.7,16.7V91v23.6c0,3.2,2,5.9,4.9,6.9c-3,2.5-4.9,6.1-4.9,10.1
				c0,7.5,6.6,13.6,14.6,13.6C226.4,145.3,226.6,145.3,226.7,145.2z M200.9,106.8c0.4-8.8-5.8-8.6-5.8-8.6l-26.8-1.1
				c-0.3,0-0.5,0-0.5,0.1c-0.2,3.8-0.3,4.3-0.5,8.2c0,0,0.2,0.1,0.5,0.1L200.9,106.8z M196,125.6c0-6-5.2-10.9-11.7-10.9
				c-6.5,0-11.7,4.9-11.7,10.9c0,6,5.2,10.9,11.7,10.9C190.8,136.5,196,131.6,196,125.6z"/>
			<path class="st32" d="M226.7,118.1v27.2c-0.2,0-0.3,0-0.5,0c-8.1,0-14.6-6.1-14.6-13.6c0-4,1.9-7.7,4.9-10.1
				c0.8,0.3,1.6,0.4,2.5,0.4h0.4c2.8,0,5.2-1.6,6.5-3.9c0.1,0,0.3,0,0.4,0C226.4,118,226.6,118,226.7,118.1z"/>
			<path class="st43" d="M226.7,114.6v3.4c-0.2,0-0.3,0-0.5,0c-0.1,0-0.3,0-0.4,0C226.4,117,226.7,115.8,226.7,114.6z"/>
			<path class="st44" d="M226.7,99v15.6c0,1.2-0.3,2.4-0.9,3.4c-3.6,0.1-6.9,1.4-9.4,3.4c-2.8-1-4.9-3.7-4.9-6.9V91v-9.2V57.3
				c0-1.4,0.4-2.6,1-3.7C221.6,66.5,226.7,82.2,226.7,99z"/>
			<path class="st44" d="M225.9,118.1c-1.2,2.3-3.7,3.9-6.5,3.9H219c-0.9,0-1.7-0.2-2.5-0.4C219,119.4,222.3,118.1,225.9,118.1z"/>
			<path class="st44" d="M212.7,53.6c-0.7,1.1-1,2.4-1,3.7v24.5c0-9.2-7.5-16.7-16.7-16.7h-49.4V18.2h0.1
				C173.5,18.2,198.1,32.2,212.7,53.6z"/>
			<path class="st44" d="M195.2,98.2c0,0,6.2-0.2,5.8,8.6l-33-1.3c-0.3,0-0.5-0.1-0.5-0.1c0.2-3.9,0.3-4.3,0.5-8.2
				c0-0.1,0.2-0.1,0.5-0.1L195.2,98.2z"/>
			<path class="st45" d="M184.3,114.7c6.5,0,11.7,4.9,11.7,10.9c0,6-5.2,10.9-11.7,10.9c-6.5,0-11.7-4.9-11.7-10.9
				C172.6,119.6,177.8,114.7,184.3,114.7z"/>
			<path class="st46" d="M169.2,188.2c0.7,6.4-1.2,10-5.8,12c0.9-1.3,1.4-2.8,1.4-4.4v-0.4c0-0.2,0-0.3,0-0.5
				c1.6-1.3,2.7-3.4,2.7-5.5c0-0.1,0-0.2,0-0.4C169.2,188.6,169.2,188.2,169.2,188.2z"/>
			<path class="st41" d="M167.5,189.1c0,0.1,0,0.3,0,0.4c0,2.2-1.1,4.2-2.7,5.5c0-3.1,0-0.5,0-5.3c0.3-0.1,0.7-0.1,0.9-0.2
				c0.1,0,0.1,0,0.2,0c0.2,0,0.3-0.1,0.5-0.1c0,0,0,0,0.1,0c0.3-0.1,0.6-0.1,0.9-0.2C167.4,189.1,167.4,189.1,167.5,189.1z"/>
			<path class="st47" d="M167.3,189.1c-0.3,0.1-0.5,0.1-0.9,0.2C166.8,189.3,167.1,189.2,167.3,189.1z"/>
			<path class="st47" d="M166.4,189.4c-0.2,0-0.3,0.1-0.5,0.1C166.1,189.4,166.2,189.4,166.4,189.4z"/>
			<path class="st47" d="M164.8,189.7c0.3,0,0.7-0.1,0.9-0.2C165.4,189.6,165.1,189.6,164.8,189.7L164.8,189.7z"/>
			<path class="st46" d="M164.8,195.4v0.4c0,1.6-0.5,3.1-1.4,4.4c-2.8,1.2-6.7,1.9-11.7,2.2c-0.8,0.1-1.6,0.1-2.4,0.1
				c-0.9-0.2-1.9-0.3-2.8-0.3c-0.3,0-0.6,0-0.8,0v-5.9h15.2c1.5,0,2.9-0.6,4.1-1.5C164.8,195.1,164.8,195.3,164.8,195.4z"/>
			<path class="st41" d="M164.8,189.7c0,4.7,0,2.2,0,5.3c-1.1,0.9-2.5,1.5-4.1,1.5h-15.2v-4.6c5.7-0.4,10-0.9,13.3-1.3
				c0.4,0,0.8-0.1,1.2-0.2c0.8-0.1,1.6-0.2,2.2-0.3c0.7-0.1,1.3-0.2,1.9-0.3c0.1,0,0.2,0,0.2-0.1
				C164.6,189.7,164.7,189.7,164.8,189.7z"/>
			<path class="st47" d="M164.8,189.7L164.8,189.7c-0.1,0-0.2,0.1-0.3,0.1C164.6,189.7,164.7,189.7,164.8,189.7z"/>
			<path class="st32" d="M164.8,187.2c0,1,0,1.8,0,2.5c-0.1,0-0.2,0.1-0.3,0.1c-0.1,0-0.2,0.1-0.2,0.1c-0.6,0.1-1.2,0.2-1.9,0.3
				c-0.7,0.1-1.4,0.2-2.2,0.3c-0.4,0.1-0.8,0.1-1.2,0.2c-3.3,0.4-7.6,0.8-13.3,1.3v-4.6H164.8z"/>
			<path class="st47" d="M162.3,190.1c0.7-0.1,1.3-0.2,1.9-0.3C163.7,189.9,163,190,162.3,190.1z"/>
			<path class="st32" d="M163.4,200.2c-1.5,2.2-4.2,3.8-7.1,3.8h-3c-1.3-0.7-2.6-1.1-4.1-1.4c0.8,0,1.6-0.1,2.4-0.1
				C156.6,202.1,160.5,201.4,163.4,200.2z"/>
			<path class="st48" d="M161.4,227.5v3.2c0,8.3-6.7,15.1-15.1,15.1c-0.3,0-0.6,0-0.8,0v-16.7h0.1
				C151,229.1,156.3,228.5,161.4,227.5z"/>
			<path class="st32" d="M161.4,217.4v10.2c-5.1,1-10.4,1.5-15.8,1.5h-0.1V204h7.7c1.4,0.7,2.7,1.6,3.8,2.7
				C159.8,209.4,161.4,213.2,161.4,217.4z"/>
			<path class="st47" d="M158.9,190.6c0.4,0,0.9-0.1,1.2-0.2C159.7,190.5,159.3,190.5,158.9,190.6z"/>
			<path class="st49" d="M159,155.1c1,10.3-2.8,18.7-6.2,18.7h-7.3v-38.5h4.4C153.3,135.3,158.4,149.6,159,155.1z"/>
			<path class="st32" d="M153.3,204h-7.7v-1.4c1.2,0,2.4,0,3.6,0C150.6,202.8,152,203.3,153.3,204z"/>
			<path class="st46" d="M149.2,202.6c-1.2,0-2.4,0.1-3.6,0v-0.3c0.3,0,0.6,0,0.8,0C147.3,202.3,148.3,202.4,149.2,202.6z"/>
			<path class="st32" d="M145.5,229.1v16.7c-3.8-0.2-7.3-1.9-9.8-4.4c-2.7-2.7-4.4-6.5-4.4-10.6v-2.9
				C135.9,228.7,140.6,229.1,145.5,229.1L145.5,229.1z"/>
			<path class="st42" d="M145.5,204v25.1h-0.1c-4.8,0-9.6-0.4-14.2-1.2v-10.5c0-5.8,3.3-10.9,8.2-13.4H145.5z"/>
			<path class="st42" d="M145.5,202.6v1.4h-6c1.3-0.7,2.7-1.2,4.2-1.4C144.3,202.6,144.9,202.6,145.5,202.6z"/>
			<path class="st50" d="M145.5,202.3v0.3c-0.6,0-1.3,0-1.9,0C144.3,202.4,144.9,202.4,145.5,202.3z"/>
			<path class="st50" d="M145.5,196.4v5.9c-0.7,0.1-1.3,0.1-1.9,0.2c-7.4-0.3-14.7-1.6-18.6-4.1c-0.3-0.8-0.5-1.7-0.5-2.7v-0.4
				c0-0.8,0-1.3,0-1.7c1.3,1.6,3.1,2.7,5.2,2.7H145.5z"/>
			<path class="st43" d="M145.5,191.8v4.6h-15.7c-2.1,0-4-1.1-5.2-2.7c0-0.4,0-0.6,0-0.7c0.8,0,1.6-0.1,2.3-0.1
				c2.7-0.1,5.2-0.3,7.5-0.4c1.5-0.1,3-0.2,4.4-0.2c0.1,0,0.1,0,0.1,0c0.7,0,1.4-0.1,2.1-0.1c0.7,0,1.4-0.1,2-0.1
				c0.6,0,1.2-0.1,1.8-0.1C145.1,191.9,145.3,191.9,145.5,191.8z"/>
			<path class="st42" d="M145.5,187.2v4.6c-0.2,0-0.4,0-0.7,0.1c-0.6,0-1.2,0.1-1.8,0.1c-0.7,0-1.3,0.1-2,0.1
				c-0.7,0-1.4,0.1-2.1,0.1c-0.1,0-0.1,0-0.1,0c-1.4,0.1-2.9,0.2-4.4,0.2c-2.3,0.1-4.8,0.3-7.5,0.4c-0.8,0-1.5,0.1-2.3,0.1
				c0-0.4,0-1,0-5.8H145.5z"/>
			<path class="st42" d="M94.8,90.1c7.3,0,13.4-4.6,14.6-10.5c0-0.2,0.1-0.3,0.1-0.4c1.5-7.9,8.7-14.2,16.9-14.2h19.2v70.3h-4.4
				c-3.4,0-8.6,14.3-9.1,19.8c-1,10.3,2.8,18.7,6.2,18.7h7.3v13.4h-20.9c0,4.8,0,5.4,0,5.8c-0.2,0-0.3,0-0.5,0v0c-0.1,0-0.1,0-0.2,0
				c-0.5,0-1.6-0.2-2-0.5c-0.1-0.1,0.1,1.5,0.2,1.9c0.1,1.6,1.2,2.9,3,4c1.1,3.1,4,5.5,7.6,5.5h6.8c-4.9,2.5-8.2,7.5-8.2,13.4v10.5
				c-38-6.7-67-39.8-67-79.6v-3c7.9-0.2,14.2-6.2,14.2-13.6c0-3.9-1.8-7.5-4.6-9.9c3.2-0.8,5.5-3.7,5.5-7.1V96.2
				c0.7-3.5,3.8-6.1,7.5-6.1h7.3H94.8z M122.3,105.3c-0.2-3.9-0.3-4.3-0.5-8.2c0-0.1-0.2-0.1-0.5-0.1l-26.7,1.1c0,0-6.2-0.2-5.8,8.6
				l33-1.3C122.1,105.4,122.3,105.4,122.3,105.3z M117.3,125.6c0-6-5.2-10.9-11.7-10.9c-6.5,0-11.7,4.9-11.7,10.9
				c0,6,5.2,10.9,11.7,10.9C112.1,136.5,117.3,131.6,117.3,125.6z"/>
			<path class="st51" d="M145.5,135.3v38.5h-7.3c-3.4,0-7.2-8.5-6.2-18.7c0.6-5.5,5.7-19.8,9.1-19.8H145.5z"/>
			<path class="st52" d="M145.5,18.2V65h-19.2c-8.2,0-15.4,6.3-16.9,14.2c0.1-0.6,0.1-1.2,0.1-1.7V29.2c0-0.9-0.1-1.7-0.3-2.5
				C120.2,21.2,132.5,18.2,145.5,18.2L145.5,18.2z"/>
			<path class="st43" d="M143.1,192c0.6,0,1.2-0.1,1.8-0.1C144.3,191.9,143.7,192,143.1,192z"/>
			<path class="st43" d="M139,192.3c0.7,0,1.4-0.1,2.1-0.1C140.4,192.2,139.7,192.2,139,192.3z"/>
			<path class="st42" d="M143.7,202.5c-1.5,0.3-2.9,0.8-4.2,1.4h-6.8c-3.6,0-6.5-2.4-7.6-5.5C129,200.9,136.2,202.3,143.7,202.5z"/>
			<path class="st43" d="M134.5,192.5c1.5-0.1,3-0.2,4.4-0.2C137.5,192.4,136,192.5,134.5,192.5z"/>
			<path class="st43" d="M127,192.9c2.7-0.1,5.2-0.3,7.5-0.4C132.1,192.7,129.6,192.8,127,192.9z"/>
			<path class="st50" d="M124.6,195.8c0,0.9,0.2,1.8,0.5,2.7c-1.8-1.1-2.8-2.5-3-4c0-0.5-0.2-2-0.2-1.9c0.4,0.3,1.5,0.5,2,0.5
				c0.1,0,0.1,0,0.2,0c0.2,0.2,0.3,0.5,0.5,0.7c0,0.3,0,0.8,0,1.7V195.8z"/>
			<path class="st43" d="M124.6,193c0,0.2,0,0.3,0,0.7c-0.2-0.2-0.3-0.5-0.5-0.7C124.3,193.1,124.5,193.1,124.6,193z"/>
			<path class="st43" d="M124.6,193c-0.2,0-0.3,0-0.5,0v0C124.3,193.1,124.5,193,124.6,193z"/>
			<path class="st52" d="M121.8,97.1c0.2,3.8,0.3,4.3,0.5,8.2c0,0-0.2,0.1-0.5,0.1l-33,1.3c-0.4-8.8,5.8-8.6,5.8-8.6l26.7-1.1
				C121.7,97.1,121.8,97.1,121.8,97.1z"/>
			<path class="st45" d="M105.6,114.7c6.5,0,11.7,4.9,11.7,10.9c0,6-5.2,10.9-11.7,10.9c-6.5,0-11.7-4.9-11.7-10.9
				C93.9,119.6,99.1,114.7,105.6,114.7z"/>
			<path class="st52" d="M109.6,29.2v48.3c0,0.6-0.1,1.2-0.1,1.7c0,0.1-0.1,0.3-0.1,0.4c-1.2,6-7.3,10.5-14.6,10.5h-0.5
				c-8.2,0-14.8-5.7-14.8-12.7V57.3v-5.2c7.7-10.7,17.9-19.5,29.8-25.4C109.5,27.5,109.6,28.3,109.6,29.2z"/>
			<path class="st52" d="M94.2,90.1H87c-3.7,0-6.8,2.6-7.5,6.1V77.5C79.4,84.4,86.1,90.1,94.2,90.1z"/>
			<path class="st52" d="M79.4,96.2v18.4c0,3.4-2.3,6.3-5.5,7.1h0c-2.3-2-5.3-3.3-8.7-3.6c-0.6-1-0.9-2.2-0.9-3.5V99
				c0-16.9,6.2-34,15.1-47c0.7,1.1,0,3.9,0,5.2v20.2V96.2z"/>
			<path class="st42" d="M73.9,121.7c2.9,2.5,4.6,6,4.6,9.9c0,7.4-6.3,13.4-14.2,13.6v-27.2c0.3,0,0.6,0,0.9,0
				c1.2,2.3,3.6,3.8,6.4,3.8h0.4C72.7,121.9,73.3,121.9,73.9,121.7L73.9,121.7z"/>
			<path class="st52" d="M73.9,121.7c-0.6,0.2-1.2,0.2-1.8,0.2h-0.4c-2.8,0-5.2-1.6-6.4-3.8C68.6,118.4,71.6,119.7,73.9,121.7z"/>
			<path class="st43" d="M65.2,118.1c-0.3,0-0.6,0-0.9,0v-3.4C64.4,115.9,64.7,117.1,65.2,118.1z"/>
			<path class="st42" d="M64.4,118.1v27.2c-0.2,0-0.3,0-0.5,0c-8.1,0-14.6-6.1-14.6-13.6c0-7.5,6.6-13.6,14.6-13.6
				C64.1,118,64.2,118,64.4,118.1z"/>
			<path class="st53" d="M145.5,110.2c0.1,0,0.2,0,0.3,0h0.2c9.4,0,19.9-1.5,38.9-1.5c7.2,0,23.1,0.2,30.1,0.9
				c1,0.1,1.3,0.2,1.3,1.1c0.2,1.8,0.1,10.3,0.1,12.3c0,0.7-2.3,0.9-2.7,0.9h-0.3v-3.7c0-4.6-3.8-8.4-8.4-8.4h-43.5
				c-3.4,0-6.3,2-7.6,4.9c-0.4-0.4-1.9-1.5-7.8-1.6c-0.2,0-0.4,0-0.5,0c-7,0.1-7.9,1.7-7.9,1.7l-0.3,0.1c-1.3-3-4.3-5.1-7.7-5.1
				H86.1c-4.6,0-8.4,3.8-8.4,8.4v3.7h0c-0.4,0-2.6-0.2-2.6-0.9c0-1.9,0-10.5,0.1-12.3c0-0.9,0.3-1,1.3-1.1c7-0.7,22.9-0.9,30.1-0.9
				C125.6,108.8,136.1,110.2,145.5,110.2z"/>
			<path class="st54" d="M213.3,120.3v13.4c0,4.6-3.8,8.4-8.4,8.4h-43.5c-4.6,0-8.4-3.8-8.4-8.4v-13.4c0-4.6,3.8-8.4,8.4-8.4H205
				C209.6,111.9,213.3,115.6,213.3,120.3z"/>
			<path class="st54" d="M138,120.3v13.4c0,4.6-3.8,8.4-8.4,8.4H86.1c-4.6,0-8.4-3.8-8.4-8.4v-13.4c0-4.6,3.7-8.4,8.4-8.4h43.5
				C134.3,111.9,138,115.6,138,120.3z"/>
		</g>
		<g id="XMLID_2_">
			<g>
				<path class="st27" d="M875.1,50v130.8c0,27.5-22.5,50-50,50h-205V0h205C852.6,0,875.1,22.5,875.1,50z"/>
				<path class="st27" d="M620.1,0v230.8H415c-24.7,0-45.4-18.2-49.3-41.8h25.1v-81h-1L365,133.1V50c0-27.5,22.5-50,50-50H620.1z"/>
				<path class="st27" d="M390.9,108v81h-25.1c-0.5-2.7-0.7-5.4-0.7-8.2v-47.7l24.8-25.1H390.9z"/>
				<path class="st27" d="M365.7,189h-55.9l55.2-55.9v47.7C365,183.5,365.3,186.3,365.7,189z"/>
			</g>
			<g>
			</g>
		</g>
		<text transform="matrix(1 0 0 1 409.079 87.9719)"><tspan x="0" y="0" class="st28 st29">Hi, </tspan><tspan x="0" y="80" class="st28 st29">How can we help?</tspan></text>
	</g>
	<g>
		<g>
			<defs>
				<ellipse id="SVGID_5_" cx="145.7" cy="145.4" rx="145.2" ry="145.4"/>
			</defs>
			<use xlink:href="#SVGID_5_"  style="overflow:visible;fill:#293990;"/>
			<clipPath id="SVGID_6_">
				<use xlink:href="#SVGID_5_"  style="overflow:visible;"/>
			</clipPath>
			<g id="XMLID_6_" class="st55">
				<g>
					<polygon class="st1" points="333.4,-45.9 333.4,329.4 148.6,329.4 148.6,327.5 148.6,-44 148.6,-45.9 					"/>
					<polygon class="st2" points="148.6,327.5 148.6,329.4 -36.2,329.4 -36.2,-45.9 148.6,-45.9 148.6,-44 					"/>
				</g>
				<g>
				</g>
			</g>
			<path class="st56" d="M266.8,374.5c0,15.3,0.3,30-2.2,43.7c-2.9-8.2-10.3-13.7-18.1-12.7c-6.1,0.7-10.9,5.1-13.2,11
				c-0.7,0.5-1.4,1.1-2,1.8h0c0-14.8-1.2-28.5-1.2-43.8c0-14-1.1-27.4-3.2-40.1v-47.6c0-21.3-10.5-38.9-26.5-47.3
				C237.5,244.7,266.8,303.2,266.8,374.5z"/>
			<path class="st57" d="M265.8,423c1.3,10.8-5.2,20.5-14.5,21.6c-7.2,0.9-14-3.7-17.3-10.8c-0.5,0-0.9-0.1-1.4-0.3
				c-2.7-0.9-4.2-3.9-4.2-7.3c0-1.3,0.2-2.6,0.7-4c0.5-1.6,1.3-2.9,2.3-4h33.4c0,0,0,0,0-0.1C265.2,419.7,265.6,421.3,265.8,423z"/>
			<path class="st56" d="M264.7,418.2C264.6,418.2,264.6,418.2,264.7,418.2l-33.4,0.1c0.6-0.7,1.3-1.3,2-1.8
				c2.3-5.9,7.2-10.3,13.2-11C254.4,404.5,261.8,409.9,264.7,418.2z"/>
			<path class="st58" d="M196.9,429.9H226h0.8v9.2v0.3c-0.1,14.5-2.4,28.7-6.6,41.4c-1.6-1-3.5-1.6-5.6-1.6h-33.1
				c-2.2,0-4.1,0.6-5.7,1.7c-3.3-9.8-5.5-20.4-6.3-31.5c-0.3-3.6-10.6-5-23.4-5c-0.1,0-0.2,0-0.4,0v-14.5h44.3H196.9z"/>
			<path class="st59" d="M226.8,427.4v2.5H226h-29.1c0.3-1.7,1-5.8,1.9-11.7H226h0.6h0.3v8V427.4z"/>
			<path class="st59" d="M226.8,368.9v49.3h-0.3H226h-27.3c4.2-27.7,13.2-95.5,9.1-141.5c8.7,15.7,15.4,35.5,19,57.7v15.2V368.9z"/>
			<path class="st59" d="M226.8,286.7v47.6c-3.7-22.2-10.3-42-19-57.7c-1.4-15.9-4.4-29.3-9.8-37.5c0.8,0.1,1.5,0.1,2.3,0.3
				C216.4,247.8,226.8,265.4,226.8,286.7z"/>
			<rect x="218.3" y="495.6" class="st60" width="5.9" height="5.4"/>
			<path class="st61" d="M224.2,487.7v8h-5.9v-4.6c0-1-0.3-1.9-0.8-2.8c1-2.4,1.9-4.9,2.7-7.4C222.6,482.4,224.2,484.9,224.2,487.7z
				"/>
			<path class="st61" d="M220.2,480.9c-0.8,2.5-1.7,5-2.7,7.4c-1.2-2.1-3.7-3.5-6.6-3.5h-25.6c-3,0-5.5,1.5-6.7,3.6
				c-1-2.4-1.9-4.9-2.8-7.4c1.6-1.1,3.6-1.7,5.7-1.7h33.1C216.7,479.3,218.7,479.9,220.2,480.9z"/>
			<rect x="177.9" y="495.6" class="st60" width="40.4" height="5.4"/>
			<path class="st60" d="M214.8,494.5c1-2,1.9-4.1,2.7-6.2c0.5,0.8,0.8,1.8,0.8,2.8v4.6h-40.4v-4.6c0-1,0.3-1.9,0.7-2.7
				c0.8,2.1,1.7,4.1,2.7,6H214.8z"/>
			<path class="st60" d="M210.9,484.8c2.9,0,5.4,1.4,6.6,3.5c-0.9,2.1-1.8,4.2-2.7,6.2h-33.5c-1-2-1.8-4-2.7-6
				c1.2-2.1,3.7-3.6,6.7-3.6H210.9z"/>
			<path class="st61" d="M207.8,276.7c4.1,46.1-4.9,113.8-9.1,141.5h-3.7l1.5-158.2C200.6,264.9,204.4,270.5,207.8,276.7z"/>
			<path class="st61" d="M198.1,239.2c5.3,8.2,8.3,21.6,9.8,37.5c-3.4-6.2-7.2-11.8-11.3-16.6l0.2-20.1l-0.3-0.1
				c0.2-0.3,0.3-0.5,0.4-0.8C197.3,239.1,197.7,239.1,198.1,239.2z"/>
			<path class="st61" d="M195.1,418.2h3.7c-0.9,5.9-1.6,10-1.9,11.7h-6.8v-11.7H195.1z"/>
			<path class="st59" d="M200.3,239.4c-0.8-0.1-1.5-0.2-2.3-0.3c-0.3-0.4-0.6-0.9-0.9-1.3C198.3,238.4,199.3,238.9,200.3,239.4z"/>
			<path class="st61" d="M198.1,239.2c-0.4-0.1-0.8-0.1-1.2-0.1c0.2-0.4,0.3-0.8,0.3-1.2C197.5,238.3,197.8,238.7,198.1,239.2z"/>
			<path class="st56" d="M197.3,237.4c0,0.2,0,0.4,0,0.6c-5.7-2.5-12.1-3.8-18.9-3.8h-15h-17.6v-11.2c0.1,0,0.2,0,0.3,0
				C174.3,222.9,197.3,229.4,197.3,237.4z"/>
			<path class="st61" d="M197.2,237.9c-0.1,0.4-0.2,0.8-0.3,1.2c-0.7-0.1-1.4-0.1-2.1-0.1c-5.7,0-11.2,1.3-16.5,3.6
				c-4.2-5.4-9.3-8.5-14.9-8.5h15C185.1,234.1,191.5,235.5,197.2,237.9z"/>
			<path class="st61" d="M196.7,240l-0.2,20.1c-4.3-5.1-8.8-9.4-13.7-12.7c6.9-2,11.7-4.6,13.6-7.5L196.7,240z"/>
			<path class="st61" d="M196.9,239.1c-0.1,0.3-0.3,0.5-0.4,0.8c-1.8,2.9-6.7,5.4-13.6,7.5c-0.8-0.6-1.7-1.1-2.5-1.6
				c-0.7-1.1-1.4-2.1-2.2-3.1c5.3-2.3,10.9-3.6,16.5-3.6C195.5,239,196.2,239,196.9,239.1z"/>
			<path class="st61" d="M196.6,260.1l-1.5,158.2h-5v-51v-17.7v-62.9c0-15.8-3.2-29.5-8.5-39c0.5-0.1,0.9-0.3,1.3-0.4
				C187.7,250.7,192.3,255,196.6,260.1z"/>
			<rect x="145.7" y="418.2" class="st58" width="44.3" height="11.7"/>
			<path class="st62" d="M190.1,367.3v51h-44.3V251.8c0.1,0,0.2,0,0.3,0c13.8,0,26.3-1.5,35.6-4c5.3,9.5,8.5,23.2,8.5,39v62.9V367.3
				z"/>
			<path class="st61" d="M182.9,247.4c-0.4,0.1-0.9,0.2-1.3,0.4c-0.4-0.7-0.8-1.4-1.2-2C181.2,246.2,182.1,246.8,182.9,247.4z"/>
			<path class="st62" d="M180.4,245.7c0.4,0.6,0.8,1.3,1.2,2c-9.2,2.5-21.8,4-35.6,4c-0.1,0-0.2,0-0.3,0v-17.7h17.6
				c5.6,0,10.7,3.1,14.9,8.5c-0.6,0.3-1.2,0.6-1.9,0.9C177.7,244.2,179.1,244.9,180.4,245.7z"/>
			<path class="st62" d="M178.3,242.6c0.8,1,1.5,2,2.2,3.1c-1.3-0.8-2.7-1.6-4-2.2C177,243.2,177.6,242.9,178.3,242.6z"/>
			<path class="st61" d="M178.6,488.4c-0.5,0.8-0.7,1.7-0.7,2.7v4.6H172v-8c0-2.7,1.5-5.2,3.8-6.7
				C176.6,483.5,177.6,486,178.6,488.4z"/>
			<rect x="172" y="495.6" class="st60" width="5.9" height="5.4"/>
			<path class="st63" d="M96.4,429.9h5.1h44.3v14.5c-12.7,0-22.8,1.4-23.1,5c-0.8,11.1-3,21.7-6.3,31.5c-1.6-1.1-3.6-1.7-5.8-1.7
				H77.5c-2.3,0-4.4,0.7-6.1,1.9c-1.4-4.1-2.6-8.3-3.5-12.6c-2.1-9.1-3.2-18.7-3.2-28.6v-10H96.4z"/>
			<rect x="101.4" y="418.2" class="st63" width="44.3" height="11.7"/>
			<path class="st64" d="M145.7,251.8v166.5h-44.3v-51v-17.7v-62.9c0-15.7,3.7-29.4,9.4-38.9C119.9,250.3,132.2,251.8,145.7,251.8z"
				/>
			<path class="st64" d="M145.7,234.1v17.7c-13.5,0-25.8-1.5-34.9-3.9c5.2-8.6,12-13.7,19.1-13.7H145.7z"/>
			<path class="st59" d="M145.7,222.9v11.2h-15.8h-13.4c-7.6,0-14.8,1.7-21.5,4.8h0c-0.2-0.5-0.3-1-0.3-1.5
				C94.7,229.4,117.6,223,145.7,222.9z"/>
			<path class="st65" d="M116.5,234.1h13.4c-7.1,0-13.9,5.1-19.1,13.7c-1.2-0.3-2.4-0.7-3.5-1c1.9-1.3,3.8-2.4,5.7-3.3
				c-5.7-2.8-11.7-4.4-17.9-4.5c0-0.1-0.1-0.1-0.1-0.2C101.6,235.8,108.9,234.1,116.5,234.1z"/>
			<rect x="114.3" y="495.6" class="st61" width="5.9" height="5.4"/>
			<path class="st66" d="M120.2,487.7v8h-5.9v-4.6c0-0.9-0.2-1.8-0.7-2.6c1-2.4,1.9-4.9,2.8-7.5C118.7,482.6,120.2,485,120.2,487.7z
				"/>
			<path class="st65" d="M116.4,481c-0.9,2.5-1.8,5-2.8,7.5c-1.2-2.2-3.7-3.7-6.8-3.7H81.2c-3.2,0-5.9,1.7-6.9,4
				c-1.1-2.5-2-5-2.9-7.7c1.7-1.2,3.8-1.9,6.1-1.9h33.1C112.8,479.3,114.8,480,116.4,481z"/>
			<rect x="73.8" y="495.6" class="st61" width="40.4" height="5.4"/>
			<path class="st61" d="M74.3,488.9c1.1-2.3,3.7-4,6.9-4h25.6c3,0,5.6,1.5,6.8,3.7c0.4,0.8,0.7,1.7,0.7,2.6v4.6H73.8v-4.6
				C73.8,490.3,74,489.5,74.3,488.9z"/>
			<path class="st65" d="M110.8,247.8c-5.7,9.5-9.4,23.2-9.4,38.9v62.9v17.7v51h-3.3l-2.8-161c3.8-4.1,7.8-7.6,12-10.4
				C108.4,247.2,109.6,247.5,110.8,247.8z"/>
			<path class="st65" d="M113,243.5c-1.9,1-3.8,2.1-5.7,3.3c-6.6-2.1-11-4.8-12.2-7.8C101.3,239.1,107.3,240.7,113,243.5z"/>
			<path class="st65" d="M98.2,418.2h3.3v11.7h-5.1c-0.3-1.7-1-5.8-2-11.7H98.2z"/>
			<path class="st65" d="M95.3,257.2l2.8,161h-3.8c-4.6-29.1-14.8-102-9.1-147.8C88.4,265.5,91.8,261.1,95.3,257.2z"/>
			<path class="st65" d="M107.3,246.8c-4.2,2.8-8.2,6.3-12,10.4L95,239c0,0,0.1,0,0.1,0C96.3,242,100.7,244.7,107.3,246.8z"/>
			<path class="st61" d="M96.4,429.9H64.6v-3.7v-8h29.8C95.4,424.2,96.1,428.3,96.4,429.9z"/>
			<path class="st65" d="M95,239l0.3,18.2c-3.6,3.9-6.9,8.3-10.1,13.2c1.7-13.4,4.7-24.5,9.6-31.4C94.9,239,95,239,95,239z"/>
			<path class="st65" d="M95,238.8c0,0.1,0,0.1,0.1,0.2c0,0-0.1,0-0.1,0L95,238.8L95,238.8L95,238.8z"/>
			<path class="st65" d="M95,238.9v0.2c-0.1,0-0.1,0-0.1,0C94.9,239,95,238.9,95,238.9C95,238.9,95,238.8,95,238.9z"/>
			<path class="st61" d="M95,238.9c0,0.1-0.1,0.1-0.1,0.2c-0.1,0-0.2,0-0.3,0C94.7,239,94.9,238.9,95,238.9z"/>
			<path class="st61" d="M94.6,239c0.1,0,0.2,0,0.3,0c-4.9,6.9-8,18-9.6,31.4c-9,14.1-16.1,32.3-20.6,53v-36.7
				C64.6,265.1,77.2,247.3,94.6,239L94.6,239z"/>
			<path class="st61" d="M94.4,418.2H64.6v-51v-17.7v-26.2c4.5-20.7,11.6-38.9,20.6-53C79.6,316.2,89.8,389.2,94.4,418.2z"/>
			<path class="st59" d="M94.6,239c-17.4,8.3-30,26.1-30,47.7v36.7c-3.4,15.8-5.3,33-5.3,51c0,15.3-1.2,29.1-1.2,43.7
				c-0.6-0.7-1.3-1.3-2-1.7c-2.3-5.9-7.2-10.3-13.2-11c-7.9-1-15.3,4.5-18.2,12.8h-0.1c-2.5-13.7-2.2-28.5-2.2-43.8
				C22.6,299.7,54.8,239,94.6,239z"/>
			<path class="st65" d="M74.3,488.9c-0.3,0.7-0.5,1.4-0.5,2.2v4.6h-5.9v-8c0-2.6,1.4-4.9,3.5-6.5C72.3,483.8,73.3,486.4,74.3,488.9
				z"/>
			<rect x="67.9" y="495.6" class="st61" width="5.9" height="5.4"/>
			<path class="st67" d="M60.5,422.2c0.5,1.4,0.7,2.7,0.7,4c0,3.4-1.6,6.4-4.2,7.3c-0.5,0.2-0.9,0.2-1.4,0.3
				c-3.3,7.1-10.1,11.7-17.3,10.8c-9.3-1.1-15.8-10.8-14.5-21.6c0.2-1.7,0.6-3.2,1.1-4.7h33.4c0,0,0-0.1,0-0.1
				C59.2,419.3,60,420.7,60.5,422.2z"/>
			<path class="st59" d="M58.2,418.2C58.2,418.2,58.2,418.2,58.2,418.2l-33.4,0.1c2.9-8.3,10.3-13.7,18.2-12.8
				c6.1,0.7,10.9,5.1,13.2,11C56.9,416.9,57.6,417.5,58.2,418.2z"/>
			<path class="st57" d="M226.8,118.1c7.9,0.2,14.2,6.2,14.2,13.6c0,7.4-6.3,13.4-14.2,13.6V118.1z"/>
			<path class="st57" d="M226.8,145.2v3c0,39.3-28,72-65.2,79.3v-10.2c0-4.2-1.7-7.9-4.4-10.6c-1.1-1.1-2.4-2-3.8-2.7h3
				c2.9,0,5.6-1.5,7.1-3.8c4.6-2,6.5-5.6,5.8-12c0,0,0,0.3-1.7,0.8c-0.1,0-0.1,0-0.2,0.1c-0.3,0.1-0.6,0.1-0.9,0.2c0,0,0,0-0.1,0
				c-0.2,0-0.3,0-0.5,0.1c-0.1,0-0.1,0-0.2,0c-0.3,0.1-0.6,0.1-0.9,0.2c0-0.7,0-1.5,0-2.5h-19.2v-13.4h7.3c3.4,0,7.2-8.5,6.2-18.7
				c-0.6-5.5-5.7-19.8-9.1-19.8h-4.3V65h49.3c9.2,0,16.7,7.5,16.7,16.7V91v23.6c0,3.2,2,5.9,4.9,6.9c-3,2.5-4.9,6.1-4.9,10.1
				c0,7.5,6.6,13.6,14.6,13.6C226.5,145.3,226.7,145.3,226.8,145.2z M201.1,106.8c0.4-8.8-5.8-8.6-5.8-8.6l-26.7-1.1
				c-0.3,0-0.5,0-0.5,0.1c-0.2,3.8-0.3,4.3-0.5,8.2c0,0,0.2,0.1,0.5,0.1L201.1,106.8z M196.2,125.6c0-6-5.2-10.9-11.7-10.9
				c-6.5,0-11.7,4.9-11.7,10.9c0,6,5.2,10.9,11.7,10.9C190.9,136.5,196.2,131.6,196.2,125.6z"/>
			<path class="st57" d="M226.8,118.1v27.2c-0.2,0-0.3,0-0.5,0c-8.1,0-14.6-6.1-14.6-13.6c0-4,1.9-7.7,4.9-10.1
				c0.8,0.3,1.6,0.4,2.5,0.4h0.4c2.8,0,5.2-1.6,6.5-3.9c0.1,0,0.3,0,0.4,0C226.5,118,226.7,118,226.8,118.1z"/>
			<path class="st68" d="M226.8,114.6v3.4c-0.2,0-0.3,0-0.5,0c-0.1,0-0.3,0-0.4,0C226.5,117,226.8,115.8,226.8,114.6z"/>
			<path class="st69" d="M226.8,99v15.6c0,1.2-0.3,2.4-0.9,3.4c-3.6,0.1-6.9,1.4-9.3,3.4c-2.8-1-4.9-3.7-4.9-6.9V91v-9.2V57.3
				c0-1.4,0.4-2.6,1-3.7C221.7,66.5,226.8,82.2,226.8,99z"/>
			<path class="st69" d="M226,118.1c-1.2,2.3-3.7,3.9-6.5,3.9h-0.4c-0.9,0-1.7-0.2-2.5-0.4C219.1,119.4,222.4,118.1,226,118.1z"/>
			<path class="st69" d="M212.8,53.6c-0.7,1.1-1,2.4-1,3.7v24.5c0-9.2-7.5-16.7-16.7-16.7h-49.3V18.2h0.1
				C173.7,18.2,198.3,32.2,212.8,53.6z"/>
			<path class="st69" d="M195.3,98.2c0,0,6.2-0.2,5.8,8.6l-33-1.3c-0.3,0-0.5-0.1-0.5-0.1c0.2-3.9,0.3-4.3,0.5-8.2
				c0-0.1,0.2-0.1,0.5-0.1L195.3,98.2z"/>
			<path class="st70" d="M184.5,114.7c6.5,0,11.7,4.9,11.7,10.9c0,6-5.2,10.9-11.7,10.9c-6.5,0-11.7-4.9-11.7-10.9
				C172.8,119.6,178,114.7,184.5,114.7z"/>
			<path class="st71" d="M169.4,188.2c0.7,6.4-1.2,10-5.8,12c0.9-1.3,1.4-2.8,1.4-4.4v-0.4c0-0.2,0-0.3,0-0.5
				c1.6-1.3,2.7-3.4,2.7-5.5c0-0.1,0-0.2,0-0.4C169.3,188.6,169.4,188.2,169.4,188.2z"/>
			<path class="st66" d="M167.7,189.1c0,0.1,0,0.3,0,0.4c0,2.2-1.1,4.2-2.7,5.5c0-3.1,0-0.5,0-5.3c0.3-0.1,0.7-0.1,0.9-0.2
				c0.1,0,0.1,0,0.2,0c0.2,0,0.3-0.1,0.5-0.1c0,0,0,0,0.1,0c0.3-0.1,0.6-0.1,0.9-0.2C167.5,189.1,167.6,189.1,167.7,189.1z"/>
			<path class="st72" d="M167.5,189.1c-0.3,0.1-0.5,0.1-0.9,0.2C166.9,189.3,167.2,189.2,167.5,189.1z"/>
			<path class="st72" d="M166.6,189.4c-0.2,0-0.3,0.1-0.5,0.1C166.3,189.4,166.4,189.4,166.6,189.4z"/>
			<path class="st72" d="M165,189.7c0.3,0,0.7-0.1,0.9-0.2C165.6,189.6,165.3,189.6,165,189.7L165,189.7z"/>
			<path class="st71" d="M165,195.4v0.4c0,1.6-0.5,3.1-1.4,4.4c-2.8,1.2-6.7,1.9-11.7,2.2c-0.8,0.1-1.6,0.1-2.4,0.1
				c-0.9-0.2-1.9-0.3-2.8-0.3c-0.3,0-0.6,0-0.8,0v-5.9h15.2c1.5,0,2.9-0.6,4-1.5C165,195.1,165,195.3,165,195.4z"/>
			<path class="st66" d="M165,189.7c0,4.7,0,2.2,0,5.3c-1.1,0.9-2.5,1.5-4,1.5h-15.2v-4.6c5.7-0.4,10-0.9,13.3-1.3
				c0.4,0,0.8-0.1,1.2-0.2c0.8-0.1,1.6-0.2,2.2-0.3c0.7-0.1,1.3-0.2,1.9-0.3c0.1,0,0.2,0,0.2-0.1C164.8,189.7,164.9,189.7,165,189.7
				z"/>
			<path class="st72" d="M165,189.7L165,189.7c-0.1,0-0.2,0.1-0.3,0.1C164.8,189.7,164.9,189.7,165,189.7z"/>
			<path class="st57" d="M165,187.2c0,1,0,1.8,0,2.5c-0.1,0-0.2,0.1-0.3,0.1c-0.1,0-0.2,0.1-0.2,0.1c-0.6,0.1-1.2,0.2-1.9,0.3
				c-0.7,0.1-1.4,0.2-2.2,0.3c-0.4,0.1-0.8,0.1-1.2,0.2c-3.3,0.4-7.6,0.8-13.3,1.3v-4.6H165z"/>
			<path class="st72" d="M162.5,190.1c0.7-0.1,1.3-0.2,1.9-0.3C163.8,189.9,163.2,190,162.5,190.1z"/>
			<path class="st57" d="M163.5,200.2c-1.5,2.2-4.2,3.8-7.1,3.8h-3c-1.3-0.7-2.6-1.1-4.1-1.4c0.8,0,1.6-0.1,2.4-0.1
				C156.8,202.1,160.7,201.4,163.5,200.2z"/>
			<path class="st73" d="M161.6,227.5v3.2c0,8.3-6.7,15.1-15.1,15.1c-0.3,0-0.6,0-0.8,0v-16.7h0.1
				C151.2,229.1,156.5,228.5,161.6,227.5z"/>
			<path class="st57" d="M161.6,217.4v10.2c-5.1,1-10.4,1.5-15.8,1.5h-0.1V204h7.7c1.4,0.7,2.7,1.6,3.8,2.7
				C159.9,209.4,161.6,213.2,161.6,217.4z"/>
			<path class="st72" d="M159.1,190.6c0.4,0,0.9-0.1,1.2-0.2C159.9,190.5,159.5,190.5,159.1,190.6z"/>
			<path class="st74" d="M159.2,155.1c1,10.3-2.8,18.7-6.2,18.7h-7.3v-38.5h4.3C153.5,135.3,158.6,149.6,159.2,155.1z"/>
			<path class="st57" d="M153.5,204h-7.7v-1.4c1.2,0,2.4,0,3.6,0C150.8,202.8,152.2,203.3,153.5,204z"/>
			<path class="st71" d="M149.4,202.6c-1.2,0-2.4,0.1-3.6,0v-0.3c0.3,0,0.6,0,0.8,0C147.5,202.3,148.5,202.4,149.4,202.6z"/>
			<path class="st57" d="M145.7,229.1v16.7c-3.8-0.2-7.3-1.9-9.8-4.4c-2.7-2.7-4.4-6.5-4.4-10.6v-2.9
				C136.1,228.7,140.8,229.1,145.7,229.1L145.7,229.1z"/>
			<path class="st67" d="M145.7,204v25.1h-0.1c-4.8,0-9.5-0.4-14.1-1.2v-10.5c0-5.8,3.3-10.9,8.2-13.4H145.7z"/>
			<path class="st67" d="M145.7,202.6v1.4h-6c1.3-0.7,2.7-1.2,4.1-1.4C144.5,202.6,145.1,202.6,145.7,202.6z"/>
			<path class="st75" d="M145.7,202.3v0.3c-0.6,0-1.3,0-1.9,0C144.5,202.4,145.1,202.4,145.7,202.3z"/>
			<path class="st75" d="M145.7,196.4v5.9c-0.7,0.1-1.3,0.1-1.9,0.2c-7.4-0.3-14.6-1.6-18.6-4.1c-0.3-0.8-0.5-1.7-0.5-2.7v-0.4
				c0-0.8,0-1.3,0-1.7c1.3,1.6,3.1,2.7,5.2,2.7H145.7z"/>
			<path class="st68" d="M145.7,191.8v4.6h-15.7c-2.1,0-4-1.1-5.2-2.7c0-0.4,0-0.6,0-0.7c0.8,0,1.6-0.1,2.3-0.1
				c2.7-0.1,5.2-0.3,7.5-0.4c1.5-0.1,3-0.2,4.4-0.2c0.1,0,0.1,0,0.1,0c0.7,0,1.4-0.1,2.1-0.1c0.7,0,1.4-0.1,2-0.1
				c0.6,0,1.2-0.1,1.8-0.1C145.3,191.9,145.5,191.9,145.7,191.8z"/>
			<path class="st67" d="M145.7,187.2v4.6c-0.2,0-0.4,0-0.7,0.1c-0.6,0-1.2,0.1-1.8,0.1c-0.7,0-1.3,0.1-2,0.1
				c-0.7,0-1.4,0.1-2.1,0.1c-0.1,0-0.1,0-0.1,0c-1.4,0.1-2.9,0.2-4.4,0.2c-2.3,0.1-4.8,0.3-7.5,0.4c-0.8,0-1.5,0.1-2.3,0.1
				c0-0.4,0-1,0-5.8H145.7z"/>
			<path class="st67" d="M95,90.1c7.3,0,13.4-4.6,14.6-10.5c0-0.2,0.1-0.3,0.1-0.4c1.5-7.9,8.6-14.2,16.9-14.2h19.2v70.3h-4.3
				c-3.4,0-8.5,14.3-9.1,19.8c-1,10.3,2.8,18.7,6.2,18.7h7.3v13.4h-20.9c0,4.8,0,5.4,0,5.8c-0.2,0-0.3,0-0.5,0v0c-0.1,0-0.1,0-0.2,0
				c-0.5,0-1.6-0.2-2-0.5c-0.1-0.1,0.1,1.5,0.2,1.9c0.1,1.6,1.2,2.9,3,4c1.1,3.1,4,5.5,7.6,5.5h6.8c-4.8,2.5-8.2,7.5-8.2,13.4v10.5
				c-38-6.7-66.9-39.8-66.9-79.6v-3c7.9-0.2,14.2-6.2,14.2-13.6c0-3.9-1.8-7.5-4.6-9.9c3.2-0.8,5.5-3.7,5.5-7.1V96.2
				c0.7-3.5,3.8-6.1,7.5-6.1h7.3H95z M122.5,105.3c-0.2-3.9-0.3-4.3-0.5-8.2c0-0.1-0.2-0.1-0.5-0.1l-26.7,1.1c0,0-6.2-0.2-5.8,8.6
				l33-1.3C122.3,105.4,122.5,105.4,122.5,105.3z M117.6,125.6c0-6-5.2-10.9-11.7-10.9c-6.5,0-11.7,4.9-11.7,10.9
				c0,6,5.2,10.9,11.7,10.9C112.3,136.5,117.6,131.6,117.6,125.6z"/>
			<path class="st76" d="M145.7,135.3v38.5h-7.3c-3.4,0-7.2-8.5-6.2-18.7c0.6-5.5,5.7-19.8,9.1-19.8H145.7z"/>
			<path class="st77" d="M145.7,18.2V65h-19.2c-8.2,0-15.4,6.3-16.9,14.2c0.1-0.6,0.1-1.2,0.1-1.7V29.2c0-0.9-0.1-1.7-0.3-2.5
				C120.4,21.2,132.7,18.2,145.7,18.2L145.7,18.2z"/>
			<path class="st68" d="M143.3,192c0.6,0,1.2-0.1,1.8-0.1C144.5,191.9,143.9,192,143.3,192z"/>
			<path class="st68" d="M139.2,192.3c0.7,0,1.4-0.1,2.1-0.1C140.6,192.2,139.9,192.2,139.2,192.3z"/>
			<path class="st67" d="M143.9,202.5c-1.5,0.3-2.9,0.8-4.1,1.4h-6.8c-3.6,0-6.5-2.4-7.6-5.5C129.2,200.9,136.4,202.3,143.9,202.5z"
				/>
			<path class="st68" d="M134.7,192.5c1.5-0.1,3-0.2,4.4-0.2C137.7,192.4,136.2,192.5,134.7,192.5z"/>
			<path class="st68" d="M127.2,192.9c2.7-0.1,5.2-0.3,7.5-0.4C132.3,192.7,129.8,192.8,127.2,192.9z"/>
			<path class="st75" d="M124.8,195.8c0,0.9,0.2,1.8,0.5,2.7c-1.8-1.1-2.8-2.5-3-4c0-0.5-0.2-2-0.2-1.9c0.4,0.3,1.5,0.5,2,0.5
				c0.1,0,0.1,0,0.2,0c0.2,0.2,0.3,0.5,0.5,0.7c0,0.3,0,0.8,0,1.7V195.8z"/>
			<path class="st68" d="M124.8,193c0,0.2,0,0.3,0,0.7c-0.2-0.2-0.3-0.5-0.5-0.7C124.5,193.1,124.7,193.1,124.8,193z"/>
			<path class="st68" d="M124.8,193c-0.2,0-0.3,0-0.5,0v0C124.5,193.1,124.7,193,124.8,193z"/>
			<path class="st77" d="M122,97.1c0.2,3.8,0.3,4.3,0.5,8.2c0,0-0.2,0.1-0.5,0.1l-33,1.3c-0.4-8.8,5.8-8.6,5.8-8.6l26.7-1.1
				C121.9,97.1,122,97.1,122,97.1z"/>
			<path class="st70" d="M105.9,114.7c6.5,0,11.7,4.9,11.7,10.9c0,6-5.2,10.9-11.7,10.9c-6.5,0-11.7-4.9-11.7-10.9
				C94.2,119.6,99.4,114.7,105.9,114.7z"/>
			<path class="st77" d="M109.8,29.2v48.3c0,0.6-0.1,1.2-0.1,1.7c0,0.1-0.1,0.3-0.1,0.4c-1.2,6-7.3,10.5-14.6,10.5h-0.5
				c-8.2,0-14.8-5.7-14.8-12.7V57.3v-5.2c7.7-10.7,17.9-19.5,29.8-25.4C109.7,27.5,109.8,28.3,109.8,29.2z"/>
			<path class="st77" d="M94.5,90.1h-7.3c-3.7,0-6.8,2.6-7.5,6.1V77.5C79.7,84.4,86.3,90.1,94.5,90.1z"/>
			<path class="st77" d="M79.7,96.2v18.4c0,3.4-2.3,6.3-5.5,7.1h0c-2.3-2-5.3-3.3-8.6-3.6c-0.6-1-0.9-2.2-0.9-3.5V99
				c0-16.9,6.2-34,15.1-47c0.7,1.1,0,3.9,0,5.2v20.2V96.2z"/>
			<path class="st67" d="M74.2,121.7c2.9,2.5,4.6,6,4.6,9.9c0,7.4-6.3,13.4-14.2,13.6v-27.2c0.3,0,0.6,0,0.9,0
				c1.2,2.3,3.6,3.8,6.4,3.8h0.4C73,121.9,73.6,121.9,74.2,121.7L74.2,121.7z"/>
			<path class="st77" d="M74.2,121.7c-0.6,0.2-1.2,0.2-1.8,0.2H72c-2.8,0-5.2-1.6-6.4-3.8C68.9,118.4,71.9,119.7,74.2,121.7z"/>
			<path class="st68" d="M65.5,118.1c-0.3,0-0.6,0-0.9,0v-3.4C64.6,115.9,65,117.1,65.5,118.1z"/>
			<path class="st67" d="M64.6,118.1v27.2c-0.2,0-0.3,0-0.5,0c-8.1,0-14.6-6.1-14.6-13.6c0-7.5,6.6-13.6,14.6-13.6
				C64.3,118,64.5,118,64.6,118.1z"/>
			<path class="st78" d="M145.7,110.2c0.1,0,0.2,0,0.3,0h0.2c9.4,0,19.9-1.5,38.8-1.5c7.2,0,23.1,0.2,30.1,0.9
				c1,0.1,1.3,0.2,1.3,1.1c0.2,1.8,0.1,10.3,0.1,12.3c0,0.7-2.3,0.9-2.7,0.9h-0.3v-3.7c0-4.6-3.7-8.4-8.4-8.4h-43.5
				c-3.4,0-6.3,2-7.6,4.9c-0.4-0.4-1.9-1.5-7.8-1.6c-0.2,0-0.4,0-0.5,0c-7,0.1-7.8,1.7-7.8,1.7l-0.3,0.1c-1.3-3-4.2-5.1-7.7-5.1
				H86.4c-4.6,0-8.4,3.8-8.4,8.4v3.7h0c-0.4,0-2.6-0.2-2.6-0.9c0-1.9,0-10.5,0.1-12.3c0-0.9,0.3-1,1.3-1.1c7-0.7,22.9-0.9,30.1-0.9
				C125.8,108.8,136.3,110.2,145.7,110.2z"/>
			<path class="st79" d="M213.5,120.3v13.4c0,4.6-3.7,8.4-8.4,8.4h-43.5c-4.6,0-8.4-3.8-8.4-8.4v-13.4c0-4.6,3.7-8.4,8.4-8.4h43.5
				C209.7,111.9,213.5,115.6,213.5,120.3z"/>
			<path class="st79" d="M138.2,120.3v13.4c0,4.6-3.7,8.4-8.4,8.4H86.4c-4.6,0-8.4-3.8-8.4-8.4v-13.4c0-4.6,3.7-8.4,8.4-8.4h43.5
				C134.5,111.9,138.2,115.6,138.2,120.3z"/>
		</g>
		<g id="XMLID_4_">
			<g>
				<path class="st27" d="M415,230.8c-24.7,0-45.4-18.2-49.3-41.8h25.1v-81h-1L365,133.1V50c0-27.5,22.5-50,50-50h204.8v230.8H415z"
					/>
				<path class="st27" d="M874.5,180.8c0,27.5-22.5,50-50,50H619.8V0h204.8c27.5,0,50,22.5,50,50V180.8z"/>
				<path class="st27" d="M390.8,108v81h-25.1c-0.5-2.7-0.7-5.4-0.7-8.2v-47.7l24.8-25.1H390.8z"/>
				<path class="st27" d="M365.7,189h-55.8l55.1-55.9v47.7C365,183.5,365.3,186.3,365.7,189z"/>
			</g>
			<g>
			</g>
		</g>
		<text transform="matrix(0.999 0 0 1 409.0081 87.9721)"><tspan x="0" y="0" class="st28 st29">Hi, </tspan><tspan x="0" y="80" class="st28 st29">How can we help?</tspan></text>
	</g>
</g>
</svg>
