<?xml version="1.0" encoding="utf-8"?>
<!-- Generator: Adobe Illustrator 21.1.0, SVG Export Plug-In . SVG Version: 6.00 Build 0)  -->
<svg version="1.1" id="Layer_4" xmlns="http://www.w3.org/2000/svg" xmlns:xlink="http://www.w3.org/1999/xlink" x="0px" y="0px"
	 viewBox="0 0 1920 1080" style="enable-background:new 0 0 1920 1080;" xml:space="preserve">
<style type="text/css">
	.st0{fill:#D2D2D2;}
	.st1{fill:#3D82C4;}
	.st2{fill:#EEEEEE;}
	.st3{fill:#57A0D7;}
	.st4{fill:#00579B;}
	.st5{fill:#757576;}
	.st6{fill:#BDBDBD;}
	.st7{fill:#F5F5F5;}
	.st8{fill:#BEDDF4;}
	.st9{fill:#FDD836;}
	.st10{fill:#FDED57;}
	.st11{fill:#212121;}
	.st12{fill:#434343;}
	.st13{fill:#E0E0E0;}
	.st14{fill:#FAFBFB;}
	.st15{fill:#E5F2FB;}
	.st16{fill:#70B2E2;}
	.st17{opacity:0.85;fill:#231F20;}
	.st18{font-family:'Roboto-Regular';}
	.st19{font-size:26.4853px;}
	.st20{font-size:20.4255px;}
	.st21{font-size:7.7249px;}
	.st22{fill:#FFFFFF;}
	.st23{fill:#F2F2F2;}
	.st24{fill:#FCEE1F;}
	.st25{fill:#616262;}
	.st26{fill:#FAAF43;}
	.st27{fill:#29ABE2;}
	.st28{fill:#EB2227;}
	.st29{fill:#8CC540;}
	.st30{fill:#65308F;}
	.st31{fill:#384951;}
</style>
<g id="XMLID_8_">
	<g>
		<path class="st0" d="M641.8,516.9c0-60.3-48.9-109.2-109.2-109.2V304.6c117.3,0,212.3,95.1,212.3,212.3s-95.1,212.3-212.3,212.3
			V626.2C592.9,626.2,641.8,577.3,641.8,516.9z"/>
		<path class="st1" d="M625.1,516.9c0-51.1-41.4-92.5-92.5-92.5v-16.8c60.3,0,109.2,48.9,109.2,109.2s-48.9,109.2-109.2,109.2v-16.8
			C583.7,609.4,625.1,568,625.1,516.9z"/>
		<path class="st0" d="M532.6,424.5c51.1,0,92.5,41.4,92.5,92.5s-41.4,92.5-92.5,92.5V424.5z"/>
		<path class="st2" d="M532.6,424.5v184.9c-51.1,0-92.5-41.4-92.5-92.5S481.6,424.5,532.6,424.5z"/>
		<path class="st3" d="M532.6,424.5c-51.1,0-92.5,41.4-92.5,92.5s41.4,92.5,92.5,92.5v16.8c-60.3,0-109.2-48.9-109.2-109.2
			s48.9-109.2,109.2-109.2V424.5z"/>
		<path class="st2" d="M423.4,516.9c0,60.3,48.9,109.2,109.2,109.2v103.1c-117.3,0-212.3-95.1-212.3-212.3s95.1-212.3,212.3-212.3
			v103.1C472.3,407.7,423.4,456.6,423.4,516.9z"/>
	</g>
	<g>
	</g>
</g>
<g id="XMLID_3_">
	<g>
		<path class="st0" d="M1404.3,304.6c117.3,0,212.3,95.1,212.3,212.3s-95.1,212.3-212.3,212.3V626.2c60.3,0,109.2-48.9,109.2-109.2
			s-48.9-109.2-109.2-109.2V304.6z"/>
		<path class="st1" d="M1513.6,516.9c0,60.3-48.9,109.2-109.2,109.2v-16.8c51.1,0,92.5-41.4,92.5-92.5s-41.4-92.5-92.5-92.5v-16.8
			C1464.7,407.7,1513.6,456.6,1513.6,516.9z"/>
		<path class="st0" d="M1404.3,424.5c51.1,0,92.5,41.4,92.5,92.5s-41.4,92.5-92.5,92.5V424.5z"/>
		<path class="st2" d="M1311.9,516.9c0-51.1,41.4-92.5,92.5-92.5v184.9C1353.3,609.4,1311.9,568,1311.9,516.9z"/>
		<path class="st3" d="M1404.3,424.5c-51.1,0-92.5,41.4-92.5,92.5s41.4,92.5,92.5,92.5v16.8c-60.3,0-109.2-48.9-109.2-109.2
			s48.9-109.2,109.2-109.2V424.5z"/>
		<path class="st2" d="M1295.1,516.9c0,60.3,48.9,109.2,109.2,109.2v103.1c-117.3,0-212.3-95.1-212.3-212.3s95.1-212.3,212.3-212.3
			v103.1C1344,407.7,1295.1,456.6,1295.1,516.9z"/>
	</g>
	<g>
	</g>
</g>
<g>
	<path class="st4" d="M657.6,216.2c-7,0-14-2.7-19.4-8c-10.7-10.7-10.7-28.1,0-38.8c182.9-182.9,480.6-183,663.6,0
		c10.7,10.7,10.7,28.1,0,38.8c-10.7,10.7-28.1,10.7-38.8,0c-161.5-161.5-424.4-161.5-586,0C671.7,213.6,664.6,216.2,657.6,216.2z"/>
	<path class="st4" d="M756,314.6c-7,0-14-2.7-19.4-8c-10.7-10.7-10.7-28.1,0-38.8c128.7-128.7,338.1-128.7,466.9,0
		c10.7,10.7,10.7,28.1,0,38.8c-10.7,10.7-28.1,10.7-38.8,0c-107.3-107.3-281.9-107.3-389.2,0C770,311.9,763,314.6,756,314.6z"/>
	<path class="st4" d="M1085.7,412.9c-7,0-14-2.7-19.4-8c-25.7-25.7-59.9-39.9-96.3-39.9c-36.4,0-70.6,14.2-96.3,39.9
		c-10.7,10.7-28.1,10.7-38.8,0c-10.7-10.7-10.7-28.1,0-38.8c36.1-36.1,84-55.9,135.1-56c51,0,99,19.9,135.1,56
		c10.7,10.7,10.7,28.1,0,38.8C1099.7,410.3,1092.7,412.9,1085.7,412.9z"/>
	<circle class="st4" cx="970" cy="491.7" r="36.6"/>
</g>
<g>
	<g>
		<g>
			<g id="XMLID_37_">
				<g>
					<path class="st5" d="M316,692.8v4.5c0,2-1.6,3.7-3.7,3.7h-2.8c0.1-1.9,0.2-3.9,0.2-5.9c0-2-0.1-4-0.2-5.9h2.8
						C314.3,689.1,316,690.7,316,692.8z"/>
					<path class="st6" d="M309.5,689.1c0.1,1.9,0.2,3.9,0.2,5.9c0,2-0.1,4-0.2,5.9h-2.4c-2,0-3.7-1.7-3.7-3.7v-4.5
						c0-2,1.6-3.7,3.7-3.7H309.5z"/>
					<path class="st6" d="M298.1,681.7c-2.6-13-8.9-24.7-17.8-33.9c1.3-0.3,2.7-0.9,3.8-1.8c1.7-1.2,2.9-2.9,2.9-4.8l-0.1-1.4
						c12.8,12.8,21.1,30,22.6,49.2h-2.4c-2,0-3.7,1.6-3.7,3.7v4.5c0,2,1.6,3.7,3.7,3.7h2.4c-1.4,19.2-9.9,36.5-22.8,49.4l0.1-1.6
						c0-1.9-1.2-3.6-2.9-4.8c-1.1-0.8-2.4-1.4-3.7-1.7c11.9-12.2,19.2-28.8,19.2-47.2C299.4,690.5,299,686,298.1,681.7z"/>
					<path class="st7" d="M298.1,681.7c0.9,4.3,1.3,8.7,1.3,13.3c0,18.4-7.3,35-19.2,47.2c-0.7-0.2-1.4-0.3-2-0.3v-34.4
						c4.9-4.7,7.9-11.3,7.9-18.6c0-2.5-0.4-4.9-1-7.2H298.1z"/>
					<path class="st8" d="M298.1,681.7h-12.9c-1.3-4.4-3.7-8.3-6.9-11.4v-22.2c0.1,0,0.1,0,0.2,0c0.6,0,1.2-0.1,1.9-0.2
						C289.2,657,295.6,668.7,298.1,681.7z"/>
					<path class="st6" d="M287,639.9l0.1,1.4c0,1.9-1.2,3.6-2.9,4.8c-1.1,0.8-2.5,1.4-3.8,1.8c-0.7-0.7-1.4-1.4-2-2v-13.4
						C281.3,634.7,284.2,637.2,287,639.9z"/>
					<path class="st6" d="M286.9,748.7l-0.1,1.6c-2.7,2.6-5.5,5.1-8.5,7.3v-13.4c0.7-0.6,1.4-1.3,2-2c1.3,0.3,2.6,0.9,3.7,1.7
						C285.6,745.1,286.9,746.8,286.9,748.7z"/>
					<path class="st5" d="M286.8,750.3l-1.8,30.8c0,3.7-3,6.8-6.8,6.8v-30.2C281.3,755.4,284.1,752.9,286.8,750.3z"/>
					<path class="st9" d="M285.2,681.7c0.7,2.3,1,4.7,1,7.2c0,7.3-3,13.9-7.9,18.6v-7.1c2.1-3.3,3.4-7.3,3.4-11.5
						c0-2.5-0.4-4.9-1.2-7.2H285.2z"/>
					<path class="st9" d="M285.2,681.7h-4.8c-0.5-1.5-1.3-3-2.1-4.3v-7.1C281.5,673.4,283.9,677.3,285.2,681.7z"/>
					<path class="st10" d="M280.4,681.7c0.8,2.2,1.2,4.6,1.2,7.2c0,4.2-1.2,8.2-3.4,11.5v-18.6H280.4z"/>
					<path class="st9" d="M280.4,681.7h-2.1v-4.3C279.1,678.8,279.8,680.2,280.4,681.7z"/>
					<path class="st8" d="M278.3,645.8c0.7,0.7,1.4,1.3,2,2c-0.6,0.2-1.3,0.2-1.9,0.2c-0.1,0-0.1,0-0.2,0V645.8z"/>
					<path class="st7" d="M280.3,742.2c-0.7,0.7-1.3,1.3-2,2v-2.2C278.9,741.9,279.6,742,280.3,742.2z"/>
					<path class="st5" d="M278.4,602.2c3.7,0,6.8,3,6.8,6.8l1.8,31c-2.7-2.7-5.6-5.2-8.7-7.5v-30.2
						C278.3,602.2,278.4,602.2,278.4,602.2z"/>
					<path class="st5" d="M278.3,757.6v30.2c-1.9,0-3.6-0.8-4.8-2c-0.9-0.9-1.5-2.1-1.8-3.4c-0.1-0.5-0.2-0.9-0.2-1.4v-19
						C273.8,760.7,276.1,759.2,278.3,757.6z"/>
					<path class="st6" d="M278.3,744.2v13.4c-2.2,1.6-4.4,3.1-6.8,4.5v-12.3C273.9,748.1,276.1,746.2,278.3,744.2z"/>
					<path class="st7" d="M278.3,741.9v2.2c-2.1,2-4.4,3.9-6.8,5.6v-1.1C271.5,745,274.5,741.9,278.3,741.9z"/>
					<path class="st7" d="M278.3,707.5v34.4c-3.7,0-6.8,3-6.8,6.8v1.1c-11.2,8.1-24.9,12.9-39.7,12.9v-25.3H242c1.1,0,2-0.9,2-2
						c0-1.1-0.9-2-2-2c0,0-0.1,0-0.1,0c-0.4-1.1-1.5-1.9-2.8-1.9c0,0,0,0,0,0c0.3-0.8,0.4-1.7,0.4-2.6c0-4.3-3.5-7.7-7.7-7.7v-39.4
						h4c-0.7,2.3-1,4.7-1,7.2c0,14.2,11.5,25.7,25.7,25.7C267.4,714.6,273.6,711.9,278.3,707.5z M268.9,728.8c0-4.3-3.5-7.7-7.7-7.7
						c-4.3,0-7.7,3.5-7.7,7.7s3.5,7.7,7.7,7.7C265.5,736.6,268.9,733.1,268.9,728.8z"/>
					<path class="st9" d="M278.3,700.4v7.1c-4.6,4.4-10.9,7.2-17.8,7.2c-14.2,0-25.7-11.5-25.7-25.7c0-2.5,0.4-4.9,1-7.2h4.8
						c-0.8,2.2-1.2,4.6-1.2,7.2c0,11.7,9.5,21.2,21.2,21.2C267.9,710.1,274.5,706.2,278.3,700.4z"/>
					<path class="st10" d="M278.3,681.7v18.6c-3.8,5.8-10.3,9.7-17.8,9.7c-11.7,0-21.2-9.5-21.2-21.2c0-2.5,0.4-4.9,1.2-7.2H278.3z"
						/>
					<path class="st5" d="M271.7,608.9c0-0.2,0-0.4,0-0.6c0.3-0.6,0.4-1.3,0.5-2c0.3-0.8,0.8-1.6,1.5-2.2c1.2-1.2,2.8-1.9,4.6-2
						v30.2c-2.1-1.6-4.3-3-6.6-4.4V608.9z"/>
					<path class="st6" d="M271.7,628c2.3,1.4,4.5,2.8,6.6,4.4v13.4c-2.1-2-4.3-3.8-6.6-5.5V628z"/>
					<path class="st11" d="M271.7,782.5c0.3,1.3,0.9,2.4,1.8,3.4c1.2,1.2,2.9,2,4.8,2v16.8c0,3.6-2.9,6.5-6.5,6.5h-40V792h32.6
						c4.1,0,7.4-3.3,7.4-7.4v-0.1C271.8,783.7,271.7,783.1,271.7,782.5L271.7,782.5z"/>
					<path class="st8" d="M271.7,640.3c2.3,1.7,4.5,3.5,6.6,5.5v2.2c-3.7-0.1-6.6-3.1-6.6-6.8V640.3z"/>
					<path class="st11" d="M271.8,784.4v0.1c0,4.1-3.3,7.4-7.4,7.4h-32.6v-15h32.6c3.5,0,6.4,2.4,7.2,5.6
						C271.7,783.1,271.8,783.7,271.8,784.4z"/>
					<path class="st11" d="M272.2,606.3c-0.1,0.7-0.2,1.4-0.5,2C271.8,607.6,271.9,607,272.2,606.3z"/>
					<path class="st5" d="M271.5,781.1c0,0.5,0.1,1,0.2,1.4l-0.1,0c-0.8-3.2-3.7-5.6-7.2-5.6h-32.6v-4c14.5,0,28.1-4,39.7-10.9
						V781.1z"/>
					<path class="st6" d="M271.5,749.8v12.3c-11.6,6.9-25.2,10.9-39.7,10.9v-10.3C246.6,762.7,260.3,757.9,271.5,749.8z"/>
					<path class="st9" d="M261.2,721.1c4.3,0,7.7,3.5,7.7,7.7s-3.5,7.7-7.7,7.7c-4.3,0-7.7-3.5-7.7-7.7S256.9,721.1,261.2,721.1z
						 M267.5,728.8c0-3.5-2.8-6.4-6.4-6.4c-3.5,0-6.4,2.8-6.4,6.4c0,3.5,2.8,6.4,6.4,6.4C264.7,735.2,267.5,732.3,267.5,728.8z"/>
					<circle class="st10" cx="261.2" cy="728.8" r="6.4"/>
					<path class="st10" d="M240.5,681.7c2.9-8.2,10.8-14,19.9-14c7.5,0,14,3.9,17.8,9.7v4.3H240.5z"/>
					<path class="st5" d="M271.7,628c-11.7-7-25.3-11-39.9-11v-3.9h33c3.2,0,5.8-2,6.9-4.7c0,0.2,0,0.4,0,0.6V628z"/>
					<path class="st11" d="M264.8,598h-33v-19.1h40c3.6,0,6.5,2.9,6.5,6.5v16.8c-1.8,0-3.4,0.8-4.6,2c-0.6,0.6-1.1,1.4-1.5,2.2
						c0-0.2,0-0.5,0-0.7v-0.2C272.2,601.3,268.9,598,264.8,598z"/>
					<path class="st11" d="M231.8,598h33c4.1,0,7.5,3.3,7.5,7.5v0.2c0,0.2,0,0.5,0,0.7c-0.3,0.6-0.4,1.3-0.5,2
						c-1.1,2.8-3.8,4.7-6.9,4.7h-33V598z"/>
					<path class="st9" d="M278.3,677.4c-3.8-5.8-10.3-9.7-17.8-9.7c-9.2,0-17,5.8-19.9,14h-4.8c3.1-10.7,13-18.6,24.7-18.6
						c6.9,0,13.2,2.7,17.8,7.2V677.4z"/>
					<path class="st9" d="M239.5,728.8c0,0.9-0.2,1.8-0.4,2.6c-0.2,0-0.3,0-0.5,0c-0.1-0.4-0.4-0.9-0.6-1.2c0.1-0.4,0.2-0.9,0.2-1.4
						c0-3.5-2.8-6.4-6.4-6.4v-1.4C236,721.1,239.5,724.6,239.5,728.8z"/>
					<path class="st10" d="M238.1,728.8c0,0.5-0.1,1-0.2,1.4c-0.8-1.1-2.2-1.9-3.7-1.9c-0.9,0-1.8,0.3-2.5,0.8v-6.6
						C235.3,722.5,238.1,725.3,238.1,728.8z"/>
					<path class="st6" d="M234.3,728.3c1.5,0,2.9,0.7,3.7,1.9c-0.6,2.6-2.8,4.6-5.5,4.9c0-0.1,0-0.2,0-0.3c0-0.6-0.3-1.1-0.7-1.3
						v-4.4C232.5,728.6,233.4,728.3,234.3,728.3z"/>
					<path class="st6" d="M231.8,617c14.6,0,28.2,4,39.9,11v12.3c-11.2-8.2-25-13-39.9-13V617z"/>
					<path class="st8" d="M231.8,627.3c14.9,0,28.7,4.8,39.9,13v1c0,3.7,2.9,6.7,6.6,6.8v22.2c-4.6-4.4-10.9-7.2-17.8-7.2
						c-11.7,0-21.6,7.8-24.7,18.6h-4V627.3z"/>
					<path class="st6" d="M232.5,734.9c0,0.1,0,0.2,0,0.3c-0.2,0-0.5,0-0.7,0v-1.7C232.2,733.8,232.5,734.3,232.5,734.9z"/>
					<path class="st6" d="M231.8,736.6c3.4,0,6.2-2.1,7.3-5.1c0,0,0,0,0,0c1.3,0,2.4,0.8,2.8,1.9c0,0,0.1,0,0.1,0c1.1,0,2,0.9,2,2
						c0,1.1-0.9,2-2,2h-10.2V736.6z"/>
					<path class="st6" d="M232.5,735.1c-0.1,0.4-0.3,0.8-0.7,1.1v-1C232,735.2,232.2,735.2,232.5,735.1z"/>
					<path class="st6" d="M231.8,736.2c0.4-0.2,0.6-0.6,0.7-1.1c2.7-0.3,4.9-2.3,5.5-4.9c0.3,0.4,0.5,0.8,0.6,1.2c0.1,0,0.3,0,0.5,0
						c-1.1,3-3.9,5.1-7.3,5.1V736.2z"/>
					<path class="st6" d="M231.8,736.6v0.8H231v-0.9C231.3,736.5,231.5,736.6,231.8,736.6z"/>
					<path class="st12" d="M231.8,777v15h-33c-4.1,0-7.4-3.3-7.4-7.4v-0.1c0-0.6,0.1-1.3,0.2-1.9c0.8-3.2,3.7-5.6,7.2-5.6H231.8z"/>
					<path class="st13" d="M231.8,762.7V773c-14.7,0-28.4-4-40.1-11.1v-12.4C202.9,757.8,216.8,762.7,231.8,762.7z"/>
					<path class="st14" d="M201.6,737.4h10.9c1.1,0,2-0.9,2-2c0-1.1-0.9-2-2-2c0,0-0.1,0-0.1,0c-0.4-1.1-1.5-1.9-2.8-1.9
						c0,0,0,0,0,0c0.3-0.8,0.4-1.7,0.4-2.6c0-4.3-3.5-7.7-7.7-7.7c-4.3,0-7.7,3.5-7.7,7.7c0,0.2,0,0.3,0,0.5
						c-1.5,0.3-2.7,1.5-2.9,3.1c-1.1,0-2,0.9-2,2c0,1.1,0.9,2,2,2h6.7c0.5,0.6,1.2,0.9,1.9,0.9H201.6z M231,737.4h0.7v25.3
						c-15,0-28.9-4.9-40.1-13.2v-0.8c0-1.9-0.8-3.6-2-4.8c-1.1-1.1-2.7-1.9-4.4-2v-60.2h46.5v39.4c-4.3,0-7.7,3.5-7.7,7.7
						c0,0.2,0,0.3,0,0.5c-1.5,0.3-2.7,1.5-2.9,3.1c-1.1,0-2,0.9-2,2c0,1.1,0.9,2,2,2h6.7c0.5,0.6,1.2,0.9,1.9,0.9H231z"/>
					<path class="st6" d="M231.8,736.2v0.4c-0.3,0-0.5,0-0.7,0v-0.1C231.3,736.4,231.5,736.3,231.8,736.2z"/>
					<path class="st6" d="M231.8,735.2v1c-0.2,0.1-0.5,0.2-0.7,0.2v-1.3C231.3,735.2,231.5,735.2,231.8,735.2z"/>
					<path class="st6" d="M231.8,733.5v1.7c-0.3,0-0.5,0-0.7,0v-1.9C231.3,733.3,231.5,733.4,231.8,733.5z"/>
					<path class="st10" d="M231.8,722.5v6.6c-1,0.7-1.7,1.7-1.9,3c-0.4-0.2-0.8-0.4-1.3-0.4c-0.1,0-0.3,0-0.4,0
						c-0.4-1.2-1.5-2.2-2.8-2.4c0-0.2,0-0.3,0-0.5C225.4,725.3,228.3,722.5,231.8,722.5z"/>
					<path class="st9" d="M231.8,721.1v1.4c-3.5,0-6.4,2.8-6.4,6.4c0,0.2,0,0.3,0,0.5c-0.2,0-0.4-0.1-0.7-0.1c-0.2,0-0.5,0-0.7,0.1
						c0-0.2,0-0.3,0-0.5C224,724.6,227.5,721.1,231.8,721.1z"/>
					<path class="st6" d="M231,736.5L231,736.5c-0.2,0.1-0.3,0-0.5,0h0.4C230.9,736.5,231,736.5,231,736.5z"/>
					<path class="st6" d="M231,735.1v1.3c0,0-0.1,0-0.1,0h-0.4c-1.2-0.2-2.3-0.6-3.2-1.3c0-0.1,0-0.2,0-0.3c0-0.4,0.1-0.9,0.3-1.2
						C228.5,734.5,229.7,735,231,735.1z"/>
					<path class="st6" d="M231.8,729.1v4.4c-0.2-0.1-0.5-0.2-0.7-0.2c0,0-0.1,0-0.1,0c0,0-0.1,0-0.1,0c-0.2-0.5-0.5-0.9-1-1.2
						C230.1,730.9,230.8,729.8,231.8,729.1z"/>
					<path class="st6" d="M230.5,736.5h-2.6c-0.3-0.4-0.5-0.8-0.6-1.3C228.2,735.8,229.3,736.3,230.5,736.5z"/>
					<path class="st6" d="M230.9,733.3c0,0,0.1,0,0.1,0v1.9c-1.3-0.1-2.5-0.7-3.4-1.5c0.4-0.8,1.3-1.3,2.2-1.3c0-0.1,0-0.2,0-0.2
						C230.3,732.4,230.6,732.8,230.9,733.3C230.8,733.3,230.9,733.3,230.9,733.3z"/>
					<path class="st6" d="M227.9,736.5h2.6c0.2,0,0.3,0.1,0.5,0.1v0.9h-1.2C229,737.4,228.3,737,227.9,736.5z"/>
					<path class="st13" d="M229.8,732.3c-1,0-1.8,0.5-2.2,1.3c-1.2-1.1-2-2.6-2.2-4.3c1.3,0.2,2.4,1.2,2.8,2.4c0.1,0,0.3,0,0.4,0
						c0.5,0,0.9,0.1,1.3,0.4C229.8,732.2,229.8,732.2,229.8,732.3z"/>
					<path class="st13" d="M227.9,736.5h-6.7c-1.1,0-2-0.9-2-2c0-1.1,0.9-2,2-2c0.2-1.5,1.4-2.8,2.9-3.1c0.2,2.4,1.4,4.5,3.3,5.8
						C227.4,735.6,227.6,736.1,227.9,736.5z"/>
					<path class="st13" d="M225.4,729.3c0.1,1.7,0.9,3.3,2.2,4.3c-0.2,0.4-0.3,0.8-0.3,1.2c0,0.1,0,0.2,0,0.3
						c-1.9-1.3-3.1-3.4-3.3-5.8c0.2,0,0.5-0.1,0.7-0.1C225,729.3,225.2,729.3,225.4,729.3z"/>
					<path class="st15" d="M191.8,641.3v-1c11.2-8.2,25-13,39.9-13v54.4h-46.5v-33.7c1.8,0,3.4-0.8,4.6-2
						C191.1,644.9,191.8,643.2,191.8,641.3z"/>
					<path class="st12" d="M191.3,605.5c0-4.1,3.3-7.5,7.5-7.5h33v15.1h-33c-3.1,0-5.8-2-6.9-4.7c-0.1-0.7-0.2-1.4-0.5-2
						c0-0.2,0-0.5,0-0.7V605.5z"/>
					<path class="st9" d="M210.1,728.8c0,0.9-0.2,1.8-0.4,2.6c-0.2,0-0.3,0-0.5,0c-0.1-0.4-0.4-0.9-0.6-1.2c0.1-0.4,0.2-0.9,0.2-1.4
						c0-3.5-2.8-6.4-6.4-6.4s-6.4,2.8-6.4,6.4c0,0.2,0,0.3,0,0.5c-0.2,0-0.4-0.1-0.7-0.1c-0.2,0-0.5,0-0.7,0.1c0-0.2,0-0.3,0-0.5
						c0-4.3,3.5-7.7,7.7-7.7C206.6,721.1,210.1,724.6,210.1,728.8z"/>
					<path class="st10" d="M208.7,728.8c0,0.5-0.1,1-0.2,1.4c-0.8-1.1-2.2-1.9-3.7-1.9c-2.2,0-4.1,1.6-4.4,3.7
						c-0.4-0.2-0.8-0.4-1.3-0.4c-0.1,0-0.3,0-0.4,0c-0.4-1.2-1.5-2.2-2.8-2.4c0-0.2,0-0.3,0-0.5c0-3.5,2.8-6.4,6.4-6.4
						S208.7,725.3,208.7,728.8z"/>
					<path class="st6" d="M203.1,734.9c0,0.1,0,0.2,0,0.3c-0.2,0-0.5,0-0.7,0c-0.3,0-0.5,0-0.7,0v-1.9
						C202.4,733.3,203.1,734,203.1,734.9z"/>
					<path class="st6" d="M203,735.1c-0.1,0.7-0.7,1.2-1.4,1.3v-1.3c0.2,0,0.5,0,0.7,0C202.6,735.2,202.8,735.2,203,735.1z"/>
					<path class="st6" d="M209.6,731.4c-1.1,3-3.9,5.1-7.3,5.1c-0.3,0-0.5,0-0.7,0v-0.1c0.7-0.1,1.3-0.6,1.4-1.3
						c2.7-0.3,4.9-2.3,5.5-4.9c0.3,0.4,0.5,0.8,0.6,1.2C209.3,731.4,209.5,731.4,209.6,731.4z"/>
					<path class="st6" d="M202.3,736.6c3.4,0,6.2-2.1,7.3-5.1c0,0,0,0,0,0c1.3,0,2.4,0.8,2.8,1.9c0,0,0.1,0,0.1,0c1.1,0,2,0.9,2,2
						c0,1.1-0.9,2-2,2h-10.9v-0.9C201.8,736.5,202.1,736.6,202.3,736.6z"/>
					<path class="st16" d="M201.6,736.5L201.6,736.5c-0.2,0.1-0.3,0-0.5,0h0.4C201.5,736.5,201.6,736.5,201.6,736.5z"/>
					<path class="st6" d="M201.6,735.1v1.3c0,0-0.1,0-0.1,0h-0.4c-1.2-0.2-2.3-0.6-3.2-1.3c0-0.1,0-0.2,0-0.3c0-0.4,0.1-0.9,0.3-1.2
						C199.1,734.5,200.3,735,201.6,735.1z"/>
					<path class="st6" d="M201.6,733.3c0,0-0.1,0-0.1,0c0,0-0.1,0-0.1,0c-0.2-0.5-0.5-0.9-1-1.2c0.4-2.1,2.2-3.7,4.4-3.7
						c1.5,0,2.9,0.7,3.7,1.9c-0.6,2.6-2.8,4.6-5.5,4.9c0-0.1,0-0.2,0-0.3C203.1,734,202.4,733.3,201.6,733.3z"/>
					<path class="st6" d="M201.1,736.5h-2.6c-0.3-0.4-0.5-0.8-0.6-1.3C198.8,735.8,199.9,736.3,201.1,736.5z"/>
					<path class="st6" d="M201.5,733.3c0,0,0.1,0,0.1,0v1.9c-1.3-0.1-2.5-0.7-3.4-1.5c0.4-0.8,1.3-1.3,2.2-1.3c0-0.1,0-0.2,0-0.2
						C200.9,732.4,201.2,732.8,201.5,733.3C201.4,733.3,201.4,733.3,201.5,733.3z"/>
					<path class="st6" d="M200.4,737.4c-0.8,0-1.5-0.4-1.9-0.9h2.6c0.2,0,0.3,0.1,0.5,0.1v0.9H200.4z"/>
					<path class="st13" d="M198.8,731.8c0.1,0,0.3,0,0.4,0c0.5,0,0.9,0.1,1.3,0.4c0,0.1,0,0.2,0,0.2c-0.9,0-1.8,0.5-2.2,1.3
						c-1.2-1.1-2-2.6-2.2-4.3C197.3,729.6,198.4,730.5,198.8,731.8z"/>
					<path class="st13" d="M198.4,736.5h-6.7c-1.1,0-2-0.9-2-2c0-1.1,0.9-2,2-2c0.2-1.5,1.4-2.8,2.9-3.1c0.2,2.4,1.4,4.5,3.3,5.8
						C197.9,735.6,198.1,736.1,198.4,736.5z"/>
					<path class="st13" d="M196,729.3c0.1,1.7,0.9,3.2,2.2,4.3c-0.2,0.4-0.3,0.8-0.3,1.2c0,0.1,0,0.2,0,0.3
						c-1.9-1.3-3.1-3.4-3.3-5.8c0.2,0,0.5-0.1,0.7-0.1C195.6,729.3,195.8,729.3,196,729.3z"/>
					<path class="st6" d="M231.8,617c-14.6,0-28.2,4-39.9,11v-19.1c0-0.2,0-0.4,0-0.6c1.1,2.8,3.8,4.7,6.9,4.7h33V617z"/>
					<path class="st6" d="M191.7,781.1v-19.2c11.7,7,25.4,11.1,40.1,11.1v4h-33c-3.5,0-6.4,2.4-7.2,5.6l-0.1,0
						C191.6,782.1,191.7,781.6,191.7,781.1z"/>
					<path class="st13" d="M231.8,627.3c-14.9,0-28.7,4.8-39.9,13V628c11.7-7,25.3-11,39.9-11V627.3z"/>
					<path class="st15" d="M191.8,640.3v1c0,1.9-0.8,3.6-2,4.8c-1.2,1.2-2.8,1.9-4.6,2v-2.2C187.3,643.9,189.5,642,191.8,640.3z"/>
					<path class="st13" d="M191.8,628v12.3c-2.3,1.7-4.5,3.5-6.6,5.5v-13.4C187.4,630.8,189.6,629.3,191.8,628z"/>
					<path class="st6" d="M185.3,602.2c2.7,0.1,5.1,1.8,6.1,4.2c0.1,0.7,0.2,1.4,0.5,2c0,0.2,0,0.4,0,0.6V628
						c-2.3,1.4-4.5,2.8-6.6,4.4V602.2z"/>
					<path class="st6" d="M191.7,761.9v19.2c0,0.5-0.1,1-0.2,1.4c-0.6,2.9-3.2,5.2-6.2,5.3v-30.2
						C187.3,759.1,189.5,760.6,191.7,761.9z"/>
					<path class="st13" d="M191.7,749.5v12.4c-2.2-1.3-4.3-2.8-6.4-4.3v-13.4C187.3,746.1,189.4,747.9,191.7,749.5z"/>
					<path class="st14" d="M191.7,748.7v0.8c-2.2-1.7-4.4-3.4-6.4-5.4v-2.2c1.7,0.1,3.3,0.8,4.4,2
						C190.9,745.1,191.7,746.8,191.7,748.7z"/>
					<path class="st12" d="M191.3,606.3c0.3,0.6,0.4,1.3,0.5,2C191.6,607.7,191.4,607,191.3,606.3z"/>
					<path class="st12" d="M191.3,784.4v0.1c0,4.1,3.3,7.4,7.4,7.4h33v19.1h-40c-3.6,0-6.5-2.9-6.5-6.5v-16.8
						c3.1-0.2,5.6-2.4,6.2-5.3l0.1,0C191.4,783.1,191.3,783.7,191.3,784.4z"/>
					<path class="st12" d="M198.8,598c-4.1,0-7.5,3.3-7.5,7.5v0.2c0,0.2,0,0.5,0,0.7c-1-2.4-3.3-4.1-6.1-4.2v-16.8
						c0-3.6,2.9-6.5,6.5-6.5h40V598H198.8z"/>
					<path class="st6" d="M185.3,757.6v30.2c-0.1,0-0.2,0-0.4,0c-1.9,0-3.6-0.8-4.8-2c-1.2-1.2-2-2.9-2-4.8l-1.8-31.2
						C179.1,752.7,182.1,755.3,185.3,757.6z"/>
					<path class="st13" d="M185.3,744.2v13.4c-3.2-2.3-6.1-4.9-8.9-7.7l-0.1-1.2c0-3.2,3.5-5.8,6.9-6.6
						C183.9,742.8,184.5,743.5,185.3,744.2z"/>
					<path class="st14" d="M185.3,741.9v2.2c-0.7-0.7-1.4-1.4-2.1-2.1c0.6-0.1,1.2-0.2,1.7-0.2C185,741.9,185.1,741.9,185.3,741.9z"
						/>
					<path class="st14" d="M185.3,681.7v60.2c-0.1,0-0.2,0-0.4,0c-0.6,0-1.1,0.1-1.7,0.2c-11.8-12.2-19.1-28.8-19.1-47.1
						c0-4.5,0.4-9,1.3-13.3H185.3z"/>
					<path class="st15" d="M185.3,648.1v33.7h-19.9c2.6-13,8.9-24.7,17.8-33.9c0.6,0.2,1.3,0.2,1.9,0.2
						C185.1,648.1,185.2,648.1,185.3,648.1z"/>
					<path class="st15" d="M185.3,645.8v2.2c-0.1,0-0.1,0-0.2,0c-0.6,0-1.2-0.1-1.9-0.2C183.9,647.1,184.6,646.5,185.3,645.8z"/>
					<path class="st13" d="M185.3,632.4v13.4c-0.7,0.7-1.4,1.3-2,2c-3.3-0.8-6.7-3.4-6.7-6.5l0.1-1.4
						C179.3,637.2,182.2,634.7,185.3,632.4z"/>
					<path class="st6" d="M185.3,632.4c-3.1,2.3-6,4.8-8.7,7.5l1.8-31c0-1.9,0.8-3.6,2-4.8c1.2-1.2,2.9-2,4.8-2c0.1,0,0.1,0,0.2,0
						V632.4z"/>
					<path class="st13" d="M176.5,641.3c0,3.1,3.4,5.8,6.7,6.5c-8.9,9.2-15.2,20.9-17.8,33.9c-0.9,4.3-1.3,8.7-1.3,13.3
						c0,18.3,7.3,34.9,19.1,47.1c-3.3,0.7-6.9,3.4-6.9,6.6l0.1,1.2c-14-14.1-22.6-33.5-22.6-54.9c0-21.5,8.7-41,22.8-55.1
						L176.5,641.3z"/>
				</g>
				<g>
				</g>
			</g>
		</g>
		<text transform="matrix(1 0 0 1 185.2593 708.2632)" class="st17 st18 st19">18°</text>
		<text transform="matrix(1 0 0 1 210.0205 654.6255)" class="st17 st18 st20">WED</text>
		<text transform="matrix(1 0 0 1 194.7691 746.2856)" class="st17 st18 st21">THU</text>
		<text transform="matrix(1 0 0 1 226.0186 746.2856)" class="st17 st18 st21">FRI</text>
		<text transform="matrix(1 0 0 1 254.0718 746.2856)" class="st17 st18 st21">SAT</text>
	</g>
	<g>
		<g id="XMLID_19_">
			<g>
				<path class="st22" d="M359.8,803.6v-97.9h77.4c1.3,0,2.3,1,2.3,2.3v93.2c0,1.3-1,2.3-2.3,2.3H359.8z"/>
				<path class="st22" d="M390.4,608.4c-7.8-7.8-18.7-12.7-30.6-12.7c0,0,0,0,0,0v-13.6h77.4c1.3,0,2.3,1,2.3,2.3v109.1
					c0,1.3-1,2.3-2.3,2.3h-77.4v-13.6c0,0,0,0,0,0c23.9,0,43.3-19.4,43.3-43.3C403.1,627.1,398.3,616.2,390.4,608.4z"/>
				<path class="st23" d="M437.2,582.1h-77.4v-11.7H447v240.7c0,1.3-1,2.3-2.3,2.3h-84.9v-9.9h77.4c1.3,0,2.3-1,2.3-2.3V708
					c0-1.3-1-2.3-2.3-2.3h-77.4v-9.8h77.4c1.3,0,2.3-1,2.3-2.3V584.4C439.5,583.2,438.4,582.1,437.2,582.1z"/>
				<circle class="st12" cx="408.5" cy="530.4" r="4.2"/>
				<path class="st24" d="M390.4,608.4l-30.7,30.7v-43.4c0,0,0,0,0,0C371.8,595.7,382.6,600.5,390.4,608.4z"/>
				<path class="st25" d="M444.7,543.5h-84.9v-10.1h34.8c1.3,0,2.3-1,2.3-2.3v-1.3c0-1.3-1-2.3-2.3-2.3h-34.8v-8.3H432
					c12.9,0,23.3,10.4,23.3,23.3v283.3c0,12.9-10.4,23.3-23.3,23.3h-72.2v-11.6h17.7c4,0,7.2-3.2,7.2-7.2s-3.2-7.2-7.2-7.2h-17.7
					v-9.7h84.9c1.3,0,2.3-1,2.3-2.3V570.4v-24.5C447,544.6,446,543.5,444.7,543.5z M412.7,530.4c0-2.3-1.9-4.2-4.2-4.2
					c-2.3,0-4.2,1.9-4.2,4.2c0,2.3,1.9,4.2,4.2,4.2C410.8,534.6,412.7,532.7,412.7,530.4z"/>
				<path class="st6" d="M377.5,823.2c4,0,7.2,3.2,7.2,7.2s-3.2,7.2-7.2,7.2h-17.7v-14.3H377.5z"/>
				<path class="st12" d="M359.8,527.4h34.8c1.3,0,2.3,1,2.3,2.3v1.3c0,1.3-1,2.3-2.3,2.3h-34.8V527.4z"/>
				<path class="st26" d="M403.1,639c0,23.9-19.4,43.3-43.3,43.3c0,0,0,0,0,0v-43.3l30.7-30.7C398.3,616.2,403.1,627.1,403.1,639z"
					/>
				<path class="st27" d="M359.8,543.5h84.9c1.3,0,2.3,1,2.3,2.3v24.5h-87.3V543.5z"/>
				<path class="st13" d="M359.8,823.2v14.3H342c-4,0-7.2-3.2-7.2-7.2c0-2,0.8-3.8,2.1-5.1c1.3-1.3,3.1-2.1,5.1-2.1H359.8z"/>
				<path class="st22" d="M280.1,801.3V708c0-1.3,1-2.3,2.3-2.3h77.3v97.9h-77.3C281.1,803.6,280.1,802.5,280.1,801.3z"/>
				<path class="st26" d="M359.8,682.4c-12,0-22.8-4.9-30.6-12.7l30.6-30.6V682.4z"/>
				<path class="st27" d="M359.8,570.4h-87.3v-24.5c0-1.3,1-2.3,2.3-2.3h84.9V570.4z"/>
				<path class="st25" d="M359.8,533.4H325c-1.3,0-2.3-1-2.3-2.3v-1.3c0-1.3,1-2.3,2.3-2.3h34.8V533.4z"/>
				<path class="st22" d="M280.1,693.6V584.4c0-1.3,1-2.3,2.3-2.3h77.3v13.6c-23.9,0-43.3,19.4-43.3,43.3c0,12,4.9,22.8,12.7,30.6
					c7.8,7.8,18.7,12.7,30.6,12.7v13.6h-77.3C281.1,695.9,280.1,694.9,280.1,693.6z"/>
				<path class="st28" d="M329.2,669.7c-7.8-7.8-12.7-18.7-12.7-30.6c0-23.9,19.4-43.3,43.3-43.3v43.4L329.2,669.7z"/>
				<path class="st23" d="M280.1,584.4v109.1c0,1.3,1,2.3,2.3,2.3h77.3v9.8h-77.3c-1.3,0-2.3,1-2.3,2.3v93.2c0,1.3,1,2.3,2.3,2.3
					h77.3v9.9h-84.9c-1.3,0-2.3-1-2.3-2.3V570.4h87.3v11.7h-77.3C281.1,582.1,280.1,583.2,280.1,584.4z"/>
				<path class="st5" d="M359.8,543.5h-84.9c-1.3,0-2.3,1-2.3,2.3v24.5v240.7c0,1.3,1,2.3,2.3,2.3h84.9v9.7H342
					c-2,0-3.8,0.8-5.1,2.1c-1.3,1.3-2.1,3.1-2.1,5.1c0,4,3.2,7.2,7.2,7.2h17.7v11.6h-72.2c-12.9,0-23.3-10.4-23.3-23.3V542.4
					c0-12.9,10.4-23.3,23.3-23.3h72.2v8.3H325c-1.3,0-2.3,1-2.3,2.3v1.3c0,1.3,1,2.3,2.3,2.3h34.8V543.5z"/>
			</g>
			<g>
			</g>
		</g>
	</g>
	<g>
		<path class="st5" d="M866.9,944.1c0,8.4-6.8,15.3-15.3,15.3H354.6c-8.4,0-15.3-6.8-15.3-15.3V628.3c0-8.4,6.8-15.3,15.3-15.3
			h497.1c8.4,0,15.3,6.8,15.3,15.3V944.1z"/>
		<path class="st25" d="M603.2,613.1h248.5c4.2,0,8,1.7,10.8,4.5c2.8,2.8,4.5,6.6,4.5,10.8v157.9v157.9c0,4.2-1.7,8-4.5,10.8
			c-2.8,2.8-6.6,4.5-10.8,4.5H603.2"/>
		<path class="st23" d="M842.3,929.4c0,7.6-6.2,13.8-13.8,13.8H377.8c-7.6,0-13.8-6.2-13.8-13.8V643.1c0-7.6,6.2-13.8,13.8-13.8
			h450.7c7.6,0,13.8,6.2,13.8,13.8V929.4z"/>
		<g>
			<path class="st27" d="M842.3,631.7c0-3.1-2.6-5.7-5.7-5.7h-467c-3.1,0-5.7,2.6-5.7,5.7v15.9c0,3.1,2.6,5.7,5.7,5.7h467
				c3.1,0,5.7-2.6,5.7-5.7V631.7z"/>
		</g>
		<rect x="363.9" y="639.8" class="st27" width="478.4" height="24.7"/>
		<path class="st22" d="M827.4,780.1c0,10.1-9.6,18.3-21.5,18.3H400.5c-11.9,0-21.5-8.2-21.5-18.3v-85.9c0-10.1,9.6-18.3,21.5-18.3
			h405.4c11.9,0,21.5,8.2,21.5,18.3V780.1z"/>
		<path class="st22" d="M823.4,910.5c0,10.1-9.4,18.3-21,18.3H636.6c-11.6,0-21-8.2-21-18.3v-74.7c0-10.1,9.4-18.3,21-18.3h165.8
			c11.6,0,21,8.2,21,18.3V910.5z"/>
		<path class="st22" d="M596.9,910.5c0,10.1-9.8,18.3-22,18.3H401c-12.2,0-22-8.2-22-18.3v-74.7c0-10.1,9.9-18.3,22-18.3h173.9
			c12.2,0,22,8.2,22,18.3V910.5z"/>
		<circle class="st28" cx="485.8" cy="876.7" r="41.8"/>
		<path class="st24" d="M485.8,834.9c23.1,0,41.8,18.7,41.8,41.8c0,23.1-18.7,41.8-41.8,41.8"/>
		<path class="st26" d="M515.4,847.2c16.3,16.3,16.3,42.8,0,59.1c-16.3,16.3-42.8,16.3-59.1,0"/>
		<circle class="st29" cx="718.8" cy="876.7" r="41.8"/>
		<path class="st30" d="M718.8,918.6c-23.1,0-41.8-18.7-41.8-41.8c0-23.1,18.7-41.8,41.8-41.8"/>
		<path class="st27" d="M689.2,906.3c-16.3-16.3-16.3-42.8,0-59.1c16.3-16.3,42.8-16.3,59.1,0"/>
	</g>
	<g>
		<g>
			<g id="XMLID_2_">
				<g>
					<path class="st5" d="M1792.2,692.8v4.5c0,2-1.6,3.7-3.7,3.7h-2.8c0.1-1.9,0.2-3.9,0.2-5.9c0-2-0.1-4-0.2-5.9h2.8
						C1790.6,689.1,1792.2,690.7,1792.2,692.8z"/>
					<path class="st6" d="M1785.8,689.1c0.1,1.9,0.2,3.9,0.2,5.9c0,2-0.1,4-0.2,5.9h-2.4c-2,0-3.7-1.7-3.7-3.7v-4.5
						c0-2,1.6-3.7,3.7-3.7H1785.8z"/>
					<path class="st6" d="M1774.4,681.7c-2.6-13-8.9-24.7-17.8-33.9c1.3-0.3,2.7-0.9,3.8-1.8c1.7-1.2,2.9-2.9,2.9-4.8l-0.1-1.4
						c12.8,12.8,21.1,30,22.6,49.2h-2.4c-2,0-3.7,1.6-3.7,3.7v4.5c0,2,1.6,3.7,3.7,3.7h2.4c-1.4,19.2-9.9,36.5-22.8,49.4l0.1-1.6
						c0-1.9-1.2-3.6-2.9-4.8c-1.1-0.8-2.4-1.4-3.7-1.7c11.9-12.2,19.2-28.8,19.2-47.2C1775.7,690.5,1775.2,686,1774.4,681.7z"/>
					<path class="st7" d="M1774.4,681.7c0.9,4.3,1.3,8.7,1.3,13.3c0,18.4-7.3,35-19.2,47.2c-0.7-0.2-1.4-0.3-2-0.3v-34.4
						c4.9-4.7,7.9-11.3,7.9-18.6c0-2.5-0.4-4.9-1-7.2H1774.4z"/>
					<path class="st8" d="M1774.4,681.7h-12.9c-1.3-4.4-3.7-8.3-6.9-11.4v-22.2c0.1,0,0.1,0,0.2,0c0.6,0,1.2-0.1,1.9-0.2
						C1765.4,657,1771.8,668.7,1774.4,681.7z"/>
					<path class="st6" d="M1763.2,639.9l0.1,1.4c0,1.9-1.2,3.6-2.9,4.8c-1.1,0.8-2.5,1.4-3.8,1.8c-0.7-0.7-1.4-1.4-2-2v-13.4
						C1757.6,634.7,1760.5,637.2,1763.2,639.9z"/>
					<path class="st6" d="M1763.1,748.7l-0.1,1.6c-2.7,2.6-5.5,5.1-8.5,7.3v-13.4c0.7-0.6,1.4-1.3,2-2c1.3,0.3,2.6,0.9,3.7,1.7
						C1761.9,745.1,1763.1,746.8,1763.1,748.7z"/>
					<path class="st5" d="M1763,750.3l-1.8,30.8c0,3.7-3,6.8-6.8,6.8v-30.2C1757.5,755.4,1760.3,752.9,1763,750.3z"/>
					<path class="st9" d="M1761.4,681.7c0.7,2.3,1,4.7,1,7.2c0,7.3-3,13.9-7.9,18.6v-7.1c2.1-3.3,3.4-7.3,3.4-11.5
						c0-2.5-0.4-4.9-1.2-7.2H1761.4z"/>
					<path class="st9" d="M1761.4,681.7h-4.8c-0.5-1.5-1.3-3-2.1-4.3v-7.1C1757.7,673.4,1760.1,677.3,1761.4,681.7z"/>
					<path class="st10" d="M1756.6,681.7c0.8,2.2,1.2,4.6,1.2,7.2c0,4.2-1.2,8.2-3.4,11.5v-18.6H1756.6z"/>
					<path class="st9" d="M1756.6,681.7h-2.1v-4.3C1755.4,678.8,1756.1,680.2,1756.6,681.7z"/>
					<path class="st8" d="M1754.5,645.8c0.7,0.7,1.4,1.3,2,2c-0.6,0.2-1.3,0.2-1.9,0.2c-0.1,0-0.1,0-0.2,0V645.8z"/>
					<path class="st7" d="M1756.5,742.2c-0.7,0.7-1.3,1.3-2,2v-2.2C1755.1,741.9,1755.8,742,1756.5,742.2z"/>
					<path class="st5" d="M1754.7,602.2c3.7,0,6.8,3,6.8,6.8l1.8,31c-2.7-2.7-5.6-5.2-8.7-7.5v-30.2
						C1754.5,602.2,1754.6,602.2,1754.7,602.2z"/>
					<path class="st5" d="M1754.5,757.6v30.2c-1.9,0-3.6-0.8-4.8-2c-0.9-0.9-1.5-2.1-1.8-3.4c-0.1-0.5-0.2-0.9-0.2-1.4v-19
						C1750.1,760.7,1752.3,759.2,1754.5,757.6z"/>
					<path class="st6" d="M1754.5,744.2v13.4c-2.2,1.6-4.4,3.1-6.8,4.5v-12.3C1750.1,748.1,1752.4,746.2,1754.5,744.2z"/>
					<path class="st7" d="M1754.5,741.9v2.2c-2.1,2-4.4,3.9-6.8,5.6v-1.1C1747.7,745,1750.8,741.9,1754.5,741.9z"/>
					<path class="st7" d="M1754.5,707.5v34.4c-3.7,0-6.8,3-6.8,6.8v1.1c-11.2,8.1-24.9,12.9-39.7,12.9v-25.3h10.2c1.1,0,2-0.9,2-2
						c0-1.1-0.9-2-2-2c0,0-0.1,0-0.1,0c-0.4-1.1-1.5-1.9-2.8-1.9c0,0,0,0,0,0c0.3-0.8,0.4-1.7,0.4-2.6c0-4.3-3.5-7.7-7.7-7.7v-39.4
						h4c-0.7,2.3-1,4.7-1,7.2c0,14.2,11.5,25.7,25.7,25.7C1743.6,714.6,1749.9,711.9,1754.5,707.5z M1745.1,728.8
						c0-4.3-3.5-7.7-7.7-7.7s-7.7,3.5-7.7,7.7s3.5,7.7,7.7,7.7S1745.1,733.1,1745.1,728.8z"/>
					<path class="st9" d="M1754.5,700.4v7.1c-4.6,4.4-10.9,7.2-17.8,7.2c-14.2,0-25.7-11.5-25.7-25.7c0-2.5,0.4-4.9,1-7.2h4.8
						c-0.8,2.2-1.2,4.6-1.2,7.2c0,11.7,9.5,21.2,21.2,21.2C1744.2,710.1,1750.7,706.2,1754.5,700.4z"/>
					<path class="st10" d="M1754.5,681.7v18.6c-3.8,5.8-10.3,9.7-17.8,9.7c-11.7,0-21.2-9.5-21.2-21.2c0-2.5,0.4-4.9,1.2-7.2H1754.5
						z"/>
					<path class="st5" d="M1747.9,628v-19.1c0-0.2,0-0.4,0-0.6c0.3-0.6,0.4-1.3,0.5-2c0.3-0.8,0.8-1.6,1.5-2.2
						c1.2-1.2,2.8-1.9,4.6-2v30.2C1752.4,630.8,1750.2,629.3,1747.9,628z"/>
					<path class="st6" d="M1747.9,628c2.3,1.4,4.5,2.8,6.6,4.4v13.4c-2.1-2-4.3-3.8-6.6-5.5V628z"/>
					<path class="st11" d="M1748,784.4c0-0.6-0.1-1.3-0.2-1.9l0.1,0c0.3,1.3,0.9,2.4,1.8,3.4c1.2,1.2,2.9,2,4.8,2v16.8
						c0,3.6-2.9,6.5-6.5,6.5h-40V792h32.6c4.1,0,7.4-3.3,7.4-7.4V784.4z"/>
					<path class="st8" d="M1747.9,640.3c2.3,1.7,4.5,3.5,6.6,5.5v2.2c-3.7-0.1-6.6-3.1-6.6-6.8V640.3z"/>
					<path class="st11" d="M1748,784.4v0.1c0,4.1-3.3,7.4-7.4,7.4H1708v-15h32.6c3.5,0,6.4,2.4,7.2,5.6
						C1748,783.1,1748,783.7,1748,784.4z"/>
					<path class="st11" d="M1748.4,606.3c-0.1,0.7-0.2,1.4-0.5,2C1748,607.6,1748.2,607,1748.4,606.3z"/>
					<path class="st5" d="M1747.8,782.5c-0.8-3.2-3.7-5.6-7.2-5.6H1708v-4c14.5,0,28.1-4,39.7-10.9v19
						C1747.7,781.6,1747.8,782.1,1747.8,782.5L1747.8,782.5z"/>
					<path class="st6" d="M1747.7,749.8v12.3c-11.6,6.9-25.2,10.9-39.7,10.9v-10.3C1722.8,762.7,1736.6,757.9,1747.7,749.8z"/>
					<path class="st9" d="M1737.4,721.1c4.3,0,7.7,3.5,7.7,7.7s-3.5,7.7-7.7,7.7s-7.7-3.5-7.7-7.7S1733.1,721.1,1737.4,721.1z
						 M1743.8,728.8c0-3.5-2.8-6.4-6.4-6.4s-6.4,2.8-6.4,6.4c0,3.5,2.8,6.4,6.4,6.4S1743.8,732.3,1743.8,728.8z"/>
					<circle class="st10" cx="1737.4" cy="728.8" r="6.4"/>
					<path class="st10" d="M1716.7,681.7c2.9-8.2,10.8-14,19.9-14c7.5,0,14,3.9,17.8,9.7v4.3H1716.7z"/>
					<path class="st5" d="M1747.9,628c-11.7-7-25.3-11-39.9-11v-3.9h33c3.2,0,5.8-2,6.9-4.7c0,0.2,0,0.4,0,0.6V628z"/>
					<path class="st11" d="M1741,598h-33v-19.1h40c3.6,0,6.5,2.9,6.5,6.5v16.8c-1.8,0-3.4,0.8-4.6,2c-0.6,0.6-1.1,1.4-1.5,2.2
						c0-0.2,0-0.5,0-0.7v-0.2C1748.5,601.3,1745.1,598,1741,598z"/>
					<path class="st11" d="M1741,613.1h-33V598h33c4.1,0,7.5,3.3,7.5,7.5v0.2c0,0.2,0,0.5,0,0.7c-0.3,0.6-0.4,1.3-0.5,2
						C1746.8,611.1,1744.1,613.1,1741,613.1z"/>
					<path class="st9" d="M1711.9,681.7c3.1-10.7,13-18.6,24.7-18.6c6.9,0,13.2,2.7,17.8,7.2v7.1c-3.8-5.8-10.3-9.7-17.8-9.7
						c-9.2,0-17,5.8-19.9,14H1711.9z"/>
					<path class="st9" d="M1715.7,728.8c0,0.9-0.2,1.8-0.4,2.6c-0.2,0-0.3,0-0.5,0c-0.1-0.4-0.4-0.9-0.6-1.2
						c0.1-0.4,0.2-0.9,0.2-1.4c0-3.5-2.8-6.4-6.4-6.4v-1.4C1712.3,721.1,1715.7,724.6,1715.7,728.8z"/>
					<path class="st10" d="M1714.3,728.8c0,0.5-0.1,1-0.2,1.4c-0.8-1.1-2.2-1.9-3.7-1.9c-0.9,0-1.8,0.3-2.5,0.8v-6.6
						C1711.5,722.5,1714.3,725.3,1714.3,728.8z"/>
					<path class="st6" d="M1710.5,728.3c1.5,0,2.9,0.7,3.7,1.9c-0.6,2.6-2.8,4.6-5.5,4.9c0-0.1,0-0.2,0-0.3c0-0.6-0.3-1.1-0.7-1.3
						v-4.4C1708.7,728.6,1709.6,728.3,1710.5,728.3z"/>
					<path class="st6" d="M1747.9,640.3c-11.2-8.2-25-13-39.9-13V617c14.6,0,28.2,4,39.9,11V640.3z"/>
					<path class="st8" d="M1708,681.7v-54.4c14.9,0,28.7,4.8,39.9,13v1c0,3.7,2.9,6.7,6.6,6.8v22.2c-4.6-4.4-10.9-7.2-17.8-7.2
						c-11.7,0-21.6,7.8-24.7,18.6H1708z"/>
					<path class="st6" d="M1708.7,734.9c0,0.1,0,0.2,0,0.3c-0.2,0-0.5,0-0.7,0v-1.7C1708.4,733.8,1708.7,734.3,1708.7,734.9z"/>
					<path class="st6" d="M1708,736.6c3.4,0,6.2-2.1,7.3-5.1c0,0,0,0,0,0c1.3,0,2.4,0.8,2.8,1.9c0,0,0.1,0,0.1,0c1.1,0,2,0.9,2,2
						c0,1.1-0.9,2-2,2H1708V736.6z"/>
					<path class="st6" d="M1708.7,735.1c-0.1,0.4-0.3,0.8-0.7,1.1v-1C1708.2,735.2,1708.5,735.2,1708.7,735.1z"/>
					<path class="st6" d="M1708,736.2c0.4-0.2,0.6-0.6,0.7-1.1c2.7-0.3,4.9-2.3,5.5-4.9c0.3,0.4,0.5,0.8,0.6,1.2c0.1,0,0.3,0,0.5,0
						c-1.1,3-3.9,5.1-7.3,5.1V736.2z"/>
					<path class="st6" d="M1708,736.6v0.8h-0.7v-0.9C1707.5,736.5,1707.7,736.6,1708,736.6z"/>
					<path class="st12" d="M1708,777v15h-33c-4.1,0-7.4-3.3-7.4-7.4v-0.1c0-0.6,0.1-1.3,0.2-1.9c0.8-3.2,3.7-5.6,7.2-5.6H1708z"/>
					<path class="st13" d="M1708,762.7V773c-14.7,0-28.4-4-40.1-11.1v-12.4C1679.1,757.8,1693,762.7,1708,762.7z"/>
					<path class="st14" d="M1707.2,737.4h0.7v25.3c-15,0-28.9-4.9-40.1-13.2v-0.8c0-1.9-0.8-3.6-2-4.8c-1.1-1.1-2.7-1.9-4.4-2v-60.2
						h46.5v39.4c-4.3,0-7.7,3.5-7.7,7.7c0,0.2,0,0.3,0,0.5c-1.5,0.3-2.7,1.5-2.9,3.1c-1.1,0-2,0.9-2,2c0,1.1,0.9,2,2,2h6.7
						c0.5,0.6,1.2,0.9,1.9,0.9H1707.2z M1677.8,737.4h10.9c1.1,0,2-0.9,2-2c0-1.1-0.9-2-2-2c0,0-0.1,0-0.1,0
						c-0.4-1.1-1.5-1.9-2.8-1.9c0,0,0,0,0,0c0.3-0.8,0.4-1.7,0.4-2.6c0-4.3-3.5-7.7-7.7-7.7s-7.7,3.5-7.7,7.7c0,0.2,0,0.3,0,0.5
						c-1.5,0.3-2.7,1.5-2.9,3.1c-1.1,0-2,0.9-2,2c0,1.1,0.9,2,2,2h6.7c0.5,0.6,1.2,0.9,1.9,0.9H1677.8z"/>
					<path class="st6" d="M1708,736.2v0.4c-0.3,0-0.5,0-0.7,0v-0.1C1707.5,736.4,1707.8,736.3,1708,736.2z"/>
					<path class="st6" d="M1708,735.2v1c-0.2,0.1-0.5,0.2-0.7,0.2v-1.3C1707.5,735.2,1707.7,735.2,1708,735.2z"/>
					<path class="st6" d="M1708,733.5v1.7c-0.3,0-0.5,0-0.7,0v-1.9C1707.5,733.3,1707.8,733.4,1708,733.5z"/>
					<path class="st10" d="M1708,722.5v6.6c-1,0.7-1.7,1.7-1.9,3c-0.4-0.2-0.8-0.4-1.3-0.4c-0.1,0-0.3,0-0.4,0
						c-0.4-1.2-1.5-2.2-2.8-2.4c0-0.2,0-0.3,0-0.5C1701.6,725.3,1704.5,722.5,1708,722.5z"/>
					<path class="st9" d="M1708,721.1v1.4c-3.5,0-6.4,2.8-6.4,6.4c0,0.2,0,0.3,0,0.5c-0.2,0-0.4-0.1-0.7-0.1c-0.2,0-0.5,0-0.7,0.1
						c0-0.2,0-0.3,0-0.5C1700.3,724.6,1703.7,721.1,1708,721.1z"/>
					<path class="st6" d="M1707.2,736.5L1707.2,736.5c-0.2,0.1-0.3,0-0.5,0h0.4C1707.2,736.5,1707.2,736.5,1707.2,736.5z"/>
					<path class="st6" d="M1707.2,735.1v1.3c0,0-0.1,0-0.1,0h-0.4c-1.2-0.2-2.3-0.6-3.2-1.3c0-0.1,0-0.2,0-0.3
						c0-0.4,0.1-0.9,0.3-1.2C1704.8,734.5,1706,735,1707.2,735.1z"/>
					<path class="st6" d="M1708,729.1v4.4c-0.2-0.1-0.5-0.2-0.7-0.2c0,0-0.1,0-0.1,0c0,0-0.1,0-0.1,0c-0.2-0.5-0.5-0.9-1-1.2
						C1706.3,730.9,1707,729.8,1708,729.1z"/>
					<path class="st6" d="M1706.7,736.5h-2.6c-0.3-0.4-0.5-0.8-0.6-1.3C1704.5,735.8,1705.6,736.3,1706.7,736.5z"/>
					<path class="st6" d="M1703.8,733.6c0.4-0.8,1.3-1.3,2.2-1.3c0-0.1,0-0.2,0-0.2c0.4,0.3,0.8,0.7,1,1.2c0,0,0.1,0,0.1,0
						c0,0,0.1,0,0.1,0v1.9C1706,735,1704.8,734.5,1703.8,733.6z"/>
					<path class="st6" d="M1704.1,736.5h2.6c0.2,0,0.3,0.1,0.5,0.1v0.9h-1.2C1705.3,737.4,1704.6,737,1704.1,736.5z"/>
					<path class="st13" d="M1704.4,731.8c0.1,0,0.3,0,0.4,0c0.5,0,0.9,0.1,1.3,0.4c0,0.1,0,0.2,0,0.2c-1,0-1.8,0.5-2.2,1.3
						c-1.2-1.1-2-2.6-2.2-4.3C1703,729.6,1704,730.5,1704.4,731.8z"/>
					<path class="st13" d="M1704.1,736.5h-6.7c-1.1,0-2-0.9-2-2c0-1.1,0.9-2,2-2c0.2-1.5,1.3-2.8,2.9-3.1c0.2,2.4,1.4,4.5,3.3,5.8
						C1703.6,735.6,1703.8,736.1,1704.1,736.5z"/>
					<path class="st13" d="M1701.7,729.3c0.1,1.7,0.9,3.3,2.2,4.3c-0.2,0.4-0.3,0.8-0.3,1.2c0,0.1,0,0.2,0,0.3
						c-1.9-1.3-3.1-3.4-3.3-5.8c0.2,0,0.5-0.1,0.7-0.1C1701.2,729.3,1701.4,729.3,1701.7,729.3z"/>
					<path class="st15" d="M1668.1,641.3v-1c11.2-8.2,25-13,39.9-13v54.4h-46.5v-33.7c1.8,0,3.4-0.8,4.6-2
						C1667.3,644.9,1668.1,643.2,1668.1,641.3z"/>
					<path class="st12" d="M1667.5,605.5c0-4.1,3.3-7.5,7.5-7.5h33v15.1h-33c-3.1,0-5.8-2-6.9-4.7c-0.1-0.7-0.2-1.4-0.5-2
						c0-0.2,0-0.5,0-0.7V605.5z"/>
					<path class="st9" d="M1686.3,728.8c0,0.9-0.2,1.8-0.4,2.6c-0.2,0-0.3,0-0.5,0c-0.1-0.4-0.4-0.9-0.6-1.2
						c0.1-0.4,0.2-0.9,0.2-1.4c0-3.5-2.8-6.4-6.4-6.4c-3.5,0-6.4,2.8-6.4,6.4c0,0.2,0,0.3,0,0.5c-0.2,0-0.4-0.1-0.7-0.1
						c-0.2,0-0.5,0-0.7,0.1c0-0.2,0-0.3,0-0.5c0-4.3,3.5-7.7,7.7-7.7S1686.3,724.6,1686.3,728.8z"/>
					<path class="st10" d="M1684.9,728.8c0,0.5-0.1,1-0.2,1.4c-0.8-1.1-2.2-1.9-3.7-1.9c-2.2,0-4.1,1.6-4.4,3.7
						c-0.4-0.2-0.8-0.4-1.3-0.4c-0.1,0-0.3,0-0.4,0c-0.4-1.2-1.5-2.2-2.8-2.4c0-0.2,0-0.3,0-0.5c0-3.5,2.8-6.4,6.4-6.4
						C1682.1,722.5,1684.9,725.3,1684.9,728.8z"/>
					<path class="st6" d="M1679.3,734.9c0,0.1,0,0.2,0,0.3c-0.2,0-0.5,0-0.7,0c-0.3,0-0.5,0-0.7,0v-1.9
						C1678.6,733.3,1679.3,734,1679.3,734.9z"/>
					<path class="st6" d="M1679.3,735.1c-0.1,0.7-0.7,1.2-1.4,1.3v-1.3c0.2,0,0.5,0,0.7,0C1678.8,735.2,1679,735.2,1679.3,735.1z"/>
					<path class="st6" d="M1685.8,731.4c-1.1,3-3.9,5.1-7.3,5.1c-0.3,0-0.5,0-0.7,0v-0.1c0.7-0.1,1.3-0.6,1.4-1.3
						c2.7-0.3,4.9-2.3,5.5-4.9c0.3,0.4,0.5,0.8,0.6,1.2C1685.5,731.4,1685.7,731.4,1685.8,731.4z"/>
					<path class="st6" d="M1688.8,737.4h-10.9v-0.9c0.2,0,0.5,0,0.7,0c3.4,0,6.2-2.1,7.3-5.1c0,0,0,0,0,0c1.3,0,2.4,0.8,2.8,1.9
						c0,0,0.1,0,0.1,0c1.1,0,2,0.9,2,2C1690.8,736.5,1689.9,737.4,1688.8,737.4z"/>
					<path class="st16" d="M1677.8,736.5L1677.8,736.5c-0.2,0.1-0.3,0-0.5,0h0.4C1677.7,736.5,1677.8,736.5,1677.8,736.5z"/>
					<path class="st6" d="M1677.8,735.1v1.3c0,0-0.1,0-0.1,0h-0.4c-1.2-0.2-2.3-0.6-3.2-1.3c0-0.1,0-0.2,0-0.3
						c0-0.4,0.1-0.9,0.3-1.2C1675.3,734.5,1676.5,735,1677.8,735.1z"/>
					<path class="st6" d="M1677.8,733.3c0,0-0.1,0-0.1,0c0,0-0.1,0-0.1,0c-0.2-0.5-0.5-0.9-1-1.2c0.4-2.1,2.2-3.7,4.4-3.7
						c1.5,0,2.9,0.7,3.7,1.9c-0.6,2.6-2.8,4.6-5.5,4.9c0-0.1,0-0.2,0-0.3C1679.3,734,1678.6,733.3,1677.8,733.3z"/>
					<path class="st6" d="M1677.3,736.5h-2.6c-0.3-0.4-0.5-0.8-0.6-1.3C1675,735.8,1676.1,736.3,1677.3,736.5z"/>
					<path class="st6" d="M1677.7,733.3c0,0,0.1,0,0.1,0v1.9c-1.3-0.1-2.5-0.7-3.4-1.5c0.4-0.8,1.3-1.3,2.2-1.3c0-0.1,0-0.2,0-0.2
						C1677.1,732.4,1677.4,732.8,1677.7,733.3C1677.6,733.3,1677.7,733.3,1677.7,733.3z"/>
					<path class="st6" d="M1676.6,737.4c-0.8,0-1.5-0.4-1.9-0.9h2.6c0.2,0,0.3,0.1,0.5,0.1v0.9H1676.6z"/>
					<path class="st13" d="M1675,731.8c0.1,0,0.3,0,0.4,0c0.5,0,0.9,0.1,1.3,0.4c0,0.1,0,0.2,0,0.2c-0.9,0-1.8,0.5-2.2,1.3
						c-1.2-1.1-2-2.6-2.2-4.3C1673.5,729.6,1674.6,730.5,1675,731.8z"/>
					<path class="st13" d="M1674.7,736.5h-6.7c-1.1,0-2-0.9-2-2c0-1.1,0.9-2,2-2c0.2-1.5,1.4-2.8,2.9-3.1c0.2,2.4,1.4,4.5,3.3,5.8
						C1674.2,735.6,1674.4,736.1,1674.7,736.5z"/>
					<path class="st13" d="M1672.2,729.3c0.1,1.7,0.9,3.2,2.2,4.3c-0.2,0.4-0.3,0.8-0.3,1.2c0,0.1,0,0.2,0,0.3
						c-1.9-1.3-3.1-3.4-3.3-5.8c0.2,0,0.5-0.1,0.7-0.1C1671.8,729.3,1672,729.3,1672.2,729.3z"/>
					<path class="st6" d="M1708,617c-14.6,0-28.2,4-39.9,11v-19.1c0-0.2,0-0.4,0-0.6c1.1,2.8,3.8,4.7,6.9,4.7h33V617z"/>
					<path class="st6" d="M1667.9,781.1v-19.2c11.7,7,25.4,11.1,40.1,11.1v4h-33c-3.5,0-6.4,2.4-7.2,5.6l-0.1,0
						C1667.8,782.1,1667.9,781.6,1667.9,781.1z"/>
					<path class="st13" d="M1708,627.3c-14.9,0-28.7,4.8-39.9,13V628c11.7-7,25.3-11,39.9-11V627.3z"/>
					<path class="st15" d="M1668.1,640.3v1c0,1.9-0.8,3.6-2,4.8c-1.2,1.2-2.8,1.9-4.6,2v-2.2C1663.6,643.9,1665.8,642,1668.1,640.3z
						"/>
					<path class="st13" d="M1668.1,640.3c-2.3,1.7-4.5,3.5-6.6,5.5v-13.4c2.1-1.6,4.3-3,6.6-4.4V640.3z"/>
					<path class="st6" d="M1661.5,632.4v-30.2c2.7,0.1,5.1,1.8,6.1,4.2c0.1,0.7,0.2,1.4,0.5,2c0,0.2,0,0.4,0,0.6V628
						C1665.8,629.3,1663.6,630.8,1661.5,632.4z"/>
					<path class="st6" d="M1667.9,761.9v19.2c0,0.5-0.1,1-0.2,1.4c-0.6,2.9-3.2,5.2-6.2,5.3v-30.2
						C1663.5,759.1,1665.7,760.6,1667.9,761.9z"/>
					<path class="st13" d="M1667.9,749.5v12.4c-2.2-1.3-4.3-2.8-6.4-4.3v-13.4C1663.5,746.1,1665.6,747.9,1667.9,749.5z"/>
					<path class="st14" d="M1667.9,748.7v0.8c-2.2-1.7-4.4-3.4-6.4-5.4v-2.2c1.7,0.1,3.3,0.8,4.4,2
						C1667.1,745.1,1667.9,746.8,1667.9,748.7z"/>
					<path class="st12" d="M1667.6,606.3c0.3,0.6,0.4,1.3,0.5,2C1667.8,607.7,1667.6,607,1667.6,606.3z"/>
					<path class="st12" d="M1667.6,784.4v0.1c0,4.1,3.3,7.4,7.4,7.4h33v19.1h-40c-3.6,0-6.5-2.9-6.5-6.5v-16.8
						c3.1-0.2,5.6-2.4,6.2-5.3l0.1,0C1667.7,783.1,1667.6,783.7,1667.6,784.4z"/>
					<path class="st12" d="M1661.5,602.2v-16.8c0-3.6,2.9-6.5,6.5-6.5h40V598h-33c-4.1,0-7.5,3.3-7.5,7.5v0.2c0,0.2,0,0.5,0,0.7
						C1666.6,603.9,1664.2,602.2,1661.5,602.2z"/>
					<path class="st6" d="M1661.5,757.6v30.2c-0.1,0-0.2,0-0.4,0c-1.9,0-3.6-0.8-4.8-2c-1.2-1.2-2-2.9-2-4.8l-1.8-31.2
						C1655.4,752.7,1658.3,755.3,1661.5,757.6z"/>
					<path class="st13" d="M1661.5,744.2v13.4c-3.2-2.3-6.1-4.9-8.9-7.7l-0.1-1.2c0-3.2,3.5-5.8,6.9-6.6
						C1660.1,742.8,1660.8,743.5,1661.5,744.2z"/>
					<path class="st14" d="M1661.5,741.9v2.2c-0.7-0.7-1.4-1.4-2.1-2.1c0.6-0.1,1.2-0.2,1.7-0.2
						C1661.3,741.9,1661.4,741.9,1661.5,741.9z"/>
					<path class="st14" d="M1661.5,681.7v60.2c-0.1,0-0.2,0-0.4,0c-0.6,0-1.1,0.1-1.7,0.2c-11.8-12.2-19.1-28.8-19.1-47.1
						c0-4.5,0.4-9,1.3-13.3H1661.5z"/>
					<path class="st15" d="M1641.6,681.7c2.6-13,8.9-24.7,17.8-33.9c0.6,0.2,1.3,0.2,1.9,0.2c0.1,0,0.1,0,0.2,0v33.7H1641.6z"/>
					<path class="st15" d="M1661.5,645.8v2.2c-0.1,0-0.1,0-0.2,0c-0.6,0-1.2-0.1-1.9-0.2C1660.1,647.1,1660.8,646.5,1661.5,645.8z"
						/>
					<path class="st13" d="M1659.4,647.8c-3.3-0.8-6.7-3.4-6.7-6.5l0.1-1.4c2.7-2.7,5.6-5.2,8.7-7.5v13.4
						C1660.8,646.5,1660.1,647.1,1659.4,647.8z"/>
					<path class="st6" d="M1661.5,632.4c-3.1,2.3-6,4.8-8.7,7.5l1.8-31c0-1.9,0.8-3.6,2-4.8c1.2-1.2,2.9-2,4.8-2c0.1,0,0.1,0,0.2,0
						V632.4z"/>
					<path class="st13" d="M1652.7,641.3c0,3.1,3.4,5.8,6.7,6.5c-8.9,9.2-15.2,20.9-17.8,33.9c-0.9,4.3-1.3,8.7-1.3,13.3
						c0,18.3,7.3,34.9,19.1,47.1c-3.3,0.7-6.9,3.4-6.9,6.6l0.1,1.2c-14-14.1-22.6-33.5-22.6-54.9c0-21.5,8.7-41,22.8-55.1
						L1652.7,641.3z"/>
				</g>
				<g>
				</g>
			</g>
		</g>
		<text transform="matrix(1 0 0 1 1661.4888 708.2632)" class="st17 st18 st19">18°</text>
		<text transform="matrix(1 0 0 1 1686.25 654.6255)" class="st17 st18 st20">WED</text>
		<text transform="matrix(1 0 0 1 1670.9985 746.2856)" class="st17 st18 st21">THU</text>
		<text transform="matrix(1 0 0 1 1702.248 746.2856)" class="st17 st18 st21">FRI</text>
		<text transform="matrix(1 0 0 1 1730.3013 746.2856)" class="st17 st18 st21">SAT</text>
	</g>
	<g>
		<g id="XMLID_1_">
			<g>
				<path class="st22" d="M1575.3,803.6v-97.9h77.4c1.3,0,2.3,1,2.3,2.3v93.2c0,1.3-1,2.3-2.3,2.3H1575.3z"/>
				<path class="st22" d="M1652.7,695.9h-77.4v-13.6c0,0,0,0,0,0c23.9,0,43.3-19.4,43.3-43.3c0-12-4.9-22.8-12.7-30.6
					c-7.8-7.8-18.7-12.7-30.6-12.7c0,0,0,0,0,0v-13.6h77.4c1.3,0,2.3,1,2.3,2.3v109.1C1655.1,694.9,1654,695.9,1652.7,695.9z"/>
				<path class="st23" d="M1652.7,705.7h-77.4v-9.8h77.4c1.3,0,2.3-1,2.3-2.3V584.4c0-1.3-1-2.3-2.3-2.3h-77.4v-11.7h87.3v240.7
					c0,1.3-1,2.3-2.3,2.3h-84.9v-9.9h77.4c1.3,0,2.3-1,2.3-2.3V708C1655.1,706.7,1654,705.7,1652.7,705.7z"/>
				<circle class="st12" cx="1624.1" cy="530.4" r="4.2"/>
				<path class="st24" d="M1606,608.4l-30.7,30.7v-43.4c0,0,0,0,0,0C1587.4,595.7,1598.2,600.5,1606,608.4z"/>
				<path class="st25" d="M1610.1,527.4h-34.8v-8.3h72.2c12.9,0,23.3,10.4,23.3,23.3v283.3c0,12.9-10.4,23.3-23.3,23.3h-72.2v-11.6
					h17.7c4,0,7.2-3.2,7.2-7.2s-3.2-7.2-7.2-7.2h-17.7v-9.7h84.9c1.3,0,2.3-1,2.3-2.3V570.4v-24.5c0-1.3-1-2.3-2.3-2.3h-84.9v-10.1
					h34.8c1.3,0,2.3-1,2.3-2.3v-1.3C1612.4,528.5,1611.4,527.4,1610.1,527.4z M1628.3,530.4c0-2.3-1.9-4.2-4.2-4.2
					c-2.3,0-4.2,1.9-4.2,4.2c0,2.3,1.9,4.2,4.2,4.2C1626.4,534.6,1628.3,532.7,1628.3,530.4z"/>
				<path class="st6" d="M1593.1,823.2c4,0,7.2,3.2,7.2,7.2s-3.2,7.2-7.2,7.2h-17.7v-14.3H1593.1z"/>
				<path class="st12" d="M1610.1,533.4h-34.8v-5.9h34.8c1.3,0,2.3,1,2.3,2.3v1.3C1612.4,532.3,1611.4,533.4,1610.1,533.4z"/>
				<path class="st26" d="M1618.7,639c0,23.9-19.4,43.3-43.3,43.3c0,0,0,0,0,0v-43.3l30.7-30.7
					C1613.9,616.2,1618.7,627.1,1618.7,639z"/>
				<path class="st27" d="M1575.3,570.4v-26.9h84.9c1.3,0,2.3,1,2.3,2.3v24.5H1575.3z"/>
				<path class="st13" d="M1575.3,823.2v14.3h-17.7c-4,0-7.2-3.2-7.2-7.2c0-2,0.8-3.8,2.1-5.1c1.3-1.3,3.1-2.1,5.1-2.1H1575.3z"/>
				<path class="st22" d="M1495.7,801.3V708c0-1.3,1-2.3,2.3-2.3h77.3v97.9H1498C1496.7,803.6,1495.7,802.5,1495.7,801.3z"/>
				<path class="st26" d="M1544.7,669.7l30.6-30.6v43.3C1563.4,682.4,1552.6,677.5,1544.7,669.7z"/>
				<path class="st27" d="M1575.3,570.4h-87.3v-24.5c0-1.3,1-2.3,2.3-2.3h84.9V570.4z"/>
				<path class="st25" d="M1575.3,533.4h-34.8c-1.3,0-2.3-1-2.3-2.3v-1.3c0-1.3,1-2.3,2.3-2.3h34.8V533.4z"/>
				<path class="st22" d="M1575.3,695.9H1498c-1.3,0-2.3-1-2.3-2.3V584.4c0-1.3,1-2.3,2.3-2.3h77.3v13.6
					c-23.9,0-43.3,19.4-43.3,43.3c0,12,4.9,22.8,12.7,30.6c7.8,7.8,18.7,12.7,30.6,12.7V695.9z"/>
				<path class="st28" d="M1575.3,639.1l-30.6,30.6c-7.8-7.8-12.7-18.7-12.7-30.6c0-23.9,19.4-43.3,43.3-43.3V639.1z"/>
				<path class="st23" d="M1498,695.9h77.3v9.8H1498c-1.3,0-2.3,1-2.3,2.3v93.2c0,1.3,1,2.3,2.3,2.3h77.3v9.9h-84.9
					c-1.3,0-2.3-1-2.3-2.3V570.4h87.3v11.7H1498c-1.3,0-2.3,1-2.3,2.3v109.1C1495.7,694.9,1496.7,695.9,1498,695.9z"/>
				<path class="st5" d="M1575.3,527.4h-34.8c-1.3,0-2.3,1-2.3,2.3v1.3c0,1.3,1,2.3,2.3,2.3h34.8v10.1h-84.9c-1.3,0-2.3,1-2.3,2.3
					v24.5v240.7c0,1.3,1,2.3,2.3,2.3h84.9v9.7h-17.7c-2,0-3.8,0.8-5.1,2.1c-1.3,1.3-2.1,3.1-2.1,5.1c0,4,3.2,7.2,7.2,7.2h17.7v11.6
					h-72.2c-12.9,0-23.3-10.4-23.3-23.3V542.4c0-12.9,10.4-23.3,23.3-23.3h72.2V527.4z"/>
			</g>
			<g>
			</g>
		</g>
	</g>
	<g>
		<path class="st5" d="M1589.3,944.1c0,8.4-6.8,15.3-15.3,15.3h-497.1c-8.4,0-15.3-6.8-15.3-15.3V628.3c0-8.4,6.8-15.3,15.3-15.3
			H1574c8.4,0,15.3,6.8,15.3,15.3V944.1z"/>
		<path class="st25" d="M1325.6,613.1h248.5c4.2,0,8,1.7,10.8,4.5c2.8,2.8,4.5,6.6,4.5,10.8v157.9v157.9c0,4.2-1.7,8-4.5,10.8
			c-2.8,2.8-6.6,4.5-10.8,4.5h-248.5"/>
		<path class="st23" d="M1564.7,929.4c0,7.6-6.2,13.8-13.8,13.8h-450.7c-7.6,0-13.8-6.2-13.8-13.8V643.1c0-7.6,6.2-13.8,13.8-13.8
			h450.7c7.6,0,13.8,6.2,13.8,13.8V929.4z"/>
		<g>
			<path class="st27" d="M1564.7,631.7c0-3.1-2.6-5.7-5.7-5.7h-467c-3.1,0-5.7,2.6-5.7,5.7v15.9c0,3.1,2.6,5.7,5.7,5.7h467
				c3.1,0,5.7-2.6,5.7-5.7V631.7z"/>
		</g>
		<rect x="1086.3" y="639.8" class="st27" width="478.4" height="24.7"/>
		<path class="st22" d="M1549.8,780.1c0,10.1-9.6,18.3-21.5,18.3h-405.4c-11.9,0-21.5-8.2-21.5-18.3v-85.9
			c0-10.1,9.6-18.3,21.5-18.3h405.4c11.9,0,21.5,8.2,21.5,18.3V780.1z"/>
		<path class="st22" d="M1545.7,910.5c0,10.1-9.4,18.3-21,18.3h-165.8c-11.6,0-21-8.2-21-18.3v-74.7c0-10.1,9.4-18.3,21-18.3h165.8
			c11.6,0,21,8.2,21,18.3V910.5z"/>
		<path class="st22" d="M1319.2,910.5c0,10.1-9.8,18.3-22,18.3h-173.9c-12.2,0-22-8.2-22-18.3v-74.7c0-10.1,9.9-18.3,22-18.3h173.9
			c12.2,0,22,8.2,22,18.3V910.5z"/>
		<circle class="st28" cx="1208.2" cy="876.7" r="41.8"/>
		<path class="st24" d="M1208.2,834.9c23.1,0,41.8,18.7,41.8,41.8c0,23.1-18.7,41.8-41.8,41.8"/>
		<path class="st26" d="M1237.7,847.2c16.3,16.3,16.3,42.8,0,59.1c-16.3,16.3-42.8,16.3-59.1,0"/>
		<circle class="st29" cx="1441.2" cy="876.7" r="41.8"/>
		<path class="st30" d="M1441.2,918.6c-23.1,0-41.8-18.7-41.8-41.8c0-23.1,18.7-41.8,41.8-41.8"/>
		<path class="st27" d="M1411.6,906.3c-16.3-16.3-16.3-42.8,0-59.1c16.3-16.3,42.8-16.3,59.1,0"/>
	</g>
	<g id="XMLID_20_">
		<g>
			<path class="st13" d="M1348,1018.6v3.1c0,14.5-11.7,26.2-26.2,26.2H968v-1v-38.4h52.5c4.8,0,8.7-3.9,8.7-8.7v-7.3h250h42.6h17.4
				c4.8,0,8.7,3.9,8.7,8.7V1018.6z"/>
			<path class="st27" d="M1269,636H968v-46.4h292.2c4.8,0,8.7,3.9,8.7,8.7V636z"/>
			<path class="st6" d="M1260.2,589.6H968v-9c3.8,0,6.9-3.1,6.9-6.9c0-3.8-3.1-6.9-6.9-6.9v-16h311.2c14.4,0,26.2,11.7,26.2,26.2
				v389.4c0,14.4-11.7,26.2-26.2,26.2h-250H968v-23.2h292.2c4.8,0,8.7-3.9,8.7-8.7V636v-37.7C1269,593.5,1265.1,589.6,1260.2,589.6z
				"/>
			<path class="st29" d="M1134.3,937.2V882l39-39c10,10,16.2,23.8,16.2,39C1189.5,912.5,1164.8,937.2,1134.3,937.2z"/>
			<path class="st27" d="M1134.3,882v-55.2c15.3,0,29,6.2,39,16.2L1134.3,882z"/>
			<path class="st30" d="M1095.2,921l39-39v55.2C1119,937.2,1105.2,931,1095.2,921z"/>
			<path class="st27" d="M1134.3,826.8V882l-39,39c-10-10-16.2-23.8-16.2-39C1079,851.5,1103.8,826.8,1134.3,826.8z"/>
			<path class="st22" d="M968,795.7v-143h262.6c9.6,0,17.4,7.8,17.4,17.4v108.1c0,9.6-7.8,17.4-17.4,17.4H968z"/>
			<path class="st22" d="M1020.5,827.9c0-9.6,7.8-17.4,17.4-17.4h192.7c9.6,0,17.4,7.8,17.4,17.4V936c0,9.6-7.8,17.4-17.4,17.4
				h-192.7c-9.6,0-17.4-7.8-17.4-17.4V827.9z M1173.3,842.9c-10-10-23.8-16.2-39-16.2c-30.5,0-55.2,24.7-55.2,55.2
				c0,15.3,6.2,29,16.2,39c10,10,23.8,16.2,39,16.2c30.5,0,55.2-24.7,55.2-55.2C1189.5,866.7,1183.3,852.9,1173.3,842.9z"/>
			<path class="st5" d="M1029.2,992.4v7.3c0,4.8-3.9,8.7-8.7,8.7H968v-16H1029.2z"/>
			<path class="st23" d="M1020.5,827.9V936c0,9.6,7.8,17.4,17.4,17.4h192.7c9.6,0,17.4-7.8,17.4-17.4V827.9
				c0-9.6-7.8-17.4-17.4-17.4h-192.7C1028.3,810.5,1020.5,818.3,1020.5,827.9z M968,795.7h262.6c9.6,0,17.4-7.8,17.4-17.4V670.1
				c0-9.6-7.8-17.4-17.4-17.4H968V636h301v324.5c0,4.8-3.9,8.7-8.7,8.7H968v-15.7h20.2c9.6,0,17.4-7.8,17.4-17.4V827.9
				c0-9.6-7.8-17.4-17.4-17.4H968V795.7z"/>
			<path class="st22" d="M968,953.5v-143h20.2c9.6,0,17.4,7.8,17.4,17.4V936c0,9.6-7.8,17.4-17.4,17.4H968z"/>
			<path class="st5" d="M968,566.7c3.8,0,6.9,3.1,6.9,6.9c0,3.8-3.1,6.9-6.9,6.9V566.7z"/>
			<path class="st2" d="M968,1046.8v1H614.2c-14.4,0-26.2-11.7-26.2-26.2v-3.1v-17.4c0-4.8,3.9-8.7,8.7-8.7h17.4h42.6h250v7.3
				c0,4.8,3.9,8.7,8.7,8.7H968V1046.8z"/>
			<path class="st6" d="M968,992.4v16h-52.5c-4.8,0-8.7-3.9-8.7-8.7v-7.3H968z"/>
			<path class="st6" d="M968,566.7v13.8c-3.8,0-6.9-3.1-6.9-6.9C961.1,569.8,964.2,566.7,968,566.7z"/>
			<path class="st26" d="M890.6,882l39-39c10,10,16.2,23.8,16.2,39c0,30.5-24.7,55.2-55.2,55.2V882z"/>
			<path class="st24" d="M929.6,842.9l-39,39v-55.2C905.8,826.8,919.6,832.9,929.6,842.9z"/>
			<path class="st26" d="M890.6,882v55.2c-15.2,0-29-6.2-39-16.2L890.6,882z"/>
			<path class="st28" d="M890.6,826.8V882l-39,39c-10-10-16.2-23.8-16.2-39C835.4,851.5,860.1,826.8,890.6,826.8z"/>
			<path class="st22" d="M968,795.7H792.9c-9.6,0-17.4-7.8-17.4-17.4V670.1c0-9.6,7.8-17.4,17.4-17.4H968V795.7z"/>
			<path class="st22" d="M775.5,827.9c0-9.6,7.8-17.4,17.4-17.4H968v143H792.9c-9.6,0-17.4-7.8-17.4-17.4V827.9z M929.6,842.9
				c-10-10-23.8-16.2-39-16.2c-30.5,0-55.2,24.7-55.2,55.2c0,15.3,6.2,29,16.2,39c10,10,23.8,16.2,39,16.2
				c30.5,0,55.2-24.7,55.2-55.2C945.8,866.7,939.6,852.9,929.6,842.9z"/>
			<path class="st23" d="M792.9,795.7H968v14.8H792.9c-9.6,0-17.4,7.8-17.4,17.4V936c0,9.6,7.8,17.4,17.4,17.4H968v15.7H757.3V636
				H968v16.7H792.9c-9.6,0-17.4,7.8-17.4,17.4v108.1C775.5,787.9,783.3,795.7,792.9,795.7z"/>
			<path class="st31" d="M667.1,636h90.2v333.2h-81.5c-4.8,0-8.7-3.9-8.7-8.7V636z"/>
			<path class="st27" d="M675.8,589.6H968V636H757.3h-90.2v-37.7C667.1,593.5,671,589.6,675.8,589.6z"/>
			<path class="st13" d="M656.8,550.7H968v16c-3.8,0-6.9,3.1-6.9,6.9c0,3.8,3.1,6.9,6.9,6.9v9H675.8c-4.8,0-8.7,3.9-8.7,8.7V636
				v324.5c0,4.8,3.9,8.7,8.7,8.7h81.5H968v23.2h-61.2h-250c-14.5,0-26.2-11.7-26.2-26.2V576.8C630.6,562.4,642.3,550.7,656.8,550.7z
				"/>
		</g>
		<g>
		</g>
	</g>
</g>
</svg>
