<?xml version="1.0" encoding="utf-8"?>
<!-- Generator: Adobe Illustrator 15.0.0, SVG Export Plug-In . SVG Version: 6.00 Build 0)  -->
<!DOCTYPE svg PUBLIC "-//W3C//DTD SVG 1.1//EN" "http://www.w3.org/Graphics/SVG/1.1/DTD/svg11.dtd">
<svg version="1.1" id="Layer_1" xmlns="http://www.w3.org/2000/svg" xmlns:xlink="http://www.w3.org/1999/xlink" x="0px" y="0px"
	 width="343.697px" height="66.387px" viewBox="0 0 343.697 66.387" enable-background="new 0 0 343.697 66.387"
	 xml:space="preserve">
<path fill="#FFFFFF" d="M102.097,43.128l-1.9-1.549c-0.807-0.627-1.66-0.559-2.385,0.164l-0.438,0.426
	c-1.354,1.326-2.755,2.699-5.83,2.699c-4.318,0-7.697-3.658-7.697-8.326c0-4.631,3.41-8.256,7.768-8.256
	c1.904,0,3.899,0.949,5.365,2.572l0.123,0.109c0.34,0.303,0.725,0.646,1.234,0.646c0.348,0,0.688-0.158,1.039-0.479l2.293-2.088
	c0.385-0.299,0.633-0.715,0.701-1.17c0.07-0.467-0.055-0.936-0.359-1.324c-2.771-3.447-6.196-5.123-10.467-5.123
	c-8.193,0-15.116,6.951-15.116,15.182c0,8.293,6.749,15.041,15.046,15.041c4.764,0,8.738-2.156,11.186-6.055
	C103.226,44.788,103.015,43.862,102.097,43.128"/>
<path fill="#FFFFFF" d="M132.105,22.132h-3.648c-0.949,0-1.92,0.203-1.92,1.709l0.006,16.709c-0.168,1.006-2.545,4.318-6.578,4.318
	c-3.469,0-5.379-2.359-5.379-6.643V23.841c0-0.91-0.799-1.709-1.709-1.709h-4c-0.91,0-1.709,0.799-1.709,1.709v14.174
	c0,8.795,4.172,13.639,11.744,13.639c5.012,0,7.936-2.473,9.1-3.562l0.51,1.482c0.305,0.914,0.85,1.379,1.619,1.379h1.965
	c0.91,0,1.707-0.799,1.707-1.709V23.841C133.812,22.931,133.015,22.132,132.105,22.132"/>
<path fill="#FFFFFF" d="M164.341,43.128l-1.9-1.549c-0.805-0.627-1.66-0.559-2.383,0.164l-0.438,0.426
	c-1.354,1.326-2.754,2.699-5.83,2.699c-4.316,0-7.695-3.658-7.695-8.326c0-4.631,3.41-8.256,7.766-8.256
	c1.906,0,3.9,0.949,5.365,2.572l0.123,0.109c0.34,0.303,0.723,0.646,1.234,0.646c0.348,0,0.688-0.158,1.037-0.479l2.293-2.088
	c0.385-0.299,0.635-0.715,0.703-1.17c0.07-0.467-0.057-0.936-0.359-1.324c-2.771-3.447-6.195-5.123-10.467-5.123
	c-8.191,0-15.113,6.951-15.113,15.182c0,8.293,6.748,15.041,15.043,15.041c4.762,0,8.738-2.156,11.184-6.055
	C165.472,44.788,165.261,43.862,164.341,43.128"/>
<path fill="#FFFFFF" d="M194.351,22.132h-3.648c-0.949,0-1.92,0.203-1.92,1.709l0.006,16.709c-0.168,1.006-2.545,4.318-6.578,4.318
	c-3.469,0-5.379-2.359-5.379-6.643V23.841c0-0.91-0.799-1.709-1.709-1.709h-4c-0.91,0-1.709,0.799-1.709,1.709v14.174
	c0,8.795,4.172,13.639,11.744,13.639c5.012,0,7.936-2.473,9.098-3.562l0.512,1.482c0.305,0.914,0.85,1.379,1.619,1.379h1.965
	c0.91,0,1.707-0.799,1.707-1.709V23.841C196.058,22.931,195.261,22.132,194.351,22.132"/>
<path fill="#FFFFFF" d="M237.157,21.431c-5.016,0-8.953,3.225-10.125,4.301c-2.17-2.854-5.23-4.301-9.104-4.301
	c-3.35,0-6.547,1.273-9.09,3.619l-0.6-1.85c-0.305-0.709-0.82-1.068-1.539-1.068h-1.965c-0.91,0-1.707,0.799-1.707,1.709v25.402
	c0,0.91,0.797,1.709,1.707,1.709h3.93c0.91,0,1.709-0.799,1.709-1.709V32.196c0.342-0.746,2.555-3.912,6.572-3.912
	c4.621,0,5.59,3.576,5.59,6.574v14.385c0,0.941,0.768,1.709,1.709,1.709h3.719c0.91,0,1.709-0.799,1.709-1.709V34.718
	c0-1.383-0.066-2.562-0.18-3.238c0.033-0.031,0.068-0.066,0.105-0.104c0.842-0.846,3.082-3.092,6.717-3.092
	c3.514,0,5.449,2.334,5.449,6.574v14.385c0,0.941,0.766,1.709,1.709,1.709h3.93c0.941,0,1.707-0.768,1.707-1.709V35.138
	C249.111,26.3,244.865,21.431,237.157,21.431"/>
<path fill="#FFFFFF" d="M268.751,21.431c-3.008,0-5.316,0.93-6.361,1.363V9.788c0-0.91-0.799-1.709-1.709-1.709h-4.07
	c-0.91,0-1.707,0.799-1.707,1.709v39.455c0,0.91,0.797,1.709,1.707,1.709h2.105c0.754,0,1.344-0.533,1.625-1.469l0.387-1.402
	c1.127,1.084,4.209,3.572,8.725,3.572c7.57,0,13.498-6.637,13.498-15.111S276.714,21.431,268.751,21.431 M275.675,36.542
	c0,4.746-3.037,8.326-7.064,8.326c-4.135,0-6.023-3.395-6.291-3.922V29.737c0.604-0.346,2.773-1.451,5.73-1.451
	C272.396,28.286,275.675,31.835,275.675,36.542"/>
<path fill="#FFFFFF" d="M301.259,21.431c-8.215,0-14.41,6.496-14.41,15.111s6.227,15.111,14.48,15.111
	c4.043,0,8.016-1.346,10.627-3.596c0.439-0.367,0.67-0.738,0.701-1.139c0.041-0.516-0.277-0.943-0.5-1.195l-1.973-2.68
	c-0.303-0.379-0.635-0.561-1.012-0.561c-0.436,0-0.846,0.238-1.381,0.551c-1.135,0.736-3.43,1.975-6.041,1.975
	c-4.336,0-7.273-3.434-7.662-6.758h18.68c0.844,0,1.549-0.658,1.633-1.516c0.076-0.527,0.145-1.455,0.145-1.947
	C314.546,27.173,308.835,21.431,301.259,21.431 M294.466,33.079c0.586-3.209,3.348-5.496,6.723-5.496
	c3.021,0,5.652,2.432,6.045,5.496H294.466z"/>
<path fill="#FFFFFF" d="M338.402,23.015c-0.785-1.168-3.281-1.584-5.354-1.584c-4.391,0-7.021,2.43-8.07,3.658l-0.547-1.691
	c-0.176-0.697-0.875-1.266-1.559-1.266h-2.035c-0.91,0-1.707,0.799-1.707,1.709v25.402c0,0.91,0.797,1.709,1.707,1.709h3.369
	c0.85,0,2.27,0,2.27-1.709V31.522c0.322-0.514,2.168-3.166,5.941-3.166c0.848,0,1.85,0.266,2.232,0.459
	c0.877,0.387,1.785,0.049,2.174-0.811l1.695-3.463C338.743,23.991,338.702,23.464,338.402,23.015"/>
<path fill="#FFFFFF" d="M32.049,42.204c3.787,0,6.855-8.049,6.855-17.979S35.836,6.247,32.049,6.247
	c-3.784,0-6.854,8.049-6.854,17.979S28.265,42.204,32.049,42.204"/>
<path fill="#FFFFFF" d="M32.049,49.702c-4.747,0-8.597,2.527-8.597,5.646c0,3.117,3.85,5.645,8.597,5.645
	c4.75,0,8.598-2.527,8.598-5.645C40.647,52.229,36.799,49.702,32.049,49.702"/>
<path fill="#FFFFFF" d="M8.284,14.575c-3.647,0.988-4.39,9.545-1.658,19.113c2.73,9.568,7.9,16.527,11.548,15.541
	c3.646-0.988,4.39-9.545,1.659-19.113C17.101,20.546,11.931,13.589,8.284,14.575"/>
<path fill="#FFFFFF" d="M44.268,30.116c-2.73,9.568-1.988,18.125,1.658,19.111c3.646,0.988,8.816-5.969,11.548-15.539
	c2.732-9.568,1.99-18.127-1.658-19.113C52.168,13.589,46.998,20.546,44.268,30.116"/>
</svg>
